<svg xmlns="http://www.w3.org/2000/svg" xmlns:xlink="http://www.w3.org/1999/xlink" width="213.599" height="183.463" viewBox="0 0 213.599 183.463">
  <defs>
    <linearGradient id="linear-gradient" x1="0.04" y1="0.525" x2="1" y2="0.525" gradientUnits="objectBoundingBox">
      <stop offset="0" stop-color="#ee611c"/>
      <stop offset="1" stop-color="#ff905a"/>
    </linearGradient>
  </defs>
  <g id="Group_14789" data-name="Group 14789" transform="translate(-54.9 -79.782)">
    <g id="Background_Complete" data-name="Background Complete" transform="translate(185 79.782)">
      <g id="Group_14639" data-name="Group 14639" transform="translate(8.806 50.34)">
        <g id="Group_14636" data-name="Group 14636" transform="translate(0 0.117)">
          <g id="Group_14627" data-name="Group 14627">
            <g id="Group_14620" data-name="Group 14620">
              <g id="Group_14617" data-name="Group 14617" transform="translate(5.34 0.183)">
                <path id="Path_68850" data-name="Path 68850" d="M347.7,175.219l-21.6,10.245,39.36,9.138-14.958-18.74A2.311,2.311,0,0,0,347.7,175.219Z" transform="translate(-326.107 -174.992)" fill="#e0e0e0"/>
              </g>
              <g id="Group_14618" data-name="Group 14618" transform="translate(0 10.656)">
                <path id="Rectangle_767" data-name="Rectangle 767" d="M.37,0H40.176a.37.37,0,0,1,.37.37V22.729a.886.886,0,0,1-.886.886H.886A.886.886,0,0,1,0,22.729V.37A.37.37,0,0,1,.37,0Z" transform="translate(5.34 0) rotate(13.07)" fill="#e0e0e0"/>
              </g>
              <g id="Group_14619" data-name="Group 14619" transform="translate(7.424)">
                <path id="Path_68851" data-name="Path 68851" d="M364.748,194.412l-18.473,6.212-16.251-13.5,2.867-10.807a2.2,2.2,0,0,1,2.638-1.614l29.918,6.946A2.2,2.2,0,0,1,367.1,184.3Z" transform="translate(-330.024 -174.648)" fill="#fff"/>
              </g>
            </g>
            <g id="Group_14621" data-name="Group 14621" transform="translate(0.351 24.043)">
              <path id="Path_68852" data-name="Path 68852" d="M338.881,219.959l-22.108,7.713h0a1.8,1.8,0,0,0,1.349,2.165l36.025,8.358a1.8,1.8,0,0,0,2.165-1.349l.031-.135-15.464-16.268A1.9,1.9,0,0,0,338.881,219.959Z" transform="translate(-316.727 -219.853)" fill="#e0e0e0"/>
            </g>
            <g id="Group_14622" data-name="Group 14622" transform="translate(12.956 5.283)">
              <rect id="Rectangle_768" data-name="Rectangle 768" width="12.017" height="1.227" transform="translate(0.277 0) rotate(13.063)" fill="#e0e0e0"/>
            </g>
            <g id="Group_14623" data-name="Group 14623" transform="translate(12.218 8.312)">
              <rect id="Rectangle_769" data-name="Rectangle 769" width="26.661" height="1.386" transform="matrix(0.974, 0.226, -0.226, 0.974, 0.313, 0)" fill="#f5f5f5"/>
            </g>
            <g id="Group_14624" data-name="Group 14624" transform="translate(11.452 11.612)">
              <rect id="Rectangle_770" data-name="Rectangle 770" width="26.661" height="1.386" transform="matrix(0.974, 0.226, -0.226, 0.974, 0.313, 0)" fill="#f5f5f5"/>
            </g>
            <g id="Group_14625" data-name="Group 14625" transform="translate(11 15.099)">
              <path id="Path_68853" data-name="Path 68853" d="M361.993,209.7l-1.09.354-21.928-4.812-2.226-1.882.044-.323,25.887,6.007-.1.447Z" transform="translate(-336.749 -203.036)" fill="#f5f5f5"/>
            </g>
            <g id="Group_14626" data-name="Group 14626" transform="translate(16.548 20.03)">
              <path id="Path_68854" data-name="Path 68854" d="M359.355,216.556l-9.822-2.279-2.354-1.969,14.679,3.406Z" transform="translate(-347.179 -212.308)" fill="#f5f5f5"/>
            </g>
          </g>
          <g id="Group_14629" data-name="Group 14629" transform="translate(0.241 24.428)">
            <g id="Group_14628" data-name="Group 14628">
              <path id="Path_68855" data-name="Path 68855" d="M337.978,220.579a5.439,5.439,0,0,1-.825.338l-2.285.825c-1.934.686-4.611,1.614-7.574,2.624s-5.651,1.91-7.6,2.548l-2.313.742a5.463,5.463,0,0,1-.859.236,5.533,5.533,0,0,1,.827-.338l2.285-.826c1.934-.685,4.611-1.614,7.574-2.624s5.648-1.909,7.6-2.547l2.314-.742A5.484,5.484,0,0,1,337.978,220.579Z" transform="translate(-316.52 -220.576)" fill="#ebebeb"/>
            </g>
          </g>
          <g id="Group_14631" data-name="Group 14631" transform="translate(25.248 25.445)">
            <g id="Group_14630" data-name="Group 14630">
              <path id="Path_68856" data-name="Path 68856" d="M378.257,237.945c-.055.053-3.4-3.365-7.46-7.632s-7.315-7.771-7.26-7.823,3.395,3.364,7.461,7.632S378.312,237.892,378.257,237.945Z" transform="translate(-363.537 -222.489)" fill="#ebebeb"/>
            </g>
          </g>
          <g id="Group_14633" data-name="Group 14633" transform="translate(25.408 19.459)">
            <g id="Group_14632" data-name="Group 14632">
              <path id="Path_68857" data-name="Path 68857" d="M381.459,211.237a3.717,3.717,0,0,1-.669.3c-.437.178-1.073.425-1.862.723-1.577.6-3.767,1.391-6.2,2.224s-4.652,1.547-6.264,2.041c-.806.247-1.461.441-1.915.567a3.77,3.77,0,0,1-.714.17,3.7,3.7,0,0,1,.681-.273l1.887-.651,6.235-2.117,6.223-2.146,1.891-.64A3.694,3.694,0,0,1,381.459,211.237Z" transform="translate(-363.837 -211.234)" fill="#ebebeb"/>
            </g>
          </g>
          <g id="Group_14635" data-name="Group 14635" transform="translate(5.34 10.655)">
            <g id="Group_14634" data-name="Group 14634">
              <path id="Path_68858" data-name="Path 68858" d="M342.465,208.456a4.912,4.912,0,0,1-.665-.516l-1.759-1.467-5.843-4.8c-2.287-1.869-4.341-3.584-5.8-4.862-.728-.638-1.31-1.163-1.7-1.536a4.864,4.864,0,0,1-.594-.6,4.917,4.917,0,0,1,.665.516l1.759,1.467,5.843,4.8c2.287,1.868,4.34,3.583,5.794,4.861.728.638,1.31,1.163,1.7,1.536A4.862,4.862,0,0,1,342.465,208.456Z" transform="translate(-326.106 -194.681)" fill="#ebebeb"/>
            </g>
          </g>
        </g>
        <g id="Group_14638" data-name="Group 14638" transform="translate(7.423)">
          <g id="Group_14637" data-name="Group 14637">
            <path id="Path_68859" data-name="Path 68859" d="M364.747,194.309a.607.607,0,0,1,.021-.152c.023-.114.052-.26.088-.44.088-.405.21-.969.365-1.686l1.391-6.186.228-1a7.836,7.836,0,0,0,.2-1.035,2.1,2.1,0,0,0-.927-1.847,2.8,2.8,0,0,0-1.081-.39l-1.207-.277-2.521-.579-11.218-2.593-11.216-2.615-2.518-.59a10.851,10.851,0,0,0-1.192-.249,2.063,2.063,0,0,0-1.1.229,2.087,2.087,0,0,0-.8.734,3.324,3.324,0,0,0-.373,1.012q-.285,1.057-.547,2.028c-.7,2.568-1.268,4.653-1.668,6.117-.2.706-.355,1.261-.467,1.659l-.129.43a.622.622,0,0,1-.053.144.633.633,0,0,1,.026-.151l.1-.437.417-1.673c.379-1.47.918-3.562,1.583-6.139l.53-2.033a3.526,3.526,0,0,1,.392-1.076,2.32,2.32,0,0,1,2.1-1.081,10.68,10.68,0,0,1,1.232.248l2.521.579,11.221,2.593,11.213,2.615,2.517.59,1.206.283a3.029,3.029,0,0,1,1.156.43,2.315,2.315,0,0,1,1.012,2.049,7.877,7.877,0,0,1-.215,1.069l-.237,1c-.62,2.589-1.123,4.69-1.477,6.166l-.415,1.673-.115.434A.615.615,0,0,1,364.747,194.309Z" transform="translate(-330.022 -174.428)" fill="#e0e0e0"/>
          </g>
        </g>
      </g>
      <g id="Group_14647" data-name="Group 14647" transform="translate(0)">
        <g id="Group_14640" data-name="Group 14640" transform="translate(0 0)">
          <path id="Path_68860" data-name="Path 68860" d="M299.509,86.631l36.833-6.849,5.5,24.891-38.251,6.461Z" transform="translate(-299.509 -79.782)" fill="#ebebeb"/>
        </g>
        <g id="Group_14642" data-name="Group 14642">
          <g id="Group_14641" data-name="Group 14641">
            <path id="Path_68861" data-name="Path 68861" d="M336.342,79.782a.424.424,0,0,1-.063.1l-.208.289-.821,1.1-3.064,4.008L321.938,98.516l-.071.092-.1-.054-.713-.377-15.26-8.114-4.609-2.486-1.247-.689-.321-.185a.436.436,0,0,1-.1-.072.432.432,0,0,1,.118.047l.334.161,1.271.643,4.651,2.409,15.3,8.041.713.377-.174.038,10.314-13.185,3.133-3.956.861-1.064.229-.272C336.309,79.808,336.338,79.779,336.342,79.782Z" transform="translate(-299.509 -79.782)" fill="#e0e0e0"/>
          </g>
        </g>
        <g id="Group_14644" data-name="Group 14644" transform="translate(4.083 14.725)">
          <g id="Group_14643" data-name="Group 14643">
            <path id="Path_68862" data-name="Path 68862" d="M307.186,124.093c-.064-.041,2.3-3.8,5.29-8.388s5.459-8.28,5.523-8.238-2.3,3.8-5.291,8.389S307.25,124.134,307.186,124.093Z" transform="translate(-307.185 -107.466)" fill="#e0e0e0"/>
          </g>
        </g>
        <g id="Group_14646" data-name="Group 14646" transform="translate(27.117 12.891)">
          <g id="Group_14645" data-name="Group 14645">
            <path id="Path_68863" data-name="Path 68863" d="M365.711,116.019c-.047.06-3.492-2.577-7.694-5.89s-7.571-6.048-7.523-6.108,3.492,2.577,7.7,5.89S365.758,115.959,365.711,116.019Z" transform="translate(-350.493 -104.019)" fill="#e0e0e0"/>
          </g>
        </g>
      </g>
      <g id="Group_14655" data-name="Group 14655" transform="translate(54.846 24.061)">
        <g id="Group_14648" data-name="Group 14648" transform="translate(0 0)">
          <path id="Path_68864" data-name="Path 68864" d="M406.855,125.021l24.426,5.918-3.465,16.746-25.187-6.546Z" transform="translate(-402.629 -125.021)" fill="#f5f5f5"/>
        </g>
        <g id="Group_14650" data-name="Group 14650" transform="translate(4.226)">
          <g id="Group_14649" data-name="Group 14649">
            <path id="Path_68865" data-name="Path 68865" d="M435,130.939a1.486,1.486,0,0,1-.27.174l-.8.453-2.969,1.625-9.9,5.3-.1.055-.072-.092-.333-.427-7.1-9.163-2.128-2.8-.567-.769a1.5,1.5,0,0,1-.183-.28,1.526,1.526,0,0,1,.227.246l.608.737,2.2,2.742,7.167,9.114.333.427-.174-.037,9.939-5.227,3.01-1.548.823-.408A1.39,1.39,0,0,1,435,130.939Z" transform="translate(-410.574 -125.02)" fill="#e0e0e0"/>
          </g>
        </g>
        <g id="Group_14652" data-name="Group 14652" transform="translate(0 8.908)">
          <g id="Group_14651" data-name="Group 14651">
            <path id="Path_68866" data-name="Path 68866" d="M402.629,148.98c-.042-.064,2.429-1.73,5.516-3.72s5.625-3.552,5.667-3.489-2.428,1.73-5.517,3.721S402.67,149.045,402.629,148.98Z" transform="translate(-402.628 -141.769)" fill="#e0e0e0"/>
          </g>
        </g>
        <g id="Group_14654" data-name="Group 14654" transform="translate(19.164 11.143)">
          <g id="Group_14653" data-name="Group 14653">
            <path id="Path_68867" data-name="Path 68867" d="M444.683,157.493c-.068.035-1.471-2.515-3.133-5.7s-2.956-5.79-2.888-5.826,1.471,2.515,3.134,5.7S444.751,157.457,444.683,157.493Z" transform="translate(-438.659 -145.97)" fill="#e0e0e0"/>
          </g>
        </g>
      </g>
    </g>
    <g id="Plant" transform="translate(208.796 191.925)">
      <g id="Group_14676" data-name="Group 14676" transform="translate(0 0)">
        <g id="Group_14659" data-name="Group 14659">
          <g id="Group_14658" data-name="Group 14658">
            <g id="Group_14657" data-name="Group 14657">
              <g id="Group_14656" data-name="Group 14656">
                <path id="Path_68868" data-name="Path 68868" d="M354.116,351.808s.2.066.589.21.969.345,1.745.564a20.671,20.671,0,0,0,6.974.71,28.179,28.179,0,0,0,5.018-.812,31.674,31.674,0,0,0,5.709-1.989,34.9,34.9,0,0,0,11.635-8.892,10.756,10.756,0,0,0,2.128-3.553,5.559,5.559,0,0,0-.2-4.2,4.124,4.124,0,0,0-1.484-1.6,5.339,5.339,0,0,0-2.122-.738,8.444,8.444,0,0,0-4.569.745,16.207,16.207,0,0,1-2.311.82,4.475,4.475,0,0,1-2.508-.063,2.667,2.667,0,0,1-1.809-1.762,3.125,3.125,0,0,1,.5-2.529,4.769,4.769,0,0,1,2.028-1.666,19.362,19.362,0,0,1,2.488-.9,33.416,33.416,0,0,0,9.6-4.909,10.928,10.928,0,0,0,2.056-1.84,3.921,3.921,0,0,0,1.048-2.464,2.43,2.43,0,0,0-.387-1.276,3.037,3.037,0,0,0-.994-.93,6.249,6.249,0,0,0-2.7-.757,15.879,15.879,0,0,1-2.91-.4,3.26,3.26,0,0,1-2.256-1.915,1.748,1.748,0,0,1,.191-1.537,3.834,3.834,0,0,1,1.146-1.017c.832-.543,1.647-1.111,2.441-1.717a39.189,39.189,0,0,0,4.5-4.02,19.4,19.4,0,0,0,3.655-4.857,6.083,6.083,0,0,0,.624-2.94,4.49,4.49,0,0,0-1.151-2.744,5.974,5.974,0,0,0-5.539-1.82,9.767,9.767,0,0,0-5.166,2.988c-2.806,2.952-4.185,6.846-6.486,10.075a16.59,16.59,0,0,1-1.907,2.27,5.312,5.312,0,0,1-1.173.928,1.524,1.524,0,0,1-1.519.055,1.893,1.893,0,0,1-.8-1.288,5.34,5.34,0,0,1-.011-1.472,4.055,4.055,0,0,0-.055-1.382,2.493,2.493,0,0,0-.67-1.159,3.452,3.452,0,0,0-2.466-.973,3.913,3.913,0,0,0-2.438,1.047,6.136,6.136,0,0,0-1.545,2.2,10.007,10.007,0,0,0-.655,2.61c-.113.892-.147,1.789-.177,2.682s-.059,1.782-.088,2.664q-.087,2.646-.172,5.221c-.032.859-.048,1.706-.093,2.558a8.239,8.239,0,0,1-.48,2.5,2.938,2.938,0,0,1-1.739,1.79,3.63,3.63,0,0,1-2.461-.16,9.79,9.79,0,0,1-3.795-2.872,10.452,10.452,0,0,1-1.266-1.956,20.15,20.15,0,0,0-1.047-1.993,3.157,3.157,0,0,0-1.614-1.356,2.905,2.905,0,0,0-2.048.146,4.119,4.119,0,0,0-1.619,1.263,4.726,4.726,0,0,0-.832,1.841,29.306,29.306,0,0,0-.348,3.976c-.089,1.3-.132,2.566-.149,3.8a47.953,47.953,0,0,0,.421,6.943,34.02,34.02,0,0,0,1.288,5.908c.246.9.61,1.715.9,2.513.166.39.35.761.517,1.128a11.621,11.621,0,0,0,.523,1.056,22.419,22.419,0,0,0,4.2,5.618,7.927,7.927,0,0,0,.785.716l.586.5c.314.269.471.412.471.412s-.168-.128-.489-.39l-.6-.489a7.752,7.752,0,0,1-.8-.708,22.136,22.136,0,0,1-4.257-5.608,11.716,11.716,0,0,1-.531-1.057c-.17-.368-.356-.74-.526-1.131-.294-.8-.663-1.618-.914-2.519a34.012,34.012,0,0,1-1.315-5.927,47.915,47.915,0,0,1-.444-6.965c.014-1.236.053-2.507.14-3.81a29.189,29.189,0,0,1,.344-4.007,4.913,4.913,0,0,1,.863-1.92,4.325,4.325,0,0,1,1.7-1.329,3.112,3.112,0,0,1,2.194-.156,3.367,3.367,0,0,1,1.726,1.437,20.135,20.135,0,0,1,1.063,2.013,10.243,10.243,0,0,0,1.244,1.913,9.583,9.583,0,0,0,3.705,2.8,3.4,3.4,0,0,0,2.3.154,2.7,2.7,0,0,0,1.6-1.657,16.381,16.381,0,0,0,.549-4.977q.082-2.574.166-5.221.042-1.324.085-2.665c.029-.894.063-1.8.177-2.706a10.244,10.244,0,0,1,.671-2.678,6.387,6.387,0,0,1,1.61-2.293,4.171,4.171,0,0,1,2.6-1.114,3.709,3.709,0,0,1,2.66,1.049,2.76,2.76,0,0,1,.74,1.28,4.317,4.317,0,0,1,.064,1.468,5.108,5.108,0,0,0,.007,1.4,1.637,1.637,0,0,0,.672,1.111,1.259,1.259,0,0,0,1.256-.062,5.1,5.1,0,0,0,1.109-.883,16.35,16.35,0,0,0,1.875-2.233,57.532,57.532,0,0,0,3.035-5.117,24.3,24.3,0,0,1,3.473-4.993,10.036,10.036,0,0,1,5.316-3.069,6.249,6.249,0,0,1,5.795,1.908,4.773,4.773,0,0,1,1.221,2.91,6.356,6.356,0,0,1-.649,3.073,19.622,19.622,0,0,1-3.707,4.932,39.4,39.4,0,0,1-4.533,4.048c-.8.61-1.623,1.184-2.457,1.728a3.6,3.6,0,0,0-1.069.939,1.474,1.474,0,0,0-.161,1.3,3,3,0,0,0,2.074,1.742,15.714,15.714,0,0,0,2.86.388,6.5,6.5,0,0,1,2.812.8,3.315,3.315,0,0,1,1.08,1.013,2.7,2.7,0,0,1,.428,1.416,4.172,4.172,0,0,1-1.11,2.636,11.177,11.177,0,0,1-2.1,1.882A33.677,33.677,0,0,1,378,326.4a19.175,19.175,0,0,0-2.457.882,4.525,4.525,0,0,0-1.931,1.578,2.885,2.885,0,0,0-.472,2.33,2.429,2.429,0,0,0,1.654,1.6,4.248,4.248,0,0,0,2.379.06,16.134,16.134,0,0,0,2.279-.805,8.658,8.658,0,0,1,4.686-.752,5.55,5.55,0,0,1,2.206.773,4.339,4.339,0,0,1,1.559,1.684,5.767,5.767,0,0,1,.2,4.36,10.952,10.952,0,0,1-2.174,3.616,34.989,34.989,0,0,1-11.719,8.906,31.7,31.7,0,0,1-5.742,1.976,28.1,28.1,0,0,1-5.043.791,20.443,20.443,0,0,1-7-.763c-.774-.229-1.356-.434-1.739-.591S354.116,351.808,354.116,351.808Z" transform="translate(-344.248 -290.628)" fill="#263238"/>
              </g>
            </g>
          </g>
        </g>
        <g id="Group_14675" data-name="Group 14675" transform="translate(2.932 1.73)">
          <g id="Group_14662" data-name="Group 14662" transform="translate(9.908)">
            <g id="Group_14661" data-name="Group 14661">
              <g id="Group_14660" data-name="Group 14660">
                <path id="Path_68869" data-name="Path 68869" d="M368.39,346.839a156.732,156.732,0,0,1,6.866-16.614l2.024-4.262c.668-1.4,1.329-2.783,2.06-4.1a78.217,78.217,0,0,1,4.634-7.319c1.587-2.257,3.174-4.34,4.673-6.277s2.939-3.712,4.317-5.276a62,62,0,0,1,7.042-6.888c.892-.746,1.6-1.3,2.09-1.671l.556-.418a1.268,1.268,0,0,1,.2-.133,1.2,1.2,0,0,1-.175.16l-.537.442c-.473.387-1.171.958-2.05,1.717a65.612,65.612,0,0,0-6.952,6.944c-1.363,1.569-2.784,3.35-4.276,5.289s-3.066,4.029-4.642,6.285a79.116,79.116,0,0,0-4.6,7.3c-.725,1.309-1.38,2.684-2.048,4.085l-2.021,4.261a160.516,160.516,0,0,0-6.877,16.572" transform="translate(-368.39 -293.881)" fill="#263238"/>
              </g>
            </g>
          </g>
          <g id="Group_14665" data-name="Group 14665" transform="translate(19.137 8.653)">
            <g id="Group_14664" data-name="Group 14664">
              <g id="Group_14663" data-name="Group 14663">
                <path id="Path_68870" data-name="Path 68870" d="M387.555,329.471a3.544,3.544,0,0,1-.142-.752c-.073-.487-.156-1.194-.245-2.068-.18-1.749-.346-4.173-.518-6.846s-.372-5.089-.578-6.83c-.1-.871-.189-1.575-.256-2.062a3.5,3.5,0,0,1-.069-.762,3.5,3.5,0,0,1,.191.741c.105.48.229,1.182.358,2.052.264,1.74.5,4.162.673,6.839.164,2.638.312,5.025.424,6.848.056.823.1,1.517.143,2.074A3.483,3.483,0,0,1,387.555,329.471Z" transform="translate(-385.741 -310.151)" fill="#263238"/>
              </g>
            </g>
          </g>
          <g id="Group_14668" data-name="Group 14668" transform="translate(20.951 24.586)">
            <g id="Group_14667" data-name="Group 14667">
              <g id="Group_14666" data-name="Group 14666">
                <path id="Path_68871" data-name="Path 68871" d="M411.777,340.166a4.872,4.872,0,0,1-.9.072c-.578.029-1.415.066-2.448.146-2.066.143-4.913.439-8.039.9-2.774.417-5.468.911-7.96,1.47-1.013.22-1.828.42-2.392.555a4.854,4.854,0,0,1-.885.181,4.861,4.861,0,0,1,.853-.3c.555-.172,1.364-.406,2.373-.656,2.015-.513,4.829-1.1,7.965-1.569a79.285,79.285,0,0,1,8.073-.811c1.038-.051,1.879-.053,2.459-.043A4.755,4.755,0,0,1,411.777,340.166Z" transform="translate(-389.152 -340.107)" fill="#263238"/>
              </g>
            </g>
          </g>
          <g id="Group_14671" data-name="Group 14671" transform="translate(0 23.429)">
            <g id="Group_14670" data-name="Group 14670">
              <g id="Group_14669" data-name="Group 14669">
                <path id="Path_68872" data-name="Path 68872" d="M359.961,367.057a1.165,1.165,0,0,1-.143-.28l-.353-.828c-.3-.72-.714-1.773-1.205-3.081-.984-2.615-2.23-6.271-3.55-10.323s-2.531-7.715-3.459-10.347l-1.108-3.115-.3-.849a1.149,1.149,0,0,1-.083-.3,1.194,1.194,0,0,1,.143.281c.1.223.212.5.353.827.3.72.715,1.773,1.206,3.081.984,2.615,2.23,6.27,3.55,10.324s3.06,8.3,3.987,10.934c.456,1.279.3,1.744.579,2.526l.3.849A1.159,1.159,0,0,1,359.961,367.057Z" transform="translate(-349.761 -337.931)" fill="#263238"/>
              </g>
            </g>
          </g>
          <g id="Group_14674" data-name="Group 14674" transform="translate(10.2 44.087)">
            <g id="Group_14673" data-name="Group 14673">
              <g id="Group_14672" data-name="Group 14672">
                <path id="Path_68873" data-name="Path 68873" d="M399.16,376.775a1.2,1.2,0,0,1-.3.111l-.878.257-3.236.912c-2.733.771-6.495,1.879-10.65,3.108-3.891,1.152-7.506,2.194-10.682,3.019-1.375.358-2.49.636-3.264.812l-.893.2a1.167,1.167,0,0,1-.317.047,1.263,1.263,0,0,1,.3-.111l.878-.256,3.236-.912c2.733-.77,6.5-1.879,10.651-3.109s7.931-2.3,10.68-3.018c1.375-.357,2.49-.636,3.265-.812l.893-.2A1.181,1.181,0,0,1,399.16,376.775Z" transform="translate(-368.939 -376.772)" fill="#263238"/>
              </g>
            </g>
          </g>
        </g>
      </g>
    </g>
    <g id="Character" transform="translate(54.9 95.481)">
      <g id="Group_14678" data-name="Group 14678" transform="translate(103.209)">
        <g id="Group_14677" data-name="Group 14677">
          <path id="Path_68874" data-name="Path 68874" d="M255.243,137.545s-.309-1.48-.826-5.753l-4.7-9.217s1.046-1.928,3.467,2.156a2.326,2.326,0,0,0,4.188-1.84,3.738,3.738,0,0,0-6.733-1.362s-1.506.15-1.681-1.023,3.225-4.082,6.117-3.233a8.786,8.786,0,0,1,3.2,1.806s-.629-9.686.155-9.773,1.882.506,2.476,11.13c0,0,.327-8.385.491-9.454.16-1.035,1.611-1.8,1.789.894.02.3.549,8.539.549,8.539s.94-5.448,1.042-5.884c.269-1.149,1.4-1.03,1.51.495.082,1.152.454,6.077.454,6.077l.705,15.189.095-.01" transform="translate(-248.948 -109.298)" fill="#ffbe9d"/>
        </g>
      </g>
      <g id="Group_14717" data-name="Group 14717" transform="translate(0 22.81)">
        <g id="Group_14679" data-name="Group 14679" transform="translate(9.252)">
          <path id="Path_68875" data-name="Path 68875" d="M187.586,152.638l-17.655-.454-1.759,42.726-19.96-8.813-.031.072c-1.2-.536-2.252-1.013-2.81-1.317-11.037-6.02-18.281-6.75-30.121-2.524h0l-22.693,9.083c-4.39,2.071-15.824,3.978-19.742,22.055l-.518,2.158,18.129,13.027,12.45,32.812,14.916,32.852,34.279-1.114,17.913-22.32-15.2-29.036-9.447-32.515c6.674,4.428,19.064,10.459,33.9,7.314C195.3,213.236,187.586,152.638,187.586,152.638Z" transform="translate(-72.296 -152.184)" fill="#e8505b"/>
        </g>
        <g id="Group_14681" data-name="Group 14681" transform="translate(39.716 84.955)" opacity="0.3">
          <g id="Group_14680" data-name="Group 14680">
            <path id="Path_68876" data-name="Path 68876" d="M129.572,335.932a34.75,34.75,0,0,0,8.723,3.789c1.668.5,3.581.866,5.065-.046s1.713-3.623.059-4.167l14.384-3.246c-1.952-5.619,1.266-12.029,6.134-15.447s10.4-4.39,16.322-4.9l7.175,22.259-23.982,32.709-19.638.57Z" transform="translate(-129.572 -311.913)"/>
          </g>
        </g>
        <g id="Group_14682" data-name="Group 14682" transform="translate(0.106 58.144)">
          <path id="Path_68877" data-name="Path 68877" d="M87.182,281.588s-8.993,19.669-6.936,29.486c1.15,5.487,19.112,10.175,30.555,11.574l-3.428,19.21s-42.531-4.046-50.5-20.892c-4.523-9.558.057-32.974,8.667-59.461Z" transform="translate(-55.098 -261.504)" fill="#e8505b"/>
        </g>
        <g id="Group_14684" data-name="Group 14684" transform="translate(40.841 101.27)">
          <g id="Group_14683" data-name="Group 14683">
            <path id="Path_68878" data-name="Path 68878" d="M164,342.588a1.6,1.6,0,0,1-.306.163l-.9.419c-.781.361-1.924.857-3.345,1.448-2.841,1.183-6.818,2.7-11.291,4.139s-8.594,2.512-11.593,3.2c-1.5.346-2.718.606-3.563.767l-.974.182a1.616,1.616,0,0,1-.343.045,1.663,1.663,0,0,1,.332-.1l.963-.233c.838-.194,2.048-.483,3.54-.853,2.984-.738,7.087-1.843,11.554-3.275s8.445-2.921,11.3-4.057c1.429-.567,2.581-1.036,3.375-1.366l.919-.37A1.653,1.653,0,0,1,164,342.588Z" transform="translate(-131.687 -342.587)" fill="#fff"/>
          </g>
        </g>
        <g id="Group_14686" data-name="Group 14686" transform="translate(10.021 33.308)">
          <g id="Group_14685" data-name="Group 14685">
            <path id="Path_68879" data-name="Path 68879" d="M148.719,214.808c.026.072-16.739,6.15-37.441,13.574S73.767,241.769,73.741,241.7s16.735-6.148,37.444-13.575S148.693,214.737,148.719,214.808Z" transform="translate(-73.741 -214.808)" fill="#fff"/>
          </g>
        </g>
        <g id="Group_14688" data-name="Group 14688" transform="translate(13.689 52.757)">
          <g id="Group_14687" data-name="Group 14687">
            <path id="Path_68880" data-name="Path 68880" d="M94.766,286.8a.421.421,0,0,1,.039-.118l.139-.332.549-1.271c.471-1.106,1.134-2.716,1.809-4.754a36.422,36.422,0,0,0,1.632-7.339,24.581,24.581,0,0,0-.658-9.124,17.961,17.961,0,0,0-4.436-7.928,15.382,15.382,0,0,0-6.358-3.834,13.241,13.241,0,0,0-5-.531l-.79.1c-.228.033-.418.082-.573.11l-.354.066a.452.452,0,0,1-.123.014.384.384,0,0,1,.116-.041l.348-.094c.154-.037.344-.094.572-.137l.793-.123a12.9,12.9,0,0,1,5.072.45,15.406,15.406,0,0,1,6.483,3.841,18.065,18.065,0,0,1,4.523,8.036,24.548,24.548,0,0,1,.644,9.225,35.529,35.529,0,0,1-1.7,7.373c-.7,2.04-1.394,3.642-1.9,4.736-.253.547-.453.969-.6,1.251l-.164.321C94.793,286.764,94.771,286.8,94.766,286.8Z" transform="translate(-80.637 -251.375)" fill="#263238"/>
          </g>
        </g>
        <g id="Group_14690" data-name="Group 14690" transform="translate(70.551 28.876)">
          <g id="Group_14689" data-name="Group 14689">
            <path id="Path_68881" data-name="Path 68881" d="M187.547,206.477a1.486,1.486,0,0,1,.306.134,7.564,7.564,0,0,1,.825.483,11.2,11.2,0,0,1,2.565,2.4,17.289,17.289,0,0,1,2.521,4.561,59.428,59.428,0,0,1,1.848,6.1c1.152,4.351,2.194,8.288,2.959,11.18l.866,3.4c.091.379.164.687.222.927a1.552,1.552,0,0,1,.059.328,1.549,1.549,0,0,1-.113-.314l-.272-.913-.952-3.374-3.037-11.159a63.452,63.452,0,0,0-1.82-6.082,17.634,17.634,0,0,0-2.436-4.533,11.832,11.832,0,0,0-2.472-2.433C187.947,206.7,187.534,206.5,187.547,206.477Z" transform="translate(-187.546 -206.476)" fill="#263238"/>
          </g>
        </g>
        <g id="Group_14692" data-name="Group 14692" transform="translate(5.177 40.314)">
          <g id="Group_14691" data-name="Group 14691">
            <path id="Path_68882" data-name="Path 68882" d="M159.422,227.981s-.078.043-.236.113l-.7.306-2.719,1.151c-2.362,1-5.79,2.415-10.036,4.146-8.49,3.463-20.264,8.137-33.352,13.077S87.351,255.98,78.69,258.988c-4.33,1.5-7.841,2.7-10.273,3.516l-2.8.931-.731.236c-.165.052-.252.071-.252.071s.08-.038.243-.1l.722-.262,2.784-.98,10.243-3.6c8.644-3.055,20.559-7.351,33.652-12.288s24.869-9.583,33.377-13l10.068-4.064,2.739-1.1.715-.28C159.336,228.006,159.422,227.981,159.422,227.981Z" transform="translate(-64.633 -227.981)" fill="#fff"/>
          </g>
        </g>
        <g id="Group_14694" data-name="Group 14694" transform="translate(2.018 61.529)">
          <g id="Group_14693" data-name="Group 14693">
            <path id="Path_68883" data-name="Path 68883" d="M141.069,267.869a1.332,1.332,0,0,1-.2.1l-.607.26-2.344.974c-2.037.844-5,2.032-8.665,3.472-7.337,2.881-17.536,6.7-28.915,10.6s-21.791,7.113-29.355,9.327c-3.782,1.108-6.85,1.981-8.976,2.56l-2.449.665-.639.166a1.39,1.39,0,0,1-.22.048,1.3,1.3,0,0,1,.213-.075l.631-.193,2.434-.715c2.117-.611,5.176-1.512,8.95-2.644,7.548-2.262,17.94-5.513,29.321-9.4s21.581-7.684,28.934-10.517c3.677-1.415,6.647-2.576,8.7-3.389l2.363-.925.617-.234A1.341,1.341,0,0,1,141.069,267.869Z" transform="translate(-58.695 -267.868)" fill="#fff"/>
          </g>
        </g>
        <g id="Group_14696" data-name="Group 14696" transform="translate(89.932 43.116)">
          <g id="Group_14695" data-name="Group 14695">
            <path id="Path_68884" data-name="Path 68884" d="M260.029,233.249a2.319,2.319,0,0,1-.312.266l-.929.723c-.4.314-.9.691-1.5,1.111s-1.255.915-2.017,1.421c-1.5,1.039-3.34,2.213-5.417,3.45s-4.419,2.5-6.923,3.732-4.953,2.275-7.2,3.169c-2.254.878-4.307,1.605-6.051,2.154-.867.29-1.664.511-2.36.718s-1.3.371-1.795.5l-1.141.289a2.333,2.333,0,0,1-.4.082,2.239,2.239,0,0,1,.388-.137l1.126-.339c.49-.141,1.09-.318,1.78-.541s1.482-.454,2.343-.756c1.733-.571,3.775-1.315,6.018-2.2,2.236-.905,4.669-1.965,7.173-3.181s4.828-2.5,6.917-3.7,3.921-2.375,5.437-3.392c.767-.495,1.438-.975,2.037-1.384s1.108-.771,1.521-1.071l.96-.68A2.3,2.3,0,0,1,260.029,233.249Z" transform="translate(-223.985 -233.248)" fill="#fff"/>
          </g>
        </g>
        <g id="Group_14698" data-name="Group 14698" transform="translate(104.895 28.927)">
          <g id="Group_14697" data-name="Group 14697">
            <path id="Path_68885" data-name="Path 68885" d="M274.025,206.573c.028.071-4.854,2.034-10.9,4.383s-10.977,4.2-11,4.126,4.853-2.034,10.9-4.384S274,206.5,274.025,206.573Z" transform="translate(-252.118 -206.571)" fill="#fff"/>
          </g>
        </g>
        <g id="Group_14700" data-name="Group 14700" transform="translate(106.501 15.692)">
          <g id="Group_14699" data-name="Group 14699" transform="translate(0)">
            <path id="Path_68886" data-name="Path 68886" d="M274.368,181.69c.021.073-4.267,1.353-9.576,2.858s-9.632,2.666-9.653,2.592,4.266-1.353,9.577-2.858S274.347,181.616,274.368,181.69Z" transform="translate(-255.139 -181.687)" fill="#fff"/>
          </g>
        </g>
        <g id="Group_14702" data-name="Group 14702" transform="translate(106.209 2.744)">
          <g id="Group_14701" data-name="Group 14701">
            <path id="Path_68887" data-name="Path 68887" d="M273.171,157.347c.016.074-4.131,1.049-9.261,2.177s-9.3,1.981-9.321,1.907,4.129-1.049,9.262-2.178S273.154,157.273,273.171,157.347Z" transform="translate(-254.589 -157.342)" fill="#fff"/>
          </g>
        </g>
        <g id="Group_14704" data-name="Group 14704" transform="translate(34.782 76.171)">
          <g id="Group_14703" data-name="Group 14703">
            <path id="Path_68888" data-name="Path 68888" d="M173.257,295.4c.028.071-11.805,4.8-26.428,10.566s-26.5,10.381-26.532,10.309,11.8-4.8,26.431-10.567S173.229,295.326,173.257,295.4Z" transform="translate(-120.296 -295.396)" fill="#fff"/>
          </g>
        </g>
        <g id="Group_14706" data-name="Group 14706" transform="translate(0 99.587)">
          <g id="Group_14705" data-name="Group 14705">
            <path id="Path_68889" data-name="Path 68889" d="M80.076,339.424a1.023,1.023,0,0,1-.243.119l-.714.291c-.621.248-1.526.592-2.649,1.006-2.245.828-5.366,1.919-8.845,3.029s-6.657,2.026-8.967,2.65c-1.155.312-2.092.555-2.742.713l-.75.176a.136.136,0,1,1-.014-.054l.737-.226,2.717-.8c2.3-.672,5.46-1.618,8.936-2.725s6.6-2.17,8.863-2.95l2.677-.923.732-.242A.971.971,0,0,1,80.076,339.424Z" transform="translate(-54.9 -339.422)" fill="#fff"/>
          </g>
        </g>
        <g id="Group_14708" data-name="Group 14708" transform="translate(5.77 113.064)">
          <g id="Group_14707" data-name="Group 14707">
            <path id="Path_68890" data-name="Path 68890" d="M91.468,364.764c.029.071-5.706,2.466-12.807,5.35s-12.883,5.164-12.912,5.093,5.7-2.466,12.807-5.35S91.439,364.693,91.468,364.764Z" transform="translate(-65.749 -364.762)" fill="#fff"/>
          </g>
        </g>
        <g id="Group_14710" data-name="Group 14710" transform="translate(27.354 116.792)">
          <g id="Group_14709" data-name="Group 14709">
            <path id="Path_68891" data-name="Path 68891" d="M120.9,371.772c.057.05-3.158,3.86-7.182,8.509s-7.333,8.379-7.391,8.328,3.157-3.859,7.182-8.509S120.846,371.722,120.9,371.772Z" transform="translate(-106.33 -371.771)" fill="#fff"/>
          </g>
        </g>
        <g id="Group_14712" data-name="Group 14712" transform="translate(46.572 119.504)">
          <g id="Group_14711" data-name="Group 14711">
            <path id="Path_68892" data-name="Path 68892" d="M148.493,376.87c.072.024-1.218,4.078-2.883,9.055s-3.073,8.991-3.145,8.967,1.218-4.078,2.883-9.056S148.42,376.845,148.493,376.87Z" transform="translate(-142.461 -376.87)" fill="#fff"/>
          </g>
        </g>
        <g id="Group_14714" data-name="Group 14714" transform="translate(108.614 59.653)">
          <g id="Group_14713" data-name="Group 14713" transform="translate(0)">
            <path id="Path_68893" data-name="Path 68893" d="M272.878,264.343c.028.071-3.032,1.336-6.832,2.824s-6.906,2.637-6.934,2.566,3.031-1.336,6.833-2.824S272.85,264.272,272.878,264.343Z" transform="translate(-259.112 -264.34)" fill="#fff"/>
          </g>
        </g>
        <g id="Group_14716" data-name="Group 14716" transform="translate(76.986 37.438)" opacity="0.3">
          <g id="Group_14715" data-name="Group 14715">
            <path id="Path_68894" data-name="Path 68894" d="M199.646,222.573c4.937,13.364,13.815,20.839,26.39,27.537a46.3,46.3,0,0,1-20.733-7.6" transform="translate(-199.646 -222.573)"/>
          </g>
        </g>
      </g>
      <g id="Group_14738" data-name="Group 14738" transform="translate(25.921 93.576)">
        <g id="Group_14731" data-name="Group 14731" transform="translate(0 19.067)">
          <g id="Group_14726" data-name="Group 14726">
            <g id="Group_14723" data-name="Group 14723">
              <g id="Group_14718" data-name="Group 14718" transform="translate(46.596 0)">
                <path id="Path_68895" data-name="Path 68895" d="M191.243,375.29h94.743V334.813a13.729,13.729,0,0,0-13.729-13.729H204.972a13.728,13.728,0,0,0-13.729,13.729Z" transform="translate(-191.243 -321.084)" fill="#455a64"/>
              </g>
              <g id="Group_14719" data-name="Group 14719" transform="translate(46.596)">
                <path id="Rectangle_771" data-name="Rectangle 771" d="M22.64,0h0A10.253,10.253,0,0,1,32.893,10.253V52.9a1.308,1.308,0,0,1-1.308,1.308H1.308A1.308,1.308,0,0,1,0,52.9V22.64A22.64,22.64,0,0,1,22.64,0Z" fill="#455a64"/>
              </g>
              <g id="Group_14720" data-name="Group 14720" transform="translate(46.066 0)">
                <path id="Path_68896" data-name="Path 68896" d="M197.764,375.29V334.754a13.67,13.67,0,0,1,13.67-13.67h-9.748s-11.44,1.521-11.44,15.839.369,38.367.369,38.367Z" transform="translate(-190.246 -321.084)" fill="#263238"/>
              </g>
              <g id="Group_14721" data-name="Group 14721" transform="translate(0 50.355)">
                <rect id="Rectangle_772" data-name="Rectangle 772" width="79.489" height="4.511" fill="#263238"/>
              </g>
              <g id="Group_14722" data-name="Group 14722" transform="translate(79.489 50.355)">
                <rect id="Rectangle_773" data-name="Rectangle 773" width="64.94" height="4.511" fill="#455a64"/>
              </g>
            </g>
            <g id="Group_14725" data-name="Group 14725" transform="translate(63.573 0.01)">
              <g id="Group_14724" data-name="Group 14724">
                <path id="Path_68897" data-name="Path 68897" d="M239.078,373.7a.717.717,0,0,1-.013-.162c0-.122-.006-.279-.011-.474,0-.437-.007-1.047-.013-1.825,0-1.6,0-3.891,0-6.71.03-5.682.072-13.5.118-22.135.023-2.162.069-4.27-.061-6.3a22.846,22.846,0,0,0-1.022-5.736,12.718,12.718,0,0,0-6.1-7.445,13.5,13.5,0,0,0-6.376-1.708,8.817,8.817,0,0,0-1.047.029,5.934,5.934,0,0,0-.765.074l-.47.061a.719.719,0,0,1-.162.012.676.676,0,0,1,.157-.039l.467-.089a5.45,5.45,0,0,1,.766-.1,8.382,8.382,0,0,1,1.055-.055,13.357,13.357,0,0,1,6.469,1.644,12.865,12.865,0,0,1,6.247,7.536,22.966,22.966,0,0,1,1.05,5.8c.135,2.042.09,4.159.067,6.319-.078,8.635-.148,16.452-.2,22.134-.038,2.818-.07,5.1-.091,6.708-.017.777-.03,1.387-.039,1.824l-.017.474A.7.7,0,0,1,239.078,373.7Z" transform="translate(-223.162 -321.103)" fill="#263238"/>
              </g>
            </g>
          </g>
          <g id="Group_14728" data-name="Group 14728" transform="translate(77.904 50.151)">
            <g id="Group_14727" data-name="Group 14727">
              <path id="Path_68898" data-name="Path 68898" d="M316.187,415.468c0,.077-14.793.164-33.039.194s-33.042-.006-33.042-.082,14.79-.164,33.041-.194S316.187,415.392,316.187,415.468Z" transform="translate(-250.106 -415.375)" fill="#263238"/>
            </g>
          </g>
          <g id="Group_14730" data-name="Group 14730" transform="translate(78.382 54.791)">
            <g id="Group_14729" data-name="Group 14729">
              <path id="Path_68899" data-name="Path 68899" d="M316.607,424.354c0,.076-14.687.1-32.8.049s-32.8-.152-32.8-.228,14.684-.1,32.8-.049S316.607,424.277,316.607,424.354Z" transform="translate(-251.005 -424.099)" fill="#263238"/>
            </g>
          </g>
        </g>
        <g id="Group_14735" data-name="Group 14735" transform="translate(92.777 53.209)">
          <g id="Group_14733" data-name="Group 14733">
            <g id="Group_14732" data-name="Group 14732">
              <path id="Path_68900" data-name="Path 68900" d="M320.728,396.342a1.93,1.93,0,0,1-.008-.194c0-.136-.005-.319-.009-.556,0-.5-.011-1.215-.02-2.142-.011-1.871-.026-4.588-.046-8.022l.084.083-42.517.055c.061-.062-.14.138.136-.138v2.787q0,1.387,0,2.752,0,2.732,0,5.375l-.136-.136,30.318.062,8.941.039,2.413.018.629.009c.142,0,.219.008.219.008a1.587,1.587,0,0,1-.2.009l-.612.009-2.383.018-8.909.039-30.413.061h-.136v-.136q0-2.64,0-5.375,0-1.366,0-2.752v-2.787c.278-.277.079-.077.141-.138l42.517.055h.084v.083c-.02,3.455-.036,6.189-.046,8.072-.009.92-.015,1.63-.02,2.124,0,.231-.006.409-.009.541A1.3,1.3,0,0,1,320.728,396.342Z" transform="translate(-278.07 -385.276)" fill="#263238"/>
            </g>
          </g>
          <g id="Group_14734" data-name="Group 14734" transform="translate(13.608 2.962)">
            <path id="Path_68901" data-name="Path 68901" d="M308.694,390.845V395.7H308.2v-3.881L306.3,395.08h-.243l-1.906-3.243v3.86h-.492v-4.852h.423l2.107,3.6,2.086-3.6Z" transform="translate(-303.656 -390.845)" fill="#263238"/>
            <path id="Path_68902" data-name="Path 68902" d="M318.459,394.4h-2.7l-.582,1.3h-.533l2.218-4.852h.506l2.218,4.852h-.54Zm-.187-.417-1.164-2.606-1.165,2.606Z" transform="translate(-308.798 -390.845)" fill="#263238"/>
            <path id="Path_68903" data-name="Path 68903" d="M325.441,390.845h.513V395.7h-.513Z" transform="translate(-313.854 -390.845)" fill="#263238"/>
            <path id="Path_68904" data-name="Path 68904" d="M329.376,390.845h.513v4.408h2.717v.444h-3.23Z" transform="translate(-315.696 -390.845)" fill="#263238"/>
          </g>
        </g>
        <g id="Group_14736" data-name="Group 14736" transform="translate(111.959)">
          <path id="Path_68905" data-name="Path 68905" d="M332.138,293.2v-7.97h-14.9v31.991a6.314,6.314,0,1,0,6.121-.172V293.2Z" transform="translate(-314.135 -285.235)" stroke="rgba(0,0,0,0)" stroke-width="1" fill="url(#linear-gradient)"/>
        </g>
        <g id="Group_14737" data-name="Group 14737" transform="translate(116.013 34.883)">
          <circle id="Ellipse_73" data-name="Ellipse 73" cx="2.438" cy="2.438" r="2.438" fill="#263238"/>
        </g>
      </g>
      <g id="Group_14740" data-name="Group 14740" transform="translate(32.607 53.176)">
        <g id="Group_14739" data-name="Group 14739">
          <path id="Path_68906" data-name="Path 68906" d="M136.461,209.278a1.736,1.736,0,0,1,.14.327,8.509,8.509,0,0,1,.313.972,11.938,11.938,0,0,1,.362,3.732,12.373,12.373,0,0,1-1.546,5.332,11.107,11.107,0,0,1-4.974,4.587,10.471,10.471,0,0,1-6.711.8,11.125,11.125,0,0,1-4.922-2.557,11.4,11.4,0,0,1-2.344-2.926,8.57,8.57,0,0,1-.446-.919,1.664,1.664,0,0,1-.124-.333c.03-.014.209.444.663,1.2a11.949,11.949,0,0,0,2.381,2.833,11.09,11.09,0,0,0,4.847,2.455,10.307,10.307,0,0,0,6.539-.8,10.956,10.956,0,0,0,4.869-4.463,12.386,12.386,0,0,0,1.572-5.218,12.574,12.574,0,0,0-.271-3.694C136.616,209.743,136.429,209.289,136.461,209.278Z" transform="translate(-116.207 -209.278)" fill="#263238"/>
        </g>
      </g>
      <g id="Group_14746" data-name="Group 14746" transform="translate(98.134 135.416)">
        <g id="Group_14741" data-name="Group 14741" transform="translate(0.002)">
          <path id="Path_68907" data-name="Path 68907" d="M239.409,364l7.259-.1-.281,24.662-6.74.269Z" transform="translate(-239.409 -363.901)" fill="#ebebeb"/>
        </g>
        <g id="Group_14743" data-name="Group 14743" transform="translate(0.238 17.76)">
          <g id="Group_14742" data-name="Group 14742">
            <path id="Path_68908" data-name="Path 68908" d="M239.856,404.464a86.161,86.161,0,0,1,6.643-7.17,86.4,86.4,0,0,1-6.643,7.17Z" transform="translate(-239.854 -397.293)" fill="#263238"/>
          </g>
        </g>
        <g id="Group_14745" data-name="Group 14745" transform="translate(0 0.233)">
          <g id="Group_14744" data-name="Group 14744">
            <path id="Path_68909" data-name="Path 68909" d="M246.667,372.412a106.211,106.211,0,0,1-7.26-8.072,106.508,106.508,0,0,1,7.26,8.072Z" transform="translate(-239.406 -364.339)" fill="#263238"/>
          </g>
        </g>
      </g>
      <g id="Group_14774" data-name="Group 14774" transform="translate(5.938 6.014)">
        <g id="Group_14747" data-name="Group 14747" transform="translate(0 0.051)">
          <path id="Path_68910" data-name="Path 68910" d="M103.873,141.976a1.913,1.913,0,0,0,3.234,1.389c1.023-.976.674-2.689.035-3.951s-1.521-2.549-1.333-3.951a9.448,9.448,0,0,1,1.389-2.91,6.1,6.1,0,0,0,.13-5.448,5.133,5.133,0,0,0-4.543-2.847c-1.925.039-3.948,1.243-5.656.356-1.238-.643-1.757-2.151-2.832-3.039-1.67-1.379-4.185-.92-6.155-.02s-3.863,2.189-6.026,2.294c-1.807.088-3.54-.67-5.331-.916a9.48,9.48,0,0,0-8.065,16.022,6.056,6.056,0,0,0,3.656,1.938" transform="translate(-66.064 -120.703)" fill="#263238"/>
        </g>
        <g id="Group_14767" data-name="Group 14767" transform="translate(6.232 8.486)">
          <g id="Group_14762" data-name="Group 14762">
            <g id="Group_14761" data-name="Group 14761">
              <g id="Group_14748" data-name="Group 14748">
                <path id="Path_68911" data-name="Path 68911" d="M111.765,190.046h0a10.77,10.77,0,0,1-13.583-6.826c-1.073-3.22-1.971-5.934-1.971-5.934s-8.566,1.309-11.245-6.823-6.925-26.231-6.925-26.231l-.259-1.094c8.167-7.046,19.785-8.224,29.917-4.524l.52,1.685,10.612,36.863A10.767,10.767,0,0,1,111.765,190.046Z" transform="translate(-77.782 -136.561)" fill="#ffbe9d"/>
              </g>
              <g id="Group_14752" data-name="Group 14752" transform="translate(3.998 16.692)">
                <g id="Group_14749" data-name="Group 14749" transform="translate(1.46 0.707)">
                  <path id="Path_68912" data-name="Path 68912" d="M90.021,171.541a1.255,1.255,0,0,0-.616-2.258,1.148,1.148,0,0,0-.849.232,1.255,1.255,0,0,0,.616,2.259A1.147,1.147,0,0,0,90.021,171.541Z" transform="translate(-88.044 -169.274)" fill="#263238"/>
                </g>
                <g id="Group_14751" data-name="Group 14751">
                  <g id="Group_14750" data-name="Group 14750">
                    <path id="Path_68913" data-name="Path 68913" d="M85.337,169.9c.172.1.779-.769,1.9-1.13,1.118-.377,2.122-.037,2.2-.221.041-.083-.167-.3-.609-.456a2.907,2.907,0,0,0-3.275,1.078C85.295,169.559,85.255,169.856,85.337,169.9Z" transform="translate(-85.299 -167.945)" fill="#263238"/>
                  </g>
                </g>
              </g>
              <g id="Group_14756" data-name="Group 14756" transform="translate(16.23 13.956)">
                <g id="Group_14753" data-name="Group 14753" transform="translate(1.228 0.718)">
                  <path id="Path_68914" data-name="Path 68914" d="M110.908,164.58a1.243,1.243,0,1,0,1.754-.126A1.243,1.243,0,0,0,110.908,164.58Z" transform="translate(-110.605 -164.151)" fill="#263238"/>
                </g>
                <g id="Group_14755" data-name="Group 14755">
                  <g id="Group_14754" data-name="Group 14754">
                    <path id="Path_68915" data-name="Path 68915" d="M108.334,164.754c.172.1.78-.769,1.9-1.13,1.117-.377,2.122-.037,2.2-.221.04-.083-.168-.3-.609-.457a2.908,2.908,0,0,0-3.275,1.078C108.292,164.414,108.253,164.711,108.334,164.754Z" transform="translate(-108.296 -162.8)" fill="#263238"/>
                  </g>
                </g>
              </g>
              <g id="Group_14758" data-name="Group 14758" transform="translate(11.456 16.626)">
                <g id="Group_14757" data-name="Group 14757">
                  <path id="Path_68916" data-name="Path 68916" d="M102.554,177.8a6.02,6.02,0,0,0-1.937.2c-.3.061-.563.072-.643-.088a1.677,1.677,0,0,1-.06-.919l.166-2.565c.2-3.643.221-6.6.047-6.613s-.479,2.935-.679,6.578c-.04.889-.079,1.737-.116,2.568a1.956,1.956,0,0,0,.221,1.263.793.793,0,0,0,.643.3,1.972,1.972,0,0,0,.519-.091A6.051,6.051,0,0,0,102.554,177.8Z" transform="translate(-99.321 -167.821)" fill="#263238"/>
                </g>
              </g>
              <g id="Group_14759" data-name="Group 14759" transform="translate(13.726 26.51)">
                <path id="Path_68917" data-name="Path 68917" d="M108.6,186.591c.952-1.068-2.684,2.732-5.008,3.343a3.258,3.258,0,0,0,4.057.079C109.807,188.348,108.6,186.591,108.6,186.591Z" transform="translate(-103.589 -186.403)" fill="#fff"/>
              </g>
              <g id="Group_14760" data-name="Group 14760" transform="translate(18.379 34.226)">
                <path id="Path_68918" data-name="Path 68918" d="M112.338,207.3a19.9,19.9,0,0,0,9.688-6.386s-.66,6.67-9.039,8.507Z" transform="translate(-112.338 -200.911)" fill="#eb996e"/>
              </g>
            </g>
          </g>
          <g id="Group_14766" data-name="Group 14766" transform="translate(31.641 8.885)">
            <g id="Group_14763" data-name="Group 14763">
              <path id="Path_68919" data-name="Path 68919" d="M137.272,153.691c.163-.112,5.94-2.377,7.135,4.814s-6.465,6.019-6.512,5.815S137.272,153.691,137.272,153.691Z" transform="translate(-137.272 -153.266)" fill="#ffbe9d"/>
            </g>
            <g id="Group_14765" data-name="Group 14765" transform="translate(2.059 2.233)">
              <g id="Group_14764" data-name="Group 14764">
                <path id="Path_68920" data-name="Path 68920" d="M141.492,163.4c.028-.028.14.067.368.129a1.271,1.271,0,0,0,.94-.136,3.142,3.142,0,0,0,.972-3.019,4.182,4.182,0,0,0-.648-1.736,1.467,1.467,0,0,0-1.1-.805.647.647,0,0,0-.683.466c-.063.218.007.353-.029.372-.017.022-.174-.095-.166-.4a.813.813,0,0,1,.208-.5.962.962,0,0,1,.663-.3,1.786,1.786,0,0,1,1.494.9,4.307,4.307,0,0,1,.767,1.932c.195,1.457-.322,2.936-1.312,3.409a1.361,1.361,0,0,1-1.178,0C141.534,163.569,141.469,163.414,141.492,163.4Z" transform="translate(-141.143 -157.465)" fill="#eb996e"/>
              </g>
            </g>
          </g>
        </g>
        <g id="Group_14773" data-name="Group 14773" transform="translate(3.972)">
          <g id="Group_14768" data-name="Group 14768" transform="translate(0 6.12)">
            <path id="Path_68921" data-name="Path 68921" d="M75.125,146.1s5.646,1.014,11.212-4.028c3.652-3.309,8.312-5.73,9.642-5.183s2.786,4.859,7.35,4.958c0,0,2.05,8.429,5.295,7.2s-2.457-13.577-2.457-13.577l-9.156-3.356-9.355.811-9.5,3.836L73.533,141.7Z" transform="translate(-73.533 -132.113)" fill="#263238"/>
          </g>
          <g id="Group_14770" data-name="Group 14770" transform="translate(28.216 2.294)">
            <g id="Group_14769" data-name="Group 14769">
              <path id="Path_68922" data-name="Path 68922" d="M129.639,124.947a5.379,5.379,0,0,0-3.046,2.313,3.225,3.225,0,0,1,3.046-2.313Z" transform="translate(-126.583 -124.919)" fill="#263238"/>
            </g>
          </g>
          <g id="Group_14772" data-name="Group 14772" transform="translate(26.916)">
            <g id="Group_14771" data-name="Group 14771">
              <path id="Path_68923" data-name="Path 68923" d="M124.15,120.607a2.075,2.075,0,0,1,.382.7,7.61,7.61,0,0,1,.53,1.859,5.482,5.482,0,0,1-.049,1.94,1.786,1.786,0,0,1-.277.755,11.1,11.1,0,0,0,.052-2.656C124.563,121.759,124.058,120.641,124.15,120.607Z" transform="translate(-124.139 -120.606)" fill="#263238"/>
            </g>
          </g>
        </g>
      </g>
      <g id="Group_14788" data-name="Group 14788" transform="translate(52.603 128.287)">
        <g id="Group_14782" data-name="Group 14782" transform="translate(6.096)">
          <g id="Group_14775" data-name="Group 14775" transform="translate(0 0)">
            <path id="Path_68924" data-name="Path 68924" d="M165.263,357.346,202.1,350.5l5.5,24.891-38.251,6.461Z" transform="translate(-165.263 -350.497)" fill="#e0e0e0"/>
          </g>
          <g id="Group_14777" data-name="Group 14777">
            <g id="Group_14776" data-name="Group 14776">
              <path id="Path_68925" data-name="Path 68925" d="M202.1,350.5a.408.408,0,0,1-.064.1l-.207.289-.821,1.1-3.064,4.008-10.248,13.237-.071.091-.1-.054-.714-.377-15.259-8.114-4.61-2.486-1.247-.689-.321-.185a.064.064,0,1,1,.013-.025l.334.161,1.271.642,4.651,2.409,15.3,8.042.713.377-.174.037,10.314-13.185,3.133-3.955.861-1.065.229-.272C202.063,350.523,202.092,350.494,202.1,350.5Z" transform="translate(-165.263 -350.497)" fill="#263238"/>
            </g>
          </g>
          <g id="Group_14779" data-name="Group 14779" transform="translate(4.083 14.725)">
            <g id="Group_14778" data-name="Group 14778">
              <path id="Path_68926" data-name="Path 68926" d="M172.94,394.808c-.064-.041,2.3-3.8,5.29-8.388s5.459-8.28,5.523-8.238-2.3,3.8-5.291,8.389S173,394.85,172.94,394.808Z" transform="translate(-172.939 -378.181)" fill="#263238"/>
            </g>
          </g>
          <g id="Group_14781" data-name="Group 14781" transform="translate(27.117 12.891)">
            <g id="Group_14780" data-name="Group 14780">
              <path id="Path_68927" data-name="Path 68927" d="M231.465,386.734c-.047.06-3.493-2.577-7.694-5.89s-7.571-6.048-7.523-6.109,3.492,2.577,7.695,5.891S231.512,386.674,231.465,386.734Z" transform="translate(-216.247 -374.734)" fill="#263238"/>
            </g>
          </g>
        </g>
        <g id="Group_14783" data-name="Group 14783" transform="translate(0 12.405)">
          <path id="Path_68928" data-name="Path 68928" d="M160.864,373.82s.262,4.821,2.582,4.768,10.525-4.518,11.479-2.966-1.565,3.705-1.565,3.705,2.891-.043,1.816,1.686-4.291,9.82-7.264,10.58c-4.277,1.093-14.112,1.52-14.112,1.52l3.039-16.952Z" transform="translate(-153.801 -373.82)" fill="#ffbe9d"/>
        </g>
        <g id="Group_14785" data-name="Group 14785" transform="translate(10.477 16.901)">
          <g id="Group_14784" data-name="Group 14784">
            <path id="Path_68929" data-name="Path 68929" d="M183.477,382.276c.013.014-.1.136-.31.346s-.529.5-.935.844a26.543,26.543,0,0,1-7.1,4.274c-.494.2-.9.344-1.183.431a1.525,1.525,0,0,1-.45.112,15.168,15.168,0,0,1,1.556-.723,35.049,35.049,0,0,0,7.053-4.246A15.252,15.252,0,0,1,183.477,382.276Z" transform="translate(-173.499 -382.274)" fill="#eb996e"/>
          </g>
        </g>
        <g id="Group_14787" data-name="Group 14787" transform="translate(12.216 21.679)">
          <g id="Group_14786" data-name="Group 14786">
            <path id="Path_68930" data-name="Path 68930" d="M184.879,391.257a5.3,5.3,0,0,1-.846,1.215A13.523,13.523,0,0,1,178.2,396.5a5.325,5.325,0,0,1-1.435.363,14.535,14.535,0,0,1,1.365-.546,16.033,16.033,0,0,0,5.752-3.979C184.5,391.68,184.842,391.231,184.879,391.257Z" transform="translate(-176.769 -391.256)" fill="#eb996e"/>
          </g>
        </g>
      </g>
    </g>
  </g>
</svg>
