<svg xmlns="http://www.w3.org/2000/svg" width="258.235" height="174.831" viewBox="0 0 258.235 174.831">
  <g id="Group_15799" data-name="Group 15799" transform="translate(-60.585 -123.467)">
    <g id="Group_15350" data-name="Group 15350" transform="translate(13.918 83.207)">
      <g id="Background_Complete" data-name="Background Complete" transform="translate(35.082 57.317)">
        <g id="Group_14926" data-name="Group 14926" transform="translate(228.682)">
          <rect id="Rectangle_796" data-name="Rectangle 796" width="41.138" height="56.221" fill="#e0e0e0"/>
          <rect id="Rectangle_797" data-name="Rectangle 797" width="38.255" height="53.209" transform="translate(1.431 1.538)" fill="#fafafa"/>
          <rect id="Rectangle_798" data-name="Rectangle 798" width="12.48" height="30.48" transform="translate(14.318 13.994)" fill="#e0e0e0"/>
        </g>
        <g id="Group_14944" data-name="Group 14944" transform="translate(30 92.269)">
          <g id="Group_14928" data-name="Group 14928">
            <g id="Group_14927" data-name="Group 14927">
              <path id="Path_69121" data-name="Path 69121" d="M64.9,347.322c9.658-4.689,13.424-15.647,14.693-25.834.212-1.7.681-3.454.113-5.066s-2.284-2.925-3.912-2.453c-1.35.391-2.13,1.765-3.025,2.861a10.012,10.012,0,0,1-4.569,3.157,3.817,3.817,0,0,1-3.523-.238c-1.33-1.037-1.182-3.08-.9-4.761q.778-4.7,1.556-9.4a15.873,15.873,0,0,0,.287-5.077,5.283,5.283,0,0,0-2.718-4.05,3.2,3.2,0,0,0-4.255,1.5,15.671,15.671,0,0,0-.381,2.087,1.792,1.792,0,0,1-1.3,1.5c-.7.091-1.3-.494-1.724-1.066a22.654,22.654,0,0,1-3.051-6.7,31.428,31.428,0,0,0-2.749-6.852,9.21,9.21,0,0,0-5.613-4.438,5.515,5.515,0,0,0-6.176,2.827c-.988,2.274.013,4.9,1.213,7.06a38.016,38.016,0,0,0,6.632,8.7,3.13,3.13,0,0,1,1.084,1.614c.187,1.18-1.053,2.124-2.219,2.317a19.72,19.72,0,0,1-4-.183,3.83,3.83,0,0,0-3.543,1.459c-.962,1.609.189,3.64,1.416,5.046a32.566,32.566,0,0,0,8.645,7.01,10.983,10.983,0,0,1,3.264,2.282,3.153,3.153,0,0,1,.43,3.725,3.21,3.21,0,0,1-3.658.776,22.724,22.724,0,0,1-3.467-2c-2.173-1.24-5.183-1.556-6.982.206a5.391,5.391,0,0,0-1.316,4.617,12.428,12.428,0,0,0,1.888,4.563,32.753,32.753,0,0,0,12.266,11.9c5.066,2.713,9.955,4.007,15.595,2.906" transform="translate(-35.082 -282.366)" fill="#ebebeb"/>
            </g>
          </g>
          <g id="Group_14931" data-name="Group 14931" transform="translate(5.365 1.035)">
            <g id="Group_14930" data-name="Group 14930">
              <g id="Group_14929" data-name="Group 14929">
                <path id="Path_69122" data-name="Path 69122" d="M71.252,349.351c.271-4.072.453-1.96-.235-7.308a152.6,152.6,0,0,0-3.4-17.18l-1.123-4.457c-.372-1.462-.74-2.913-1.189-4.308a76.161,76.161,0,0,0-3.035-7.874c-1.086-2.458-2.207-4.751-3.271-6.887s-2.1-4.106-3.121-5.862a60.487,60.487,0,0,0-5.418-7.922c-.71-.882-1.284-1.548-1.679-1.994l-.452-.5a1.312,1.312,0,0,0-.162-.165,1.167,1.167,0,0,0,.138.186l.428.525c.379.459.937,1.137,1.632,2.03a63.955,63.955,0,0,1,5.321,7.957c1,1.758,2.023,3.731,3.08,5.867s2.163,4.433,3.24,6.888a77.032,77.032,0,0,1,3.006,7.85c.444,1.389.808,2.827,1.18,4.292l1.121,4.456a156.329,156.329,0,0,1,3.419,17.141c.7,5.33.542,3.2.3,7.256" transform="translate(-48.167 -284.89)" fill="#e0e0e0"/>
              </g>
            </g>
          </g>
          <g id="Group_14934" data-name="Group 14934" transform="translate(22.412 14.1)">
            <g id="Group_14933" data-name="Group 14933">
              <g id="Group_14932" data-name="Group 14932">
                <path id="Path_69123" data-name="Path 69123" d="M89.75,334.873a3.453,3.453,0,0,0,.278-.691c.163-.451.376-1.111.627-1.929.5-1.637,1.124-3.922,1.8-6.443s1.324-4.792,1.852-6.416c.262-.813.48-1.469.637-1.92a3.41,3.41,0,0,0,.21-.715,3.413,3.413,0,0,0-.323.672c-.192.439-.443,1.086-.732,1.893-.584,1.612-1.271,3.881-1.945,6.406l-1.708,6.463c-.21.776-.388,1.43-.531,1.955A3.419,3.419,0,0,0,89.75,334.873Z" transform="translate(-89.746 -316.758)" fill="#e0e0e0"/>
              </g>
            </g>
          </g>
          <g id="Group_14937" data-name="Group 14937" transform="translate(1.433 24.727)">
            <g id="Group_14936" data-name="Group 14936">
              <g id="Group_14935" data-name="Group 14935">
                <path id="Path_69124" data-name="Path 69124" d="M38.576,342.682a4.765,4.765,0,0,0,.846.241c.547.138,1.34.332,2.311.6,1.947.529,4.61,1.354,7.509,2.393s5.48,2.1,7.326,2.919c.926.4,1.667.749,2.18.985a4.706,4.706,0,0,0,.811.342,4.713,4.713,0,0,0-.757-.452c-.5-.27-1.225-.648-2.143-1.079-1.827-.872-4.405-1.966-7.312-3.013a77.211,77.211,0,0,0-7.559-2.311c-.982-.245-1.784-.408-2.341-.508A4.658,4.658,0,0,0,38.576,342.682Z" transform="translate(-38.576 -342.677)" fill="#e0e0e0"/>
              </g>
            </g>
          </g>
          <g id="Group_14940" data-name="Group 14940" transform="translate(28.011 31.859)">
            <g id="Group_14939" data-name="Group 14939">
              <g id="Group_14938" data-name="Group 14938">
                <path id="Path_69125" data-name="Path 69125" d="M103.4,385.96a1.132,1.132,0,0,0,.19-.24l.494-.724c.426-.63,1.02-1.558,1.738-2.714,1.438-2.312,3.323-5.567,5.355-9.187s3.886-6.89,5.273-9.229l1.651-2.765.445-.755a1.137,1.137,0,0,0,.137-.275,1.163,1.163,0,0,0-.191.241l-.494.723c-.426.63-1.02,1.558-1.738,2.715-1.438,2.311-3.323,5.567-5.356,9.188s-3.885,6.889-5.273,9.227c-.679,1.135-1.237,2.07-1.651,2.764l-.445.755A1.122,1.122,0,0,0,103.4,385.96Z" transform="translate(-103.402 -360.071)" fill="#e0e0e0"/>
              </g>
            </g>
          </g>
          <g id="Group_14943" data-name="Group 14943" transform="translate(0.747 43.91)">
            <g id="Group_14942" data-name="Group 14942">
              <g id="Group_14941" data-name="Group 14941">
                <path id="Path_69126" data-name="Path 69126" d="M36.9,389.467a1.172,1.172,0,0,0,.266.163l.79.412,2.919,1.487c2.464,1.256,5.848,3.03,9.584,5s7.14,3.711,9.632,4.916c1.245.6,2.257,1.081,2.964,1.4l.815.359a1.146,1.146,0,0,0,.294.105,1.207,1.207,0,0,0-.266-.164l-.79-.412-2.918-1.487c-2.464-1.256-5.849-3.03-9.586-5s-7.139-3.71-9.63-4.916c-1.246-.6-2.258-1.081-2.965-1.4l-.815-.359A1.161,1.161,0,0,0,36.9,389.467Z" transform="translate(-36.905 -389.465)" fill="#e0e0e0"/>
              </g>
            </g>
          </g>
        </g>
        <g id="Group_14945" data-name="Group 14945" transform="translate(29.577 36.721)">
          <rect id="Rectangle_799" data-name="Rectangle 799" width="32.487" height="31.92" fill="#e0e0e0"/>
          <rect id="Rectangle_800" data-name="Rectangle 800" width="30.21" height="30.21" transform="translate(1.13 0.873)" fill="#fafafa"/>
          <rect id="Rectangle_801" data-name="Rectangle 801" width="9.855" height="9.855" transform="translate(11.307 11.051)" fill="#e0e0e0"/>
        </g>
      </g>
      <g id="Floor" transform="translate(46.667 214.878)">
        <g id="Group_14947" data-name="Group 14947">
          <g id="Group_14946" data-name="Group 14946">
            <path id="Path_69127" data-name="Path 69127" d="M318.9,441.724c0,.059-57.214.107-127.774.107-70.585,0-127.786-.048-127.786-.107s57.2-.107,127.786-.107C261.685,441.617,318.9,441.665,318.9,441.724Z" transform="translate(-63.339 -441.617)" fill="#263238"/>
          </g>
        </g>
      </g>
      <g id="Plants" transform="translate(53.174 167.552)">
        <g id="Group_15264" data-name="Group 15264" transform="translate(30)">
          <path id="Path_69231" data-name="Path 69231" d="M97.26,326.215s2.694.119,1.751,6.083a69.862,69.862,0,0,1-1.927,9.086s-.076,1.338.983,1.2,3.146-1.209,3.99-.131c.875,1.118.343,2.615-1.183,4.273s-4.737,5.414-5.026,5.754-.46,1,.277,1.023,5.856-1.076,6.23,1.384-4.636,6.381-5.176,6.82-.6.749-.441,1.071,1.846-.208,3.315-.46,3.216-.287,3.313,1.151-2.361,5.324-10.277,8.789l-3.773,1.365-3.125-2.546c-6.354-5.855-7.412-10.331-6.851-11.659s2.2-.725,3.507-.008,2.727,1.768,2.984,1.515.3-.565-.068-1.156-3.826-5.931-2.671-8.134,5.638.5,6.341.722.755-.467.6-.876-1.974-5.013-2.876-7.078-.918-3.653.274-4.425c1.149-.744,2.773.945,3.729,1.424s1.319-.811,1.319-.811a69.908,69.908,0,0,1,1.139-9.218c1.052-5.946,3.7-5.148,3.7-5.148" transform="translate(-79.211 -326.186)" fill="#ee611c"/>
          <g id="Group_15257" data-name="Group 15257" transform="translate(10.106 5.372)">
            <path id="Path_69232" data-name="Path 69232" d="M110.967,339.289a.6.6,0,0,1-.011.11c-.012.08-.028.185-.049.32-.048.289-.115.7-.2,1.226l-.761,4.507-2.453,14.879c-.947,5.815-1.829,11.074-2.5,14.875l-.81,4.5-.231,1.221c-.027.133-.048.238-.064.317a.6.6,0,0,1-.027.107.55.55,0,0,1,.011-.11c.012-.08.028-.186.048-.32.048-.289.116-.7.2-1.226.182-1.073.441-2.611.761-4.507.642-3.806,1.507-9.067,2.453-14.882s1.829-11.071,2.5-14.873l.81-4.5.231-1.221.064-.317A.546.546,0,0,1,110.967,339.289Z" transform="translate(-103.859 -339.289)" fill="#263238"/>
          </g>
          <g id="Group_15258" data-name="Group 15258" transform="translate(14.334 17.874)">
            <path id="Path_69233" data-name="Path 69233" d="M119.826,369.783a8.187,8.187,0,0,1-.807.717l-1.975,1.693c-.771.663-1.474,1.258-2,1.674-.261.207-.476.371-.629.479a1.049,1.049,0,0,1-.247.154,9.963,9.963,0,0,1,.8-.718l1.964-1.707c.771-.663,1.482-1.249,2.008-1.66.263-.2.478-.367.631-.475A1.069,1.069,0,0,1,119.826,369.783Z" transform="translate(-114.173 -369.782)" fill="#263238"/>
          </g>
          <g id="Group_15259" data-name="Group 15259" transform="translate(8.771 15.738)">
            <path id="Path_69234" data-name="Path 69234" d="M105.827,371.266c-.034.027-1.23-1.451-2.673-3.3s-2.584-3.368-2.55-3.395,1.23,1.451,2.673,3.3S105.861,371.239,105.827,371.266Z" transform="translate(-100.603 -364.572)" fill="#263238"/>
          </g>
          <g id="Group_15260" data-name="Group 15260" transform="translate(6.901 28.127)">
            <path id="Path_69235" data-name="Path 69235" d="M101.948,399.429a1.076,1.076,0,0,1-.262-.14c-.164-.1-.4-.247-.679-.435-.566-.378-1.336-.92-2.153-1.564s-1.529-1.26-2.029-1.722c-.251-.23-.449-.422-.583-.557a1.083,1.083,0,0,1-.2-.222,8.913,8.913,0,0,1,.854.7c.518.44,1.237,1.043,2.053,1.682s1.571,1.2,2.12,1.6A8.77,8.77,0,0,1,101.948,399.429Z" transform="translate(-96.043 -394.789)" fill="#263238"/>
          </g>
          <g id="Group_15261" data-name="Group 15261" transform="translate(12.794 29.836)">
            <path id="Path_69236" data-name="Path 69236" d="M116.757,398.959a6.539,6.539,0,0,1-.906.466c-.568.269-1.357.632-2.232,1.023s-1.672.738-2.251.982a6.579,6.579,0,0,1-.951.365,6.628,6.628,0,0,1,.906-.466c.568-.269,1.357-.632,2.232-1.023s1.671-.738,2.251-.982A6.652,6.652,0,0,1,116.757,398.959Z" transform="translate(-110.417 -398.958)" fill="#263238"/>
          </g>
          <g id="Group_15262" data-name="Group 15262" transform="translate(11.084 39.093)">
            <path id="Path_69237" data-name="Path 69237" d="M114.406,421.538a1.528,1.528,0,0,1-.308.168l-.865.4c-.733.335-1.749.787-2.876,1.278s-2.151.928-2.895,1.237l-.884.359a1.542,1.542,0,0,1-.333.112,1.514,1.514,0,0,1,.309-.168l.865-.4c.733-.335,1.749-.788,2.876-1.279s2.15-.928,2.894-1.237l.884-.359A1.541,1.541,0,0,1,114.406,421.538Z" transform="translate(-106.246 -421.536)" fill="#263238"/>
          </g>
          <g id="Group_15263" data-name="Group 15263" transform="translate(3.924 36.423)">
            <path id="Path_69238" data-name="Path 69238" d="M96.113,421.113a1.727,1.727,0,0,1-.32-.2c-.2-.135-.485-.338-.834-.592-.7-.51-1.645-1.235-2.658-2.078s-1.9-1.64-2.531-2.232c-.315-.3-.565-.539-.736-.711a1.743,1.743,0,0,1-.253-.278,1.742,1.742,0,0,1,.294.234l.768.674c.647.57,1.544,1.353,2.557,2.193s1.947,1.578,2.625,2.11l.8.631A1.771,1.771,0,0,1,96.113,421.113Z" transform="translate(-88.781 -415.024)" fill="#263238"/>
          </g>
        </g>
        <g id="Group_15274" data-name="Group 15274" transform="translate(227.837 21.305)">
          <g id="Group_15265" data-name="Group 15265" transform="translate(6.373)">
            <path id="Path_69239" data-name="Path 69239" d="M653.637,378.171a4.885,4.885,0,0,1,2.531,2.867,8.628,8.628,0,0,1,.336,3.884,15.214,15.214,0,0,1-3.26,7.079c-2.122-1.852-2.611-5.084-2.756-6.739-.229-2.615.946-7.482,3.148-7.092" transform="translate(-650.46 -378.149)" fill="#ee611c"/>
          </g>
          <g id="Group_15266" data-name="Group 15266" transform="translate(11.528 12.758)">
            <path id="Path_69240" data-name="Path 69240" d="M663.131,414.522a4.168,4.168,0,0,1,1.347-3.962,5.533,5.533,0,0,1,4.082-1.275,2.331,2.331,0,0,1,1.792.8,1.782,1.782,0,0,1,.027,1.806,3.609,3.609,0,0,1-1.337,1.317c-1.839,1.154-3.831,1.933-5.911,1.309" transform="translate(-663.035 -409.267)" fill="#ee611c"/>
          </g>
          <g id="Group_15268" data-name="Group 15268" transform="translate(8.899 15.247)">
            <g id="Group_15267" data-name="Group 15267">
              <path id="Path_69241" data-name="Path 69241" d="M656.625,425.831a2.956,2.956,0,0,1,.076-.517c.066-.364.153-.835.257-1.4a14.624,14.624,0,0,1,1.444-4.472,8.954,8.954,0,0,1,3.209-3.41,6.06,6.06,0,0,1,1.309-.578,3.637,3.637,0,0,1,.377-.1.381.381,0,0,1,.135-.019,9.537,9.537,0,0,0-1.753.8,9.243,9.243,0,0,0-3.116,3.388,15.756,15.756,0,0,0-1.478,4.409c-.128.586-.233,1.062-.314,1.388A2.766,2.766,0,0,1,656.625,425.831Z" transform="translate(-656.622 -415.337)" fill="#ee611c"/>
            </g>
          </g>
          <g id="Group_15270" data-name="Group 15270" transform="translate(8.876 3.807)">
            <g id="Group_15269" data-name="Group 15269">
              <path id="Path_69242" data-name="Path 69242" d="M656.672,387.434a1.021,1.021,0,0,1,.026.226c.01.168.023.383.039.65.03.564.064,1.381.1,2.391.066,2.02.117,4.811.1,7.895s-.089,5.876-.172,7.895c-.041,1.009-.081,1.826-.116,2.39-.018.267-.033.482-.044.649a1.019,1.019,0,0,1-.028.226,1.106,1.106,0,0,1-.009-.228c0-.168.006-.384.01-.651.014-.588.034-1.4.058-2.392.05-2.019.1-4.809.118-7.891s-.018-5.872-.05-7.891c-.016-.993-.028-1.8-.037-2.392,0-.267,0-.483,0-.651A1.081,1.081,0,0,1,656.672,387.434Z" transform="translate(-656.566 -387.434)" fill="#ee611c"/>
            </g>
          </g>
          <g id="Group_15271" data-name="Group 15271" transform="translate(0 12.057)">
            <path id="Path_69243" data-name="Path 69243" d="M642.869,415.047a9.748,9.748,0,0,0-5.323-7.141,2.055,2.055,0,0,0-2.219-.034,2.019,2.019,0,0,0-.167,2.211,8.328,8.328,0,0,0,7.659,5.171" transform="translate(-634.917 -407.557)" fill="#ee611c"/>
          </g>
          <g id="Group_15273" data-name="Group 15273" transform="translate(2.972 14.796)">
            <g id="Group_15272" data-name="Group 15272">
              <path id="Path_69244" data-name="Path 69244" d="M642.166,414.238a2.474,2.474,0,0,1,.45.2,4.677,4.677,0,0,1,.509.271c.191.119.421.235.648.406a8.589,8.589,0,0,1,.741.558,9.625,9.625,0,0,1,.789.717,10.839,10.839,0,0,1,1.5,1.926,10.63,10.63,0,0,1,.988,2.233,9.247,9.247,0,0,1,.249,1.037,7.935,7.935,0,0,1,.128.92,7.251,7.251,0,0,1,.035.764,4.341,4.341,0,0,1-.017.576,2.477,2.477,0,0,1-.055.488c-.041,0,.031-.7-.093-1.816a8.4,8.4,0,0,0-.147-.9,9.738,9.738,0,0,0-.262-1.016,11.039,11.039,0,0,0-.983-2.188,11.274,11.274,0,0,0-1.463-1.9,10.088,10.088,0,0,0-.765-.718c-.244-.222-.494-.4-.718-.568C642.787,414.565,642.148,414.274,642.166,414.238Z" transform="translate(-642.166 -414.237)" fill="#ee611c"/>
            </g>
          </g>
        </g>
      </g>
    </g>
    <g id="Character" transform="translate(131.898 123.467)">
      <g id="Group_14867" data-name="Group 14867">
        <path id="Path_68974" data-name="Path 68974" d="M251.235,166.919c-.953-.29-2.66,4.844-2.933,3.527s2.818-6.036,1.81-6.3c-1.315-.342-3,5.065-3.18,5.513s-.829.207-.648-.187c.26-.569,2.848-6.6,1.561-6.949-.714-.193-.941,1.121-.941,1.121s-2.006,5.822-2.608,5.638.451-3.645.892-4.786.076-1.793-.583-1.571c-.45.151-1.882,3.613-2.291,4.751s-1.477,4.281-2.211,2.3-2.043-3.221-2.631-3.31a.66.66,0,0,0-.464,1.159,7.676,7.676,0,0,1,1.1,1.816,5.024,5.024,0,0,1,.467,1.641,17.41,17.41,0,0,1,.084,3.441l.015.32-6.351,15.722-7.053-15.461c-2.26-7.508-11.589-7.817-11.589-7.817l-9.246-1c-3.343-1.284-7.077-1.078-9.156.12a10.7,10.7,0,0,0-5.059,7.186c-2.127,10.478-9.549,48-10.161,64.431h.03a51.364,51.364,0,0,0-.847,5.412c-.182,2.848.074,2.868.409,2.832.9-.1.508-5,1.2-3.993s-.217,6.053.72,5.914c1.222-.18.717-5.306.706-5.743s.621-.467.609-.073c-.016.568-.042,6.536,1.159,6.37.666-.092.39-1.272.39-1.272s-.387-5.586.183-5.645.916,3.212.952,4.323.572,1.527,1.045,1.108c.323-.287.294-3.693.233-4.791s-.283-4.107,1.033-2.713,2.853,1.971,3.377,1.838a.6.6,0,0,0-.023-1.134,7,7,0,0,1-1.576-1.135,4.488,4.488,0,0,1-.954-1.179c-.081-.145-.148-.276-.22-.411.2-3.124,2.04-29.96,6.768-48.354l.891-2.293c.925,3.73.373,11.387-1.587,14.694-3.245,5.476-2.988,18.939-2.988,18.939l29.844,1.132s-.232-4.952-.5-11.271l-.661-18.594.077-3.566.138-.372c1.438,2.3,3.244,5.257,5.475,9.021,7.415,12.512,13.672-2.381,13.672-2.381l6.341-17.936a76.477,76.477,0,0,0,4.466-6.992C251.839,167.156,251.59,167.026,251.235,166.919Z" transform="translate(-179.184 -138.291)" fill="#e5baab"/>
        <path id="Path_68975" data-name="Path 68975" d="M220.179,434.539v-4.826l-9.041-.058-.075,7.061.56.04c2.494.154,12.691.61,14.362.115C227.849,436.317,220.179,434.539,220.179,434.539Z" transform="translate(-194.039 -262.778)" fill="#e8505b"/>
        <path id="Path_68976" data-name="Path 68976" d="M226.226,442.2c0,.085-3.382.154-7.553.154s-7.553-.069-7.553-.154,3.381-.155,7.553-.155S226.226,442.118,226.226,442.2Z" transform="translate(-194.066 -268.554)" fill="#263238"/>
        <path id="Path_68977" data-name="Path 68977" d="M228.4,439.871c-.074-.041-.009-.3.185-.553s.429-.381.487-.32-.064.277-.242.509S228.48,439.913,228.4,439.871Z" transform="translate(-202.106 -267.125)" fill="#263238"/>
        <path id="Path_68978" data-name="Path 68978" d="M229.478,440.318c-.079-.03-.037-.321.141-.623s.411-.479.476-.426-.046.3-.21.583S229.558,440.351,229.478,440.318Z" transform="translate(-202.602 -267.254)" fill="#263238"/>
        <path id="Path_68979" data-name="Path 68979" d="M213.945,440.794c-.035.026-.171-.1-.369-.316a5.8,5.8,0,0,0-.8-.76,2.149,2.149,0,0,0-.974-.4c-.271-.036-.45,0-.465-.043s.151-.154.471-.176a1.825,1.825,0,0,1,1.15.371,3.169,3.169,0,0,1,.791.878C213.906,440.6,213.978,440.769,213.945,440.794Z" transform="translate(-194.166 -267.177)" fill="#263238"/>
        <path id="Path_68980" data-name="Path 68980" d="M227.721,438.911c.043.073-.114.245-.372.335s-.488.056-.5-.028.17-.183.4-.264S227.678,438.837,227.721,438.911Z" transform="translate(-201.396 -267.073)" fill="#263238"/>
        <path id="Path_68981" data-name="Path 68981" d="M227.274,437.944c.008.085-.233.158-.538.162s-.548-.062-.542-.147.246-.158.538-.162S227.266,437.859,227.274,437.944Z" transform="translate(-201.09 -266.572)" fill="#263238"/>
        <path id="Path_68982" data-name="Path 68982" d="M237.833,429.191l1.428-4.61-8.618-2.732-2.162,6.722.523.2c2.336.886,11.942,4.339,13.684,4.361C244.633,433.161,237.833,429.191,237.833,429.191Z" transform="translate(-202.156 -259.141)" fill="#e8505b"/>
        <path id="Path_68983" data-name="Path 68983" d="M243.124,438.407c-.025.082-3.276-.853-7.259-2.089s-7.194-2.3-7.169-2.384,3.275.853,7.26,2.089S243.15,438.325,243.124,438.407Z" transform="translate(-202.256 -264.77)" fill="#263238"/>
        <path id="Path_68984" data-name="Path 68984" d="M245.719,436.864c-.059-.06.081-.289.341-.472s.522-.238.56-.162-.143.246-.382.414S245.779,436.927,245.719,436.864Z" transform="translate(-210.182 -265.827)" fill="#263238"/>
        <path id="Path_68985" data-name="Path 68985" d="M246.571,437.6c-.066-.053.06-.318.319-.553s.535-.336.581-.265-.133.275-.373.494S246.638,437.657,246.571,437.6Z" transform="translate(-210.577 -266.09)" fill="#263238"/>
        <path id="Path_68986" data-name="Path 68986" d="M231.8,433.4c-.041.014-.133-.148-.258-.411a5.782,5.782,0,0,0-.539-.963,2.156,2.156,0,0,0-.811-.672c-.249-.114-.43-.131-.431-.178s.191-.1.5-.029a1.826,1.826,0,0,1,.988.695,3.191,3.191,0,0,1,.5,1.072C231.827,433.2,231.844,433.382,231.8,433.4Z" transform="translate(-202.754 -263.456)" fill="#263238"/>
        <path id="Path_68987" data-name="Path 68987" d="M245.478,435.752c.02.082-.182.2-.454.209s-.482-.091-.468-.175.216-.124.457-.134S245.458,435.667,245.478,435.752Z" transform="translate(-209.646 -265.572)" fill="#263238"/>
        <path id="Path_68988" data-name="Path 68988" d="M245.381,434.609c-.018.083-.269.081-.562,0s-.5-.222-.474-.3.282-.078.562,0S245.4,434.525,245.381,434.609Z" transform="translate(-209.547 -264.917)" fill="#263238"/>
        <g id="Group_14860" data-name="Group 14860" transform="translate(22.572 4.365)">
          <path id="Path_68989" data-name="Path 68989" d="M233.206,150.741a40.832,40.832,0,0,1,.4-5.177s3.836-.282,4.19-4.066.4-12.534.4-12.534l-6.854-3.628-7.846,5.557-2.046,4.387,2.608,9.632-.01,4.974Z" transform="translate(-221.452 -125.336)" fill="#e5baab"/>
        </g>
        <g id="Group_14861" data-name="Group 14861" transform="translate(36.926 13.207)">
          <path id="Path_68990" data-name="Path 68990" d="M250.245,142.513c.031-.027-.016-.151-.168-.294a1.289,1.289,0,0,0-1.524-.142c-.175.112-.244.225-.218.258.052.071.453-.175.974-.123a1.477,1.477,0,0,1,.2.031.479.479,0,0,0-.264.408.486.486,0,1,0,.941-.14C250.211,142.52,250.234,142.524,250.245,142.513Z" transform="translate(-248.331 -141.893)" fill="#263238"/>
        </g>
        <g id="Group_14862" data-name="Group 14862" transform="translate(31.134 13.021)">
          <path id="Path_68991" data-name="Path 68991" d="M239.4,142.165c.031-.027-.015-.151-.167-.294a1.289,1.289,0,0,0-1.524-.142c-.176.112-.244.225-.218.257.052.072.453-.175.974-.122a1.5,1.5,0,0,1,.253.045.474.474,0,0,0-.092.829.486.486,0,0,0,.678-.1.479.479,0,0,0,.051-.466C239.374,142.173,239.391,142.174,239.4,142.165Z" transform="translate(-237.486 -141.545)" fill="#263238"/>
        </g>
        <g id="Group_14864" data-name="Group 14864" transform="translate(34.791 13.555)">
          <g id="Group_14863" data-name="Group 14863">
            <path id="Path_68992" data-name="Path 68992" d="M244.334,147.1a3.5,3.5,0,0,1,.858-.08c.133,0,.264-.018.3-.114a.738.738,0,0,0-.061-.424l-.323-1.094a20.466,20.466,0,0,1-.708-2.847,3.45,3.45,0,0,1,.31.8c.165.5.379,1.206.6,1.984l.307,1.1a.845.845,0,0,1,.034.548.325.325,0,0,1-.229.181.862.862,0,0,1-.227.014A3.432,3.432,0,0,1,244.334,147.1Z" transform="translate(-244.334 -142.545)" fill="#263238"/>
          </g>
        </g>
        <g id="Group_14865" data-name="Group 14865" transform="translate(32.997 18.554)">
          <path id="Path_68993" data-name="Path 68993" d="M241.027,151.9a6.811,6.811,0,0,0,2.5.951,1.447,1.447,0,0,1-1.748.436C240.677,152.785,241.027,151.9,241.027,151.9Z" transform="translate(-240.974 -151.905)" fill="#efede9"/>
        </g>
        <g id="Group_14866" data-name="Group 14866" transform="translate(29.757 22.735)">
          <path id="Path_68994" data-name="Path 68994" d="M239.876,161.593a9.471,9.471,0,0,1-4.968-1.858,4.894,4.894,0,0,0,4.856,2.785Z" transform="translate(-234.908 -159.735)" fill="#d78776"/>
        </g>
        <path id="Path_68995" data-name="Path 68995" d="M236.161,119.506a2.31,2.31,0,0,0-2.131-.566,14.388,14.388,0,0,0-2.177.741,3.341,3.341,0,0,1-2.252.135c-.987-.373-1.531-1.425-2.382-2.048a3.145,3.145,0,0,0-4.7,1.2c-.424.9-.514,2.108-1.409,2.545a3.279,3.279,0,0,1-2.323-.248,3.647,3.647,0,0,0-2.184-.076,1.925,1.925,0,0,0-1.36,1.59c-.045.676.361,1.317.339,1.993-.033,1.031-1,1.752-1.888,2.277s-1.888,1.149-2.063,2.165a2.725,2.725,0,0,0,1,2.3,24.822,24.822,0,0,1,1.956,1.732,2.257,2.257,0,0,1,.491,2.414c-.2.387-.58.692-.667,1.121-.146.716.558,1.3,1.191,1.664a5.64,5.64,0,0,0,2.14.834,2.665,2.665,0,0,0,.912-.058c.519,1.519.838,2.8.838,2.8.634,1.032.636-2.333.636-2.333s.309-3.251-.208-4.483c0,0-1.926.746-2.566-2.749a1.585,1.585,0,0,1,3.1-.645l1.647.058s-.192-6.748,3.607-5.584c6.707,2.055,10.3-.106,10.77-5.551l-.021,0A1.416,1.416,0,0,0,236.161,119.506Z" transform="translate(-194.29 -117.161)" fill="#263238"/>
        <path id="Path_68996" data-name="Path 68996" d="M225.569,146.766c-.015-.01-.054.043-.146.092a.564.564,0,0,1-.42.034,1.4,1.4,0,0,1-.72-1.21,1.87,1.87,0,0,1,.108-.816.651.651,0,0,1,.4-.457.286.286,0,0,1,.341.134c.049.088.033.153.05.158s.066-.059.032-.191a.359.359,0,0,0-.139-.194.428.428,0,0,0-.316-.064.792.792,0,0,0-.557.537,1.912,1.912,0,0,0-.14.912,1.463,1.463,0,0,0,.906,1.345.6.6,0,0,0,.509-.116C225.568,146.844,225.58,146.772,225.569,146.766Z" transform="translate(-200.091 -129.783)" fill="#d78776"/>
        <path id="Path_68997" data-name="Path 68997" d="M231.749,258.157l-11.862-.912h0l-17.98-1.457,2.01,96.567,15.609-.2s-.013-1.073-.036-2.96l9.15,2.5s8.919-30.125,11.96-42.491C243.136,298.891,231.749,258.157,231.749,258.157Zm-12.428,76.018c-.238-22.288-.56-57.926-.234-62.563,0,0,8.742,31.1,8.825,33.738C227.962,306.953,223.122,322.354,219.321,334.176Z" transform="translate(-189.773 -181.76)" fill="#263238"/>
        <path id="Path_68998" data-name="Path 68998" d="M234.516,396.9l.169,15.016,2.52.689-.61-22.212Z" transform="translate(-204.968 -244.483)" opacity="0.2"/>
        <path id="Path_68999" data-name="Path 68999" d="M233.709,273.875c-.049-.028.359-.657.708-1.792a15.293,15.293,0,0,0,.562-4.587c-.019-1.819-.135-3.479-.093-4.683.014-.6.051-1.088.094-1.423a1.616,1.616,0,0,1,.1-.515c.048,0-.008.743.022,1.937.014,1.194.164,2.841.184,4.682a13.62,13.62,0,0,1-.664,4.657,7.188,7.188,0,0,1-.605,1.3A1.522,1.522,0,0,1,233.709,273.875Z" transform="translate(-204.59 -184.13)" fill="#455a64"/>
        <path id="Path_69000" data-name="Path 69000" d="M230.091,262.145c-.01-.014.058-.095.231-.164a1.12,1.12,0,0,1,.777,0,1.092,1.092,0,0,1,.737.9,1.183,1.183,0,0,1-2.063.962,1.086,1.086,0,0,1-.211-1.145,1.115,1.115,0,0,1,.5-.593c.165-.085.271-.084.274-.067a1.464,1.464,0,0,0-.57.729.871.871,0,0,0,.209.878.908.908,0,0,0,1.574-.735.877.877,0,0,0-.536-.728A1.479,1.479,0,0,0,230.091,262.145Z" transform="translate(-202.623 -184.614)" fill="#455a64"/>
        <path id="Path_69001" data-name="Path 69001" d="M254.7,266.178a2.216,2.216,0,0,1-1.107.429,4.155,4.155,0,0,1-4.659-2.678,2.212,2.212,0,0,1-.186-1.172c.053-.007.1.444.389,1.089a4.262,4.262,0,0,0,4.426,2.544C254.271,266.316,254.684,266.128,254.7,266.178Z" transform="translate(-211.592 -185.007)" fill="#455a64"/>
        <path id="Path_69002" data-name="Path 69002" d="M208.912,258.3a1.053,1.053,0,0,1,.152.407,4.469,4.469,0,0,1,.124,1.181,5.144,5.144,0,0,1-5.06,5.081,4.452,4.452,0,0,1-1.181-.12,1.051,1.051,0,0,1-.409-.15,13.573,13.573,0,0,0,1.578.051,5.173,5.173,0,0,0,4.853-4.873A13.658,13.658,0,0,0,208.912,258.3Z" transform="translate(-190.067 -182.931)" fill="#455a64"/>
        <path id="Path_69003" data-name="Path 69003" d="M221.451,429.233c0,.085-3.491.154-7.8.154s-7.8-.069-7.8-.154,3.491-.154,7.8-.154S221.451,429.148,221.451,429.233Z" transform="translate(-191.613 -262.51)" fill="#455a64"/>
        <path id="Path_69004" data-name="Path 69004" d="M209.688,429.368" transform="translate(-193.398 -262.645)" fill="#263238"/>
        <path id="Path_69005" data-name="Path 69005" d="M208.987,355.557c-.085,0-.328-19.044-.542-42.533s-.318-42.539-.232-42.54.328,19.04.542,42.537S209.072,355.556,208.987,355.557Z" transform="translate(-192.697 -188.608)" fill="#455a64"/>
        <path id="Path_69006" data-name="Path 69006" d="M235.268,350.367a.818.818,0,0,1,.04-.179l.147-.517.594-1.981c.536-1.737,1.3-4.215,2.24-7.268.959-3.071,2.1-6.718,3.359-10.767.636-2.026,1.3-4.151,1.994-6.354l1.057-3.361c.168-.563.386-1.153.515-1.706a8.153,8.153,0,0,0-.229-1.748c-.508-2.387-1.157-4.693-1.773-6.917s-1.25-4.362-1.853-6.4c-1.208-4.07-2.326-7.727-3.269-10.8l-2.24-7.268-.6-1.979c-.062-.214-.112-.383-.15-.517a.778.778,0,0,1-.041-.178.823.823,0,0,1,.07.169c.046.13.105.3.179.507.156.468.376,1.125.657,1.961l2.334,7.239c.97,3.062,2.109,6.712,3.333,10.779.611,2.034,1.243,4.172,1.871,6.4s1.272,4.53,1.785,6.938c.061.3.122.6.165.908a4.342,4.342,0,0,1,.059.462,1.956,1.956,0,0,1,.005.492c-.144.618-.352,1.161-.523,1.739l-1.062,3.36c-.7,2.2-1.37,4.327-2.011,6.352l-3.424,10.75c-.98,3.041-1.776,5.509-2.334,7.239l-.649,1.964-.176.508A.847.847,0,0,1,235.268,350.367Z" transform="translate(-205.22 -194.175)" fill="#455a64"/>
        <path id="Path_69007" data-name="Path 69007" d="M234.807,422.866a8.749,8.749,0,0,1,1.428.456l3.572,1.248,3.573,1.246a8.291,8.291,0,0,1,1.462.577,7.615,7.615,0,0,1-1.529-.37c-.932-.27-2.21-.674-3.608-1.163s-2.65-.967-3.547-1.335A5.558,5.558,0,0,1,234.807,422.866Z" transform="translate(-205.103 -259.612)" fill="#455a64"/>
        <path id="Path_69008" data-name="Path 69008" d="M218.061,339.175a.823.823,0,0,1,.234-.188,2.574,2.574,0,0,1,.8-.329,2.705,2.705,0,0,1,1.37.033,2.813,2.813,0,0,1,1.481,1.051,3.564,3.564,0,0,1,.587,2.118c0,.79-.05,1.613-.078,2.489a17.853,17.853,0,0,1-.222,2.756,3.808,3.808,0,0,1-.556,1.394,2.311,2.311,0,0,1-1.261.931,3.017,3.017,0,0,1-2.852-.832,4.584,4.584,0,0,1-1.178-2.53,11.568,11.568,0,0,1,.351-4.656,6.374,6.374,0,0,1,.671-1.677,2.15,2.15,0,0,1,1.036-.9,1.483,1.483,0,0,1,.862-.081.607.607,0,0,1,.278.115,1.606,1.606,0,0,0-1.094.076,2.057,2.057,0,0,0-.935.875,6.43,6.43,0,0,0-.607,1.643,11.687,11.687,0,0,0-.28,4.553,4.326,4.326,0,0,0,1.109,2.361,2.727,2.727,0,0,0,2.553.75,2,2,0,0,0,1.094-.809,3.546,3.546,0,0,0,.514-1.282,18.27,18.27,0,0,0,.233-2.705c.036-.871.1-1.708.106-2.474a3.371,3.371,0,0,0-.509-1.995,2.616,2.616,0,0,0-2.648-1.092A3.831,3.831,0,0,0,218.061,339.175Z" transform="translate(-196.471 -220.341)" fill="#455a64"/>
        <path id="Path_69009" data-name="Path 69009" d="M256.426,348.012a28.435,28.435,0,0,1-5.9.443,28.434,28.434,0,0,1,5.9-.443Z" transform="translate(-212.426 -224.712)" fill="#455a64"/>
        <path id="Path_69010" data-name="Path 69010" d="M255.819,350.2a17.164,17.164,0,0,1-4.419-1.277,17.156,17.156,0,0,1,4.419,1.277Z" transform="translate(-212.835 -225.153)" fill="#455a64"/>
        <path id="Path_69011" data-name="Path 69011" d="M269.2,341.91a.64.64,0,0,1,.241.128,1.7,1.7,0,0,1,.509.6,5.958,5.958,0,0,1,.413,2.822,10.6,10.6,0,0,1-.748,4.173,5.991,5.991,0,0,1-1.46,2.07,3.021,3.021,0,0,1-1.181.7,1.493,1.493,0,0,1-.745.022,1.221,1.221,0,0,1-.643-.416,2.881,2.881,0,0,1-.508-1.324,11.312,11.312,0,0,1-.174-1.323,11.733,11.733,0,0,1,.106-2.515,11.259,11.259,0,0,1,1.419-4,3,3,0,0,1,1.156-1.179,1.513,1.513,0,0,1,1.244-.061,1.114,1.114,0,0,1,.6.512.577.577,0,0,1,.07.265c-.015,0-.034-.089-.124-.234a1.1,1.1,0,0,0-.586-.43,1.4,1.4,0,0,0-1.123.1,2.871,2.871,0,0,0-1.048,1.138,11.4,11.4,0,0,0-1.326,3.926,11.784,11.784,0,0,0-.085,2.452,11.4,11.4,0,0,0,.174,1.286,2.623,2.623,0,0,0,.444,1.185.97.97,0,0,0,1.069.294,2.725,2.725,0,0,0,1.061-.634,5.762,5.762,0,0,0,1.4-1.959,10.715,10.715,0,0,0,.79-4.061,6.187,6.187,0,0,0-.3-2.763A2.22,2.22,0,0,0,269.2,341.91Z" transform="translate(-219.115 -221.703)" fill="#455a64"/>
        <path id="Path_69012" data-name="Path 69012" d="M289.7,158.143l3.56,15.453,8.334-1.8-2.913-15.854Z" transform="translate(-230.685 -135.231)" fill="#263238"/>
        <path id="Path_69013" data-name="Path 69013" d="M291.552,159.953l2.728,12.37,7.231-1.783-2.585-12.428Z" transform="translate(-231.546 -136.244)" fill="#fff"/>
        <path id="Path_69014" data-name="Path 69014" d="M304.075,184.375a.767.767,0,1,1-.767-.767A.767.767,0,0,1,304.075,184.375Z" transform="translate(-236.666 -148.125)" fill="#455a64"/>
        <path id="Path_69015" data-name="Path 69015" d="M298.363,158.424l-3.3.743.01.047,3.3-.743Z" transform="translate(-233.18 -136.389)" fill="#455a64"/>
        <rect id="Rectangle_780" data-name="Rectangle 780" width="6.53" height="5.212" transform="translate(60.626 24.37) rotate(-12.663)" fill="#f0f0f0"/>
        <path id="Path_69016" data-name="Path 69016" d="M295.173,172.032l.483,1.81,6.252-1.428-.442-1.97Z" transform="translate(-233.233 -141.99)" fill="#e0e0e0"/>
        <path id="Path_69017" data-name="Path 69017" d="M296.471,176.885l.572,2.751,6.179-1.545-.592-2.624Z" transform="translate(-233.838 -144.331)" fill="#ebebeb"/>
        <path id="Path_69018" data-name="Path 69018" d="M209.931,211.135c-.167.93-.42,2.342-.717,4,3.647.152,8.034.346,12.755.566,4.983.231,9.592.456,13.354.649l-.039-4.04c-3.721-.155-8.246-.355-13.13-.582C217.658,211.518,213.469,211.314,209.931,211.135Z" transform="translate(-193.178 -160.952)" fill="#e8505b"/>
        <path id="Path_69019" data-name="Path 69019" d="M199.312,178.477a30.221,30.221,0,0,0-1.839,4.033c3.978.139,11.361.451,19.819.843,7.523.349,14.2.684,18.379.915a35.066,35.066,0,0,0-1.955-4.18c-4.154-.164-9.9-.413-16.24-.708C210.078,179.037,203.5,178.708,199.312,178.477Z" transform="translate(-187.706 -145.734)" fill="#e8505b"/>
        <path id="Path_69020" data-name="Path 69020" d="M242.729,171.844a5.954,5.954,0,0,1-.918.946c2.851.135,5.525.266,7.929.387A28.671,28.671,0,0,0,242.729,171.844Z" transform="translate(-208.367 -142.643)" fill="#e8505b"/>
        <path id="Path_69021" data-name="Path 69021" d="M220.235,258.909l20.447,3.233-.022-2.315c-3.969-.162-9.061-.386-14.614-.643C224.038,259.091,222.091,259,220.235,258.909Z" transform="translate(-198.313 -183.214)" fill="#e8505b"/>
        <path id="Path_69022" data-name="Path 69022" d="M258.877,215.446l1.551-2.016-2.362-.1Z" transform="translate(-215.942 -161.975)" fill="#e8505b"/>
        <path id="Path_69023" data-name="Path 69023" d="M203.781,242.979c-.325,1.469-.649,2.872-.916,4.014,4.065.164,9.447.4,15.35.673,5.415.252,10.389.5,14.312.7l-.038-4.05c-3.889-.16-8.777-.375-14.089-.621C212.843,243.435,207.749,243.185,203.781,242.979Z" transform="translate(-190.219 -175.79)" fill="#e8505b"/>
        <path id="Path_69024" data-name="Path 69024" d="M202.251,250.922c-.348,1.482-.588,2.467-.588,2.467l7.489,1.392c2.562.113,5.343.238,8.254.373,5.546.257,10.633.507,14.6.713l-.034-3.559c-3.927-.161-8.907-.38-14.329-.631C211.717,251.4,206.32,251.136,202.251,250.922Z" transform="translate(-189.659 -179.492)" fill="#e8505b"/>
        <path id="Path_69025" data-name="Path 69025" d="M205.522,235.027c-.253,1.28-.547,2.666-.844,4.01,3.964.162,9.043.384,14.581.641,5.306.247,10.187.486,14.072.686l-.038-4.048c-3.849-.159-8.647-.37-13.85-.611C214.205,235.462,209.382,235.226,205.522,235.027Z" transform="translate(-191.064 -172.085)" fill="#e8505b"/>
        <path id="Path_69026" data-name="Path 69026" d="M194.007,194.205c-.45,1.658-.767,3.118-.968,4.136,3.014.078,11.627.433,21.79.905,7.681.356,14.475.7,18.635.93l2.158-2.808s-.14-.475-.387-1.238c-3.869-.131-11.473-.451-20.222-.857C205.617,194.837,197.549,194.424,194.007,194.205Z" transform="translate(-185.64 -153.063)" fill="#e8505b"/>
        <path id="Path_69027" data-name="Path 69027" d="M192.786,202.129c-.17.873-.249,1.4-.249,1.4l9.836,2.229-.166.924c3.532.15,7.71.334,12.19.543,6.059.281,11.566.553,15.665.769l3.034-3.946c-4.174-.155-10.912-.443-18.515-.8C204.4,202.775,195.782,202.33,192.786,202.129Z" transform="translate(-185.406 -156.755)" fill="#e8505b"/>
        <path id="Path_69028" data-name="Path 69028" d="M208.5,219.1c-.222,1.242-.466,2.607-.714,4,3.755.156,8.349.359,13.316.589,5.09.235,9.79.465,13.593.661l-.039-4.043c-3.765-.156-8.38-.36-13.37-.591C216.556,219.5,212.158,219.286,208.5,219.1Z" transform="translate(-192.514 -164.663)" fill="#e8505b"/>
        <path id="Path_69029" data-name="Path 69029" d="M196.222,186.314c-.521,1.4-.956,2.8-1.309,4.092,3.561.111,11.615.447,20.988.882,8.706.4,16.277.789,20.159,1.017-.343-1.054-.869-2.588-1.506-4.2-4.178-.155-10.894-.443-18.468-.795C207.591,186.92,200.184,186.545,196.222,186.314Z" transform="translate(-186.514 -149.385)" fill="#e8505b"/>
        <path id="Path_69030" data-name="Path 69030" d="M207.074,227.064c-.147.829-.3,1.667-.442,2.492-.085.478-.18.988-.284,1.517,3.856.159,8.667.371,13.888.613,5.2.241,9.988.475,13.833.673l-.038-4.045c-3.808-.158-8.515-.364-13.61-.6C215.439,227.482,210.834,227.257,207.074,227.064Z" transform="translate(-191.842 -168.374)" fill="#e8505b"/>
        <path id="Path_69031" data-name="Path 69031" d="M218.76,170.608a12.208,12.208,0,0,1-2.1-1.789s-5.2-2.284-9.264-.077a7.881,7.881,0,0,0-1.726,1.3C209.165,170.182,213.71,170.378,218.76,170.608Z" transform="translate(-191.524 -140.749)" fill="#e8505b"/>
        <path id="Path_69032" data-name="Path 69032" d="M203.337,172.414a15.179,15.179,0,0,0-2.227,3.052c4.2.159,10.732.438,18.076.78,6.273.291,11.954.571,16.094.791a7.715,7.715,0,0,0-1.744-2.193,9.271,9.271,0,0,0-1.982-1.1c-2.7-.114-5.787-.249-9.1-.4-1.808,1.2-3.768.639-5.287-.245C211.807,172.847,206.984,172.607,203.337,172.414Z" transform="translate(-189.401 -142.908)" fill="#e8505b"/>
        <path id="Path_69033" data-name="Path 69033" d="M201.02,178.13c-.035.061-.069.123-.1.185,4.191.231,10.766.56,18.165.9,6.344.295,12.086.544,16.24.708-.044-.076-.088-.151-.132-.225-4.139-.22-9.821-.5-16.094-.791C211.752,178.568,205.219,178.289,201.02,178.13Z" transform="translate(-189.311 -145.572)" fill="#263238"/>
        <path id="Path_69034" data-name="Path 69034" d="M249.4,174c-2.4-.121-5.077-.252-7.929-.387a4.665,4.665,0,0,1-.388.288c3.31.151,6.393.286,9.1.4C249.927,174.2,249.666,174.1,249.4,174Z" transform="translate(-208.029 -143.468)" fill="#263238"/>
        <path id="Path_69035" data-name="Path 69035" d="M205.486,172.016c-.07.067-.138.142-.206.213,3.647.193,8.47.433,13.834.685q-.277-.16-.533-.332C213.531,172.352,208.985,172.155,205.486,172.016Z" transform="translate(-191.344 -142.723)" fill="#263238"/>
        <path id="Path_69036" data-name="Path 69036" d="M197.423,186.029c-.019.051-.039.1-.058.152,3.961.231,11.369.606,19.863,1,7.574.352,14.29.639,18.468.795l-.075-.188c-4.18-.231-10.857-.566-18.379-.915C208.784,186.48,201.4,186.168,197.423,186.029Z" transform="translate(-187.656 -149.253)" fill="#263238"/>
        <path id="Path_69037" data-name="Path 69037" d="M194.884,193.976c-.011.042-.021.081-.033.122,3.542.219,11.611.632,21.007,1.068,8.749.406,16.353.726,20.222.857-.016-.048-.032-.1-.049-.149-3.882-.228-11.454-.613-20.159-1.017C206.5,194.423,198.445,194.087,194.884,193.976Z" transform="translate(-186.485 -152.956)" fill="#263238"/>
        <path id="Path_69038" data-name="Path 69038" d="M193.023,201.951c-.006.032-.012.064-.019.1,3,.2,11.616.646,21.794,1.119,7.6.353,14.341.641,18.515.8l.135-.175c-4.16-.233-10.954-.574-18.635-.93C204.65,202.384,196.037,202.029,193.023,201.951Z" transform="translate(-185.624 -156.672)" fill="#263238"/>
        <path id="Path_69039" data-name="Path 69039" d="M210.6,210.648l-.047.26c3.538.179,7.727.383,12.223.591,4.885.226,9.409.427,13.13.582h0v-.049l.019.049,2.362.1.169-.219c-4.1-.216-9.605-.488-15.665-.769C218.313,210.982,214.135,210.8,210.6,210.648Z" transform="translate(-193.803 -160.725)" fill="#263238"/>
        <path id="Path_69040" data-name="Path 69040" d="M209.174,218.623l-.046.255c3.653.186,8.051.4,12.786.62,4.99.231,9.605.435,13.37.591h.005l0-.252h0c-3.762-.193-8.37-.418-13.354-.649C217.208,218.969,212.821,218.775,209.174,218.623Z" transform="translate(-193.137 -164.441)" fill="#263238"/>
        <path id="Path_69041" data-name="Path 69041" d="M207.752,226.6c-.014.083-.029.166-.044.249,3.759.193,8.365.418,13.346.649,5.1.237,9.8.443,13.61.6h.009l0-.249h-.009c-3.8-.2-8.5-.425-13.593-.661C216.1,226.957,211.508,226.754,207.752,226.6Z" transform="translate(-192.476 -168.157)" fill="#263238"/>
        <path id="Path_69042" data-name="Path 69042" d="M206.306,234.571c-.016.081-.032.162-.048.244,3.86.2,8.684.435,13.921.678,5.2.242,10,.453,13.85.611h.014l0-.247h-.014c-3.845-.2-8.637-.432-13.833-.673C214.973,234.942,210.162,234.73,206.306,234.571Z" transform="translate(-191.8 -171.872)" fill="#263238"/>
        <path id="Path_69043" data-name="Path 69043" d="M204.633,242.536c-.018.079-.035.158-.052.237,3.968.206,9.061.456,14.618.714,5.312.246,10.2.461,14.089.621h.019l0-.244h-.019c-3.885-.2-8.766-.439-14.072-.686C213.676,242.92,208.6,242.7,204.633,242.536Z" transform="translate(-191.019 -175.584)" fill="#263238"/>
        <path id="Path_69044" data-name="Path 69044" d="M202.818,250.5l-.053.227c4.068.214,9.465.479,15.389.755,5.422.252,10.4.47,14.329.631h.024l0-.242-.023,0c-3.923-.2-8.9-.446-14.312-.7C212.265,250.895,206.884,250.66,202.818,250.5Z" transform="translate(-190.172 -179.293)" fill="#263238"/>
        <path id="Path_69045" data-name="Path 69045" d="M215.687,258.147l2.1.391.324.015c1.856.09,3.8.182,5.811.275,5.553.257,10.645.481,14.614.643h.029l0-.238-.028,0c-3.965-.206-9.052-.456-14.6-.713C221.03,258.385,218.249,258.26,215.687,258.147Z" transform="translate(-196.194 -182.858)" fill="#263238"/>
        <path id="Path_69046" data-name="Path 69046" d="M257.14,208.539c-.085.009-.453-3.095-.822-6.928s-.6-6.952-.515-6.96.453,3.094.823,6.93S257.225,208.531,257.14,208.539Z" transform="translate(-214.879 -153.27)" fill="#263238"/>
        <path id="Path_69047" data-name="Path 69047" d="M256.539,191.823c.07.048-.16.511-.515,1.034s-.7.909-.771.861.16-.511.515-1.035S256.468,191.775,256.539,191.823Z" transform="translate(-214.625 -151.951)" fill="#263238"/>
        <path id="Path_69048" data-name="Path 69048" d="M233.861,222.991c.04.076-3.7,2.129-8.353,4.585s-8.458,4.387-8.5,4.312,3.7-2.128,8.354-4.586S233.821,222.916,233.861,222.991Z" transform="translate(-196.81 -166.475)" fill="#263238"/>
        <path id="Path_69049" data-name="Path 69049" d="M239.642,229.872a11.534,11.534,0,0,1-1.776.382c-1.195.224-2.67.5-4.3.809l-4.289.871a11.419,11.419,0,0,1-1.789.316,9.77,9.77,0,0,1,1.74-.529c1.086-.282,2.6-.633,4.279-.962s3.213-.574,4.325-.722A9.817,9.817,0,0,1,239.642,229.872Z" transform="translate(-201.693 -169.677)" fill="#263238"/>
        <path id="Path_69050" data-name="Path 69050" d="M210.843,199.285a5.593,5.593,0,0,1,.023,1.379c-.034.85-.123,2.022-.29,3.309s-.381,2.445-.566,3.274a5.611,5.611,0,0,1-.375,1.327,6.7,6.7,0,0,1,.161-1.367c.129-.837.307-1.992.474-3.274s.29-2.443.379-3.285A6.736,6.736,0,0,1,210.843,199.285Z" transform="translate(-193.368 -155.43)" fill="#263238"/>
        <path id="Path_69051" data-name="Path 69051" d="M235.562,170.677c.014.012-.07.143-.239.365a7.8,7.8,0,0,1-.789.89,3.77,3.77,0,0,1-1.526.925,4.176,4.176,0,0,1-2.185-.021,9,9,0,0,1-3.45-1.846,7.881,7.881,0,0,1-.844-.835c-.183-.213-.268-.343-.255-.355.035-.032.445.43,1.223,1.038a9.834,9.834,0,0,0,3.394,1.728,4.064,4.064,0,0,0,2.047.044,3.788,3.788,0,0,0,1.464-.824C235.133,171.131,235.524,170.642,235.562,170.677Z" transform="translate(-201.127 -141.689)" fill="#263238"/>
      </g>
    </g>
  </g>
</svg>
