<svg xmlns="http://www.w3.org/2000/svg" xmlns:xlink="http://www.w3.org/1999/xlink" width="204" height="148.605" viewBox="0 0 204 148.605">
  <defs>
    <linearGradient id="linear-gradient" x1="0.04" y1="0.525" x2="1" y2="0.525" gradientUnits="objectBoundingBox">
      <stop offset="0" stop-color="#ee611c"/>
      <stop offset="1" stop-color="#ff905a"/>
    </linearGradient>
  </defs>
  <g id="Group_13186" data-name="Group 13186" transform="translate(0 -58.54)">
    <g id="Group_13167" data-name="Group 13167" transform="translate(0 188.718)">
      <rect id="Rectangle_707" data-name="Rectangle 707" width="204" height="0.102" fill="#ebebeb"/>
      <rect id="Rectangle_708" data-name="Rectangle 708" width="10.387" height="0.102" transform="translate(118.405 2.778)" fill="#ebebeb"/>
      <rect id="Rectangle_709" data-name="Rectangle 709" width="24.616" height="0.102" transform="translate(161.205 4.986)" fill="#ebebeb"/>
      <rect id="Rectangle_710" data-name="Rectangle 710" width="25.432" height="0.102" transform="translate(90.763 2.829)" fill="#ebebeb"/>
      <rect id="Rectangle_711" data-name="Rectangle 711" width="5.321" height="0.102" transform="translate(68.952 5.882)" fill="#ebebeb"/>
      <rect id="Rectangle_712" data-name="Rectangle 712" width="24.226" height="0.102" transform="translate(79.441 5.882)" fill="#ebebeb"/>
      <rect id="Rectangle_713" data-name="Rectangle 713" width="15.689" height="0.102" transform="translate(21.403 4.159)" fill="#ebebeb"/>
    </g>
    <g id="Group_13176" data-name="Group 13176" transform="translate(22.168 65.101)">
      <g id="Group_13170" data-name="Group 13170" transform="translate(9.393 69.259)">
        <g id="Group_13168" data-name="Group 13168" transform="translate(19.655)">
          <path id="Path_68219" data-name="Path 68219" d="M154.266,268.139H127.175l-1.645-18.972h27.091Z" transform="translate(-125.53 -249.167)" fill="#e6e6e6"/>
          <path id="Path_68220" data-name="Path 68220" d="M157.706,268.139H130.614l-1.645-18.972h27.091Z" transform="translate(-127.566 -249.167)" fill="#f0f0f0"/>
          <path id="Path_68221" data-name="Path 68221" d="M140.766,269.976l-.9-10.824h18.943l.9,10.824Z" transform="translate(-134.015 -255.078)" fill="#fff"/>
        </g>
        <g id="Group_13169" data-name="Group 13169" transform="translate(0 18.972)">
          <rect id="Rectangle_714" data-name="Rectangle 714" width="3.179" height="35.386" transform="translate(51.303)" fill="#e6e6e6"/>
          <rect id="Rectangle_715" data-name="Rectangle 715" width="2.208" height="35.386" transform="translate(53.277)" fill="#f0f0f0"/>
          <rect id="Rectangle_716" data-name="Rectangle 716" width="30.767" height="3.906" transform="translate(55.484 3.906) rotate(180)" fill="#f0f0f0"/>
          <rect id="Rectangle_717" data-name="Rectangle 717" width="3.179" height="31.48" transform="translate(22.627 3.906)" fill="#e6e6e6"/>
          <rect id="Rectangle_718" data-name="Rectangle 718" width="2.208" height="31.48" transform="translate(24.601 3.906)" fill="#f0f0f0"/>
          <rect id="Rectangle_719" data-name="Rectangle 719" width="3.179" height="31.48" transform="translate(0 3.906)" fill="#e6e6e6"/>
          <rect id="Rectangle_720" data-name="Rectangle 720" width="2.208" height="31.48" transform="translate(1.974 3.906)" fill="#f0f0f0"/>
          <rect id="Rectangle_721" data-name="Rectangle 721" width="3.179" height="31.48" transform="translate(31.187 3.906)" fill="#e6e6e6"/>
          <rect id="Rectangle_722" data-name="Rectangle 722" width="2.208" height="31.48" transform="translate(33.161 3.906)" fill="#f0f0f0"/>
          <rect id="Rectangle_723" data-name="Rectangle 723" width="24.717" height="3.906" fill="#e6e6e6"/>
        </g>
      </g>
      <g id="Group_13172" data-name="Group 13172" transform="translate(30.671)">
        <g id="Group_13171" data-name="Group 13171">
          <rect id="Rectangle_724" data-name="Rectangle 724" width="95.607" height="53.226" fill="#e0e0e0"/>
          <rect id="Rectangle_725" data-name="Rectangle 725" width="100.374" height="53.226" transform="translate(0.483)" fill="#f5f5f5"/>
          <rect id="Rectangle_726" data-name="Rectangle 726" width="49.946" height="97.094" transform="translate(99.217 1.64) rotate(90)" fill="#fff"/>
          <path id="Path_68222" data-name="Path 68222" d="M187.169,133.379,205.5,83.433H175.247l-18.331,49.946Z" transform="translate(-145.734 -81.793)" fill="#f5f5f5"/>
          <path id="Path_68223" data-name="Path 68223" d="M269.326,133.379l18.331-49.946H264.836L246.5,133.379Z" transform="translate(-198.77 -81.793)" fill="#f5f5f5"/>
        </g>
      </g>
      <g id="Group_13174" data-name="Group 13174" transform="translate(73.522 72.783)">
        <g id="Group_13173" data-name="Group 13173">
          <rect id="Rectangle_727" data-name="Rectangle 727" width="8.127" height="50.835" transform="translate(74.932)" fill="#e6e6e6"/>
          <path id="Path_68224" data-name="Path 68224" d="M429.622,376.719h2.137V372.8h-4.378Z" transform="translate(-348.7 -325.884)" fill="#fafafa"/>
          <rect id="Rectangle_728" data-name="Rectangle 728" width="8.127" height="50.835" fill="#e6e6e6"/>
          <rect id="Rectangle_729" data-name="Rectangle 729" width="76.797" height="49.779" transform="translate(6.262)" fill="#fafafa"/>
          <path id="Path_68225" data-name="Path 68225" d="M327.336,276.77h-73.89V262.711h73.89Zm-73.482-.408h73.074V263.119H253.854Z" transform="translate(-245.73 -260.709)" fill="#e6e6e6"/>
          <path id="Path_68226" data-name="Path 68226" d="M326.815,272.091H280.376c-2.157,0-4.233-1.74-5.7-4.773l-.141-.293h58.113l-.141.293C331.049,270.352,328.972,272.091,326.815,272.091Zm-51.623-4.657c1.38,2.705,3.257,4.249,5.183,4.249h46.439c1.926,0,3.8-1.544,5.184-4.249Z" transform="translate(-258.217 -263.263)" fill="#e6e6e6"/>
          <path id="Path_68227" data-name="Path 68227" d="M252.02,376.719h-2.137V372.8h4.378Z" transform="translate(-243.621 -325.884)" fill="#fafafa"/>
          <path id="Path_68228" data-name="Path 68228" d="M327.336,315.636h-73.89V301.577h73.89Zm-73.482-.408h73.074V301.985H253.854Z" transform="translate(-245.73 -283.717)" fill="#e6e6e6"/>
          <path id="Path_68229" data-name="Path 68229" d="M326.815,310.957H280.376c-2.157,0-4.233-1.739-5.7-4.773l-.141-.293h58.113l-.141.293C331.049,309.218,328.972,310.957,326.815,310.957ZM275.193,306.3c1.38,2.705,3.257,4.249,5.183,4.249h46.439c1.926,0,3.8-1.544,5.184-4.249Z" transform="translate(-258.217 -286.272)" fill="#e6e6e6"/>
          <path id="Path_68230" data-name="Path 68230" d="M327.336,354.5h-73.89V340.443h73.89Zm-73.482-.408h73.074V340.851H253.854Z" transform="translate(-245.73 -306.726)" fill="#e6e6e6"/>
          <path id="Path_68231" data-name="Path 68231" d="M326.815,349.823H280.376c-2.157,0-4.233-1.739-5.7-4.772l-.141-.293h58.113l-.141.293C331.049,348.084,328.972,349.823,326.815,349.823Zm-51.623-4.657c1.38,2.706,3.257,4.249,5.183,4.249h46.439c1.926,0,3.8-1.544,5.184-4.249Z" transform="translate(-258.217 -309.28)" fill="#e6e6e6"/>
        </g>
      </g>
      <g id="Group_13175" data-name="Group 13175" transform="translate(0 51.388)">
        <path id="Path_68232" data-name="Path 68232" d="M106.487,274.283v.987h-.632l-.521,7.738H97.65l-.521-7.738H96.5v-.987Z" transform="translate(-79.294 -246.165)" fill="#e6e6e6"/>
        <path id="Path_68233" data-name="Path 68233" d="M79,214.278c-.632-4.609-6.852-5.926-14.746-6.095-7.512-.16-9.918-2.818-9.918-2.818a16.274,16.274,0,0,0,10.847,14.659C75.459,223.725,79.63,218.9,79,214.278Z" transform="translate(-54.334 -205.365)" fill="#e6e6e6"/>
        <path id="Path_68234" data-name="Path 68234" d="M105.353,245.018c.132-1.9,3.159-5.38,10.44-3.8,5.264,1.145,7.222-1.584,7.222-1.584a11.67,11.67,0,0,1-8.406,10.018C107.091,251.856,105.121,248.352,105.353,245.018Z" transform="translate(-84.527 -225.655)" fill="#e6e6e6"/>
        <path id="Path_68235" data-name="Path 68235" d="M106.448,247.733a.28.28,0,0,0,.215-.1c.528-.624.1-2.118-.5-4.185-.767-2.654-1.721-5.956-.913-8.354a33.693,33.693,0,0,1,1.566-3.7c1.143-2.417,2.13-4.5,1.307-6.684a.281.281,0,1,0-.526.2c.739,1.957-.156,3.849-1.289,6.246a34.6,34.6,0,0,0-1.591,3.762c-.865,2.565.117,5.96.905,8.689.465,1.609.946,3.273.612,3.667a.281.281,0,0,0,.214.462Z" transform="translate(-83.961 -216.709)" fill="#e6e6e6"/>
      </g>
    </g>
    <ellipse id="_Path_" data-name="&lt;Path&gt;" cx="79.107" cy="4.62" rx="79.107" ry="4.62" transform="translate(22.893 197.905)" fill="#f5f5f5"/>
    <g id="Group_13179" data-name="Group 13179" transform="translate(40.876 83.942)">
      <path id="Path_68236" data-name="Path 68236" d="M161.295,225.855H103.359l-3.171-93.174h57.936Z" transform="translate(-100.188 -129.79)" fill="#ee611c"/>
      <g id="Group_13177" data-name="Group 13177" transform="translate(2.891)">
        <path id="Path_68237" data-name="Path 68237" d="M168.381,218.768H110.445l-3.171-93.174H165.21Z" transform="translate(-107.274 -125.594)" fill="#407bff"/>
        <path id="Path_68238" data-name="Path 68238" d="M168.381,218.768H110.445l-3.171-93.174H165.21Z" transform="translate(-107.274 -125.594)" fill="url(#linear-gradient)"/>
      </g>
      <g id="Group_13178" data-name="Group 13178" transform="translate(9.716 3.677)">
        <ellipse id="Ellipse_60" data-name="Ellipse 60" cx="16.022" cy="16.577" rx="16.022" ry="16.577" transform="matrix(0.701, -0.713, 0.713, 0.701, 0, 22.85)" fill="#cf4e0f"/>
        <path id="Path_68239" data-name="Path 68239" d="M174.426,171.573a13.054,13.054,0,0,1-1.408,6.407,12.894,12.894,0,0,1-11.585,7.043,13.99,13.99,0,0,1-12.065-7.043,13.7,13.7,0,0,1-1.843-6.407,12.911,12.911,0,0,1,12.992-13.45A14.017,14.017,0,0,1,174.426,171.573Z" transform="translate(-137.923 -148.528)" fill="#fff"/>
        <path id="Path_68240" data-name="Path 68240" d="M175.7,201.594a12.894,12.894,0,0,1-11.585,7.043,13.99,13.99,0,0,1-12.065-7.043,20.627,20.627,0,0,1,11.7-3.583A21.8,21.8,0,0,1,175.7,201.594Z" transform="translate(-140.609 -172.142)" fill="#ee611c" opacity="0.6"/>
        <ellipse id="Ellipse_61" data-name="Ellipse 61" cx="5.89" cy="6.094" rx="5.89" ry="6.094" transform="matrix(0.701, -0.713, 0.713, 0.701, 14.421, 18.371)" fill="#ee611c" opacity="0.6"/>
      </g>
      <path id="Path_68241" data-name="Path 68241" d="M174.536,260.6H137.577l-.25-7.344h36.959Z" transform="translate(-122.174 -201.173)" fill="#fff"/>
      <path id="Path_68242" data-name="Path 68242" d="M175.631,292.778H138.672l-.25-7.344h36.959Z" transform="translate(-122.822 -220.22)" fill="#fff"/>
      <path id="Path_68243" data-name="Path 68243" d="M180.939,287.9l-8.906,1.211a.622.622,0,0,0-.537.737l1.169,5.968a.715.715,0,0,0,.791.557l8.906-1.211a.62.62,0,0,0,.537-.737l-1.169-5.968A.716.716,0,0,0,180.939,287.9Zm-2.559,6.046-1.612.219-.162-1.927a1.135,1.135,0,0,1-.662-.814,1.014,1.014,0,0,1,.878-1.206,1.167,1.167,0,0,1,1.291.911.993.993,0,0,1-.317.947Z" transform="translate(-142.395 -221.675)" fill="#c14f17"/>
      <path id="Path_68244" data-name="Path 68244" d="M180.591,279.976h0a.633.633,0,0,1-.7-.494l-.115-.584a3.358,3.358,0,0,0-3.517-2.676,2.873,2.873,0,0,0-2.639,3.425l.132.671a.55.55,0,0,1-.477.654h0a.632.632,0,0,1-.7-.494l-.111-.57a4.018,4.018,0,0,1,3.253-4.792,4.567,4.567,0,0,1,5.222,3.535l.131.671A.55.55,0,0,1,180.591,279.976Z" transform="translate(-142.926 -214.072)" fill="#c14f17"/>
      <path id="Path_68245" data-name="Path 68245" d="M179.524,321.7H155.467l-.163-4.78h24.057Z" transform="translate(-132.817 -238.86)" fill="#c14f17"/>
      <path id="Path_68246" data-name="Path 68246" d="M182.319,260.312a1.29,1.29,0,0,1-1.3,1.343,1.4,1.4,0,0,1-1.389-1.343,1.29,1.29,0,0,1,1.3-1.343A1.4,1.4,0,0,1,182.319,260.312Z" transform="translate(-147.218 -204.552)" fill="#263238"/>
      <path id="Path_68247" data-name="Path 68247" d="M168.146,260.312a1.29,1.29,0,0,1-1.3,1.343,1.4,1.4,0,0,1-1.389-1.343,1.29,1.29,0,0,1,1.3-1.343A1.4,1.4,0,0,1,168.146,260.312Z" transform="translate(-138.828 -204.552)" fill="#263238"/>
      <path id="Path_68248" data-name="Path 68248" d="M153.973,260.312a1.29,1.29,0,0,1-1.3,1.343,1.4,1.4,0,0,1-1.389-1.343,1.29,1.29,0,0,1,1.3-1.343A1.4,1.4,0,0,1,153.973,260.312Z" transform="translate(-130.437 -204.552)" fill="#263238"/>
      <path id="Path_68249" data-name="Path 68249" d="M196.492,260.312a1.29,1.29,0,0,1-1.3,1.343,1.4,1.4,0,0,1-1.389-1.343,1.29,1.29,0,0,1,1.3-1.343A1.4,1.4,0,0,1,196.492,260.312Z" transform="translate(-155.609 -204.552)" fill="#263238"/>
      <path id="Path_68250" data-name="Path 68250" d="M210.666,260.312a1.29,1.29,0,0,1-1.3,1.343,1.4,1.4,0,0,1-1.389-1.343,1.29,1.29,0,0,1,1.3-1.343A1.4,1.4,0,0,1,210.666,260.312Z" transform="translate(-163.999 -204.552)" fill="#263238"/>
    </g>
    <g id="Group_13184" data-name="Group 13184" transform="translate(112.75 84.741)">
      <path id="Path_68251" data-name="Path 68251" d="M328.507,174.28c.544.871.994,1.708,1.46,2.575s.885,1.743,1.3,2.634a37.894,37.894,0,0,1,2.081,5.6c.073.242.128.5.189.749l.089.378.044.188.053.311a5.453,5.453,0,0,1-.127,2.1,11.9,11.9,0,0,1-1.269,3.042,24.283,24.283,0,0,1-3.626,4.763l-1.718-1.3a45.652,45.652,0,0,0,2.3-4.911,10.363,10.363,0,0,0,.623-2.3,1.814,1.814,0,0,0-.033-.721l-.162-.5c-.067-.2-.126-.408-.207-.615a45.121,45.121,0,0,0-2.15-4.93c-.8-1.624-1.692-3.278-2.568-4.821Z" transform="translate(-305.021 -155.215)" fill="#ff8b7b"/>
      <path id="Path_68252" data-name="Path 68252" d="M328.518,224.425l-1.874.995,2.154,2.521a3.34,3.34,0,0,0,1.4-2.3Z" transform="translate(-306.123 -184.901)" fill="#ff8b7b"/>
      <path id="Path_68253" data-name="Path 68253" d="M320.466,228.417l2.308,1.831,2.367-.864-2.154-2.522Z" transform="translate(-302.465 -186.344)" fill="#ff8b7b"/>
      <path id="Path_68254" data-name="Path 68254" d="M300.353,140.884c-.046.227-.2.386-.352.356s-.231-.238-.185-.465.2-.386.352-.356S300.4,140.657,300.353,140.884Z" transform="translate(-290.234 -135.167)" fill="#263238"/>
      <path id="Path_68255" data-name="Path 68255" d="M298.558,142.522a8.283,8.283,0,0,1-1.478,1.72,1.334,1.334,0,0,0,1.042.423Z" transform="translate(-288.621 -136.414)" fill="#ff5652"/>
      <path id="Path_68256" data-name="Path 68256" d="M298.9,158.258l.018-2.674,3.542.428a3.343,3.343,0,0,1-2.038,2.976Z" transform="translate(-289.699 -144.147)" fill="#ff8b7b"/>
      <path id="Path_68257" data-name="Path 68257" d="M299.945,150.864l2.494.717.048,1.637-3.542-.428Z" transform="translate(-289.725 -141.353)" fill="#ff8b7b"/>
      <path id="Path_68258" data-name="Path 68258" d="M303.188,151.578l-2.493-.718-.486.93a3.971,3.971,0,0,0,2.3,3.46,3.9,3.9,0,0,0,.722-2.036Z" transform="translate(-290.474 -141.35)" opacity="0.2"/>
      <path id="Path_68259" data-name="Path 68259" d="M302.117,137.893a.134.134,0,0,0,.092-.036.136.136,0,0,0,.008-.192,1.349,1.349,0,0,0-1.157-.45.136.136,0,0,0,.045.268h0a1.078,1.078,0,0,1,.912.366A.136.136,0,0,0,302.117,137.893Z" transform="translate(-290.91 -133.267)" fill="#263238"/>
      <path id="Path_68260" data-name="Path 68260" d="M307.439,151.683c-.412,2.1-.66,5.008.809,6.409,0,0-.574,2.13-4.475,2.13-4.29,0-2.064-1.869-2.064-1.869,1.783-.554,1.767-2.585,1.36-4.216Z" transform="translate(-291.02 -141.838)" fill="#ff8b7b"/>
      <path id="Path_68261" data-name="Path 68261" d="M309.258,166.587a2.875,2.875,0,0,0-.041-2.552c-.659-.487-3.475-.6-7.269.274a2.676,2.676,0,0,1-.466,2.523Z" transform="translate(-291.227 -148.928)" fill="#407bff"/>
      <path id="Path_68262" data-name="Path 68262" d="M350.635,407.356a.924.924,0,0,1-.714-.039.278.278,0,0,1-.066-.316.315.315,0,0,1,.175-.2c.388-.185,1.278.178,1.316.193a.069.069,0,0,1,.042.061.068.068,0,0,1-.038.063A3.611,3.611,0,0,1,350.635,407.356Zm-.467-.459a.369.369,0,0,0-.08.026.182.182,0,0,0-.1.116c-.036.122.009.161.024.173.154.131.727.01,1.131-.151A2.241,2.241,0,0,0,350.168,406.9Z" transform="translate(-319.852 -292.836)" fill="#407bff"/>
      <path id="Path_68263" data-name="Path 68263" d="M351.969,405.991a.065.065,0,0,1-.033,0c-.324-.095-1.019-.588-1.027-.913a.222.222,0,0,1,.174-.22.37.37,0,0,1,.3.024c.384.2.626.991.636,1.024a.069.069,0,0,1-.017.068A.071.071,0,0,1,351.969,405.991Zm-.812-1.014-.03.008c-.084.029-.083.071-.082.088,0,.193.463.579.8.736a1.64,1.64,0,0,0-.521-.807A.241.241,0,0,0,351.157,404.977Z" transform="translate(-320.488 -291.704)" fill="#407bff"/>
      <path id="Path_68264" data-name="Path 68264" d="M298.578,408.414c-.368,0-.724-.051-.843-.216a.257.257,0,0,1,.006-.3.338.338,0,0,1,.215-.159c.477-.13,1.48.441,1.523.466a.068.068,0,0,1-.021.126A5.051,5.051,0,0,1,298.578,408.414Zm-.455-.556a.508.508,0,0,0-.131.015.206.206,0,0,0-.133.1c-.048.084-.031.126-.013.151.134.185.859.19,1.393.114A3.068,3.068,0,0,0,298.123,407.858Z" transform="translate(-288.983 -293.413)" fill="#407bff"/>
      <path id="Path_68265" data-name="Path 68265" d="M300.523,407.338a.067.067,0,0,1-.028-.006c-.346-.155-1.033-.776-.98-1.1.012-.076.066-.171.253-.19a.5.5,0,0,1,.377.117,1.94,1.94,0,0,1,.446,1.106.068.068,0,0,1-.028.062A.071.071,0,0,1,300.523,407.338Zm-.7-1.164-.041,0c-.122.012-.13.06-.133.076-.031.195.435.683.788.895a1.593,1.593,0,0,0-.379-.885A.361.361,0,0,0,299.822,406.174Z" transform="translate(-290.061 -292.416)" fill="#407bff"/>
      <path id="Path_68266" data-name="Path 68266" d="M305.145,399.413h-2.87l-.286-6.646h2.87Z" transform="translate(-291.527 -284.56)" fill="#ff8b7b"/>
      <path id="Path_68267" data-name="Path 68267" d="M353.194,396.818l-2.8.607-2.816-6.19,2.8-.607Z" transform="translate(-318.513 -283.293)" fill="#ff8b7b"/>
      <path id="Path_68268" data-name="Path 68268" d="M347.9,405.6l3.151-.682a.25.25,0,0,1,.28.14l1.094,2.373a.422.422,0,0,1-.3.588c-1.1.219-1.652.271-3.038.57-.852.184-2.777.653-3.954.908-1.151.249-1.583-.876-1.124-1.086a7.964,7.964,0,0,0,3.476-2.541A.7.7,0,0,1,347.9,405.6Z" transform="translate(-316.295 -291.749)" fill="#263238"/>
      <path id="Path_68269" data-name="Path 68269" d="M292.68,408.242h3.134a.25.25,0,0,1,.244.2l.567,2.551a.417.417,0,0,1-.413.51c-1.131-.019-2.764-.085-4.185-.085-1.662,0-3.1.091-5.045.091-1.178,0-1.505-1.191-1.012-1.3,2.245-.491,4.078-.543,6.018-1.74A1.327,1.327,0,0,1,292.68,408.242Z" transform="translate(-281.913 -293.72)" fill="#263238"/>
      <g id="Group_13180" data-name="Group 13180" transform="translate(18.738 16.826)">
        <path id="Path_68270" data-name="Path 68270" d="M325.9,168.87c2.69.617,4.907,7.483,4.907,7.483l-5.4,4.117a11.786,11.786,0,0,1-2.865-5.3C321.619,171.567,323.152,168.24,325.9,168.87Z" transform="translate(-322.274 -168.793)" fill="#8c173b"/>
        <path id="Path_68271" data-name="Path 68271" d="M325.9,168.87c2.69.617,4.907,7.483,4.907,7.483l-5.4,4.117a11.786,11.786,0,0,1-2.865-5.3C321.619,171.567,323.152,168.24,325.9,168.87Z" transform="translate(-322.274 -168.793)" fill="#8c173b" opacity="0.4"/>
      </g>
      <path id="Path_68272" data-name="Path 68272" d="M284.57,171.329c-.672.724-1.341,1.368-2.034,2.032q-.516.494-1.055.969l-.542.475-.137.118c-.066.057-.146.124-.233.19a3.425,3.425,0,0,1-.788.465,2.594,2.594,0,0,1-.992.205,2.407,2.407,0,0,1-.857-.152,2.381,2.381,0,0,1-.816-.519,2.464,2.464,0,0,1-.64-1.056,2.95,2.95,0,0,1-.116-.607,3.928,3.928,0,0,1,.008-.729c.019-.2.046-.365.076-.525a10.271,10.271,0,0,1,.474-1.645,15.3,15.3,0,0,1,.634-1.475c.259-.519.509-.9.758-1.331a33.292,33.292,0,0,1,3.448-4.674,31.48,31.48,0,0,1,4.183-3.965l1.5,1.546c-1.055,1.411-2.092,2.924-3.051,4.415a48.028,48.028,0,0,0-2.61,4.588c-.176.384-.393.805-.516,1.127a11.271,11.271,0,0,0-.383,1.1,7.794,7.794,0,0,0-.232,1.031,1.493,1.493,0,0,0-.013.161c0,.032.007.049,0-.038a1.16,1.16,0,0,0-.053-.267,1.769,1.769,0,0,0-.471-.758,1.954,1.954,0,0,0-1.359-.551,1.721,1.721,0,0,0-.658.126,1.693,1.693,0,0,0-.2.1l.157-.143.49-.449.976-.914c.646-.608,1.295-1.257,1.909-1.859Z" transform="translate(-276.347 -146.231)" fill="#ff8b7b"/>
      <path id="Path_68273" data-name="Path 68273" d="M323.782,181.358c1.461,1.446,1.938,4.078,2.051,6.368l-.238.184a11.8,11.8,0,0,1-2.867-5.3c-.055-.215-.1-.43-.141-.641Z" transform="translate(-303.721 -159.405)" opacity="0.2"/>
      <g id="Group_13181" data-name="Group 13181" transform="translate(4.88 16.159)">
        <path id="Path_68274" data-name="Path 68274" d="M288.8,170.779c-.586,3.1-.953,9.467.75,22.075H304.9c.106-2.356-1.375-13.85.9-24.952a40.04,40.04,0,0,0-5.138-.649,56.379,56.379,0,0,0-6.525,0c-.72.066-1.426.17-2.056.281A4.062,4.062,0,0,0,288.8,170.779Z" transform="translate(-288.307 -167.157)" fill="#8c173b"/>
        <path id="Path_68275" data-name="Path 68275" d="M288.8,170.779c-.586,3.1-.953,9.467.75,22.075H304.9c.106-2.356-1.375-13.85.9-24.952a40.04,40.04,0,0,0-5.138-.649,56.379,56.379,0,0,0-6.525,0c-.72.066-1.426.17-2.056.281A4.062,4.062,0,0,0,288.8,170.779Z" transform="translate(-288.307 -167.157)" fill="#8c173b" opacity="0.4"/>
      </g>
      <path id="Path_68276" data-name="Path 68276" d="M291.148,186.3l-2.774-.664c-.086,1.68-.093,3.762.031,6.336C289.684,190.521,291.312,188.255,291.148,186.3Z" transform="translate(-283.43 -161.939)" opacity="0.2"/>
      <g id="Group_13182" data-name="Group 13182" transform="translate(10.463 107.337)">
        <path id="Path_68277" data-name="Path 68277" d="M301.991,392.772l.147,3.426h2.871l-.147-3.426Z" transform="translate(-301.991 -391.899)" opacity="0.2"/>
        <path id="Path_68278" data-name="Path 68278" d="M350.379,390.632l-2.806.607,1.453,3.19,2.806-.607Z" transform="translate(-328.976 -390.632)" opacity="0.2"/>
      </g>
      <path id="Path_68279" data-name="Path 68279" d="M307.508,136.993c-.737,2.751-1.029,4.4-2.727,5.543a3.784,3.784,0,0,1-5.832-3.17c-.09-2.624,1.131-6.682,4.083-7.237A3.884,3.884,0,0,1,307.508,136.993Z" transform="translate(-289.725 -130.219)" fill="#ff8b7b"/>
      <path id="Path_68280" data-name="Path 68280" d="M303.528,138.182c-.136-.369-.772-3.212-.175-3.95s7.389-.207,8.394.781c1.666,1.64.51,3.1-1.314,4.991-1.372,1.419-1.425,3.02-2.117,3.255-1.213.412-3.093.025-3.47-1.27S303.528,138.182,303.528,138.182Z" transform="translate(-292.186 -131.302)" fill="#263238"/>
      <path id="Path_68281" data-name="Path 68281" d="M308.722,128.029c-2.4-1.022-6.9.109-9.333-.477a3.745,3.745,0,0,0,3.1,3.82,32.01,32.01,0,0,0,6.12.564C311.282,131.827,310.761,128.9,308.722,128.029Z" transform="translate(-289.984 -127.552)" fill="#263238"/>
      <path id="Path_68282" data-name="Path 68282" d="M323.194,136.154a4.554,4.554,0,0,0,2.539-.487C326.183,136.752,323.715,137.05,323.194,136.154Z" transform="translate(-304.081 -132.356)" fill="#263238"/>
      <path id="Path_68283" data-name="Path 68283" d="M304.134,142.958a3.219,3.219,0,0,1-.806,1.9c-.625.69-1.279.26-1.389-.579-.1-.756.105-2.024.87-2.4S304.185,142.107,304.134,142.958Z" transform="translate(-291.484 -135.966)" fill="#ff8b7b"/>
      <path id="Path_68284" data-name="Path 68284" d="M304.69,230.14s3.257,21.932,5.045,30.148c1.958,9,12.457,38.766,12.457,38.766l5.137-1.112s-7.341-24.259-8.985-36.837c-1.262-9.662-3.75-30.964-3.75-30.964Z" transform="translate(-293.126 -188.284)" fill="#ee611c"/>
      <path id="Path_68285" data-name="Path 68285" d="M344.57,393.2c-.022,0,.958,1.858.958,1.858l5.78-1.251-.487-1.738Z" transform="translate(-316.735 -284.146)" fill="#263238"/>
      <path id="Path_68286" data-name="Path 68286" d="M308.505,249.25c3.766.738,3.368,14.782,2.914,22.005-1.086-5.106-2.676-14.93-3.762-21.9A1.287,1.287,0,0,1,308.505,249.25Z" transform="translate(-294.883 -199.58)" opacity="0.3"/>
      <path id="Path_68287" data-name="Path 68287" d="M291.05,230.14s-.4,21.457-.083,30.208c.325,9.1,3.5,38.908,3.5,38.908h4.861s.179-29.273.395-38.213c.236-9.746,1.412-30.9,1.412-30.9Z" transform="translate(-284.931 -188.284)" fill="#ee611c"/>
      <path id="Path_68288" data-name="Path 68288" d="M297.435,394.8c-.022,0,.274,2.018.274,2.018h5.914l.16-1.8Z" transform="translate(-288.831 -285.76)" fill="#263238"/>
      <g id="Group_13183" data-name="Group 13183" transform="translate(1.177 16.557)">
        <path id="Path_68289" data-name="Path 68289" d="M289.44,172.3c1.376,3.708-6.708,8.076-6.708,8.076l-3.5-4.5s2.335-4.648,5.2-6.742C287.972,166.545,288.392,169.475,289.44,172.3Z" transform="translate(-279.232 -168.133)" fill="#8c173b"/>
        <path id="Path_68290" data-name="Path 68290" d="M289.44,172.3c1.376,3.708-6.708,8.076-6.708,8.076l-3.5-4.5s2.335-4.648,5.2-6.742C287.972,166.545,288.392,169.475,289.44,172.3Z" transform="translate(-279.232 -168.133)" fill="#8c173b" opacity="0.4"/>
      </g>
    </g>
    <g id="Group_13185" data-name="Group 13185" transform="translate(134.134 58.54)">
      <ellipse id="Ellipse_62" data-name="Ellipse 62" cx="14.723" cy="9.384" rx="14.723" ry="9.384" transform="translate(6.947 0)" fill="#ee611c"/>
      <path id="Path_68291" data-name="Path 68291" d="M362.885,85.893a4.126,4.126,0,0,1-4.051-3.424,4.169,4.169,0,0,1,3.145-4.719h0a4.1,4.1,0,0,1,4.416,1.843l9.452-1.951a1.479,1.479,0,0,1,1.732,1.019,1.424,1.424,0,0,1-1.089,1.756l-.248.051a.248.248,0,0,0-.171.126.25.25,0,0,0-.014.212l.166.433a.647.647,0,0,1-.251.785.8.8,0,0,0-.366.577.631.631,0,0,1-.491.566l-.194.04a.634.634,0,0,1-.675-.325.793.793,0,0,0-1.473.3.633.633,0,0,1-.492.565l-.19.039a.634.634,0,0,1-.675-.325.8.8,0,0,0-.568-.384.647.647,0,0,1-.542-.621L370.287,82a.246.246,0,0,0-.1-.188.249.249,0,0,0-.207-.049l-3.012.622a4.113,4.113,0,0,1-3.244,3.424A4.17,4.17,0,0,1,362.885,85.893Zm-.815-7.745a3.756,3.756,0,0,0-2.833,4.251,3.713,3.713,0,0,0,7.349-.211l.017-.147,3.3-.681a.66.66,0,0,1,.794.62l.019.464a.242.242,0,0,0,.194.234,1.2,1.2,0,0,1,.861.583.232.232,0,0,0,.24.13l.191-.039a.233.233,0,0,0,.169-.215,1.2,1.2,0,0,1,2.231-.46.229.229,0,0,0,.24.13l.195-.04a.23.23,0,0,0,.168-.213,1.19,1.19,0,0,1,.556-.876.241.241,0,0,0,.086-.291l-.166-.434a.66.66,0,0,1,.483-.884l.248-.051a1.015,1.015,0,0,0,.777-1.254,1.066,1.066,0,0,0-1.256-.722l-9.739,2.01-.073-.129a3.7,3.7,0,0,0-4.048-1.775Zm.821,6.237a2.619,2.619,0,1,1,.533-.054h0A2.657,2.657,0,0,1,362.89,84.384Zm.012-4.82a2.253,2.253,0,0,0-.453.047,2.2,2.2,0,0,0,.892,4.319h0a2.205,2.205,0,0,0-.439-4.366Z" transform="translate(-346.529 -71.785)" fill="#fff"/>
      <ellipse id="Ellipse_63" data-name="Ellipse 63" cx="4.839" cy="3.084" rx="4.839" ry="3.084" transform="translate(4.845 18.101)" fill="#ee611c" opacity="0.6"/>
      <ellipse id="Ellipse_64" data-name="Ellipse 64" cx="1.987" cy="1.266" rx="1.987" ry="1.266" transform="translate(0 23.003)" fill="#ee611c" opacity="0.3"/>
    </g>
  </g>
</svg>
