<svg xmlns="http://www.w3.org/2000/svg" width="105.164" height="155.4" viewBox="0 0 105.164 155.4">
  <g id="Logo" transform="translate(-132.22 -265.485)">
    <path id="Path_1" data-name="Path 1" d="M2048.7,3132.149h-91.437a6.668,6.668,0,0,0-6.649,6.648v91.437a6.668,6.668,0,0,0,6.649,6.649H2048.7a6.668,6.668,0,0,0,6.648-6.649V3138.8A6.668,6.668,0,0,0,2048.7,3132.149Zm-10.959,26.64c-.417,3.893-2.764,6.9-4.554,10.168-.941,1.718-1.843,3.481-2.9,5.106-2,3.079-3.641,6.354-5.526,9.493-1.781,2.967-3.456,6-5.192,8.99q-4.061,7-8.142,14c-1.219,2.095-2.429,4.194-3.656,6.284-.706,1.2-.789,1.2-1.9.334a12.029,12.029,0,0,1-4.643-6.892,8.969,8.969,0,0,1,.474-5.229,56.755,56.755,0,0,1,5.061-9.346c1.115-1.8,2.111-3.721,3.175-5.579,1.869-3.266,3.831-6.479,5.678-9.757,2-3.546,4.474-6.846,6.061-10.592,1.874-4.423.138-8.015-4.858-8.21-5.6-.219-11.207-.064-16.812-.07-3.1,0-6.2-.01-9.3,0a6.663,6.663,0,0,0-5.016,2.222c-2.052,2.167-1.32,6.849,1.928,8.257a6.866,6.866,0,0,0,2.837.506q6.618-.016,13.237-.007a13.452,13.452,0,0,1,1.667.047,1.893,1.893,0,0,1,1.6,2.8c-.414,1.062-4.3,7-8.07,12.712h0c-1.781,2.967-10.464,17.148-12.2,20.142q-4.061,7-8.142,14c-1.219,2.094-2.429,4.194-3.656,6.284-.706,1.2-.789,1.2-1.9.334a12.03,12.03,0,0,1-4.643-6.892,8.968,8.968,0,0,1,.474-5.229,56.748,56.748,0,0,1,5.062-9.346c.842-1.361,7.063-11.334,10.516-16.936l-.937-1.166q-1.127-1.963-2.249-3.929c-3.324-5.8-6.685-11.583-9.953-17.416a11.852,11.852,0,0,1-1.4-8.772,7.741,7.741,0,0,1,3.594-4.755,14.169,14.169,0,0,1,7.893-1.964c7.393.04,14.787.013,22.181.013v0c7.871,0,15.742-.06,23.612.028,3.436.039,6.613,1,8.908,3.814A8.441,8.441,0,0,1,2037.746,3158.789Z" transform="translate(-1817.97 -2866.664)" fill="#8c173b"/>
    <g id="_7sab.com_final_logo" data-name="7sab.com final logo" transform="translate(3.61 387.807)">
      <path id="Path_2" data-name="Path 2" d="M2547.192,1105.454h-2.873v-2.084h-.459v4.856h.459v-2.381h2.873v2.381h.458v-4.856h-.458Z" transform="translate(-2414.71 -1075.277)" fill="#8c173b"/>
      <path id="Path_3" data-name="Path 3" d="M2861.919,1105.906h2.5v-.391h-2.5v-1.753h2.772v-.391h-3.231v4.856h3.3v-.391h-2.839Z" transform="translate(-2725.437 -1075.277)" fill="#8c173b"/>
      <path id="Path_4" data-name="Path 4" d="M5086.071,4232.331a1.638,1.638,0,0,0-.449-.236c-.171-.059-.346-.109-.523-.151s-.356-.084-.529-.122a2.748,2.748,0,0,1-.477-.148,1.208,1.208,0,0,1-.364-.233.659.659,0,0,1-.189-.378.823.823,0,0,1,.021-.377.856.856,0,0,1,.195-.345,1.045,1.045,0,0,1,.381-.252,1.572,1.572,0,0,1,.591-.1,1.651,1.651,0,0,1,.445.061,1.147,1.147,0,0,1,.384.188.907.907,0,0,1,.267.331,1.093,1.093,0,0,1,.1.479h.438a1.543,1.543,0,0,0-.1-.56,1.31,1.31,0,0,0-.3-.462,1.42,1.42,0,0,0-.51-.313,2.042,2.042,0,0,0-.718-.115,2.171,2.171,0,0,0-.714.108,1.531,1.531,0,0,0-.516.291,1.219,1.219,0,0,0-.311.418,1.188,1.188,0,0,0-.1.485,1.209,1.209,0,0,0,.129.59,1.13,1.13,0,0,0,.333.38,1.7,1.7,0,0,0,.473.236q.266.088.545.152t.547.131a2.063,2.063,0,0,1,.472.179.98.98,0,0,1,.334.287.758.758,0,0,1,.128.458,1.055,1.055,0,0,1-.07.384.855.855,0,0,1-.22.32,1.053,1.053,0,0,1-.384.219,1.727,1.727,0,0,1-.56.081,2.013,2.013,0,0,1-.52-.065,1.2,1.2,0,0,1-.428-.206,1.083,1.083,0,0,1-.3-.368,1.443,1.443,0,0,1-.145-.55h-.445a1.673,1.673,0,0,0,.131.691,1.356,1.356,0,0,0,.368.493,1.547,1.547,0,0,0,.56.3,2.422,2.422,0,0,0,.7.1,2.05,2.05,0,0,0,1.308-.371,1.266,1.266,0,0,0,.465-1.046,1.292,1.292,0,0,0-.118-.584A1.092,1.092,0,0,0,5086.071,4232.331Z" transform="translate(-4941.085 -4201.634)" fill="#8c173b"/>
      <path id="Path_5" data-name="Path 5" d="M5368.771,4232.331a1.629,1.629,0,0,0-.448-.236c-.172-.059-.346-.109-.522-.151s-.356-.084-.53-.122a2.751,2.751,0,0,1-.476-.148,1.2,1.2,0,0,1-.364-.233.659.659,0,0,1-.188-.378.823.823,0,0,1,.021-.377.847.847,0,0,1,.194-.345,1.049,1.049,0,0,1,.381-.252,1.574,1.574,0,0,1,.591-.1,1.626,1.626,0,0,1,.444.061,1.14,1.14,0,0,1,.385.188.912.912,0,0,1,.267.331,1.1,1.1,0,0,1,.1.479h.438a1.545,1.545,0,0,0-.1-.56,1.283,1.283,0,0,0-.3-.462,1.417,1.417,0,0,0-.509-.313,2.044,2.044,0,0,0-.719-.115,2.168,2.168,0,0,0-.714.108,1.529,1.529,0,0,0-.516.291,1.208,1.208,0,0,0-.311.418,1.187,1.187,0,0,0-.1.485,1.22,1.22,0,0,0,.128.59,1.131,1.131,0,0,0,.334.38,1.71,1.71,0,0,0,.472.236q.267.088.547.152c.187.042.369.086.546.131a2.071,2.071,0,0,1,.473.179.994.994,0,0,1,.334.287.761.761,0,0,1,.128.458,1.036,1.036,0,0,1-.071.384.844.844,0,0,1-.22.32,1.045,1.045,0,0,1-.384.219,1.723,1.723,0,0,1-.56.081,2,2,0,0,1-.519-.065,1.194,1.194,0,0,1-.429-.206,1.1,1.1,0,0,1-.3-.368,1.444,1.444,0,0,1-.145-.55h-.445a1.672,1.672,0,0,0,.132.691,1.368,1.368,0,0,0,.368.493,1.547,1.547,0,0,0,.56.3,2.42,2.42,0,0,0,.7.1,2.05,2.05,0,0,0,1.309-.371,1.263,1.263,0,0,0,.465-1.046,1.3,1.3,0,0,0-.117-.584A1.1,1.1,0,0,0,5368.771,4232.331Z" transform="translate(-5217.667 -4201.634)" fill="#8c173b"/>
      <path id="Path_6" data-name="Path 6" d="M5641.5,4235.52l-1.909,4.856h.472l.574-1.525h2.211l.56,1.525h.472l-1.86-4.856Zm-.708,2.941.95-2.549.952,2.549Z" transform="translate(-5485.661 -4207.427)" fill="#8c173b"/>
      <path id="Path_7" data-name="Path 7" d="M5962.958,4237.9v-.014a.994.994,0,0,0,.287-.1.814.814,0,0,0,.246-.194.994.994,0,0,0,.176-.311,1.279,1.279,0,0,0,.067-.441,1.349,1.349,0,0,0-.086-.5.957.957,0,0,0-.28-.388,1.317,1.317,0,0,0-.5-.249,2.61,2.61,0,0,0-.729-.087h-1.753v4.856h1.983a2.668,2.668,0,0,0,.637-.071,1.311,1.311,0,0,0,.5-.232,1.1,1.1,0,0,0,.328-.425,1.569,1.569,0,0,0,.118-.641,1.294,1.294,0,0,0-.246-.809A1.1,1.1,0,0,0,5962.958,4237.9Zm-2.111-1.888h1.059a3.871,3.871,0,0,1,.638.043,1.178,1.178,0,0,1,.421.142.581.581,0,0,1,.236.256.9.9,0,0,1,.074.388,1.122,1.122,0,0,1-.065.4.657.657,0,0,1-.212.29,1.016,1.016,0,0,1-.391.179,2.541,2.541,0,0,1-.6.061h-1.159Zm2.56,3.6a.666.666,0,0,1-.273.3,1.222,1.222,0,0,1-.462.138,5.583,5.583,0,0,1-.658.034h-1.167v-1.929h1.221a4.284,4.284,0,0,1,.586.037,1.358,1.358,0,0,1,.452.138.7.7,0,0,1,.29.287,1.024,1.024,0,0,1,.1.489A1.193,1.193,0,0,1,5963.406,4239.614Z" transform="translate(-5799.519 -4207.525)" fill="#8c173b"/>
      <path id="Path_8" data-name="Path 8" d="M6420.708,4235.52l-1.909,4.856h.472l.574-1.525h2.212l.56,1.525h.472l-1.861-4.856Zm-.708,2.941.951-2.549.951,2.549Z" transform="translate(-6248.009 -4207.427)" fill="#8c173b"/>
      <path id="Path_9" data-name="Path 9" d="M6741.589,4235.905a1.21,1.21,0,0,0-.486-.3,2.381,2.381,0,0,0-.779-.108h-1.774v4.856h.459v-2.145h1.039a3.775,3.775,0,0,0,.671-.06,1.853,1.853,0,0,0,.6-.213,1.163,1.163,0,0,0,.594-1.082,1.847,1.847,0,0,0-.071-.516A1.041,1.041,0,0,0,6741.589,4235.905Zm-.236,1.42a.761.761,0,0,1-.276.3,1.157,1.157,0,0,1-.435.151,3.723,3.723,0,0,1-.581.04h-1.052v-1.927h1.187a1.543,1.543,0,0,1,.954.236.826.826,0,0,1,.3.694,1.111,1.111,0,0,1-.1.5Z" transform="translate(-6560.84 -4207.407)" fill="#8c173b"/>
      <path id="Path_10" data-name="Path 10" d="M7024.279,4235.905a1.2,1.2,0,0,0-.485-.3,2.386,2.386,0,0,0-.779-.108h-1.774v4.856h.459v-2.145h1.039a3.731,3.731,0,0,0,.671-.061,1.828,1.828,0,0,0,.6-.212,1.224,1.224,0,0,0,.43-.414,1.252,1.252,0,0,0,.165-.668,1.884,1.884,0,0,0-.071-.516A1.049,1.049,0,0,0,7024.279,4235.905Zm-.235,1.42a.753.753,0,0,1-.277.3,1.157,1.157,0,0,1-.435.151,3.721,3.721,0,0,1-.58.04H7021.7v-1.927h1.188a1.543,1.543,0,0,1,.954.236.825.825,0,0,1,.3.694A1.1,1.1,0,0,1,7024.044,4237.325Z" transform="translate(-6837.413 -4207.407)" fill="#8c173b"/>
      <path id="Path_11" data-name="Path 11" d="M5354.729,1103.37h-.458v4.856h3.062v-.391h-2.6Z" transform="translate(-5164.305 -1075.277)" fill="#8c173b"/>
      <rect id="Rectangle_1" data-name="Rectangle 1" width="0.459" height="4.856" transform="translate(195.873 28.093)" fill="#8c173b"/>
      <path id="Path_12" data-name="Path 12" d="M7742.564,4233.5a1.616,1.616,0,0,1-.324.422,1.422,1.422,0,0,1-.449.28,1.532,1.532,0,0,1-.565.1,1.652,1.652,0,0,1-.83-.189,1.48,1.48,0,0,1-.526-.5,2.082,2.082,0,0,1-.279-.7,3.753,3.753,0,0,1-.085-.8,3.414,3.414,0,0,1,.1-.82,2.119,2.119,0,0,1,.3-.684,1.476,1.476,0,0,1,1.278-.647,1.741,1.741,0,0,1,1,.263,1.384,1.384,0,0,1,.526.883h.472a2.029,2.029,0,0,0-.219-.664,1.608,1.608,0,0,0-.4-.482,1.7,1.7,0,0,0-.567-.293,2.361,2.361,0,0,0-.69-.1,2.806,2.806,0,0,0-.9.139,1.8,1.8,0,0,0-.714.445,2.1,2.1,0,0,0-.476.792,3.51,3.51,0,0,0-.173,1.18,4.049,4.049,0,0,0,.115.981,2.312,2.312,0,0,0,.367.813,1.818,1.818,0,0,0,.651.556,2.062,2.062,0,0,0,.958.206,2.375,2.375,0,0,0,.847-.138,1.834,1.834,0,0,0,1.021-.924,2.989,2.989,0,0,0,.236-.665h-.479A2.107,2.107,0,0,1,7742.564,4233.5Z" transform="translate(-7539.687 -4201.621)" fill="#8c173b"/>
      <path id="Path_13" data-name="Path 13" d="M8047.969,4235.52l-1.909,4.856h.472l.574-1.525h2.211l.561,1.525h.472l-1.861-4.856Zm-.708,2.941.951-2.549.951,2.549Z" transform="translate(-7840.058 -4207.427)" fill="#8c173b"/>
      <path id="Path_14" data-name="Path 14" d="M6395.91,1103.761h1.538v4.465h.458v-4.465h1.538v-.391h-3.534Z" transform="translate(-6183.405 -1075.277)" fill="#8c173b"/>
      <rect id="Rectangle_2" data-name="Rectangle 2" width="0.459" height="4.856" transform="translate(218.852 28.093)" fill="#8c173b"/>
      <path id="Path_15" data-name="Path 15" d="M8806.469,4230.3a2.013,2.013,0,0,0-.714-.546,2.349,2.349,0,0,0-1-.2,2.185,2.185,0,0,0-.964.2,2.047,2.047,0,0,0-.7.55,2.389,2.389,0,0,0-.428.813,3.506,3.506,0,0,0,0,1.986,2.359,2.359,0,0,0,.426.809,2.012,2.012,0,0,0,.707.55,2.5,2.5,0,0,0,1.971,0,2.042,2.042,0,0,0,.708-.55,2.429,2.429,0,0,0,.428-.809,3.286,3.286,0,0,0,.146-.988,3.381,3.381,0,0,0-.146-1A2.357,2.357,0,0,0,8806.469,4230.3Zm.014,2.634a2.047,2.047,0,0,1-.324.688,1.625,1.625,0,0,1-.561.476,1.715,1.715,0,0,1-.812.179,1.766,1.766,0,0,1-.819-.175,1.6,1.6,0,0,1-.561-.472,2.024,2.024,0,0,1-.324-.688,3.257,3.257,0,0,1,0-1.639,2.078,2.078,0,0,1,.324-.691,1.65,1.65,0,0,1,.561-.482,1.68,1.68,0,0,1,.806-.182,1.864,1.864,0,0,1,.756.148,1.547,1.547,0,0,1,.573.433,1.954,1.954,0,0,1,.36.685,3.05,3.05,0,0,1,.124.907,3.107,3.107,0,0,1-.1.816Z" transform="translate(-8580.147 -4201.586)" fill="#8c173b"/>
      <path id="Path_16" data-name="Path 16" d="M7198.088,1107.612h-.013l-2.806-4.242h-.52v4.856h.459v-4.236h.013l2.792,4.236h.532v-4.856h-.458Z" transform="translate(-6964.958 -1075.277)" fill="#8c173b"/>
      <circle id="Ellipse_1" data-name="Ellipse 1" cx="2.515" cy="2.515" r="2.515" transform="translate(207.086 14.997) rotate(-13.28)" fill="#8c173b"/>
      <path id="Path_18" data-name="Path 18" d="M5326.224,3508.993a2.933,2.933,0,0,0-.882-.825,4.7,4.7,0,0,0-1.149-.507,5.629,5.629,0,0,0-1.148-.219,3.741,3.741,0,0,1-.7-.079,3.4,3.4,0,0,1-.772-.245,2.127,2.127,0,0,1-.625-.423.828.828,0,0,1-.257-.609.8.8,0,0,1,.238-.59,1.859,1.859,0,0,1,.575-.383,2.88,2.88,0,0,1,.7-.207,4.059,4.059,0,0,1,.624-.059,4.155,4.155,0,0,1,1.485.277,2.477,2.477,0,0,1,1.169.891l1.069-.832a4.249,4.249,0,0,0-1.634-1.248,4.959,4.959,0,0,0-1.991-.416,5.191,5.191,0,0,0-1.2.149,4.009,4.009,0,0,0-1.149.465,2.964,2.964,0,0,0-.872.792,1.87,1.87,0,0,0-.346,1.129,1.989,1.989,0,0,0,.346,1.168,2.918,2.918,0,0,0,.882.822,4.709,4.709,0,0,0,1.148.505,5.6,5.6,0,0,0,1.149.218,3.75,3.75,0,0,1,.7.079,3.4,3.4,0,0,1,.773.248,2.134,2.134,0,0,1,.624.426.834.834,0,0,1,.257.615.8.8,0,0,1-.238.594,1.857,1.857,0,0,1-.574.386,2.887,2.887,0,0,1-.7.208,4.078,4.078,0,0,1-.624.059,4.16,4.16,0,0,1-1.485-.277,2.511,2.511,0,0,1-1.168-.871l-1.07.812a4.079,4.079,0,0,0,1.624,1.247,5.037,5.037,0,0,0,2,.416,5.185,5.185,0,0,0,1.188-.149,3.979,3.979,0,0,0,1.159-.467,2.958,2.958,0,0,0,.872-.8,1.877,1.877,0,0,0,.346-1.133A2,2,0,0,0,5326.224,3508.993Z" transform="translate(-5172.361 -3491.267)" fill="#8c173b"/>
      <path id="Path_19" data-name="Path 19" d="M5892.076,3505.142a4.116,4.116,0,0,0-1.436-1.188,4.044,4.044,0,0,0-1.852-.436,4.446,4.446,0,0,0-1.793.366,4.72,4.72,0,0,0-1.465.99,4.6,4.6,0,0,0,3.258,7.854,4.047,4.047,0,0,0,1.853-.436,4.117,4.117,0,0,0,1.436-1.188v1.624h1.327v-9.21h-1.327Zm-.257,4.259a3.334,3.334,0,0,1-.7,1.04,3.284,3.284,0,0,1-1.049.7,3.223,3.223,0,0,1-1.277.258,3.15,3.15,0,0,1-1.268-.258,3.307,3.307,0,0,1-1.743-1.743,3.144,3.144,0,0,1-.257-1.268,3.228,3.228,0,0,1,.257-1.278,3.282,3.282,0,0,1,1.743-1.753,3.15,3.15,0,0,1,1.268-.258,3.286,3.286,0,0,1,3.287,3.288A3.16,3.16,0,0,1,5891.818,3509.4Z" transform="translate(-5724.953 -3491.264)" fill="#8c173b"/>
      <path id="Path_20" data-name="Path 20" d="M6550.983,3316.826a4.716,4.716,0,0,0-1.466-.99,4.444,4.444,0,0,0-1.792-.366,4.014,4.014,0,0,0-1.832.436,4.123,4.123,0,0,0-1.437,1.188v-5.784h-1.327v13.37h1.327v-1.624a4.111,4.111,0,0,0,1.437,1.188,4,4,0,0,0,1.832.436,4.6,4.6,0,0,0,3.258-1.337,4.7,4.7,0,0,0,.99-1.466,4.562,4.562,0,0,0,0-3.585A4.705,4.705,0,0,0,6550.983,3316.826Zm-.228,4.526a3.331,3.331,0,0,1-.7,1.04,3.284,3.284,0,0,1-1.05.7,3.227,3.227,0,0,1-1.277.258,3.153,3.153,0,0,1-1.268-.258,3.309,3.309,0,0,1-1.743-1.743,3.152,3.152,0,0,1-.257-1.268,3.227,3.227,0,0,1,.257-1.278,3.284,3.284,0,0,1,1.743-1.753,3.157,3.157,0,0,1,1.268-.258,3.285,3.285,0,0,1,3.287,3.288A3.161,3.161,0,0,1,6550.756,3321.352Z" transform="translate(-6369.648 -3303.216)" fill="#8c173b"/>
      <path id="Path_21" data-name="Path 21" d="M7125.141,3859.59a.752.752,0,0,0-.555.218.7.7,0,0,0-.217.515.744.744,0,0,0,.772.772.76.76,0,0,0,.753-.772.691.691,0,0,0-.228-.515A.741.741,0,0,0,7125.141,3859.59Z" transform="translate(-6938.311 -3839.632)" fill="#8c173b"/>
      <path id="Path_22" data-name="Path 22" d="M7433.954,3510.449a3.173,3.173,0,0,1-1.07.7,3.31,3.31,0,0,1-1.248.248,3.214,3.214,0,0,1-2.318-.96,3.422,3.422,0,0,1-.692-1.04,3.143,3.143,0,0,1-.258-1.268,3.2,3.2,0,0,1,.258-1.278,3.368,3.368,0,0,1,.692-1.05,3.249,3.249,0,0,1,3.575-.7,3.317,3.317,0,0,1,1.061.713l.951-.951a4.691,4.691,0,0,0-3.268-1.347,4.448,4.448,0,0,0-1.793.366,4.719,4.719,0,0,0-1.466.99,4.608,4.608,0,1,0,6.527,6.507Z" transform="translate(-7234.427 -3491.263)" fill="#8c173b"/>
      <path id="Path_23" data-name="Path 23" d="M8031.466,3509.927a4.562,4.562,0,0,0,0-3.585,4.653,4.653,0,0,0-2.456-2.456,4.568,4.568,0,0,0-3.585,0,4.718,4.718,0,0,0-1.466.99,4.608,4.608,0,0,0,6.517,6.517A4.7,4.7,0,0,0,8031.466,3509.927Zm-1.921.515a3.289,3.289,0,0,1-1.05.7,3.224,3.224,0,0,1-1.276.258,3.154,3.154,0,0,1-1.269-.258,3.309,3.309,0,0,1-1.743-1.743,3.143,3.143,0,0,1-.257-1.268,3.226,3.226,0,0,1,.257-1.278,3.284,3.284,0,0,1,1.743-1.753,3.163,3.163,0,0,1,1.269-.258,3.287,3.287,0,0,1,3.287,3.288,3.178,3.178,0,0,1-.258,1.268A3.35,3.35,0,0,1,8029.545,3510.442Z" transform="translate(-7817.114 -3491.266)" fill="#8c173b"/>
      <path id="Path_24" data-name="Path 24" d="M8695.026,3506.1a3.853,3.853,0,0,0-2.04-2.04,3.688,3.688,0,0,0-1.5-.307,3.669,3.669,0,0,0-3.169,1.8,3.626,3.626,0,0,0-1.317-1.307,3.586,3.586,0,0,0-1.853-.5,3.264,3.264,0,0,0-1.406.307,3.37,3.37,0,0,0-1.108.822v-1.347h-1.327v9.21h1.327v-5.15a2.39,2.39,0,0,1,.2-.971,2.679,2.679,0,0,1,.534-.8,2.5,2.5,0,0,1,1.783-.743,2.412,2.412,0,0,1,.971.2,2.463,2.463,0,0,1,.793.545,2.7,2.7,0,0,1,.534.8,2.406,2.406,0,0,1,.2.971v5.15h1.327v-5.15a2.407,2.407,0,0,1,.2-.971,2.67,2.67,0,0,1,.537-.8,2.467,2.467,0,0,1,.795-.545,2.5,2.5,0,0,1,1.949,0,2.581,2.581,0,0,1,1.352,1.347,2.39,2.39,0,0,1,.2.971v5.15h1.327v-5.15A3.715,3.715,0,0,0,8695.026,3506.1Z" transform="translate(-8461.561 -3491.277)" fill="#8c173b"/>
      <path id="Path_25" data-name="Path 25" d="M4484.362,3280.2a6.309,6.309,0,0,0,1.039-2.32,1.926,1.926,0,0,0-.388-1.493,2.509,2.509,0,0,0-2.032-.87c-1.8-.02-3.592-.006-5.387-.006h0c-1.688,0-3.374.006-5.06,0a3.234,3.234,0,0,0-1.8.448,1.768,1.768,0,0,0-.82,1.085,2.706,2.706,0,0,0,.32,2c.745,1.331,1.513,2.65,2.271,3.973.171.3.343.6.513.9l.214.266c-.788,1.278-2.208,3.553-2.4,3.864a12.972,12.972,0,0,0-1.154,2.132,2.04,2.04,0,0,0-.108,1.193,2.746,2.746,0,0,0,1.06,1.572c.254.2.273.2.433-.076.28-.476.557-.956.834-1.434l1.857-3.194c.4-.683,2.377-3.918,2.784-4.595h0c.86-1.3,1.747-2.658,1.841-2.9a.432.432,0,0,0-.364-.64,3.077,3.077,0,0,0-.38-.01h-3.021a1.576,1.576,0,0,1-.647-.115,1.251,1.251,0,0,1-.44-1.884,1.521,1.521,0,0,1,1.145-.507c.708,0,1.415,0,2.123,0,1.279,0,2.558-.034,3.835.016,1.14.044,1.537.864,1.108,1.874a24.732,24.732,0,0,1-1.383,2.416c-.421.748-.869,1.481-1.295,2.226-.243.424-.47.862-.725,1.273a12.974,12.974,0,0,0-1.155,2.132,2.04,2.04,0,0,0-.108,1.193,2.74,2.74,0,0,0,1.061,1.572c.253.2.272.2.433-.076.28-.476.556-.956.834-1.434l1.857-3.193c.4-.683.779-1.375,1.185-2.051.43-.716.8-1.463,1.261-2.166C4483.942,3280.994,4484.148,3280.592,4484.362,3280.2Z" transform="translate(-4340.914 -3268.186)" fill="#8c173b"/>
    </g>
  </g>
</svg>
