<svg xmlns="http://www.w3.org/2000/svg" xmlns:xlink="http://www.w3.org/1999/xlink" width="205" height="220.181" viewBox="0 0 205 220.181">
  <defs>
    <linearGradient id="linear-gradient" x1="0.04" y1="0.525" x2="1" y2="0.525" gradientUnits="objectBoundingBox">
      <stop offset="0" stop-color="#ee611c"/>
      <stop offset="1" stop-color="#ff905a"/>
    </linearGradient>
  </defs>
  <g id="Group_14869" data-name="Group 14869" transform="translate(-89 -121)">
    <g id="Group_14868" data-name="Group 14868" transform="translate(89 121)">
      <g id="Background_Complete" data-name="Background Complete" transform="translate(10.897 0)">
        <g id="Group_14804" data-name="Group 14804" transform="translate(142.036 129.503)">
          <g id="Group_14793" data-name="Group 14793">
            <path id="Path_68935" data-name="Path 68935" d="M358.362,342.316c-10-6.546-12.539-19.078-12.428-30.4.019-1.89-.24-3.876.63-5.554s2.965-2.862,4.7-2.107c1.436.626,2.1,2.243,2.924,3.573a11.145,11.145,0,0,0,4.591,4.123,4.312,4.312,0,0,0,3.937.257c1.629-.938,1.768-3.193,1.71-5.072l-.324-10.5a17.278,17.278,0,0,1,.437-5.592,5.852,5.852,0,0,1,3.613-4.028c1.8-.544,4.062.434,4.489,2.262a17.177,17.177,0,0,1,.111,2.337,1.978,1.978,0,0,0,1.217,1.832,2.318,2.318,0,0,0,2.069-.912,24.927,24.927,0,0,0,4.376-6.878,34.6,34.6,0,0,1,4.066-7.086,10.322,10.322,0,0,1,6.878-4.026c2.721-.217,5.666,1.374,6.419,4s-.744,5.355-2.395,7.539a42.219,42.219,0,0,1-8.64,8.532,3.467,3.467,0,0,0-1.441,1.6c-.382,1.262.851,2.477,2.113,2.859a22.367,22.367,0,0,0,4.454.387c1.488.137,3.112.744,3.707,2.114.826,1.9-.751,3.953-2.32,5.309a36.5,36.5,0,0,1-10.619,6.393,12.342,12.342,0,0,0-3.955,2.015,3.449,3.449,0,0,0-1.031,4.008c.715,1.308,2.476,1.69,3.936,1.386a25.57,25.57,0,0,0,4.138-1.674c2.591-1.037,5.972-.939,7.7,1.251a5.879,5.879,0,0,1,.77,5.24,13.666,13.666,0,0,1-2.77,4.71,36.571,36.571,0,0,1-15.358,11.21c-6.016,2.221-11.623,2.917-17.706.886" transform="translate(-345.913 -274.527)" fill="#f0f0f0"/>
          </g>
          <g id="Group_14795" data-name="Group 14795" transform="translate(12.37 1.508)">
            <g id="Group_14794" data-name="Group 14794">
              <path id="Path_68936" data-name="Path 68936" d="M405.76,277.35s-.059.065-.183.18l-.555.508c-.489.445-1.21,1.1-2.114,1.975a70.432,70.432,0,0,0-7.089,7.911c-1.375,1.775-2.8,3.78-4.289,5.961s-3.058,4.527-4.617,7.053a84.385,84.385,0,0,0-4.5,8.141c-.7,1.454-1.317,2.973-1.946,4.52L378.56,318.3a170.577,170.577,0,0,0-6.337,18.24,82.8,82.8,0,0,0-2.789,15.493,60.493,60.493,0,0,0,.093,10.615c.132,1.248.255,2.216.363,2.868.046.317.083.564.11.744s.027.255.027.255-.315-1.357-.609-3.856a58.232,58.232,0,0,1-.183-10.641,81.642,81.642,0,0,1,2.736-15.547A167.228,167.228,0,0,1,378.3,318.2l1.908-4.707c.629-1.544,1.253-3.074,1.957-4.533a83.952,83.952,0,0,1,4.53-8.159c1.569-2.527,3.151-4.868,4.646-7.048s2.937-4.18,4.324-5.95a67.407,67.407,0,0,1,7.171-7.868c.917-.861,1.65-1.506,2.152-1.938l.574-.487C405.689,277.4,405.76,277.35,405.76,277.35Z" transform="translate(-369.077 -277.35)" fill="#e0e0e0"/>
            </g>
          </g>
          <g id="Group_14797" data-name="Group 14797" transform="translate(22.236 12.49)">
            <g id="Group_14796" data-name="Group 14796">
              <path id="Path_68937" data-name="Path 68937" d="M390.84,318.512a4.53,4.53,0,0,1-.193-.8c-.109-.517-.243-1.27-.4-2.2-.309-1.864-.651-4.453-1.022-7.307s-.757-5.433-1.105-7.286c-.171-.927-.32-1.676-.43-2.192a4.449,4.449,0,0,1-.138-.81,4.629,4.629,0,0,1,.246.784c.143.509.321,1.253.519,2.178.4,1.848.82,4.429,1.191,7.288.363,2.831.692,5.393.938,7.315l.308,2.214A4.589,4.589,0,0,1,390.84,318.512Z" transform="translate(-387.551 -297.916)" fill="#e0e0e0"/>
            </g>
          </g>
          <g id="Group_14799" data-name="Group 14799" transform="translate(25.524 27.978)">
            <g id="Group_14798" data-name="Group 14798">
              <path id="Path_68938" data-name="Path 68938" d="M418.065,326.93a.86.86,0,0,1-.25.047l-.723.08c-.627.066-1.535.159-2.652.311-2.235.286-5.311.793-8.677,1.5s-6.384,1.5-8.549,2.125c-1.085.307-1.956.58-2.558.766l-.7.211a.839.839,0,0,1-.249.055.876.876,0,0,1,.231-.109l.679-.261c.592-.218,1.456-.522,2.536-.854,2.155-.679,5.174-1.492,8.549-2.209s6.463-1.189,8.712-1.424c1.123-.127,2.036-.191,2.667-.222l.727-.027A.884.884,0,0,1,418.065,326.93Z" transform="translate(-393.71 -326.919)" fill="#e0e0e0"/>
            </g>
          </g>
          <g id="Group_14801" data-name="Group 14801" transform="translate(2.449 29.629)">
            <g id="Group_14800" data-name="Group 14800">
              <path id="Path_68939" data-name="Path 68939" d="M363.574,360.555a1.528,1.528,0,0,1-.168-.293l-.435-.866c-.375-.753-.891-1.856-1.511-3.227-1.243-2.74-2.843-6.576-4.554-10.833s-3.282-8.1-4.476-10.86L351,331.215c-.158-.363-.286-.657-.386-.888a1.529,1.529,0,0,1-.117-.318,1.48,1.48,0,0,1,.169.293l.435.866c.375.753.89,1.856,1.51,3.227,1.243,2.74,2.843,6.576,4.555,10.835s3.281,8.1,4.475,10.858c.592,1.351,1.076,2.457,1.427,3.261l.386.888A1.487,1.487,0,0,1,363.574,360.555Z" transform="translate(-350.499 -330.01)" fill="#e0e0e0"/>
            </g>
          </g>
          <g id="Group_14803" data-name="Group 14803" transform="translate(15.524 49.054)">
            <g id="Group_14802" data-name="Group 14802">
              <path id="Path_68940" data-name="Path 68940" d="M407.243,366.388a1.754,1.754,0,0,1-.322.133l-.939.328-3.458,1.187c-2.918,1.005-6.932,2.444-11.363,4.044s-8.459,3.01-11.4,3.968c-1.469.48-2.659.856-3.488,1.1l-.955.279a.175.175,0,1,1-.017-.055l.938-.328,3.457-1.187c2.918-1.006,6.933-2.445,11.365-4.045s8.458-3.01,11.394-3.967c1.469-.479,2.66-.856,3.489-1.1l.955-.279A1.565,1.565,0,0,1,407.243,366.388Z" transform="translate(-374.984 -366.386)" fill="#e0e0e0"/>
            </g>
          </g>
        </g>
        <g id="Group_14837" data-name="Group 14837" transform="translate(0 102.67)">
          <g id="Group_14807" data-name="Group 14807" transform="translate(21.771 12.697)">
            <g id="Group_14805" data-name="Group 14805">
              <path id="Path_68941" data-name="Path 68941" d="M120.7,248.07l9.055,26.46h41l-.3-1.363-16.579-.513-7.638-24.6Z" transform="translate(-120.704 -248.056)" fill="#e6e6e6"/>
            </g>
            <g id="Group_14806" data-name="Group 14806" transform="translate(15.037 10.845)">
              <path id="Path_68942" data-name="Path 68942" d="M151.994,269.962a1.881,1.881,0,0,1-1.037,2.372,1.807,1.807,0,0,1-2.018-1.555,1.881,1.881,0,0,1,1.037-2.372A1.808,1.808,0,0,1,151.994,269.962Z" transform="translate(-148.863 -268.365)" fill="#fff"/>
            </g>
          </g>
          <g id="Group_14825" data-name="Group 14825" transform="translate(76.632)">
            <g id="Group_14818" data-name="Group 14818" transform="translate(0.663 69.119)">
              <g id="Group_14816" data-name="Group 14816">
                <g id="Group_14808" data-name="Group 14808" transform="translate(35.575 0.678)">
                  <path id="Path_68943" data-name="Path 68943" d="M291.3,355.142l13.625,46.768h1.637L296.1,354.981Z" transform="translate(-291.296 -354.981)" fill="#ebebeb"/>
                </g>
                <g id="Group_14809" data-name="Group 14809" transform="translate(0 1.059)">
                  <path id="Path_68944" data-name="Path 68944" d="M235.227,355.71l-10.548,46.516h1.871L240.668,355.7Z" transform="translate(-224.679 -355.695)" fill="#ebebeb"/>
                </g>
                <g id="Group_14810" data-name="Group 14810" transform="translate(22.891)">
                  <path id="Path_68945" data-name="Path 68945" d="M267.544,353.712l1.614,47.59h2.213l.972-47.406Z" transform="translate(-267.544 -353.712)" fill="#ebebeb"/>
                </g>
                <g id="Group_14811" data-name="Group 14811" transform="translate(7.685 18.915)">
                  <path id="Path_68946" data-name="Path 68946" d="M241.443,390.124l31.635-.991.209,3.276-34.218,1.312Z" transform="translate(-239.069 -389.133)" fill="#ebebeb"/>
                </g>
                <g id="Group_14812" data-name="Group 14812" transform="translate(10.045 1.059)">
                  <path id="Path_68947" data-name="Path 68947" d="M243.974,355.7l-.485,2.407h5.235l.653-2.407Z" transform="translate(-243.489 -355.695)" fill="#e0e0e0"/>
                </g>
                <g id="Group_14813" data-name="Group 14813" transform="translate(22.877 0.132)">
                  <path id="Path_68948" data-name="Path 68948" d="M267.518,353.959l.113,3.334h4.642l.057-2.753Z" transform="translate(-267.518 -353.959)" fill="#e0e0e0"/>
                </g>
                <g id="Group_14814" data-name="Group 14814" transform="translate(20.408 19.484)">
                  <path id="Path_68949" data-name="Path 68949" d="M266.033,390.2l.116,3.406-2.454.094-.8-3.4,3.139-.1" transform="translate(-262.895 -390.197)" fill="#e0e0e0"/>
                </g>
                <g id="Group_14815" data-name="Group 14815" transform="translate(27.226 19.304)">
                  <path id="Path_68950" data-name="Path 68950" d="M275.733,389.861l-.071,3.461,1.92-.074.443-3.388Z" transform="translate(-275.662 -389.861)" fill="#e0e0e0"/>
                </g>
              </g>
              <g id="Group_14817" data-name="Group 14817" transform="translate(35.369 0.132)">
                <path id="Path_68951" data-name="Path 68951" d="M290.91,353.959l.7,2.407h4.726l-.52-2.338Z" transform="translate(-290.91 -353.959)" fill="#e0e0e0"/>
              </g>
            </g>
            <g id="Group_14824" data-name="Group 14824">
              <g id="Group_14819" data-name="Group 14819">
                <path id="Path_68952" data-name="Path 68952" d="M224.157,291.17c4.5-2.2,22.68-1.017,22.68-1.017s-5.133-63.731,1.5-64.241,21.672-5.289,24.384,4.348c2.849,10.128-1,64.274-4.806,63.749-8.675-1.2-35.426,1.9-43.48,0C222.363,293.526,224.157,291.17,224.157,291.17Z" transform="translate(-223.437 -224.28)" fill="#f0f0f0"/>
              </g>
              <g id="Group_14821" data-name="Group 14821" transform="translate(40.938 7.081)">
                <g id="Group_14820" data-name="Group 14820">
                  <path id="Path_68953" data-name="Path 68953" d="M302.728,237.54c.028-.015.156.159.375.509.114.173.233.4.372.666s.287.584.444.944a22.472,22.472,0,0,1,1.567,6.443,80.642,80.642,0,0,1,.267,9.8c-.064,3.684-.287,7.728-.617,11.961s-.741,8.259-1.125,11.914-.749,6.958-1.263,9.706a41.611,41.611,0,0,1-1.659,6.4,9.317,9.317,0,0,1-.981,2.218,17.081,17.081,0,0,1,.636-2.328,54.177,54.177,0,0,0,1.354-6.4c.427-2.734.728-6.019,1.059-9.68s.716-7.68,1.051-11.9.577-8.246.687-11.91a93.331,93.331,0,0,0-.064-9.714,25.28,25.28,0,0,0-1.25-6.376C303.07,238.337,302.658,237.579,302.728,237.54Z" transform="translate(-300.098 -237.539)" fill="#e0e0e0"/>
                </g>
              </g>
              <g id="Group_14823" data-name="Group 14823" transform="translate(21.535 65.648)">
                <g id="Group_14822" data-name="Group 14822">
                  <path id="Path_68954" data-name="Path 68954" d="M282.4,349.131c-.052.265-4.187-.385-9.313-.8-5.128-.427-9.312-.458-9.321-.728-.014-.244,4.2-.632,9.4-.2C278.351,347.823,282.451,348.892,282.4,349.131Z" transform="translate(-263.763 -347.212)" fill="#e0e0e0"/>
                </g>
              </g>
            </g>
          </g>
          <g id="Group_14832" data-name="Group 14832" transform="translate(0 38.78)">
            <g id="Group_14831" data-name="Group 14831">
              <g id="Group_14826" data-name="Group 14826">
                <rect id="Rectangle_774" data-name="Rectangle 774" width="145.365" height="4.762" fill="#e6e6e6"/>
              </g>
              <g id="Group_14827" data-name="Group 14827" transform="translate(0 4.762)">
                <path id="Path_68955" data-name="Path 68955" d="M91.3,305.816,79.936,378.94l5.684.1,19.509-73.227Z" transform="translate(-79.936 -305.816)" fill="#ebebeb"/>
              </g>
              <g id="Group_14828" data-name="Group 14828" transform="translate(121.045 1.773)">
                <path id="Path_68956" data-name="Path 68956" d="M320.341,302.421l6.643,73.971h-5.293l-14.339-70.907-.748-5.266,13.737,2.2" transform="translate(-306.604 -300.219)" fill="#ebebeb"/>
              </g>
              <g id="Group_14829" data-name="Group 14829" transform="translate(121.47 4.762)">
                <path id="Path_68957" data-name="Path 68957" d="M307.4,305.816l.528,3.29,13.106-.488-.251-2.8Z" transform="translate(-307.4 -305.816)" fill="#e0e0e0"/>
              </g>
              <g id="Group_14830" data-name="Group 14830" transform="translate(10.833 4.762)">
                <path id="Path_68958" data-name="Path 68958" d="M100.757,305.816l-.536,3.369,13.545-.376.815-2.993Z" transform="translate(-100.222 -305.816)" fill="#e0e0e0"/>
              </g>
            </g>
          </g>
          <g id="Group_14835" data-name="Group 14835" transform="translate(2.489 25.934)">
            <g id="Group_14833" data-name="Group 14833" transform="translate(2.801)">
              <path id="Path_68959" data-name="Path 68959" d="M89.842,286.351v-5.7l2.873-.634-2.873-1.776v-5.394h30.649v3.232l1.731-.007c-.284.321.558.708.188.844-.621.229-2.111.586-2.111.586l.383,2.248-1.724.386,2.3,1.614.383,4.247-31.8.655" transform="translate(-89.842 -272.844)" fill="#e0e0e0"/>
            </g>
            <g id="Group_14834" data-name="Group 14834">
              <path id="Path_68960" data-name="Path 68960" d="M84.6,286.351v-5.7l2.873-.634L84.6,278.238v-5.394h30.649v3.232l1.731-.007c-.284.321.558.708.189.844-.621.229-2.112.586-2.112.586l.383,2.248-1.724.386,2.3,1.614.383,4.247-31.8.655" transform="translate(-84.597 -272.844)" fill="#f0f0f0"/>
            </g>
          </g>
          <g id="Group_14836" data-name="Group 14836" transform="translate(130.015 29.856)">
            <path id="Path_68961" data-name="Path 68961" d="M339.311,281.664a3.666,3.666,0,0,0-2.461-.709c0-.474-.018-.767-.018-.767H323.407s-.422,8.864,6.365,9.178a5.846,5.846,0,0,0,5.772-2.934,6.768,6.768,0,0,0,1.522.185,3.518,3.518,0,0,0,2.115-.6,2.663,2.663,0,0,0,1.009-2.271A2.6,2.6,0,0,0,339.311,281.664Zm-.92,3.294a3.216,3.216,0,0,1-2.269.243,11.814,11.814,0,0,0,.653-2.915,2.558,2.558,0,0,1,1.682.389,1.316,1.316,0,0,1,.41,1.073A1.406,1.406,0,0,1,338.391,284.958Z" transform="translate(-323.401 -280.189)" fill="#f0f0f0"/>
          </g>
        </g>
        <g id="Group_14842" data-name="Group 14842" transform="translate(8.547 43.329)">
          <g id="Group_14838" data-name="Group 14838">
            <path id="Path_68962" data-name="Path 68962" d="M138.031,141.867l-6.708-6.477H95.941V114.2l49.911-1.047v21.8h-8.762Zm-41.556-7.011h35.063l5.756,5.557-.815-5.994h8.84V113.7l-48.843,1.025Z" transform="translate(-95.941 -113.157)" fill="#e0e0e0"/>
          </g>
          <g id="Group_14839" data-name="Group 14839" transform="translate(6.581 6.383)">
            <rect id="Rectangle_775" data-name="Rectangle 775" width="16.678" height="1.957" fill="#e0e0e0"/>
          </g>
          <g id="Group_14840" data-name="Group 14840" transform="translate(6.581 10.851)">
            <rect id="Rectangle_776" data-name="Rectangle 776" width="37.165" height="1.957" fill="#e0e0e0"/>
          </g>
          <g id="Group_14841" data-name="Group 14841" transform="translate(6.581 14.732)">
            <rect id="Rectangle_777" data-name="Rectangle 777" width="37.165" height="1.957" fill="#e0e0e0"/>
          </g>
        </g>
        <g id="Group_14848" data-name="Group 14848" transform="translate(32.67)">
          <g id="Group_14843" data-name="Group 14843">
            <path id="Path_68963" data-name="Path 68963" d="M141.113,34.051l1.015,27.528H183.69l38.2-12.805V32.02Z" transform="translate(-141.113 -32.02)" fill="#e0e0e0"/>
          </g>
          <g id="Group_14847" data-name="Group 14847" transform="translate(42.784 12.234)">
            <g id="Group_14844" data-name="Group 14844">
              <path id="Path_68964" data-name="Path 68964" d="M221.23,56l.338,22.575h35.3s3.412,15.695,3.426,14.834,4.314-15.05,4.314-15.05l45.579-.429v-23Z" transform="translate(-221.23 -54.929)" fill="#f0f0f0"/>
            </g>
            <g id="Group_14845" data-name="Group 14845" transform="translate(9.555 8.721)">
              <rect id="Rectangle_778" data-name="Rectangle 778" width="69.844" height="2.211" fill="#fff"/>
            </g>
            <g id="Group_14846" data-name="Group 14846" transform="translate(9.555 13.924)">
              <rect id="Rectangle_779" data-name="Rectangle 779" width="69.844" height="2.212" fill="#fff"/>
            </g>
          </g>
        </g>
      </g>
      <g id="Floor" transform="translate(0 219.367)">
        <g id="Group_14851" data-name="Group 14851">
          <g id="Group_14850" data-name="Group 14850">
            <g id="Group_14849" data-name="Group 14849">
              <path id="Path_68965" data-name="Path 68965" d="M237.882,442.945c0,.077-39.929.139-89.173.139-49.26,0-89.181-.062-89.181-.139s39.92-.139,89.181-.139C197.953,442.806,237.882,442.869,237.882,442.945Z" transform="translate(-59.529 -442.806)" fill="#263238"/>
            </g>
          </g>
        </g>
      </g>
      <g id="Plant" transform="translate(28.755 148.356)">
        <g id="Group_14856" data-name="Group 14856">
          <path id="Path_68966" data-name="Path 68966" d="M136.633,309.866c-3.025.486-4.377,4.2-4.113,7.256s1.519,6.036,1.184,9.081c-.427,3.867-3.349,7.137-3.69,11.012-.4,4.571,2.83,8.625,3.8,13.111.469,2.183.4,4.491,1.216,6.57a8.213,8.213,0,0,0,15.862-2.833c.067-3.51-2.1-6.815-1.835-10.316.194-2.588,1.711-5.04,1.386-7.613-.387-3.063-3.225-5.238-4.226-8.158s-.04-6.14-.385-9.209c-.621-5.5-3.673-9.343-9.2-8.9" transform="translate(-121.112 -309.831)" stroke="rgba(0,0,0,0)" stroke-width="1" fill="url(#linear-gradient)"/>
          <g id="Group_14852" data-name="Group 14852" transform="translate(0 26.69)">
            <path id="Path_68967" data-name="Path 68967" d="M113.449,359.81c-.515,5.1,1.741,11.1,4.364,15.507a24.316,24.316,0,0,0,11.419,9.911,1.258,1.258,0,0,0,2.063-1.262,25.046,25.046,0,0,0-17.847-24.157" transform="translate(-113.375 -359.81)" fill="#e8505b"/>
            <path id="Path_68968" data-name="Path 68968" d="M113.449,359.81c-.515,5.1,1.741,11.1,4.364,15.507a24.316,24.316,0,0,0,11.419,9.911,1.258,1.258,0,0,0,2.063-1.262,25.046,25.046,0,0,0-17.847-24.157" transform="translate(-113.375 -359.81)" stroke="rgba(0,0,0,0)" stroke-width="1" fill="url(#linear-gradient)"/>
          </g>
          <g id="Group_14853" data-name="Group 14853" transform="translate(6.58 35.887)">
            <path id="Path_68969" data-name="Path 68969" d="M141.41,403.92a1.363,1.363,0,0,1-.145-.284l-.364-.836c-.307-.728-.765-1.777-1.348-3.064a105.884,105.884,0,0,0-11.123-19.031c-.835-1.141-1.524-2.054-2.008-2.679l-.549-.727a1.353,1.353,0,0,1-.176-.266,1.273,1.273,0,0,1,.222.229l.592.694c.512.6,1.227,1.5,2.084,2.627a92.6,92.6,0,0,1,11.145,19.07c.561,1.3.991,2.363,1.266,3.106.128.347.231.63.314.855A1.29,1.29,0,0,1,141.41,403.92Z" transform="translate(-125.696 -377.033)" fill="#263238"/>
          </g>
          <g id="Group_14854" data-name="Group 14854" transform="translate(19.002 14.147)">
            <path id="Path_68970" data-name="Path 68970" d="M148.967,336.322a3.074,3.074,0,0,1,.055.489q.038.52.1,1.4c.08,1.247.193,3.007.333,5.169.275,4.365.662,10.394,1.131,17.05s.93,12.682,1.269,17.042c.165,2.16.3,3.918.395,5.164q.061.884.1,1.4a3.107,3.107,0,0,1,.014.492,3.067,3.067,0,0,1-.072-.486q-.056-.517-.15-1.4c-.117-1.245-.283-3-.487-5.157-.39-4.357-.884-10.38-1.354-17.039s-.823-12.69-1.046-17.059c-.1-2.164-.182-3.925-.24-5.174q-.03-.888-.048-1.408A3.127,3.127,0,0,1,148.967,336.322Z" transform="translate(-148.958 -336.322)" fill="#263238"/>
          </g>
          <g id="Group_14855" data-name="Group 14855" transform="translate(14.319 55.5)">
            <path id="Path_68971" data-name="Path 68971" d="M140.188,413.76h12.774v9.378a6.132,6.132,0,0,1-6.132,6.133h0a6.132,6.132,0,0,1-6.124-5.805Z" transform="translate(-140.188 -413.76)" fill="#263238"/>
          </g>
        </g>
      </g>
      <g id="Speech_bubble" data-name="Speech bubble" transform="translate(136.169 39.853)">
        <g id="Group_14859" data-name="Group 14859">
          <g id="Group_14857" data-name="Group 14857">
            <path id="Path_68972" data-name="Path 68972" d="M359.359,129.59a19.584,19.584,0,0,1-35.56,7.567l-9.281,1.44,6.285-8.738a19.59,19.59,0,1,1,38.555-.269Z" transform="translate(-314.519 -106.648)" fill="#e8505b"/>
          </g>
        </g>
      </g>
      <g id="Character" transform="translate(63.898 45.467)">
        <g id="Group_14867" data-name="Group 14867">
          <path id="Path_68974" data-name="Path 68974" d="M251.235,166.919c-.953-.29-2.66,4.844-2.933,3.527s2.818-6.036,1.81-6.3c-1.315-.342-3,5.065-3.18,5.513s-.829.207-.648-.187c.26-.569,2.848-6.6,1.561-6.949-.714-.193-.941,1.121-.941,1.121s-2.006,5.822-2.608,5.638.451-3.645.892-4.786.076-1.793-.583-1.571c-.45.151-1.882,3.613-2.291,4.751s-1.477,4.281-2.211,2.3-2.043-3.221-2.631-3.31a.66.66,0,0,0-.464,1.159,7.676,7.676,0,0,1,1.1,1.816,5.024,5.024,0,0,1,.467,1.641,17.41,17.41,0,0,1,.084,3.441l.015.32-6.351,15.722-7.053-15.461c-2.26-7.508-11.589-7.817-11.589-7.817l-9.246-1c-3.343-1.284-7.077-1.078-9.156.12a10.7,10.7,0,0,0-5.059,7.186c-2.127,10.478-9.549,48-10.161,64.431h.03a51.364,51.364,0,0,0-.847,5.412c-.182,2.848.074,2.868.409,2.832.9-.1.508-5,1.2-3.993s-.217,6.053.72,5.914c1.222-.18.717-5.306.706-5.743s.621-.467.609-.073c-.016.568-.042,6.536,1.159,6.37.666-.092.39-1.272.39-1.272s-.387-5.586.183-5.645.916,3.212.952,4.323.572,1.527,1.045,1.108c.323-.287.294-3.693.233-4.791s-.283-4.107,1.033-2.713,2.853,1.971,3.377,1.838a.6.6,0,0,0-.023-1.134,7,7,0,0,1-1.576-1.135,4.488,4.488,0,0,1-.954-1.179c-.081-.145-.148-.276-.22-.411.2-3.124,2.04-29.96,6.768-48.354l.891-2.293c.925,3.73.373,11.387-1.587,14.694-3.245,5.476-2.988,18.939-2.988,18.939l29.844,1.132s-.232-4.952-.5-11.271l-.661-18.594.077-3.566.138-.372c1.438,2.3,3.244,5.257,5.475,9.021,7.415,12.512,13.672-2.381,13.672-2.381l6.341-17.936a76.477,76.477,0,0,0,4.466-6.992C251.839,167.156,251.59,167.026,251.235,166.919Z" transform="translate(-179.184 -138.291)" fill="#e5baab"/>
          <path id="Path_68975" data-name="Path 68975" d="M220.179,434.539v-4.826l-9.041-.058-.075,7.061.56.04c2.494.154,12.691.61,14.362.115C227.849,436.317,220.179,434.539,220.179,434.539Z" transform="translate(-194.039 -262.778)" fill="#e8505b"/>
          <path id="Path_68976" data-name="Path 68976" d="M226.226,442.2c0,.085-3.382.154-7.553.154s-7.553-.069-7.553-.154,3.381-.155,7.553-.155S226.226,442.118,226.226,442.2Z" transform="translate(-194.066 -268.554)" fill="#263238"/>
          <path id="Path_68977" data-name="Path 68977" d="M228.4,439.871c-.074-.041-.009-.3.185-.553s.429-.381.487-.32-.064.277-.242.509S228.48,439.913,228.4,439.871Z" transform="translate(-202.106 -267.125)" fill="#263238"/>
          <path id="Path_68978" data-name="Path 68978" d="M229.478,440.318c-.079-.03-.037-.321.141-.623s.411-.479.476-.426-.046.3-.21.583S229.558,440.351,229.478,440.318Z" transform="translate(-202.602 -267.254)" fill="#263238"/>
          <path id="Path_68979" data-name="Path 68979" d="M213.945,440.794c-.035.026-.171-.1-.369-.316a5.8,5.8,0,0,0-.8-.76,2.149,2.149,0,0,0-.974-.4c-.271-.036-.45,0-.465-.043s.151-.154.471-.176a1.825,1.825,0,0,1,1.15.371,3.169,3.169,0,0,1,.791.878C213.906,440.6,213.978,440.769,213.945,440.794Z" transform="translate(-194.166 -267.177)" fill="#263238"/>
          <path id="Path_68980" data-name="Path 68980" d="M227.721,438.911c.043.073-.114.245-.372.335s-.488.056-.5-.028.17-.183.4-.264S227.678,438.837,227.721,438.911Z" transform="translate(-201.396 -267.073)" fill="#263238"/>
          <path id="Path_68981" data-name="Path 68981" d="M227.274,437.944c.008.085-.233.158-.538.162s-.548-.062-.542-.147.246-.158.538-.162S227.266,437.859,227.274,437.944Z" transform="translate(-201.09 -266.572)" fill="#263238"/>
          <path id="Path_68982" data-name="Path 68982" d="M237.833,429.191l1.428-4.61-8.618-2.732-2.162,6.722.523.2c2.336.886,11.942,4.339,13.684,4.361C244.633,433.161,237.833,429.191,237.833,429.191Z" transform="translate(-202.156 -259.141)" fill="#e8505b"/>
          <path id="Path_68983" data-name="Path 68983" d="M243.124,438.407c-.025.082-3.276-.853-7.259-2.089s-7.194-2.3-7.169-2.384,3.275.853,7.26,2.089S243.15,438.325,243.124,438.407Z" transform="translate(-202.256 -264.77)" fill="#263238"/>
          <path id="Path_68984" data-name="Path 68984" d="M245.719,436.864c-.059-.06.081-.289.341-.472s.522-.238.56-.162-.143.246-.382.414S245.779,436.927,245.719,436.864Z" transform="translate(-210.182 -265.827)" fill="#263238"/>
          <path id="Path_68985" data-name="Path 68985" d="M246.571,437.6c-.066-.053.06-.318.319-.553s.535-.336.581-.265-.133.275-.373.494S246.638,437.657,246.571,437.6Z" transform="translate(-210.577 -266.09)" fill="#263238"/>
          <path id="Path_68986" data-name="Path 68986" d="M231.8,433.4c-.041.014-.133-.148-.258-.411a5.782,5.782,0,0,0-.539-.963,2.156,2.156,0,0,0-.811-.672c-.249-.114-.43-.131-.431-.178s.191-.1.5-.029a1.826,1.826,0,0,1,.988.695,3.191,3.191,0,0,1,.5,1.072C231.827,433.2,231.844,433.382,231.8,433.4Z" transform="translate(-202.754 -263.456)" fill="#263238"/>
          <path id="Path_68987" data-name="Path 68987" d="M245.478,435.752c.02.082-.182.2-.454.209s-.482-.091-.468-.175.216-.124.457-.134S245.458,435.667,245.478,435.752Z" transform="translate(-209.646 -265.572)" fill="#263238"/>
          <path id="Path_68988" data-name="Path 68988" d="M245.381,434.609c-.018.083-.269.081-.562,0s-.5-.222-.474-.3.282-.078.562,0S245.4,434.525,245.381,434.609Z" transform="translate(-209.547 -264.917)" fill="#263238"/>
          <g id="Group_14860" data-name="Group 14860" transform="translate(22.572 4.365)">
            <path id="Path_68989" data-name="Path 68989" d="M233.206,150.741a40.832,40.832,0,0,1,.4-5.177s3.836-.282,4.19-4.066.4-12.534.4-12.534l-6.854-3.628-7.846,5.557-2.046,4.387,2.608,9.632-.01,4.974Z" transform="translate(-221.452 -125.336)" fill="#e5baab"/>
          </g>
          <g id="Group_14861" data-name="Group 14861" transform="translate(36.926 13.207)">
            <path id="Path_68990" data-name="Path 68990" d="M250.245,142.513c.031-.027-.016-.151-.168-.294a1.289,1.289,0,0,0-1.524-.142c-.175.112-.244.225-.218.258.052.071.453-.175.974-.123a1.477,1.477,0,0,1,.2.031.479.479,0,0,0-.264.408.486.486,0,1,0,.941-.14C250.211,142.52,250.234,142.524,250.245,142.513Z" transform="translate(-248.331 -141.893)" fill="#263238"/>
          </g>
          <g id="Group_14862" data-name="Group 14862" transform="translate(31.134 13.021)">
            <path id="Path_68991" data-name="Path 68991" d="M239.4,142.165c.031-.027-.015-.151-.167-.294a1.289,1.289,0,0,0-1.524-.142c-.176.112-.244.225-.218.257.052.072.453-.175.974-.122a1.5,1.5,0,0,1,.253.045.474.474,0,0,0-.092.829.486.486,0,0,0,.678-.1.479.479,0,0,0,.051-.466C239.374,142.173,239.391,142.174,239.4,142.165Z" transform="translate(-237.486 -141.545)" fill="#263238"/>
          </g>
          <g id="Group_14864" data-name="Group 14864" transform="translate(34.791 13.555)">
            <g id="Group_14863" data-name="Group 14863">
              <path id="Path_68992" data-name="Path 68992" d="M244.334,147.1a3.5,3.5,0,0,1,.858-.08c.133,0,.264-.018.3-.114a.738.738,0,0,0-.061-.424l-.323-1.094a20.466,20.466,0,0,1-.708-2.847,3.45,3.45,0,0,1,.31.8c.165.5.379,1.206.6,1.984l.307,1.1a.845.845,0,0,1,.034.548.325.325,0,0,1-.229.181.862.862,0,0,1-.227.014A3.432,3.432,0,0,1,244.334,147.1Z" transform="translate(-244.334 -142.545)" fill="#263238"/>
            </g>
          </g>
          <g id="Group_14865" data-name="Group 14865" transform="translate(32.997 18.554)">
            <path id="Path_68993" data-name="Path 68993" d="M241.027,151.9a6.811,6.811,0,0,0,2.5.951,1.447,1.447,0,0,1-1.748.436C240.677,152.785,241.027,151.9,241.027,151.9Z" transform="translate(-240.974 -151.905)" fill="#efede9"/>
          </g>
          <g id="Group_14866" data-name="Group 14866" transform="translate(29.757 22.735)">
            <path id="Path_68994" data-name="Path 68994" d="M239.876,161.593a9.471,9.471,0,0,1-4.968-1.858,4.894,4.894,0,0,0,4.856,2.785Z" transform="translate(-234.908 -159.735)" fill="#d78776"/>
          </g>
          <path id="Path_68995" data-name="Path 68995" d="M236.161,119.506a2.31,2.31,0,0,0-2.131-.566,14.388,14.388,0,0,0-2.177.741,3.341,3.341,0,0,1-2.252.135c-.987-.373-1.531-1.425-2.382-2.048a3.145,3.145,0,0,0-4.7,1.2c-.424.9-.514,2.108-1.409,2.545a3.279,3.279,0,0,1-2.323-.248,3.647,3.647,0,0,0-2.184-.076,1.925,1.925,0,0,0-1.36,1.59c-.045.676.361,1.317.339,1.993-.033,1.031-1,1.752-1.888,2.277s-1.888,1.149-2.063,2.165a2.725,2.725,0,0,0,1,2.3,24.822,24.822,0,0,1,1.956,1.732,2.257,2.257,0,0,1,.491,2.414c-.2.387-.58.692-.667,1.121-.146.716.558,1.3,1.191,1.664a5.64,5.64,0,0,0,2.14.834,2.665,2.665,0,0,0,.912-.058c.519,1.519.838,2.8.838,2.8.634,1.032.636-2.333.636-2.333s.309-3.251-.208-4.483c0,0-1.926.746-2.566-2.749a1.585,1.585,0,0,1,3.1-.645l1.647.058s-.192-6.748,3.607-5.584c6.707,2.055,10.3-.106,10.77-5.551l-.021,0A1.416,1.416,0,0,0,236.161,119.506Z" transform="translate(-194.29 -117.161)" fill="#263238"/>
          <path id="Path_68996" data-name="Path 68996" d="M225.569,146.766c-.015-.01-.054.043-.146.092a.564.564,0,0,1-.42.034,1.4,1.4,0,0,1-.72-1.21,1.87,1.87,0,0,1,.108-.816.651.651,0,0,1,.4-.457.286.286,0,0,1,.341.134c.049.088.033.153.05.158s.066-.059.032-.191a.359.359,0,0,0-.139-.194.428.428,0,0,0-.316-.064.792.792,0,0,0-.557.537,1.912,1.912,0,0,0-.14.912,1.463,1.463,0,0,0,.906,1.345.6.6,0,0,0,.509-.116C225.568,146.844,225.58,146.772,225.569,146.766Z" transform="translate(-200.091 -129.783)" fill="#d78776"/>
          <path id="Path_68997" data-name="Path 68997" d="M231.749,258.157l-11.862-.912h0l-17.98-1.457,2.01,96.567,15.609-.2s-.013-1.073-.036-2.96l9.15,2.5s8.919-30.125,11.96-42.491C243.136,298.891,231.749,258.157,231.749,258.157Zm-12.428,76.018c-.238-22.288-.56-57.926-.234-62.563,0,0,8.742,31.1,8.825,33.738C227.962,306.953,223.122,322.354,219.321,334.176Z" transform="translate(-189.773 -181.76)" fill="#263238"/>
          <path id="Path_68998" data-name="Path 68998" d="M234.516,396.9l.169,15.016,2.52.689-.61-22.212Z" transform="translate(-204.968 -244.483)" opacity="0.2"/>
          <path id="Path_68999" data-name="Path 68999" d="M233.709,273.875c-.049-.028.359-.657.708-1.792a15.293,15.293,0,0,0,.562-4.587c-.019-1.819-.135-3.479-.093-4.683.014-.6.051-1.088.094-1.423a1.616,1.616,0,0,1,.1-.515c.048,0-.008.743.022,1.937.014,1.194.164,2.841.184,4.682a13.62,13.62,0,0,1-.664,4.657,7.188,7.188,0,0,1-.605,1.3A1.522,1.522,0,0,1,233.709,273.875Z" transform="translate(-204.59 -184.13)" fill="#455a64"/>
          <path id="Path_69000" data-name="Path 69000" d="M230.091,262.145c-.01-.014.058-.095.231-.164a1.12,1.12,0,0,1,.777,0,1.092,1.092,0,0,1,.737.9,1.183,1.183,0,0,1-2.063.962,1.086,1.086,0,0,1-.211-1.145,1.115,1.115,0,0,1,.5-.593c.165-.085.271-.084.274-.067a1.464,1.464,0,0,0-.57.729.871.871,0,0,0,.209.878.908.908,0,0,0,1.574-.735.877.877,0,0,0-.536-.728A1.479,1.479,0,0,0,230.091,262.145Z" transform="translate(-202.623 -184.614)" fill="#455a64"/>
          <path id="Path_69001" data-name="Path 69001" d="M254.7,266.178a2.216,2.216,0,0,1-1.107.429,4.155,4.155,0,0,1-4.659-2.678,2.212,2.212,0,0,1-.186-1.172c.053-.007.1.444.389,1.089a4.262,4.262,0,0,0,4.426,2.544C254.271,266.316,254.684,266.128,254.7,266.178Z" transform="translate(-211.592 -185.007)" fill="#455a64"/>
          <path id="Path_69002" data-name="Path 69002" d="M208.912,258.3a1.053,1.053,0,0,1,.152.407,4.469,4.469,0,0,1,.124,1.181,5.144,5.144,0,0,1-5.06,5.081,4.452,4.452,0,0,1-1.181-.12,1.051,1.051,0,0,1-.409-.15,13.573,13.573,0,0,0,1.578.051,5.173,5.173,0,0,0,4.853-4.873A13.658,13.658,0,0,0,208.912,258.3Z" transform="translate(-190.067 -182.931)" fill="#455a64"/>
          <path id="Path_69003" data-name="Path 69003" d="M221.451,429.233c0,.085-3.491.154-7.8.154s-7.8-.069-7.8-.154,3.491-.154,7.8-.154S221.451,429.148,221.451,429.233Z" transform="translate(-191.613 -262.51)" fill="#455a64"/>
          <path id="Path_69004" data-name="Path 69004" d="M209.688,429.368" transform="translate(-193.398 -262.645)" fill="#263238"/>
          <path id="Path_69005" data-name="Path 69005" d="M208.987,355.557c-.085,0-.328-19.044-.542-42.533s-.318-42.539-.232-42.54.328,19.04.542,42.537S209.072,355.556,208.987,355.557Z" transform="translate(-192.697 -188.608)" fill="#455a64"/>
          <path id="Path_69006" data-name="Path 69006" d="M235.268,350.367a.818.818,0,0,1,.04-.179l.147-.517.594-1.981c.536-1.737,1.3-4.215,2.24-7.268.959-3.071,2.1-6.718,3.359-10.767.636-2.026,1.3-4.151,1.994-6.354l1.057-3.361c.168-.563.386-1.153.515-1.706a8.153,8.153,0,0,0-.229-1.748c-.508-2.387-1.157-4.693-1.773-6.917s-1.25-4.362-1.853-6.4c-1.208-4.07-2.326-7.727-3.269-10.8l-2.24-7.268-.6-1.979c-.062-.214-.112-.383-.15-.517a.778.778,0,0,1-.041-.178.823.823,0,0,1,.07.169c.046.13.105.3.179.507.156.468.376,1.125.657,1.961l2.334,7.239c.97,3.062,2.109,6.712,3.333,10.779.611,2.034,1.243,4.172,1.871,6.4s1.272,4.53,1.785,6.938c.061.3.122.6.165.908a4.342,4.342,0,0,1,.059.462,1.956,1.956,0,0,1,.005.492c-.144.618-.352,1.161-.523,1.739l-1.062,3.36c-.7,2.2-1.37,4.327-2.011,6.352l-3.424,10.75c-.98,3.041-1.776,5.509-2.334,7.239l-.649,1.964-.176.508A.847.847,0,0,1,235.268,350.367Z" transform="translate(-205.22 -194.175)" fill="#455a64"/>
          <path id="Path_69007" data-name="Path 69007" d="M234.807,422.866a8.749,8.749,0,0,1,1.428.456l3.572,1.248,3.573,1.246a8.291,8.291,0,0,1,1.462.577,7.615,7.615,0,0,1-1.529-.37c-.932-.27-2.21-.674-3.608-1.163s-2.65-.967-3.547-1.335A5.558,5.558,0,0,1,234.807,422.866Z" transform="translate(-205.103 -259.612)" fill="#455a64"/>
          <path id="Path_69008" data-name="Path 69008" d="M218.061,339.175a.823.823,0,0,1,.234-.188,2.574,2.574,0,0,1,.8-.329,2.705,2.705,0,0,1,1.37.033,2.813,2.813,0,0,1,1.481,1.051,3.564,3.564,0,0,1,.587,2.118c0,.79-.05,1.613-.078,2.489a17.853,17.853,0,0,1-.222,2.756,3.808,3.808,0,0,1-.556,1.394,2.311,2.311,0,0,1-1.261.931,3.017,3.017,0,0,1-2.852-.832,4.584,4.584,0,0,1-1.178-2.53,11.568,11.568,0,0,1,.351-4.656,6.374,6.374,0,0,1,.671-1.677,2.15,2.15,0,0,1,1.036-.9,1.483,1.483,0,0,1,.862-.081.607.607,0,0,1,.278.115,1.606,1.606,0,0,0-1.094.076,2.057,2.057,0,0,0-.935.875,6.43,6.43,0,0,0-.607,1.643,11.687,11.687,0,0,0-.28,4.553,4.326,4.326,0,0,0,1.109,2.361,2.727,2.727,0,0,0,2.553.75,2,2,0,0,0,1.094-.809,3.546,3.546,0,0,0,.514-1.282,18.27,18.27,0,0,0,.233-2.705c.036-.871.1-1.708.106-2.474a3.371,3.371,0,0,0-.509-1.995,2.616,2.616,0,0,0-2.648-1.092A3.831,3.831,0,0,0,218.061,339.175Z" transform="translate(-196.471 -220.341)" fill="#455a64"/>
          <path id="Path_69009" data-name="Path 69009" d="M256.426,348.012a28.435,28.435,0,0,1-5.9.443,28.434,28.434,0,0,1,5.9-.443Z" transform="translate(-212.426 -224.712)" fill="#455a64"/>
          <path id="Path_69010" data-name="Path 69010" d="M255.819,350.2a17.164,17.164,0,0,1-4.419-1.277,17.156,17.156,0,0,1,4.419,1.277Z" transform="translate(-212.835 -225.153)" fill="#455a64"/>
          <path id="Path_69011" data-name="Path 69011" d="M269.2,341.91a.64.64,0,0,1,.241.128,1.7,1.7,0,0,1,.509.6,5.958,5.958,0,0,1,.413,2.822,10.6,10.6,0,0,1-.748,4.173,5.991,5.991,0,0,1-1.46,2.07,3.021,3.021,0,0,1-1.181.7,1.493,1.493,0,0,1-.745.022,1.221,1.221,0,0,1-.643-.416,2.881,2.881,0,0,1-.508-1.324,11.312,11.312,0,0,1-.174-1.323,11.733,11.733,0,0,1,.106-2.515,11.259,11.259,0,0,1,1.419-4,3,3,0,0,1,1.156-1.179,1.513,1.513,0,0,1,1.244-.061,1.114,1.114,0,0,1,.6.512.577.577,0,0,1,.07.265c-.015,0-.034-.089-.124-.234a1.1,1.1,0,0,0-.586-.43,1.4,1.4,0,0,0-1.123.1,2.871,2.871,0,0,0-1.048,1.138,11.4,11.4,0,0,0-1.326,3.926,11.784,11.784,0,0,0-.085,2.452,11.4,11.4,0,0,0,.174,1.286,2.623,2.623,0,0,0,.444,1.185.97.97,0,0,0,1.069.294,2.725,2.725,0,0,0,1.061-.634,5.762,5.762,0,0,0,1.4-1.959,10.715,10.715,0,0,0,.79-4.061,6.187,6.187,0,0,0-.3-2.763A2.22,2.22,0,0,0,269.2,341.91Z" transform="translate(-219.115 -221.703)" fill="#455a64"/>
          <path id="Path_69012" data-name="Path 69012" d="M289.7,158.143l3.56,15.453,8.334-1.8-2.913-15.854Z" transform="translate(-230.685 -135.231)" fill="#263238"/>
          <path id="Path_69013" data-name="Path 69013" d="M291.552,159.953l2.728,12.37,7.231-1.783-2.585-12.428Z" transform="translate(-231.546 -136.244)" fill="#fff"/>
          <path id="Path_69014" data-name="Path 69014" d="M304.075,184.375a.767.767,0,1,1-.767-.767A.767.767,0,0,1,304.075,184.375Z" transform="translate(-236.666 -148.125)" fill="#455a64"/>
          <path id="Path_69015" data-name="Path 69015" d="M298.363,158.424l-3.3.743.01.047,3.3-.743Z" transform="translate(-233.18 -136.389)" fill="#455a64"/>
          <rect id="Rectangle_780" data-name="Rectangle 780" width="6.53" height="5.212" transform="translate(60.626 24.37) rotate(-12.663)" fill="#f0f0f0"/>
          <path id="Path_69016" data-name="Path 69016" d="M295.173,172.032l.483,1.81,6.252-1.428-.442-1.97Z" transform="translate(-233.233 -141.99)" fill="#e0e0e0"/>
          <path id="Path_69017" data-name="Path 69017" d="M296.471,176.885l.572,2.751,6.179-1.545-.592-2.624Z" transform="translate(-233.838 -144.331)" fill="#ebebeb"/>
          <path id="Path_69018" data-name="Path 69018" d="M209.931,211.135c-.167.93-.42,2.342-.717,4,3.647.152,8.034.346,12.755.566,4.983.231,9.592.456,13.354.649l-.039-4.04c-3.721-.155-8.246-.355-13.13-.582C217.658,211.518,213.469,211.314,209.931,211.135Z" transform="translate(-193.178 -160.952)" fill="#e8505b"/>
          <path id="Path_69019" data-name="Path 69019" d="M199.312,178.477a30.221,30.221,0,0,0-1.839,4.033c3.978.139,11.361.451,19.819.843,7.523.349,14.2.684,18.379.915a35.066,35.066,0,0,0-1.955-4.18c-4.154-.164-9.9-.413-16.24-.708C210.078,179.037,203.5,178.708,199.312,178.477Z" transform="translate(-187.706 -145.734)" fill="#e8505b"/>
          <path id="Path_69020" data-name="Path 69020" d="M242.729,171.844a5.954,5.954,0,0,1-.918.946c2.851.135,5.525.266,7.929.387A28.671,28.671,0,0,0,242.729,171.844Z" transform="translate(-208.367 -142.643)" fill="#e8505b"/>
          <path id="Path_69021" data-name="Path 69021" d="M220.235,258.909l20.447,3.233-.022-2.315c-3.969-.162-9.061-.386-14.614-.643C224.038,259.091,222.091,259,220.235,258.909Z" transform="translate(-198.313 -183.214)" fill="#e8505b"/>
          <path id="Path_69022" data-name="Path 69022" d="M258.877,215.446l1.551-2.016-2.362-.1Z" transform="translate(-215.942 -161.975)" fill="#e8505b"/>
          <path id="Path_69023" data-name="Path 69023" d="M203.781,242.979c-.325,1.469-.649,2.872-.916,4.014,4.065.164,9.447.4,15.35.673,5.415.252,10.389.5,14.312.7l-.038-4.05c-3.889-.16-8.777-.375-14.089-.621C212.843,243.435,207.749,243.185,203.781,242.979Z" transform="translate(-190.219 -175.79)" fill="#e8505b"/>
          <path id="Path_69024" data-name="Path 69024" d="M202.251,250.922c-.348,1.482-.588,2.467-.588,2.467l7.489,1.392c2.562.113,5.343.238,8.254.373,5.546.257,10.633.507,14.6.713l-.034-3.559c-3.927-.161-8.907-.38-14.329-.631C211.717,251.4,206.32,251.136,202.251,250.922Z" transform="translate(-189.659 -179.492)" fill="#e8505b"/>
          <path id="Path_69025" data-name="Path 69025" d="M205.522,235.027c-.253,1.28-.547,2.666-.844,4.01,3.964.162,9.043.384,14.581.641,5.306.247,10.187.486,14.072.686l-.038-4.048c-3.849-.159-8.647-.37-13.85-.611C214.205,235.462,209.382,235.226,205.522,235.027Z" transform="translate(-191.064 -172.085)" fill="#e8505b"/>
          <path id="Path_69026" data-name="Path 69026" d="M194.007,194.205c-.45,1.658-.767,3.118-.968,4.136,3.014.078,11.627.433,21.79.905,7.681.356,14.475.7,18.635.93l2.158-2.808s-.14-.475-.387-1.238c-3.869-.131-11.473-.451-20.222-.857C205.617,194.837,197.549,194.424,194.007,194.205Z" transform="translate(-185.64 -153.063)" fill="#e8505b"/>
          <path id="Path_69027" data-name="Path 69027" d="M192.786,202.129c-.17.873-.249,1.4-.249,1.4l9.836,2.229-.166.924c3.532.15,7.71.334,12.19.543,6.059.281,11.566.553,15.665.769l3.034-3.946c-4.174-.155-10.912-.443-18.515-.8C204.4,202.775,195.782,202.33,192.786,202.129Z" transform="translate(-185.406 -156.755)" fill="#e8505b"/>
          <path id="Path_69028" data-name="Path 69028" d="M208.5,219.1c-.222,1.242-.466,2.607-.714,4,3.755.156,8.349.359,13.316.589,5.09.235,9.79.465,13.593.661l-.039-4.043c-3.765-.156-8.38-.36-13.37-.591C216.556,219.5,212.158,219.286,208.5,219.1Z" transform="translate(-192.514 -164.663)" fill="#e8505b"/>
          <path id="Path_69029" data-name="Path 69029" d="M196.222,186.314c-.521,1.4-.956,2.8-1.309,4.092,3.561.111,11.615.447,20.988.882,8.706.4,16.277.789,20.159,1.017-.343-1.054-.869-2.588-1.506-4.2-4.178-.155-10.894-.443-18.468-.795C207.591,186.92,200.184,186.545,196.222,186.314Z" transform="translate(-186.514 -149.385)" fill="#e8505b"/>
          <path id="Path_69030" data-name="Path 69030" d="M207.074,227.064c-.147.829-.3,1.667-.442,2.492-.085.478-.18.988-.284,1.517,3.856.159,8.667.371,13.888.613,5.2.241,9.988.475,13.833.673l-.038-4.045c-3.808-.158-8.515-.364-13.61-.6C215.439,227.482,210.834,227.257,207.074,227.064Z" transform="translate(-191.842 -168.374)" fill="#e8505b"/>
          <path id="Path_69031" data-name="Path 69031" d="M218.76,170.608a12.208,12.208,0,0,1-2.1-1.789s-5.2-2.284-9.264-.077a7.881,7.881,0,0,0-1.726,1.3C209.165,170.182,213.71,170.378,218.76,170.608Z" transform="translate(-191.524 -140.749)" fill="#e8505b"/>
          <path id="Path_69032" data-name="Path 69032" d="M203.337,172.414a15.179,15.179,0,0,0-2.227,3.052c4.2.159,10.732.438,18.076.78,6.273.291,11.954.571,16.094.791a7.715,7.715,0,0,0-1.744-2.193,9.271,9.271,0,0,0-1.982-1.1c-2.7-.114-5.787-.249-9.1-.4-1.808,1.2-3.768.639-5.287-.245C211.807,172.847,206.984,172.607,203.337,172.414Z" transform="translate(-189.401 -142.908)" fill="#e8505b"/>
          <path id="Path_69033" data-name="Path 69033" d="M201.02,178.13c-.035.061-.069.123-.1.185,4.191.231,10.766.56,18.165.9,6.344.295,12.086.544,16.24.708-.044-.076-.088-.151-.132-.225-4.139-.22-9.821-.5-16.094-.791C211.752,178.568,205.219,178.289,201.02,178.13Z" transform="translate(-189.311 -145.572)" fill="#263238"/>
          <path id="Path_69034" data-name="Path 69034" d="M249.4,174c-2.4-.121-5.077-.252-7.929-.387a4.665,4.665,0,0,1-.388.288c3.31.151,6.393.286,9.1.4C249.927,174.2,249.666,174.1,249.4,174Z" transform="translate(-208.029 -143.468)" fill="#263238"/>
          <path id="Path_69035" data-name="Path 69035" d="M205.486,172.016c-.07.067-.138.142-.206.213,3.647.193,8.47.433,13.834.685q-.277-.16-.533-.332C213.531,172.352,208.985,172.155,205.486,172.016Z" transform="translate(-191.344 -142.723)" fill="#263238"/>
          <path id="Path_69036" data-name="Path 69036" d="M197.423,186.029c-.019.051-.039.1-.058.152,3.961.231,11.369.606,19.863,1,7.574.352,14.29.639,18.468.795l-.075-.188c-4.18-.231-10.857-.566-18.379-.915C208.784,186.48,201.4,186.168,197.423,186.029Z" transform="translate(-187.656 -149.253)" fill="#263238"/>
          <path id="Path_69037" data-name="Path 69037" d="M194.884,193.976c-.011.042-.021.081-.033.122,3.542.219,11.611.632,21.007,1.068,8.749.406,16.353.726,20.222.857-.016-.048-.032-.1-.049-.149-3.882-.228-11.454-.613-20.159-1.017C206.5,194.423,198.445,194.087,194.884,193.976Z" transform="translate(-186.485 -152.956)" fill="#263238"/>
          <path id="Path_69038" data-name="Path 69038" d="M193.023,201.951c-.006.032-.012.064-.019.1,3,.2,11.616.646,21.794,1.119,7.6.353,14.341.641,18.515.8l.135-.175c-4.16-.233-10.954-.574-18.635-.93C204.65,202.384,196.037,202.029,193.023,201.951Z" transform="translate(-185.624 -156.672)" fill="#263238"/>
          <path id="Path_69039" data-name="Path 69039" d="M210.6,210.648l-.047.26c3.538.179,7.727.383,12.223.591,4.885.226,9.409.427,13.13.582h0v-.049l.019.049,2.362.1.169-.219c-4.1-.216-9.605-.488-15.665-.769C218.313,210.982,214.135,210.8,210.6,210.648Z" transform="translate(-193.803 -160.725)" fill="#263238"/>
          <path id="Path_69040" data-name="Path 69040" d="M209.174,218.623l-.046.255c3.653.186,8.051.4,12.786.62,4.99.231,9.605.435,13.37.591h.005l0-.252h0c-3.762-.193-8.37-.418-13.354-.649C217.208,218.969,212.821,218.775,209.174,218.623Z" transform="translate(-193.137 -164.441)" fill="#263238"/>
          <path id="Path_69041" data-name="Path 69041" d="M207.752,226.6c-.014.083-.029.166-.044.249,3.759.193,8.365.418,13.346.649,5.1.237,9.8.443,13.61.6h.009l0-.249h-.009c-3.8-.2-8.5-.425-13.593-.661C216.1,226.957,211.508,226.754,207.752,226.6Z" transform="translate(-192.476 -168.157)" fill="#263238"/>
          <path id="Path_69042" data-name="Path 69042" d="M206.306,234.571c-.016.081-.032.162-.048.244,3.86.2,8.684.435,13.921.678,5.2.242,10,.453,13.85.611h.014l0-.247h-.014c-3.845-.2-8.637-.432-13.833-.673C214.973,234.942,210.162,234.73,206.306,234.571Z" transform="translate(-191.8 -171.872)" fill="#263238"/>
          <path id="Path_69043" data-name="Path 69043" d="M204.633,242.536c-.018.079-.035.158-.052.237,3.968.206,9.061.456,14.618.714,5.312.246,10.2.461,14.089.621h.019l0-.244h-.019c-3.885-.2-8.766-.439-14.072-.686C213.676,242.92,208.6,242.7,204.633,242.536Z" transform="translate(-191.019 -175.584)" fill="#263238"/>
          <path id="Path_69044" data-name="Path 69044" d="M202.818,250.5l-.053.227c4.068.214,9.465.479,15.389.755,5.422.252,10.4.47,14.329.631h.024l0-.242-.023,0c-3.923-.2-8.9-.446-14.312-.7C212.265,250.895,206.884,250.66,202.818,250.5Z" transform="translate(-190.172 -179.293)" fill="#263238"/>
          <path id="Path_69045" data-name="Path 69045" d="M215.687,258.147l2.1.391.324.015c1.856.09,3.8.182,5.811.275,5.553.257,10.645.481,14.614.643h.029l0-.238-.028,0c-3.965-.206-9.052-.456-14.6-.713C221.03,258.385,218.249,258.26,215.687,258.147Z" transform="translate(-196.194 -182.858)" fill="#263238"/>
          <path id="Path_69046" data-name="Path 69046" d="M257.14,208.539c-.085.009-.453-3.095-.822-6.928s-.6-6.952-.515-6.96.453,3.094.823,6.93S257.225,208.531,257.14,208.539Z" transform="translate(-214.879 -153.27)" fill="#263238"/>
          <path id="Path_69047" data-name="Path 69047" d="M256.539,191.823c.07.048-.16.511-.515,1.034s-.7.909-.771.861.16-.511.515-1.035S256.468,191.775,256.539,191.823Z" transform="translate(-214.625 -151.951)" fill="#263238"/>
          <path id="Path_69048" data-name="Path 69048" d="M233.861,222.991c.04.076-3.7,2.129-8.353,4.585s-8.458,4.387-8.5,4.312,3.7-2.128,8.354-4.586S233.821,222.916,233.861,222.991Z" transform="translate(-196.81 -166.475)" fill="#263238"/>
          <path id="Path_69049" data-name="Path 69049" d="M239.642,229.872a11.534,11.534,0,0,1-1.776.382c-1.195.224-2.67.5-4.3.809l-4.289.871a11.419,11.419,0,0,1-1.789.316,9.77,9.77,0,0,1,1.74-.529c1.086-.282,2.6-.633,4.279-.962s3.213-.574,4.325-.722A9.817,9.817,0,0,1,239.642,229.872Z" transform="translate(-201.693 -169.677)" fill="#263238"/>
          <path id="Path_69050" data-name="Path 69050" d="M210.843,199.285a5.593,5.593,0,0,1,.023,1.379c-.034.85-.123,2.022-.29,3.309s-.381,2.445-.566,3.274a5.611,5.611,0,0,1-.375,1.327,6.7,6.7,0,0,1,.161-1.367c.129-.837.307-1.992.474-3.274s.29-2.443.379-3.285A6.736,6.736,0,0,1,210.843,199.285Z" transform="translate(-193.368 -155.43)" fill="#263238"/>
          <path id="Path_69051" data-name="Path 69051" d="M235.562,170.677c.014.012-.07.143-.239.365a7.8,7.8,0,0,1-.789.89,3.77,3.77,0,0,1-1.526.925,4.176,4.176,0,0,1-2.185-.021,9,9,0,0,1-3.45-1.846,7.881,7.881,0,0,1-.844-.835c-.183-.213-.268-.343-.255-.355.035-.032.445.43,1.223,1.038a9.834,9.834,0,0,0,3.394,1.728,4.064,4.064,0,0,0,2.047.044,3.788,3.788,0,0,0,1.464-.824C235.133,171.131,235.524,170.642,235.562,170.677Z" transform="translate(-201.127 -141.689)" fill="#263238"/>
        </g>
      </g>
    </g>
    <text id="_1467" data-name="1467" transform="translate(235 186)" fill="#fff" font-size="14" font-family="SegoeUI, Segoe UI"><tspan x="0" y="0">1467</tspan></text>
  </g>
</svg>
