<svg xmlns="http://www.w3.org/2000/svg" width="255.559" height="157.775" viewBox="0 0 255.559 157.775">
  <g id="Group_15837" data-name="Group 15837" transform="translate(-60.585 -140.523)">
    <g id="Group_15799" data-name="Group 15799">
      <g id="Group_15350" data-name="Group 15350" transform="translate(13.918 83.207)">
        <g id="Background_Complete" data-name="Background Complete" transform="translate(35.082 57.317)">
          <g id="Group_14926" data-name="Group 14926" transform="translate(211.682)">
            <rect id="Rectangle_796" data-name="Rectangle 796" width="41.138" height="56.221" fill="#e0e0e0"/>
            <rect id="Rectangle_797" data-name="Rectangle 797" width="38.255" height="53.209" transform="translate(1.431 1.538)" fill="#fafafa"/>
            <rect id="Rectangle_798" data-name="Rectangle 798" width="12.48" height="30.48" transform="translate(14.318 13.994)" fill="#e0e0e0"/>
          </g>
          <g id="Group_14944" data-name="Group 14944" transform="translate(30 92.269)">
            <g id="Group_14928" data-name="Group 14928">
              <g id="Group_14927" data-name="Group 14927">
                <path id="Path_69121" data-name="Path 69121" d="M64.9,347.322c9.658-4.689,13.424-15.647,14.693-25.834.212-1.7.681-3.454.113-5.066s-2.284-2.925-3.912-2.453c-1.35.391-2.13,1.765-3.025,2.861a10.012,10.012,0,0,1-4.569,3.157,3.817,3.817,0,0,1-3.523-.238c-1.33-1.037-1.182-3.08-.9-4.761q.778-4.7,1.556-9.4a15.873,15.873,0,0,0,.287-5.077,5.283,5.283,0,0,0-2.718-4.05,3.2,3.2,0,0,0-4.255,1.5,15.671,15.671,0,0,0-.381,2.087,1.792,1.792,0,0,1-1.3,1.5c-.7.091-1.3-.494-1.724-1.066a22.654,22.654,0,0,1-3.051-6.7,31.428,31.428,0,0,0-2.749-6.852,9.21,9.21,0,0,0-5.613-4.438,5.515,5.515,0,0,0-6.176,2.827c-.988,2.274.013,4.9,1.213,7.06a38.016,38.016,0,0,0,6.632,8.7,3.13,3.13,0,0,1,1.084,1.614c.187,1.18-1.053,2.124-2.219,2.317a19.72,19.72,0,0,1-4-.183,3.83,3.83,0,0,0-3.543,1.459c-.962,1.609.189,3.64,1.416,5.046a32.566,32.566,0,0,0,8.645,7.01,10.983,10.983,0,0,1,3.264,2.282,3.153,3.153,0,0,1,.43,3.725,3.21,3.21,0,0,1-3.658.776,22.724,22.724,0,0,1-3.467-2c-2.173-1.24-5.183-1.556-6.982.206a5.391,5.391,0,0,0-1.316,4.617,12.428,12.428,0,0,0,1.888,4.563,32.753,32.753,0,0,0,12.266,11.9c5.066,2.713,9.955,4.007,15.595,2.906" transform="translate(-35.082 -282.366)" fill="#ebebeb"/>
              </g>
            </g>
            <g id="Group_14931" data-name="Group 14931" transform="translate(5.365 1.035)">
              <g id="Group_14930" data-name="Group 14930">
                <g id="Group_14929" data-name="Group 14929">
                  <path id="Path_69122" data-name="Path 69122" d="M71.252,349.351c.271-4.072.453-1.96-.235-7.308a152.6,152.6,0,0,0-3.4-17.18l-1.123-4.457c-.372-1.462-.74-2.913-1.189-4.308a76.161,76.161,0,0,0-3.035-7.874c-1.086-2.458-2.207-4.751-3.271-6.887s-2.1-4.106-3.121-5.862a60.487,60.487,0,0,0-5.418-7.922c-.71-.882-1.284-1.548-1.679-1.994l-.452-.5a1.312,1.312,0,0,0-.162-.165,1.167,1.167,0,0,0,.138.186l.428.525c.379.459.937,1.137,1.632,2.03a63.955,63.955,0,0,1,5.321,7.957c1,1.758,2.023,3.731,3.08,5.867s2.163,4.433,3.24,6.888a77.032,77.032,0,0,1,3.006,7.85c.444,1.389.808,2.827,1.18,4.292l1.121,4.456a156.329,156.329,0,0,1,3.419,17.141c.7,5.33.542,3.2.3,7.256" transform="translate(-48.167 -284.89)" fill="#e0e0e0"/>
                </g>
              </g>
            </g>
            <g id="Group_14934" data-name="Group 14934" transform="translate(22.412 14.1)">
              <g id="Group_14933" data-name="Group 14933">
                <g id="Group_14932" data-name="Group 14932">
                  <path id="Path_69123" data-name="Path 69123" d="M89.75,334.873a3.453,3.453,0,0,0,.278-.691c.163-.451.376-1.111.627-1.929.5-1.637,1.124-3.922,1.8-6.443s1.324-4.792,1.852-6.416c.262-.813.48-1.469.637-1.92a3.41,3.41,0,0,0,.21-.715,3.413,3.413,0,0,0-.323.672c-.192.439-.443,1.086-.732,1.893-.584,1.612-1.271,3.881-1.945,6.406l-1.708,6.463c-.21.776-.388,1.43-.531,1.955A3.419,3.419,0,0,0,89.75,334.873Z" transform="translate(-89.746 -316.758)" fill="#e0e0e0"/>
                </g>
              </g>
            </g>
            <g id="Group_14937" data-name="Group 14937" transform="translate(1.433 24.727)">
              <g id="Group_14936" data-name="Group 14936">
                <g id="Group_14935" data-name="Group 14935">
                  <path id="Path_69124" data-name="Path 69124" d="M38.576,342.682a4.765,4.765,0,0,0,.846.241c.547.138,1.34.332,2.311.6,1.947.529,4.61,1.354,7.509,2.393s5.48,2.1,7.326,2.919c.926.4,1.667.749,2.18.985a4.706,4.706,0,0,0,.811.342,4.713,4.713,0,0,0-.757-.452c-.5-.27-1.225-.648-2.143-1.079-1.827-.872-4.405-1.966-7.312-3.013a77.211,77.211,0,0,0-7.559-2.311c-.982-.245-1.784-.408-2.341-.508A4.658,4.658,0,0,0,38.576,342.682Z" transform="translate(-38.576 -342.677)" fill="#e0e0e0"/>
                </g>
              </g>
            </g>
            <g id="Group_14940" data-name="Group 14940" transform="translate(28.011 31.859)">
              <g id="Group_14939" data-name="Group 14939">
                <g id="Group_14938" data-name="Group 14938">
                  <path id="Path_69125" data-name="Path 69125" d="M103.4,385.96a1.132,1.132,0,0,0,.19-.24l.494-.724c.426-.63,1.02-1.558,1.738-2.714,1.438-2.312,3.323-5.567,5.355-9.187s3.886-6.89,5.273-9.229l1.651-2.765.445-.755a1.137,1.137,0,0,0,.137-.275,1.163,1.163,0,0,0-.191.241l-.494.723c-.426.63-1.02,1.558-1.738,2.715-1.438,2.311-3.323,5.567-5.356,9.188s-3.885,6.889-5.273,9.227c-.679,1.135-1.237,2.07-1.651,2.764l-.445.755A1.122,1.122,0,0,0,103.4,385.96Z" transform="translate(-103.402 -360.071)" fill="#e0e0e0"/>
                </g>
              </g>
            </g>
            <g id="Group_14943" data-name="Group 14943" transform="translate(0.747 43.91)">
              <g id="Group_14942" data-name="Group 14942">
                <g id="Group_14941" data-name="Group 14941">
                  <path id="Path_69126" data-name="Path 69126" d="M36.9,389.467a1.172,1.172,0,0,0,.266.163l.79.412,2.919,1.487c2.464,1.256,5.848,3.03,9.584,5s7.14,3.711,9.632,4.916c1.245.6,2.257,1.081,2.964,1.4l.815.359a1.146,1.146,0,0,0,.294.105,1.207,1.207,0,0,0-.266-.164l-.79-.412-2.918-1.487c-2.464-1.256-5.849-3.03-9.586-5s-7.139-3.71-9.63-4.916c-1.246-.6-2.258-1.081-2.965-1.4l-.815-.359A1.161,1.161,0,0,0,36.9,389.467Z" transform="translate(-36.905 -389.465)" fill="#e0e0e0"/>
                </g>
              </g>
            </g>
          </g>
          <g id="Group_14945" data-name="Group 14945" transform="translate(29.577 36.721)">
            <rect id="Rectangle_799" data-name="Rectangle 799" width="32.487" height="31.92" fill="#e0e0e0"/>
            <rect id="Rectangle_800" data-name="Rectangle 800" width="30.21" height="30.21" transform="translate(1.13 0.873)" fill="#fafafa"/>
            <rect id="Rectangle_801" data-name="Rectangle 801" width="9.855" height="9.855" transform="translate(11.307 11.051)" fill="#e0e0e0"/>
          </g>
        </g>
        <g id="Floor" transform="translate(46.667 214.878)">
          <g id="Group_14947" data-name="Group 14947">
            <g id="Group_14946" data-name="Group 14946">
              <path id="Path_69127" data-name="Path 69127" d="M318.9,441.724c0,.059-57.214.107-127.774.107-70.585,0-127.786-.048-127.786-.107s57.2-.107,127.786-.107C261.685,441.617,318.9,441.665,318.9,441.724Z" transform="translate(-63.339 -441.617)" fill="#263238"/>
            </g>
          </g>
        </g>
        <g id="Plants" transform="translate(53.174 167.552)">
          <g id="Group_15264" data-name="Group 15264" transform="translate(30)">
            <path id="Path_69231" data-name="Path 69231" d="M97.26,326.215s2.694.119,1.751,6.083a69.862,69.862,0,0,1-1.927,9.086s-.076,1.338.983,1.2,3.146-1.209,3.99-.131c.875,1.118.343,2.615-1.183,4.273s-4.737,5.414-5.026,5.754-.46,1,.277,1.023,5.856-1.076,6.23,1.384-4.636,6.381-5.176,6.82-.6.749-.441,1.071,1.846-.208,3.315-.46,3.216-.287,3.313,1.151-2.361,5.324-10.277,8.789l-3.773,1.365-3.125-2.546c-6.354-5.855-7.412-10.331-6.851-11.659s2.2-.725,3.507-.008,2.727,1.768,2.984,1.515.3-.565-.068-1.156-3.826-5.931-2.671-8.134,5.638.5,6.341.722.755-.467.6-.876-1.974-5.013-2.876-7.078-.918-3.653.274-4.425c1.149-.744,2.773.945,3.729,1.424s1.319-.811,1.319-.811a69.908,69.908,0,0,1,1.139-9.218c1.052-5.946,3.7-5.148,3.7-5.148" transform="translate(-79.211 -326.186)" fill="#ee611c"/>
            <g id="Group_15257" data-name="Group 15257" transform="translate(10.106 5.372)">
              <path id="Path_69232" data-name="Path 69232" d="M110.967,339.289a.6.6,0,0,1-.011.11c-.012.08-.028.185-.049.32-.048.289-.115.7-.2,1.226l-.761,4.507-2.453,14.879c-.947,5.815-1.829,11.074-2.5,14.875l-.81,4.5-.231,1.221c-.027.133-.048.238-.064.317a.6.6,0,0,1-.027.107.55.55,0,0,1,.011-.11c.012-.08.028-.186.048-.32.048-.289.116-.7.2-1.226.182-1.073.441-2.611.761-4.507.642-3.806,1.507-9.067,2.453-14.882s1.829-11.071,2.5-14.873l.81-4.5.231-1.221.064-.317A.546.546,0,0,1,110.967,339.289Z" transform="translate(-103.859 -339.289)" fill="#263238"/>
            </g>
            <g id="Group_15258" data-name="Group 15258" transform="translate(14.334 17.874)">
              <path id="Path_69233" data-name="Path 69233" d="M119.826,369.783a8.187,8.187,0,0,1-.807.717l-1.975,1.693c-.771.663-1.474,1.258-2,1.674-.261.207-.476.371-.629.479a1.049,1.049,0,0,1-.247.154,9.963,9.963,0,0,1,.8-.718l1.964-1.707c.771-.663,1.482-1.249,2.008-1.66.263-.2.478-.367.631-.475A1.069,1.069,0,0,1,119.826,369.783Z" transform="translate(-114.173 -369.782)" fill="#263238"/>
            </g>
            <g id="Group_15259" data-name="Group 15259" transform="translate(8.771 15.738)">
              <path id="Path_69234" data-name="Path 69234" d="M105.827,371.266c-.034.027-1.23-1.451-2.673-3.3s-2.584-3.368-2.55-3.395,1.23,1.451,2.673,3.3S105.861,371.239,105.827,371.266Z" transform="translate(-100.603 -364.572)" fill="#263238"/>
            </g>
            <g id="Group_15260" data-name="Group 15260" transform="translate(6.901 28.127)">
              <path id="Path_69235" data-name="Path 69235" d="M101.948,399.429a1.076,1.076,0,0,1-.262-.14c-.164-.1-.4-.247-.679-.435-.566-.378-1.336-.92-2.153-1.564s-1.529-1.26-2.029-1.722c-.251-.23-.449-.422-.583-.557a1.083,1.083,0,0,1-.2-.222,8.913,8.913,0,0,1,.854.7c.518.44,1.237,1.043,2.053,1.682s1.571,1.2,2.12,1.6A8.77,8.77,0,0,1,101.948,399.429Z" transform="translate(-96.043 -394.789)" fill="#263238"/>
            </g>
            <g id="Group_15261" data-name="Group 15261" transform="translate(12.794 29.836)">
              <path id="Path_69236" data-name="Path 69236" d="M116.757,398.959a6.539,6.539,0,0,1-.906.466c-.568.269-1.357.632-2.232,1.023s-1.672.738-2.251.982a6.579,6.579,0,0,1-.951.365,6.628,6.628,0,0,1,.906-.466c.568-.269,1.357-.632,2.232-1.023s1.671-.738,2.251-.982A6.652,6.652,0,0,1,116.757,398.959Z" transform="translate(-110.417 -398.958)" fill="#263238"/>
            </g>
            <g id="Group_15262" data-name="Group 15262" transform="translate(11.084 39.093)">
              <path id="Path_69237" data-name="Path 69237" d="M114.406,421.538a1.528,1.528,0,0,1-.308.168l-.865.4c-.733.335-1.749.787-2.876,1.278s-2.151.928-2.895,1.237l-.884.359a1.542,1.542,0,0,1-.333.112,1.514,1.514,0,0,1,.309-.168l.865-.4c.733-.335,1.749-.788,2.876-1.279s2.15-.928,2.894-1.237l.884-.359A1.541,1.541,0,0,1,114.406,421.538Z" transform="translate(-106.246 -421.536)" fill="#263238"/>
            </g>
            <g id="Group_15263" data-name="Group 15263" transform="translate(3.924 36.423)">
              <path id="Path_69238" data-name="Path 69238" d="M96.113,421.113a1.727,1.727,0,0,1-.32-.2c-.2-.135-.485-.338-.834-.592-.7-.51-1.645-1.235-2.658-2.078s-1.9-1.64-2.531-2.232c-.315-.3-.565-.539-.736-.711a1.743,1.743,0,0,1-.253-.278,1.742,1.742,0,0,1,.294.234l.768.674c.647.57,1.544,1.353,2.557,2.193s1.947,1.578,2.625,2.11l.8.631A1.771,1.771,0,0,1,96.113,421.113Z" transform="translate(-88.781 -415.024)" fill="#263238"/>
            </g>
          </g>
          <g id="Group_15274" data-name="Group 15274" transform="translate(173.837 21.305)">
            <g id="Group_15265" data-name="Group 15265" transform="translate(6.373)">
              <path id="Path_69239" data-name="Path 69239" d="M653.637,378.171a4.885,4.885,0,0,1,2.531,2.867,8.628,8.628,0,0,1,.336,3.884,15.214,15.214,0,0,1-3.26,7.079c-2.122-1.852-2.611-5.084-2.756-6.739-.229-2.615.946-7.482,3.148-7.092" transform="translate(-650.46 -378.149)" fill="#ee611c"/>
            </g>
            <g id="Group_15266" data-name="Group 15266" transform="translate(11.528 12.758)">
              <path id="Path_69240" data-name="Path 69240" d="M663.131,414.522a4.168,4.168,0,0,1,1.347-3.962,5.533,5.533,0,0,1,4.082-1.275,2.331,2.331,0,0,1,1.792.8,1.782,1.782,0,0,1,.027,1.806,3.609,3.609,0,0,1-1.337,1.317c-1.839,1.154-3.831,1.933-5.911,1.309" transform="translate(-663.035 -409.267)" fill="#ee611c"/>
            </g>
            <g id="Group_15268" data-name="Group 15268" transform="translate(8.899 15.247)">
              <g id="Group_15267" data-name="Group 15267">
                <path id="Path_69241" data-name="Path 69241" d="M656.625,425.831a2.956,2.956,0,0,1,.076-.517c.066-.364.153-.835.257-1.4a14.624,14.624,0,0,1,1.444-4.472,8.954,8.954,0,0,1,3.209-3.41,6.06,6.06,0,0,1,1.309-.578,3.637,3.637,0,0,1,.377-.1.381.381,0,0,1,.135-.019,9.537,9.537,0,0,0-1.753.8,9.243,9.243,0,0,0-3.116,3.388,15.756,15.756,0,0,0-1.478,4.409c-.128.586-.233,1.062-.314,1.388A2.766,2.766,0,0,1,656.625,425.831Z" transform="translate(-656.622 -415.337)" fill="#ee611c"/>
              </g>
            </g>
            <g id="Group_15270" data-name="Group 15270" transform="translate(8.876 3.807)">
              <g id="Group_15269" data-name="Group 15269">
                <path id="Path_69242" data-name="Path 69242" d="M656.672,387.434a1.021,1.021,0,0,1,.026.226c.01.168.023.383.039.65.03.564.064,1.381.1,2.391.066,2.02.117,4.811.1,7.895s-.089,5.876-.172,7.895c-.041,1.009-.081,1.826-.116,2.39-.018.267-.033.482-.044.649a1.019,1.019,0,0,1-.028.226,1.106,1.106,0,0,1-.009-.228c0-.168.006-.384.01-.651.014-.588.034-1.4.058-2.392.05-2.019.1-4.809.118-7.891s-.018-5.872-.05-7.891c-.016-.993-.028-1.8-.037-2.392,0-.267,0-.483,0-.651A1.081,1.081,0,0,1,656.672,387.434Z" transform="translate(-656.566 -387.434)" fill="#ee611c"/>
              </g>
            </g>
            <g id="Group_15271" data-name="Group 15271" transform="translate(0 12.057)">
              <path id="Path_69243" data-name="Path 69243" d="M642.869,415.047a9.748,9.748,0,0,0-5.323-7.141,2.055,2.055,0,0,0-2.219-.034,2.019,2.019,0,0,0-.167,2.211,8.328,8.328,0,0,0,7.659,5.171" transform="translate(-634.917 -407.557)" fill="#ee611c"/>
            </g>
            <g id="Group_15273" data-name="Group 15273" transform="translate(2.972 14.796)">
              <g id="Group_15272" data-name="Group 15272">
                <path id="Path_69244" data-name="Path 69244" d="M642.166,414.238a2.474,2.474,0,0,1,.45.2,4.677,4.677,0,0,1,.509.271c.191.119.421.235.648.406a8.589,8.589,0,0,1,.741.558,9.625,9.625,0,0,1,.789.717,10.839,10.839,0,0,1,1.5,1.926,10.63,10.63,0,0,1,.988,2.233,9.247,9.247,0,0,1,.249,1.037,7.935,7.935,0,0,1,.128.92,7.251,7.251,0,0,1,.035.764,4.341,4.341,0,0,1-.017.576,2.477,2.477,0,0,1-.055.488c-.041,0,.031-.7-.093-1.816a8.4,8.4,0,0,0-.147-.9,9.738,9.738,0,0,0-.262-1.016,11.039,11.039,0,0,0-.983-2.188,11.274,11.274,0,0,0-1.463-1.9,10.088,10.088,0,0,0-.765-.718c-.244-.222-.494-.4-.718-.568C642.787,414.565,642.148,414.274,642.166,414.238Z" transform="translate(-642.166 -414.237)" fill="#ee611c"/>
              </g>
            </g>
          </g>
        </g>
      </g>
    </g>
    <g id="Group_15836" data-name="Group 15836" transform="translate(-9)">
      <g id="Group_15797" data-name="Group 15797" transform="translate(11)">
        <rect id="Rectangle_735" data-name="Rectangle 735" width="79.909" height="156.688" rx="3" transform="translate(148 140.667)" fill="#8d8d8d"/>
        <rect id="Rectangle_736" data-name="Rectangle 736" width="72.531" height="146.543" rx="6" transform="translate(151.626 145.274)" fill="#efebeb"/>
        <path id="Path_68357" data-name="Path 68357" d="M255.815,102.428h-3.548A1.971,1.971,0,0,0,250.3,104.4v1.409a1.971,1.971,0,0,1-1.972,1.971H232.5a1.971,1.971,0,0,1-1.971-1.971V104.4a1.971,1.971,0,0,0-1.971-1.972H218.483v-1.011h37.332Z" transform="translate(-51.483 42.115)" fill="#8d8d8d"/>
      </g>
      <g id="Group_15835" data-name="Group 15835" transform="translate(-98.154 73.741)">
        <g id="Group_15834" data-name="Group 15834" transform="translate(255.155 103.471)">
          <g id="Group_15806" data-name="Group 15806" transform="translate(13.92)">
            <g id="Group_15802" data-name="Group 15802">
              <g id="Group_15801" data-name="Group 15801">
                <g id="Group_15800" data-name="Group 15800">
                  <path id="Path_69592" data-name="Path 69592" d="M347.539,111.931l-22.967-8.46-22.743,8.345c-2.9,1.407-5.45,2.249-5.45,5.023v13.813a53.216,53.216,0,0,0,7.492,27.491A47.06,47.06,0,0,0,324.8,177.1c9.3-3.1,16.236-11.354,20.478-18.417a53.215,53.215,0,0,0,7.492-27.491V118.77C352.766,114.814,350.722,112.882,347.539,111.931Z" transform="translate(-296.379 -103.471)" fill="#e8505b"/>
                </g>
              </g>
            </g>
            <g id="Group_15805" data-name="Group 15805" opacity="0.8">
              <g id="Group_15804" data-name="Group 15804">
                <g id="Group_15803" data-name="Group 15803">
                  <path id="Path_69593" data-name="Path 69593" d="M347.539,111.931l-22.967-8.46-22.743,8.345c-2.9,1.407-5.45,2.249-5.45,5.023v13.813a53.216,53.216,0,0,0,7.492,27.491A47.06,47.06,0,0,0,324.8,177.1c9.3-3.1,16.236-11.354,20.478-18.417a53.215,53.215,0,0,0,7.492-27.491V118.77C352.766,114.814,350.722,112.882,347.539,111.931Z" transform="translate(-296.379 -103.471)" fill="#fff"/>
                </g>
              </g>
            </g>
          </g>
          <g id="Group_15821" data-name="Group 15821" transform="translate(23.213 6.433)">
            <g id="Group_15814" data-name="Group 15814">
              <g id="Group_15808" data-name="Group 15808" transform="translate(4.876)">
                <g id="Group_15807" data-name="Group 15807">
                  <path id="Path_69594" data-name="Path 69594" d="M366.389,159.517h-4.22V136.548a9.8,9.8,0,0,0-19.61,0v22.969h-4.22V136.548a14.025,14.025,0,1,1,28.049,0Z" transform="translate(-338.34 -122.523)" fill="#e8505b"/>
                </g>
              </g>
              <g id="Group_15810" data-name="Group 15810" transform="translate(4.876)" opacity="0.4">
                <g id="Group_15809" data-name="Group 15809">
                  <path id="Path_69595" data-name="Path 69595" d="M366.389,159.517h-4.22V136.548a9.8,9.8,0,0,0-19.61,0v22.969h-4.22V136.548a14.025,14.025,0,1,1,28.049,0Z" transform="translate(-338.34 -122.523)"/>
                </g>
              </g>
              <g id="Group_15812" data-name="Group 15812" transform="translate(0 26.777)">
                <g id="Group_15811" data-name="Group 15811">
                  <rect id="Rectangle_1909" data-name="Rectangle 1909" width="37.801" height="24.252" rx="5.811" fill="#e8505b"/>
                </g>
              </g>
              <g id="Group_15813" data-name="Group 15813" transform="translate(15.741 32.584)" opacity="0.5">
                <path id="Path_69596" data-name="Path 69596" d="M376.836,222.18a3.16,3.16,0,1,0-4.021,3.025v4.724h1.724v-4.724A3.15,3.15,0,0,0,376.836,222.18Z" transform="translate(-370.517 -219.02)"/>
              </g>
            </g>
            <g id="Group_15817" data-name="Group 15817" transform="translate(1.859 30.663)">
              <g id="Group_15816" data-name="Group 15816">
                <g id="Group_15815" data-name="Group 15815">
                  <path id="Path_69597" data-name="Path 69597" d="M329.562,231.4c-.087,0-.157-4.045-.157-9.032s.07-9.034.157-9.034.157,4.044.157,9.034S329.649,231.4,329.562,231.4Z" transform="translate(-329.405 -213.332)" fill="#fafafa"/>
                </g>
              </g>
            </g>
            <g id="Group_15820" data-name="Group 15820" transform="translate(14.352 31.697)">
              <g id="Group_15819" data-name="Group 15819">
                <g id="Group_15818" data-name="Group 15818">
                  <path id="Path_69598" data-name="Path 69598" d="M368.478,224.492c-.01.016-.148-.05-.371-.21a3.867,3.867,0,0,1-.814-.83,4.428,4.428,0,0,1,1.574-6.644,3.851,3.851,0,0,1,1.1-.376.975.975,0,0,1,.425-.022,9.879,9.879,0,0,0-1.419.593,4.38,4.38,0,0,0-1.5,6.323A9.838,9.838,0,0,0,368.478,224.492Z" transform="translate(-366.404 -216.396)" fill="#fafafa"/>
                </g>
              </g>
            </g>
          </g>
          <g id="Group_15823" data-name="Group 15823" transform="translate(10.397 13.893)">
            <g id="Group_15822" data-name="Group 15822">
              <path id="Path_69599" data-name="Path 69599" d="M346.054,198.995s.09-.127.273-.367l.154-.2c.052-.078.1-.17.155-.267a4.139,4.139,0,0,0,.347-.694c.054-.137.119-.279.173-.434l.138-.5a3.548,3.548,0,0,0,.115-.558,5.914,5.914,0,0,0,.085-.615,11.6,11.6,0,0,0-.136-2.962,26.628,26.628,0,0,0-2.72-7.66,59.839,59.839,0,0,0-5.842-9.085,92.983,92.983,0,0,0-8.711-9.784,106.579,106.579,0,0,0-11.436-9.761c-2.135-1.569-4.387-3.091-6.76-4.524a65.277,65.277,0,0,0-7.509-3.937,35.087,35.087,0,0,0-8.355-2.619,14.778,14.778,0,0,0-4.455-.109,8.352,8.352,0,0,0-2.152.623A5.365,5.365,0,0,0,286.5,148.8a8.346,8.346,0,0,0-.376,2.21,14.723,14.723,0,0,0,.614,4.415,35.068,35.068,0,0,0,3.552,8.005,65.3,65.3,0,0,0,4.767,7.014c1.694,2.2,3.463,4.26,5.265,6.2a106.538,106.538,0,0,0,11,10.252,93,93,0,0,0,10.712,7.541,59.812,59.812,0,0,0,9.69,4.769,26.634,26.634,0,0,0,7.92,1.83,11.611,11.611,0,0,0,2.958-.2,5.911,5.911,0,0,0,.6-.155,3.5,3.5,0,0,0,.541-.178l.482-.194c.148-.072.282-.153.411-.222a4.157,4.157,0,0,0,.65-.424c.089-.067.176-.124.247-.184l.183-.176c.218-.209.334-.313.334-.313s-.106.112-.321.326l-.181.18c-.071.062-.157.12-.245.188a4.113,4.113,0,0,1-.649.433c-.13.071-.264.153-.412.227l-.483.2a3.533,3.533,0,0,1-.543.183,5.906,5.906,0,0,1-.6.16,11.6,11.6,0,0,1-2.972.22,26.56,26.56,0,0,1-7.951-1.807,59.634,59.634,0,0,1-9.72-4.755,92.683,92.683,0,0,1-10.74-7.534,106.381,106.381,0,0,1-11.027-10.255c-1.806-1.945-3.58-4.011-5.279-6.211a65.287,65.287,0,0,1-4.783-7.03,35.191,35.191,0,0,1-3.572-8.045,14.9,14.9,0,0,1-.621-4.469,8.515,8.515,0,0,1,.385-2.259,5.541,5.541,0,0,1,3.009-3.368,8.54,8.54,0,0,1,2.2-.638,14.936,14.936,0,0,1,4.509.111,35.217,35.217,0,0,1,8.4,2.634,65.347,65.347,0,0,1,7.526,3.951c2.378,1.438,4.632,2.964,6.77,4.538a106.329,106.329,0,0,1,11.442,9.788,92.665,92.665,0,0,1,8.707,9.813,59.612,59.612,0,0,1,5.831,9.115,26.575,26.575,0,0,1,2.7,7.694,11.6,11.6,0,0,1,.12,2.978,5.862,5.862,0,0,1-.09.617,3.538,3.538,0,0,1-.12.561l-.143.5c-.057.155-.123.3-.179.435a4.088,4.088,0,0,1-.357.694c-.058.1-.106.188-.159.265l-.158.2C346.153,198.876,346.054,198.995,346.054,198.995Z" transform="translate(-285.944 -144.617)" fill="#e8505b"/>
            </g>
          </g>
          <g id="Group_15825" data-name="Group 15825" transform="translate(2.824 27.808)">
            <g id="Group_15824" data-name="Group 15824">
              <path id="Path_69600" data-name="Path 69600" d="M342.009,200.2s-.017-.155-.041-.456c-.006-.076-.013-.16-.02-.253s-.04-.193-.062-.3a4.12,4.12,0,0,0-.2-.749c-.051-.138-.1-.287-.16-.439l-.23-.466a3.489,3.489,0,0,0-.285-.493,5.918,5.918,0,0,0-.345-.515,11.6,11.6,0,0,0-2.073-2.12,26.631,26.631,0,0,0-7.129-3.906,59.823,59.823,0,0,0-10.406-2.89,92.947,92.947,0,0,0-13.014-1.5,106.529,106.529,0,0,0-15.032.328c-2.637.25-5.331.614-8.056,1.124a65.277,65.277,0,0,0-8.224,2.06,35.09,35.09,0,0,0-7.978,3.607,14.773,14.773,0,0,0-3.4,2.884,8.34,8.34,0,0,0-1.191,1.9,5.363,5.363,0,0,0,0,4.378,8.346,8.346,0,0,0,1.19,1.9,14.735,14.735,0,0,0,3.4,2.886,35.072,35.072,0,0,0,7.98,3.609,65.244,65.244,0,0,0,8.226,2.061c2.726.511,5.42.874,8.058,1.124a106.553,106.553,0,0,0,15.034.328,92.95,92.95,0,0,0,13.014-1.5,59.819,59.819,0,0,0,10.406-2.891,26.632,26.632,0,0,0,7.128-3.906,11.614,11.614,0,0,0,2.073-2.12,5.99,5.99,0,0,0,.345-.515,3.562,3.562,0,0,0,.285-.493l.23-.466c.062-.152.109-.3.159-.439a4.123,4.123,0,0,0,.2-.749c.022-.11.049-.21.062-.3s.014-.178.02-.253c.024-.3.041-.456.041-.456s0,.155-.023.457q-.007.114-.016.255c-.012.093-.037.194-.058.3a4.1,4.1,0,0,1-.2.755c-.05.139-.1.29-.157.443l-.228.47a3.532,3.532,0,0,1-.283.5,5.95,5.95,0,0,1-.344.52,11.605,11.605,0,0,1-2.072,2.142,26.571,26.571,0,0,1-7.136,3.945,59.611,59.611,0,0,1-10.419,2.921,92.709,92.709,0,0,1-13.03,1.527,106.378,106.378,0,0,1-15.056-.312c-2.642-.249-5.341-.611-8.073-1.12a65.3,65.3,0,0,1-8.248-2.062,35.193,35.193,0,0,1-8.021-3.626,14.91,14.91,0,0,1-3.438-2.921A8.531,8.531,0,0,1,264,202.451a5.539,5.539,0,0,1,0-4.516,8.528,8.528,0,0,1,1.218-1.941,14.94,14.94,0,0,1,3.438-2.919,35.222,35.222,0,0,1,8.019-3.624,65.318,65.318,0,0,1,8.247-2.062c2.732-.51,5.43-.872,8.072-1.12a106.351,106.351,0,0,1,15.054-.312,92.715,92.715,0,0,1,13.03,1.527,59.653,59.653,0,0,1,10.419,2.921,26.558,26.558,0,0,1,7.137,3.945,11.592,11.592,0,0,1,2.072,2.142,5.89,5.89,0,0,1,.344.521,3.562,3.562,0,0,1,.283.5l.228.47c.061.153.107.3.156.443a4.1,4.1,0,0,1,.2.755c.021.11.046.211.058.3s.011.179.016.255C342,200.042,342.009,200.2,342.009,200.2Z" transform="translate(-263.518 -185.825)" fill="#e8505b"/>
            </g>
          </g>
          <g id="Group_15827" data-name="Group 15827" transform="translate(16.345 8.454)">
            <g id="Group_15826" data-name="Group 15826">
              <path id="Path_69601" data-name="Path 69601" d="M354.208,129.756s-.133-.082-.385-.247l-.212-.14c-.081-.046-.177-.086-.277-.136a4.112,4.112,0,0,0-.717-.3c-.14-.045-.287-.1-.445-.143l-.509-.1a3.53,3.53,0,0,0-.564-.077,5.9,5.9,0,0,0-.619-.043,11.6,11.6,0,0,0-2.946.339,26.632,26.632,0,0,0-7.455,3.241,59.819,59.819,0,0,0-8.66,6.453,92.985,92.985,0,0,0-9.161,9.364,106.508,106.508,0,0,0-8.95,12.081c-1.418,2.238-2.781,4.589-4.048,7.055a65.241,65.241,0,0,0-3.41,7.762,35.088,35.088,0,0,0-2.037,8.515,14.772,14.772,0,0,0,.2,4.452,8.354,8.354,0,0,0,.77,2.1,5.363,5.363,0,0,0,3.458,2.685,8.362,8.362,0,0,0,2.23.223,14.737,14.737,0,0,0,4.363-.917,35.052,35.052,0,0,0,7.741-4.1,65.286,65.286,0,0,0,6.669-5.239c2.074-1.842,4.011-3.748,5.825-5.68a106.574,106.574,0,0,0,9.47-11.68,93,93,0,0,0,6.785-11.207,59.84,59.84,0,0,0,4.091-10,26.628,26.628,0,0,0,1.28-8.027,11.615,11.615,0,0,0-.406-2.937,5.973,5.973,0,0,0-.2-.588,3.54,3.54,0,0,0-.215-.527l-.227-.467c-.082-.142-.171-.27-.25-.4a4.145,4.145,0,0,0-.467-.619c-.073-.084-.136-.167-.2-.234l-.188-.171c-.224-.2-.335-.311-.335-.311s.119.1.347.3l.192.168c.066.066.131.148.2.232a4.113,4.113,0,0,1,.477.617c.08.125.171.253.255.4l.232.468a3.545,3.545,0,0,1,.22.529,6.016,6.016,0,0,1,.2.591,11.6,11.6,0,0,1,.424,2.949,26.567,26.567,0,0,1-1.254,8.056,59.614,59.614,0,0,1-4.074,10.024,92.715,92.715,0,0,1-6.776,11.234,106.319,106.319,0,0,1-9.471,11.708c-1.815,1.936-3.755,3.847-5.832,5.694a65.36,65.36,0,0,1-6.684,5.255,35.218,35.218,0,0,1-7.78,4.118,14.9,14.9,0,0,1-4.415.927,8.515,8.515,0,0,1-2.281-.228,5.538,5.538,0,0,1-3.567-2.77,8.517,8.517,0,0,1-.788-2.151,14.927,14.927,0,0,1-.2-4.506,35.214,35.214,0,0,1,2.049-8.558,65.285,65.285,0,0,1,3.423-7.781c1.271-2.471,2.638-4.826,4.06-7.066a106.311,106.311,0,0,1,8.976-12.089,92.644,92.644,0,0,1,9.19-9.362,59.594,59.594,0,0,1,8.692-6.445,26.571,26.571,0,0,1,7.49-3.224,11.594,11.594,0,0,1,2.962-.325,5.932,5.932,0,0,1,.622.047,3.529,3.529,0,0,1,.567.082l.511.108c.159.046.306.1.446.148a4.092,4.092,0,0,1,.717.308c.1.051.195.093.276.141l.211.144C354.083,129.664,354.208,129.756,354.208,129.756Z" transform="translate(-303.56 -128.509)" fill="#e8505b"/>
            </g>
          </g>
          <g id="Group_15828" data-name="Group 15828" transform="translate(0 57.932)">
            <circle id="Ellipse_1410" data-name="Ellipse 1410" cx="1.456" cy="1.456" r="1.456" fill="#e8505b"/>
          </g>
          <g id="Group_15829" data-name="Group 15829" transform="translate(81.717 11.789)">
            <path id="Path_69602" data-name="Path 69602" d="M500.072,139.84a1.456,1.456,0,1,1-1.456-1.456A1.456,1.456,0,0,1,500.072,139.84Z" transform="translate(-497.16 -138.384)" fill="#e8505b"/>
          </g>
          <g id="Group_15830" data-name="Group 15830" transform="translate(10.939 62.776)">
            <path id="Path_69603" data-name="Path 69603" d="M288.291,289.754a.37.37,0,1,1-.37-.37A.37.37,0,0,1,288.291,289.754Z" transform="translate(-287.551 -289.384)" fill="#e8505b"/>
          </g>
          <g id="Group_15831" data-name="Group 15831" transform="translate(18.836 21.98)">
            <path id="Path_69604" data-name="Path 69604" d="M311.679,168.934a.37.37,0,1,1-.37-.37A.37.37,0,0,1,311.679,168.934Z" transform="translate(-310.939 -168.564)" fill="#e8505b"/>
          </g>
          <g id="Group_15832" data-name="Group 15832" transform="translate(76.575 41.81)">
            <path id="Path_69605" data-name="Path 69605" d="M482.672,227.661a.37.37,0,1,1-.37-.37A.37.37,0,0,1,482.672,227.661Z" transform="translate(-481.932 -227.291)" fill="#e8505b"/>
          </g>
          <g id="Group_15833" data-name="Group 15833" transform="translate(81.717 24.56)">
            <path id="Path_69606" data-name="Path 69606" d="M497.9,176.577a.37.37,0,1,1-.37-.37A.37.37,0,0,1,497.9,176.577Z" transform="translate(-497.16 -176.207)" fill="#e8505b"/>
          </g>
        </g>
      </g>
    </g>
  </g>
</svg>
