<svg xmlns="http://www.w3.org/2000/svg" width="164.1" height="136.769" viewBox="0 0 164.1 136.769">
  <g id="Group_14924" data-name="Group 14924" transform="translate(-100.233 -59.19)">
    <g id="Group_13176" data-name="Group 13176" transform="translate(100.233 66.405)" opacity="0.69">
      <g id="Group_13170" data-name="Group 13170" transform="translate(9.844 72.585)">
        <g id="Group_13168" data-name="Group 13168" transform="translate(20.599)">
          <path id="Path_68219" data-name="Path 68219" d="M155.646,269.05H127.254l-1.724-19.883h28.392Z" transform="translate(-125.53 -249.167)" fill="#e6e6e6"/>
          <path id="Path_68220" data-name="Path 68220" d="M159.086,269.05H130.693l-1.724-19.883h28.392Z" transform="translate(-127.499 -249.167)" fill="#f0f0f0"/>
          <path id="Path_68221" data-name="Path 68221" d="M140.81,270.5l-.946-11.344h19.853l.946,11.344Z" transform="translate(-133.735 -254.882)" fill="#fff"/>
        </g>
        <g id="Group_13169" data-name="Group 13169" transform="translate(0 19.883)">
          <rect id="Rectangle_714" data-name="Rectangle 714" width="3.331" height="37.085" transform="translate(53.766)" fill="#e6e6e6"/>
          <rect id="Rectangle_715" data-name="Rectangle 715" width="2.314" height="37.085" transform="translate(55.835)" fill="#f0f0f0"/>
          <rect id="Rectangle_716" data-name="Rectangle 716" width="32.244" height="4.093" transform="translate(58.149 4.093) rotate(180)" fill="#f0f0f0"/>
          <rect id="Rectangle_717" data-name="Rectangle 717" width="3.331" height="32.992" transform="translate(23.713 4.093)" fill="#e6e6e6"/>
          <rect id="Rectangle_718" data-name="Rectangle 718" width="2.314" height="32.992" transform="translate(25.782 4.093)" fill="#f0f0f0"/>
          <rect id="Rectangle_719" data-name="Rectangle 719" width="3.331" height="32.992" transform="translate(0 4.093)" fill="#e6e6e6"/>
          <rect id="Rectangle_720" data-name="Rectangle 720" width="2.314" height="32.992" transform="translate(2.069 4.093)" fill="#f0f0f0"/>
          <rect id="Rectangle_721" data-name="Rectangle 721" width="3.331" height="32.992" transform="translate(32.685 4.093)" fill="#e6e6e6"/>
          <rect id="Rectangle_722" data-name="Rectangle 722" width="2.314" height="32.992" transform="translate(34.754 4.093)" fill="#f0f0f0"/>
          <rect id="Rectangle_723" data-name="Rectangle 723" width="25.904" height="4.093" fill="#e6e6e6"/>
        </g>
      </g>
      <g id="Group_13172" data-name="Group 13172" transform="translate(32.144)">
        <g id="Group_13171" data-name="Group 13171">
          <rect id="Rectangle_724" data-name="Rectangle 724" width="100.198" height="55.782" fill="#e0e0e0"/>
          <rect id="Rectangle_725" data-name="Rectangle 725" width="105.194" height="55.782" transform="translate(0.506)" fill="#f5f5f5"/>
          <rect id="Rectangle_726" data-name="Rectangle 726" width="52.345" height="101.757" transform="translate(103.981 1.719) rotate(90)" fill="#fff"/>
          <path id="Path_68222" data-name="Path 68222" d="M188.622,135.777l19.212-52.345H176.127l-19.212,52.345Z" transform="translate(-145.197 -81.714)" fill="#f5f5f5"/>
          <path id="Path_68223" data-name="Path 68223" d="M270.422,135.777l19.212-52.345H265.716L246.5,135.777Z" transform="translate(-196.478 -81.714)" fill="#f5f5f5"/>
        </g>
      </g>
      <g id="Group_13174" data-name="Group 13174" transform="translate(77.053 76.278)">
        <g id="Group_13173" data-name="Group 13173">
          <rect id="Rectangle_727" data-name="Rectangle 727" width="8.517" height="53.276" transform="translate(78.531)" fill="#e6e6e6"/>
          <path id="Path_68224" data-name="Path 68224" d="M429.73,376.907h2.24v-4.1h-4.588Z" transform="translate(-344.922 -323.631)" fill="#fafafa"/>
          <rect id="Rectangle_728" data-name="Rectangle 728" width="8.517" height="53.276" fill="#e6e6e6"/>
          <rect id="Rectangle_729" data-name="Rectangle 729" width="80.485" height="52.169" transform="translate(6.563)" fill="#fafafa"/>
          <path id="Path_68225" data-name="Path 68225" d="M330.884,277.445H253.446V262.711h77.438Zm-77.01-.428h76.583V263.139H253.874Z" transform="translate(-245.36 -260.612)" fill="#e6e6e6"/>
          <path id="Path_68226" data-name="Path 68226" d="M329.326,272.335H280.656c-2.26,0-4.436-1.823-5.969-5l-.148-.307h60.9l-.148.307C333.762,270.511,331.586,272.335,329.326,272.335Zm-54.1-4.881c1.447,2.835,3.414,4.453,5.432,4.453h48.669c2.018,0,3.986-1.618,5.433-4.453Z" transform="translate(-257.434 -263.082)" fill="#e6e6e6"/>
          <path id="Path_68227" data-name="Path 68227" d="M252.123,376.907h-2.24v-4.1h4.588Z" transform="translate(-243.32 -323.631)" fill="#fafafa"/>
          <path id="Path_68228" data-name="Path 68228" d="M330.884,316.311H253.446V301.577h77.438Zm-77.01-.428h76.583V302H253.874Z" transform="translate(-245.36 -282.86)" fill="#e6e6e6"/>
          <path id="Path_68229" data-name="Path 68229" d="M329.326,311.2H280.656c-2.26,0-4.436-1.823-5.969-5l-.148-.307h60.9l-.148.307C333.762,309.378,331.586,311.2,329.326,311.2Zm-54.1-4.881c1.447,2.835,3.414,4.453,5.432,4.453h48.669c2.019,0,3.986-1.618,5.433-4.453Z" transform="translate(-257.434 -285.33)" fill="#e6e6e6"/>
          <path id="Path_68230" data-name="Path 68230" d="M330.884,355.177H253.446V340.443h77.438Zm-77.01-.428h76.583V340.871H253.874Z" transform="translate(-245.36 -305.107)" fill="#e6e6e6"/>
          <path id="Path_68231" data-name="Path 68231" d="M329.326,350.067H280.656c-2.26,0-4.436-1.823-5.969-5l-.148-.307h60.9l-.148.307C333.762,348.244,331.586,350.067,329.326,350.067Zm-54.1-4.881c1.447,2.835,3.414,4.453,5.432,4.453h48.669c2.019,0,3.986-1.618,5.433-4.453Z" transform="translate(-257.434 -307.577)" fill="#e6e6e6"/>
        </g>
      </g>
      <g id="Group_13175" data-name="Group 13175" transform="translate(0 53.856)">
        <path id="Path_68232" data-name="Path 68232" d="M106.967,274.283v1.034H106.3l-.546,8.109H97.7l-.546-8.109H96.5v-1.034Z" transform="translate(-78.468 -244.814)" fill="#e6e6e6"/>
        <path id="Path_68233" data-name="Path 68233" d="M80.182,214.706c-.662-4.831-7.181-6.21-15.454-6.387-7.872-.168-10.394-2.954-10.394-2.954s.025,11.279,11.368,15.363C76.474,224.606,80.845,219.545,80.182,214.706Z" transform="translate(-54.334 -205.365)" fill="#e6e6e6"/>
        <path id="Path_68234" data-name="Path 68234" d="M105.354,245.276c.138-1.987,3.31-5.638,10.941-3.978,5.517,1.2,7.569-1.66,7.569-1.66a12.231,12.231,0,0,1-8.809,10.5C107.175,252.442,105.111,248.771,105.354,245.276Z" transform="translate(-83.527 -224.983)" fill="#e6e6e6"/>
        <path id="Path_68235" data-name="Path 68235" d="M106.548,248.847a.293.293,0,0,0,.225-.1c.553-.654.1-2.219-.526-4.386-.8-2.781-1.8-6.242-.957-8.755a35.305,35.305,0,0,1,1.642-3.88c1.2-2.533,2.232-4.721,1.37-7a.294.294,0,1,0-.551.208c.774,2.051-.163,4.034-1.351,6.546a36.264,36.264,0,0,0-1.667,3.943c-.906,2.688.123,6.247.949,9.106.487,1.686.992,3.43.642,3.843a.294.294,0,0,0,.224.484Z" transform="translate(-82.98 -216.333)" fill="#e6e6e6"/>
      </g>
    </g>
    <g id="Group_13238" data-name="Group 13238" transform="translate(136.441 59.19)">
      <g id="Group_13230" data-name="Group 13230">
        <path id="Path_68345" data-name="Path 68345" d="M321.29,313.562c-.721-1.406.968-2.911,2.523-3.189s3.317-.065,4.555-1.046c1.654-1.31,1.569-4.166,3.4-5.211,1.471-.839,3.418-.039,4.976-.7,1.935-.824,2.48-3.521,4.379-4.426a3.4,3.4,0,0,1,4.266,1.582,4.4,4.4,0,0,1-.654,4.7c-.838,1.009-2.078,1.716-2.6,2.92-.815,1.885.472,4.169-.279,6.081-1.385,3.531-7.93,2.468-9.067,6.087a11.279,11.279,0,0,0-.212,2.516,7.887,7.887,0,0,1-4.142,5.939,16.831,16.831,0,0,1-7.237,1.855,5.692,5.692,0,0,1-3.016-.377,4.939,4.939,0,0,1-1.923-2.11c-3.009-5.46-4.25-12.574,5.027-14.621" transform="translate(-250.554 -213.572)" fill="#c43460"/>
        <path id="Path_68346" data-name="Path 68346" d="M185.013,286.912c1.618-1.07.718-3.7-.778-4.931s-3.509-2.067-4.243-3.863c-.98-2.4.831-5.4-.5-7.623-1.068-1.783-3.633-2.1-4.9-3.747-1.574-2.047-.532-5.26-2.018-7.372a4.171,4.171,0,0,0-5.516-.876,5.4,5.4,0,0,0-2.132,5.424c.289,1.584,1.189,3.087,1.021,4.688-.263,2.507-3.015,4.176-3.364,6.673-.645,4.611,7,7.415,6.033,11.971a13.809,13.809,0,0,1-1.288,2.819,9.681,9.681,0,0,0,.854,8.847,20.657,20.657,0,0,0,6.623,6.343,6.987,6.987,0,0,0,3.453,1.413,6.059,6.059,0,0,0,3.327-1.1c6.507-4.027,12.118-10.89,3.428-18.667" transform="translate(-162.545 -189.824)" fill="#ffa938"/>
        <g id="Group_13208" data-name="Group 13208" transform="translate(64.33 57.158)">
          <g id="Group_13207" data-name="Group 13207" transform="translate(0 6.148)">
            <path id="Path_68347" data-name="Path 68347" d="M316.627,286.169a19.783,19.783,0,0,0,5.991-4.525,36.505,36.505,0,0,0,8.868-17.171,63.234,63.234,0,0,0,1.363-17.5c-.024-.5-.8-.5-.774,0,.631,13.157-1.981,29.3-13.756,37.311a12.8,12.8,0,0,1-2.083,1.211c-.456.2-.062.864.391.669Z" transform="translate(-316.033 -246.605)" fill="#e1806d"/>
          </g>
          <path id="Path_68348" data-name="Path 68348" d="M353.156,277.113s.746-4.262,6.393-4.937C359.549,272.176,357.489,277.22,353.156,277.113Z" transform="translate(-337.597 -255.311)" fill="#e1806d"/>
          <path id="Path_68349" data-name="Path 68349" d="M348.739,294.3s1.72-3.97,7.369-3.308C356.108,290.991,352.927,295.415,348.739,294.3Z" transform="translate(-335.031 -266.196)" fill="#e1806d"/>
          <path id="Path_68350" data-name="Path 68350" d="M343.015,309.261s2.566-3.484,7.923-1.573C350.938,307.688,346.847,311.287,343.015,309.261Z" transform="translate(-331.707 -275.606)" fill="#e1806d"/>
          <path id="Path_68351" data-name="Path 68351" d="M355.225,261.438s.733-4.19,6.284-4.853C361.509,256.585,359.484,261.544,355.225,261.438Z" transform="translate(-338.799 -246.254)" fill="#e1806d"/>
          <path id="Path_68352" data-name="Path 68352" d="M353.1,239.839s-3.161-2.847-.775-7.9C352.322,231.936,355.447,236.286,353.1,239.839Z" transform="translate(-336.595 -231.936)" fill="#e1806d"/>
          <path id="Path_68353" data-name="Path 68353" d="M348.806,252.324s-4.183-.772-4.795-6.329C344.011,245.995,348.951,248.066,348.806,252.324Z" transform="translate(-332.285 -240.103)" fill="#e1806d"/>
          <path id="Path_68354" data-name="Path 68354" d="M347.81,267.555s-4.183-.772-4.8-6.329C343.015,261.226,347.955,263.3,347.81,267.555Z" transform="translate(-331.707 -248.95)" fill="#e1806d"/>
          <path id="Path_68355" data-name="Path 68355" d="M345.85,281.376s-4.119-1.063-4.339-6.65C341.511,274.726,346.293,277.138,345.85,281.376Z" transform="translate(-330.833 -256.792)" fill="#e1806d"/>
          <path id="Path_68356" data-name="Path 68356" d="M341.322,295.627s-4.119-1.063-4.34-6.65C336.982,288.977,341.765,291.389,341.322,295.627Z" transform="translate(-328.202 -265.07)" fill="#e1806d"/>
        </g>
        <g id="Group_13229" data-name="Group 13229" transform="translate(14.396 0)">
          <rect id="Rectangle_735" data-name="Rectangle 735" width="60.11" height="117.866" rx="3" fill="#ee611c"/>
          <rect id="Rectangle_736" data-name="Rectangle 736" width="54.56" height="110.234" rx="3" transform="translate(2.775 3.466)" fill="#efebeb"/>
          <path id="Path_68357" data-name="Path 68357" d="M255.815,102.428h-3.548A1.971,1.971,0,0,0,250.3,104.4v1.409a1.971,1.971,0,0,1-1.972,1.971H232.5a1.971,1.971,0,0,1-1.971-1.971V104.4a1.971,1.971,0,0,0-1.971-1.972H218.483v-1.011h37.332Z" transform="translate(-209.434 -98.963)" fill="#ee611c"/>
          <g id="Group_13228" data-name="Group 13228" transform="translate(10.463 19.075)">
            <g id="Group_13227" data-name="Group 13227">
              <g id="Group_13209" data-name="Group 13209" transform="translate(10.986)">
                <path id="Path_68358" data-name="Path 68358" d="M270.155,142.452a.735.735,0,1,0-.687,0,1.15,1.15,0,0,0-.8,1.093v.578h2.292v-.578A1.15,1.15,0,0,0,270.155,142.452Z" transform="translate(-260.033 -141.072)" fill="#37366a"/>
                <text id="Create_Account" data-name="Create Account" transform="translate(0 5.596)" fill="#37366a" font-size="1" font-family="SegoeUI, Segoe UI"><tspan x="0" y="0">Create Account</tspan></text>
              </g>
              <g id="Group_13210" data-name="Group 13210" transform="translate(7.956 73.361)">
                <rect id="Rectangle_737" data-name="Rectangle 737" width="22.703" height="5.098" rx="0.979" fill="#a43f60"/>
                <text id="Register" transform="translate(7.435 2.426)" fill="#f3f4e9" font-size="1" font-family="SegoeUI, Segoe UI"><tspan x="0" y="0">Register</tspan></text>
              </g>
              <g id="Group_13211" data-name="Group 13211" transform="translate(0 12.285)">
                <text id="Email_Address" data-name="Email Address" transform="translate(0 1)" fill="#37366a" font-size="1" font-family="SegoeUI, Segoe UI" opacity="0.57"><tspan x="0" y="0">Email Address</tspan></text>
                <text id="youremail_gmail.c" data-name="youremail@gmail.c" transform="translate(1.932 6.611)" fill="#37366a" font-size="1" font-family="SegoeUI, Segoe UI"><tspan x="0" y="0">youremail@gmail.c</tspan></text>
                <rect id="Rectangle_738" data-name="Rectangle 738" width="41.528" height="6.257" rx="2.759" transform="translate(0 3.545)" fill="none" stroke="#37366a" stroke-miterlimit="10" stroke-width="0.5"/>
              </g>
              <g id="Group_13216" data-name="Group 13216" transform="translate(0 26.213)">
                <g id="Group_13215" data-name="Group 13215">
                  <g id="Group_13212" data-name="Group 13212" opacity="0.52">
                    <text id="Country" transform="translate(0 1)" fill="#37366a" font-size="1" font-family="SegoeUI, Segoe UI"><tspan x="0" y="0">Country</tspan></text>
                  </g>
                  <g id="Group_13214" data-name="Group 13214" transform="translate(0 3.599)">
                    <g id="Group_13213" data-name="Group 13213" transform="translate(1.932 1.958)">
                      <text id="Your_text" data-name="Your text" transform="translate(0 1)" fill="#37366a" font-size="1" font-family="SegoeUI, Segoe UI"><tspan x="0" y="0">Your text</tspan></text>
                    </g>
                    <rect id="Rectangle_739" data-name="Rectangle 739" width="41.528" height="6.257" rx="2.759" fill="none" stroke="#37366a" stroke-miterlimit="10" stroke-width="0.5"/>
                  </g>
                </g>
              </g>
              <g id="Group_13221" data-name="Group 13221" transform="translate(0 40.919)">
                <g id="Group_13220" data-name="Group 13220">
                  <g id="Group_13217" data-name="Group 13217" opacity="0.52">
                    <text id="City" transform="translate(0 1)" fill="#37366a" font-size="1" font-family="SegoeUI, Segoe UI"><tspan x="0" y="0">City</tspan></text>
                  </g>
                  <g id="Group_13219" data-name="Group 13219" transform="translate(0 3.6)">
                    <g id="Group_13218" data-name="Group 13218" transform="translate(1.932 1.957)">
                      <text id="Your_City" data-name="Your City" transform="translate(0 1)" fill="#37366a" font-size="1" font-family="SegoeUI, Segoe UI"><tspan x="0" y="0">Your City</tspan></text>
                    </g>
                    <rect id="Rectangle_740" data-name="Rectangle 740" width="41.528" height="6.257" rx="2.759" fill="none" stroke="#37366a" stroke-miterlimit="10" stroke-width="0.5"/>
                  </g>
                </g>
              </g>
              <g id="Group_13226" data-name="Group 13226" transform="translate(0 55.697)">
                <g id="Group_13225" data-name="Group 13225">
                  <g id="Group_13222" data-name="Group 13222" opacity="0.52">
                    <text id="Password" transform="translate(0 1)" fill="#37366a" font-size="1" font-family="SegoeUI, Segoe UI"><tspan x="0" y="0">Password</tspan></text>
                  </g>
                  <g id="Group_13224" data-name="Group 13224" transform="translate(0 3.599)">
                    <g id="Group_13223" data-name="Group 13223" transform="translate(1.932 1.957)">
                      <text id="Entry_password" data-name="Entry password" transform="translate(0 1)" fill="#37366a" font-size="1" font-family="SegoeUI, Segoe UI"><tspan x="0" y="0">Entry password</tspan></text>
                    </g>
                    <rect id="Rectangle_741" data-name="Rectangle 741" width="41.528" height="6.257" rx="2.759" fill="none" stroke="#37366a" stroke-miterlimit="10" stroke-width="0.5"/>
                  </g>
                </g>
              </g>
            </g>
            <line id="Line_11" data-name="Line 11" y2="2.208" transform="translate(18.944 17.517)" fill="none" stroke="#50c3e2" stroke-miterlimit="10" stroke-width="0.5"/>
          </g>
        </g>
      </g>
      <g id="Group_13237" data-name="Group 13237" transform="translate(11.825 37.658)">
        <path id="Path_68359" data-name="Path 68359" d="M244.186,418.139c0-.488-11.96-.883-26.713-.883s-26.714.4-26.714.883,11.96.884,26.714.884S244.186,418.627,244.186,418.139Z" transform="translate(-190.759 -320.085)" fill="#6756ad" opacity="0.25"/>
        <g id="Group_13236" data-name="Group 13236" transform="translate(8.995)">
          <path id="Path_68360" data-name="Path 68360" d="M261.228,282.118s2.655,4.1,3.256,2.323l.969-2.863s-.754-1.236-1.153-.856c-.417.4-.959-.325-.959-.325Z" transform="translate(-240.688 -240.586)" fill="#f5ba9a"/>
          <g id="Group_13231" data-name="Group 13231" transform="translate(24.576 5.625)">
            <path id="Path_68361" data-name="Path 68361" d="M279.942,213.539l1.1-6.369c.72-.232,1.461-.788,1.207-1.649a1.265,1.265,0,0,0-.86-.807c-.149-.057-.916-.277-.969.019,0,0,.417-2.3.417-2.3l-7.47-3.6-.689,4.625a2.28,2.28,0,0,0-.826-.226,1.251,1.251,0,0,0-.888.718,1.48,1.48,0,0,0,1.3,1.977,8.348,8.348,0,0,0,.6,2.779c.476.728,2.672,1.231,2.672,1.231l-.241,2.773Z" transform="translate(-270.856 -198.832)" fill="#f5ba9a"/>
          </g>
          <g id="Group_13232" data-name="Group 13232" transform="translate(24.923 19.074)">
            <path id="Path_68362" data-name="Path 68362" d="M282.945,232.7c-3.375-.947-8.116-1.781-8.116-1.781l-3.145,22.4,13.25-.409Z" transform="translate(-271.684 -230.92)" fill="#ffa938"/>
          </g>
          <g id="Group_13233" data-name="Group 13233" transform="translate(36.184 10.085)">
            <path id="Path_68363" data-name="Path 68363" d="M298.553,220.243a87.657,87.657,0,0,0,13.291,2.5,109.7,109.7,0,0,0-2.881-12c1.259-.319,3.717-.947,4.976-1.266,0,0,4.173,14.538,2.907,16.477-2.156,3.3-12.891,1.127-12.891,1.127l-5.078-.905Z" transform="translate(-298.553 -209.473)" fill="#ffa938"/>
          </g>
          <g id="Group_13234" data-name="Group 13234" transform="translate(10.498 19.078)">
            <path id="Path_68364" data-name="Path 68364" d="M240.262,237.638s14.222-6.957,14.876-6.7,1.209,3.481,1.209,3.481a125.382,125.382,0,0,1-13.129,6.986l7.252,9.871-3.613,2.591s-9.957-11.191-9.579-13.5C237.571,238.577,240.262,237.638,240.262,237.638Z" transform="translate(-237.268 -230.93)" fill="#ffa938"/>
          </g>
          <path id="Path_68365" data-name="Path 68365" d="M323.21,195.55s-.588-4.115-.659-4.232-.07-.844-1.127-.669c0,0-.07-1.3-.681-1.327a5.526,5.526,0,0,0-1.291.141,20.491,20.491,0,0,0-1.133-3.922c-.487-.633-1.168,1.034-.111,5.108a15.043,15.043,0,0,1,.411,2.873c-.473.276-1.123.225-2.022-1.312-.955-1.633-2.145-1.08-1.558.188A13.254,13.254,0,0,0,317,195.752a2.962,2.962,0,0,0,1.681.379l.168.53Z" transform="translate(-271.854 -185.411)" fill="#f5ba9a"/>
          <g id="Group_13235" data-name="Group 13235" transform="translate(0 39.751)">
            <path id="Path_68366" data-name="Path 68366" d="M250.392,281.567c-1.6,24.238-7.014,54.152-7.014,54.152l5.306,2.246h-11.3l7.412-52.9h-2.539L223.508,338H212.22l6.422-2.342,18.742-55.4Z" transform="translate(-212.22 -280.254)" fill="#594656"/>
          </g>
          <path id="Path_68367" data-name="Path 68367" d="M282.7,202.671c.632-1.263,1.37-4.328-.547-5.18a19.7,19.7,0,0,1-2.789-1.589,4.859,4.859,0,0,0-3.977-.717,3.652,3.652,0,0,0-.629.236c-1.339.657-2.243,4.214-2.243,4.214l1.316.329s1.467,6.524,3.881,7.865l2.411.51,1.426.321Z" transform="translate(-247.242 -190.996)" fill="#b96944"/>
          <path id="Path_68368" data-name="Path 68368" d="M292.281,198.21a8.509,8.509,0,0,0-.045-1.169" transform="translate(-258.7 -192.167)" fill="none" stroke="#b96944" stroke-miterlimit="10" stroke-width="0.05"/>
          <path id="Path_68369" data-name="Path 68369" d="M292.491,198.285a.328.328,0,0,0,.145-.181,4.53,4.53,0,0,1,.514-.833" transform="translate(-258.848 -192.3)" fill="none" stroke="#b96944" stroke-miterlimit="10" stroke-width="0.05"/>
        </g>
      </g>
    </g>
  </g>
</svg>
