<svg xmlns="http://www.w3.org/2000/svg" width="265.235" height="157.775" viewBox="0 0 265.235 157.775">
  <g id="Group_15350" data-name="Group 15350" transform="translate(-46.667 -57.316)">
    <g id="Background_Complete" data-name="Background Complete" transform="translate(35.082 57.317)">
      <g id="Group_14926" data-name="Group 14926" transform="translate(235.682)">
        <rect id="Rectangle_796" data-name="Rectangle 796" width="41.138" height="56.221" fill="#e0e0e0"/>
        <rect id="Rectangle_797" data-name="Rectangle 797" width="38.255" height="53.209" transform="translate(1.431 1.538)" fill="#fafafa"/>
        <rect id="Rectangle_798" data-name="Rectangle 798" width="12.48" height="30.48" transform="translate(14.318 13.994)" fill="#e0e0e0"/>
      </g>
      <g id="Group_14944" data-name="Group 14944" transform="translate(30 92.269)">
        <g id="Group_14928" data-name="Group 14928">
          <g id="Group_14927" data-name="Group 14927">
            <path id="Path_69121" data-name="Path 69121" d="M64.9,347.322c9.658-4.689,13.424-15.647,14.693-25.834.212-1.7.681-3.454.113-5.066s-2.284-2.925-3.912-2.453c-1.35.391-2.13,1.765-3.025,2.861a10.012,10.012,0,0,1-4.569,3.157,3.817,3.817,0,0,1-3.523-.238c-1.33-1.037-1.182-3.08-.9-4.761q.778-4.7,1.556-9.4a15.873,15.873,0,0,0,.287-5.077,5.283,5.283,0,0,0-2.718-4.05,3.2,3.2,0,0,0-4.255,1.5,15.671,15.671,0,0,0-.381,2.087,1.792,1.792,0,0,1-1.3,1.5c-.7.091-1.3-.494-1.724-1.066a22.654,22.654,0,0,1-3.051-6.7,31.428,31.428,0,0,0-2.749-6.852,9.21,9.21,0,0,0-5.613-4.438,5.515,5.515,0,0,0-6.176,2.827c-.988,2.274.013,4.9,1.213,7.06a38.016,38.016,0,0,0,6.632,8.7,3.13,3.13,0,0,1,1.084,1.614c.187,1.18-1.053,2.124-2.219,2.317a19.72,19.72,0,0,1-4-.183,3.83,3.83,0,0,0-3.543,1.459c-.962,1.609.189,3.64,1.416,5.046a32.566,32.566,0,0,0,8.645,7.01,10.983,10.983,0,0,1,3.264,2.282,3.153,3.153,0,0,1,.43,3.725,3.21,3.21,0,0,1-3.658.776,22.724,22.724,0,0,1-3.467-2c-2.173-1.24-5.183-1.556-6.982.206a5.391,5.391,0,0,0-1.316,4.617,12.428,12.428,0,0,0,1.888,4.563,32.753,32.753,0,0,0,12.266,11.9c5.066,2.713,9.955,4.007,15.595,2.906" transform="translate(-35.082 -282.366)" fill="#ebebeb"/>
          </g>
        </g>
        <g id="Group_14931" data-name="Group 14931" transform="translate(5.365 1.035)">
          <g id="Group_14930" data-name="Group 14930">
            <g id="Group_14929" data-name="Group 14929">
              <path id="Path_69122" data-name="Path 69122" d="M71.252,349.351c.271-4.072.453-1.96-.235-7.308a152.6,152.6,0,0,0-3.4-17.18l-1.123-4.457c-.372-1.462-.74-2.913-1.189-4.308a76.161,76.161,0,0,0-3.035-7.874c-1.086-2.458-2.207-4.751-3.271-6.887s-2.1-4.106-3.121-5.862a60.487,60.487,0,0,0-5.418-7.922c-.71-.882-1.284-1.548-1.679-1.994l-.452-.5a1.312,1.312,0,0,0-.162-.165,1.167,1.167,0,0,0,.138.186l.428.525c.379.459.937,1.137,1.632,2.03a63.955,63.955,0,0,1,5.321,7.957c1,1.758,2.023,3.731,3.08,5.867s2.163,4.433,3.24,6.888a77.032,77.032,0,0,1,3.006,7.85c.444,1.389.808,2.827,1.18,4.292l1.121,4.456a156.329,156.329,0,0,1,3.419,17.141c.7,5.33.542,3.2.3,7.256" transform="translate(-48.167 -284.89)" fill="#e0e0e0"/>
            </g>
          </g>
        </g>
        <g id="Group_14934" data-name="Group 14934" transform="translate(22.412 14.1)">
          <g id="Group_14933" data-name="Group 14933">
            <g id="Group_14932" data-name="Group 14932">
              <path id="Path_69123" data-name="Path 69123" d="M89.75,334.873a3.453,3.453,0,0,0,.278-.691c.163-.451.376-1.111.627-1.929.5-1.637,1.124-3.922,1.8-6.443s1.324-4.792,1.852-6.416c.262-.813.48-1.469.637-1.92a3.41,3.41,0,0,0,.21-.715,3.413,3.413,0,0,0-.323.672c-.192.439-.443,1.086-.732,1.893-.584,1.612-1.271,3.881-1.945,6.406l-1.708,6.463c-.21.776-.388,1.43-.531,1.955A3.419,3.419,0,0,0,89.75,334.873Z" transform="translate(-89.746 -316.758)" fill="#e0e0e0"/>
            </g>
          </g>
        </g>
        <g id="Group_14937" data-name="Group 14937" transform="translate(1.433 24.727)">
          <g id="Group_14936" data-name="Group 14936">
            <g id="Group_14935" data-name="Group 14935">
              <path id="Path_69124" data-name="Path 69124" d="M38.576,342.682a4.765,4.765,0,0,0,.846.241c.547.138,1.34.332,2.311.6,1.947.529,4.61,1.354,7.509,2.393s5.48,2.1,7.326,2.919c.926.4,1.667.749,2.18.985a4.706,4.706,0,0,0,.811.342,4.713,4.713,0,0,0-.757-.452c-.5-.27-1.225-.648-2.143-1.079-1.827-.872-4.405-1.966-7.312-3.013a77.211,77.211,0,0,0-7.559-2.311c-.982-.245-1.784-.408-2.341-.508A4.658,4.658,0,0,0,38.576,342.682Z" transform="translate(-38.576 -342.677)" fill="#e0e0e0"/>
            </g>
          </g>
        </g>
        <g id="Group_14940" data-name="Group 14940" transform="translate(28.011 31.859)">
          <g id="Group_14939" data-name="Group 14939">
            <g id="Group_14938" data-name="Group 14938">
              <path id="Path_69125" data-name="Path 69125" d="M103.4,385.96a1.132,1.132,0,0,0,.19-.24l.494-.724c.426-.63,1.02-1.558,1.738-2.714,1.438-2.312,3.323-5.567,5.355-9.187s3.886-6.89,5.273-9.229l1.651-2.765.445-.755a1.137,1.137,0,0,0,.137-.275,1.163,1.163,0,0,0-.191.241l-.494.723c-.426.63-1.02,1.558-1.738,2.715-1.438,2.311-3.323,5.567-5.356,9.188s-3.885,6.889-5.273,9.227c-.679,1.135-1.237,2.07-1.651,2.764l-.445.755A1.122,1.122,0,0,0,103.4,385.96Z" transform="translate(-103.402 -360.071)" fill="#e0e0e0"/>
            </g>
          </g>
        </g>
        <g id="Group_14943" data-name="Group 14943" transform="translate(0.747 43.91)">
          <g id="Group_14942" data-name="Group 14942">
            <g id="Group_14941" data-name="Group 14941">
              <path id="Path_69126" data-name="Path 69126" d="M36.9,389.467a1.172,1.172,0,0,0,.266.163l.79.412,2.919,1.487c2.464,1.256,5.848,3.03,9.584,5s7.14,3.711,9.632,4.916c1.245.6,2.257,1.081,2.964,1.4l.815.359a1.146,1.146,0,0,0,.294.105,1.207,1.207,0,0,0-.266-.164l-.79-.412-2.918-1.487c-2.464-1.256-5.849-3.03-9.586-5s-7.139-3.71-9.63-4.916c-1.246-.6-2.258-1.081-2.965-1.4l-.815-.359A1.161,1.161,0,0,0,36.9,389.467Z" transform="translate(-36.905 -389.465)" fill="#e0e0e0"/>
            </g>
          </g>
        </g>
      </g>
      <g id="Group_14945" data-name="Group 14945" transform="translate(29.577 36.721)">
        <rect id="Rectangle_799" data-name="Rectangle 799" width="32.487" height="31.92" fill="#e0e0e0"/>
        <rect id="Rectangle_800" data-name="Rectangle 800" width="30.21" height="30.21" transform="translate(1.13 0.873)" fill="#fafafa"/>
        <rect id="Rectangle_801" data-name="Rectangle 801" width="9.855" height="9.855" transform="translate(11.307 11.051)" fill="#e0e0e0"/>
      </g>
    </g>
    <g id="Floor" transform="translate(46.667 214.878)">
      <g id="Group_14947" data-name="Group 14947">
        <g id="Group_14946" data-name="Group 14946">
          <path id="Path_69127" data-name="Path 69127" d="M318.9,441.724c0,.059-57.214.107-127.774.107-70.585,0-127.786-.048-127.786-.107s57.2-.107,127.786-.107C261.685,441.617,318.9,441.665,318.9,441.724Z" transform="translate(-63.339 -441.617)" fill="#263238"/>
        </g>
      </g>
    </g>
    <g id="Character" transform="translate(178.447 95.679)">
      <g id="Group_15256" data-name="Group 15256" transform="translate(0 0)">
        <g id="Group_15097" data-name="Group 15097" transform="translate(0 0.728)">
          <g id="Group_15025" data-name="Group 15025" transform="translate(44.377 19.878)">
            <path id="Path_69145" data-name="Path 69145" d="M524.094,201.219a6.011,6.011,0,0,0-5.286,1.824c-2.144,2.151-11.08,10.013-11.08,10.013l-12.948-2.592-1.787,5.78S508.285,221,509.4,220.593s9.407-6.026,9.407-6.026Z" transform="translate(-492.993 -201.143)" fill="#e8505b"/>
          </g>
          <g id="Group_15048" data-name="Group 15048" transform="translate(0 0)">
            <g id="Group_15033" data-name="Group 15033">
              <g id="Group_15032" data-name="Group 15032">
                <g id="Group_15031" data-name="Group 15031">
                  <g id="Group_15027" data-name="Group 15027" transform="translate(0.123)">
                    <g id="Group_15026" data-name="Group 15026" transform="translate(0)">
                      <rect id="Rectangle_813" data-name="Rectangle 813" width="62.905" height="50.291" transform="matrix(0.991, -0.135, 0.135, 0.991, 0, 8.466)" fill="#ebebeb"/>
                    </g>
                  </g>
                  <g id="Group_15030" data-name="Group 15030" transform="translate(0 0)">
                    <g id="Group_15029" data-name="Group 15029">
                      <g id="Group_15028" data-name="Group 15028">
                        <path id="Path_69146" data-name="Path 69146" d="M447.212,152.659s-.1.018-.3.047l-.871.125-3.379.472-12.751,1.761-45.018,6.17.093-.123c2.018,14.831,4.332,31.834,6.781,49.826v.005l-.137-.1,62.335-8.445-.087.114c-2.018-15.018-3.69-27.466-4.859-36.165-.58-4.354-1.035-7.768-1.345-10.1-.153-1.163-.27-2.055-.35-2.662s-.114-.92-.114-.92.048.3.133.9.209,1.486.37,2.64l1.394,10.07c1.2,8.711,2.907,21.175,4.972,36.214l.014.1-.1.014-62.33,8.486-.121.017-.016-.121v-.005c-2.439-17.993-4.744-35-6.755-49.829l-.015-.109.109-.014,45.1-6.071,12.735-1.7,3.362-.444.861-.111C447.116,152.668,447.212,152.659,447.212,152.659Z" transform="translate(-384.756 -152.659)" fill="#263238"/>
                      </g>
                    </g>
                  </g>
                </g>
              </g>
            </g>
            <g id="Group_15035" data-name="Group 15035" transform="translate(2.698 3.44)">
              <g id="Group_15034" data-name="Group 15034" transform="translate(0 0)">
                <rect id="Rectangle_814" data-name="Rectangle 814" width="58.485" height="43.959" transform="matrix(0.991, -0.135, 0.135, 0.991, 0, 7.871)" fill="#e8505b"/>
              </g>
            </g>
            <g id="Group_15037" data-name="Group 15037" transform="translate(8.614 25.045)">
              <g id="Group_15036" data-name="Group 15036">
                <path id="Path_69147" data-name="Path 69147" d="M405.767,243.57l16.564-29.825,14.839,15.237,7.274-10.211L463.72,235.7Z" transform="translate(-405.767 -213.745)" fill="#e8505b"/>
              </g>
            </g>
            <g id="Group_15041" data-name="Group 15041" transform="translate(33.421 15.317)">
              <g id="Group_15040" data-name="Group 15040">
                <g id="Group_15039" data-name="Group 15039">
                  <g id="Group_15038" data-name="Group 15038">
                    <path id="Path_69148" data-name="Path 69148" d="M475.439,194a4.6,4.6,0,1,1-5.183-3.943A4.605,4.605,0,0,1,475.439,194Z" transform="translate(-466.27 -190.017)" fill="#e8505b"/>
                  </g>
                </g>
              </g>
            </g>
            <g id="Group_15043" data-name="Group 15043" transform="translate(8.614 25.045)" opacity="0.2">
              <g id="Group_15042" data-name="Group 15042">
                <path id="Path_69149" data-name="Path 69149" d="M405.767,243.57l16.564-29.825,14.839,15.237,7.274-10.211L463.72,235.7Z" transform="translate(-405.767 -213.745)"/>
              </g>
            </g>
            <g id="Group_15047" data-name="Group 15047" transform="translate(33.421 15.317)" opacity="0.2">
              <g id="Group_15046" data-name="Group 15046">
                <g id="Group_15045" data-name="Group 15045">
                  <g id="Group_15044" data-name="Group 15044">
                    <path id="Path_69150" data-name="Path 69150" d="M475.439,194a4.6,4.6,0,1,1-5.183-3.943A4.605,4.605,0,0,1,475.439,194Z" transform="translate(-466.27 -190.017)"/>
                  </g>
                </g>
              </g>
            </g>
          </g>
          <g id="Group_15049" data-name="Group 15049" transform="translate(69.298 19.074)">
            <path id="Path_69151" data-name="Path 69151" d="M574.673,206.523c.587-4.052-1.294-5.312-4.251-6.537-3.693-1.53-10.725-.769-13.1,1.374l-2.722,8c-1.137,1.325-.956,3.349-.3,4.967s1.712,3.069,2.2,4.745c.946,3.239.283,6.106.057,9.474-.052.778-.65,2.212-.075,2.739a2.793,2.793,0,0,0,2.038.472,40.869,40.869,0,0,0,16.287-4.124c-1.928-3.895-4.057-8.4-2.815-11.387A41.332,41.332,0,0,0,574.673,206.523Z" transform="translate(-553.776 -199.182)" fill="#e8505b"/>
          </g>
          <g id="Group_15054" data-name="Group 15054" transform="translate(62.833 21.431)">
            <g id="Group_15053" data-name="Group 15053">
              <g id="Group_15052" data-name="Group 15052">
                <g id="Group_15051" data-name="Group 15051">
                  <g id="Group_15050" data-name="Group 15050">
                    <path id="Path_69152" data-name="Path 69152" d="M539.831,218.21l-1.823,6.225s9.548,3.473,14.72,3.409c4.845-.059,6.233-.609,7.938-4.522s3.64-8.407,4.045-11a13.993,13.993,0,0,0,.614-2.639c.709-5.31-5.751-6.709-6.694-1.435l-.769,2.826s-1.76,3.977-1.843,4.2c-.779,2.062-2.125,5.365-3.1,5.73S539.831,218.21,539.831,218.21Z" transform="translate(-538.008 -204.93)" fill="#e8505b"/>
                  </g>
                </g>
              </g>
            </g>
          </g>
          <g id="Group_15056" data-name="Group 15056" transform="translate(62.701 26.645)">
            <g id="Group_15055" data-name="Group 15055">
              <path id="Path_69153" data-name="Path 69153" d="M562.96,225.982a.9.9,0,0,1-.05.148l-.167.425c-.15.372-.378.92-.709,1.608a22.429,22.429,0,0,1-1.343,2.439,14.619,14.619,0,0,1-2.33,2.866,9.41,9.41,0,0,1-.813.676c-.291.212-.612.4-.936.59l-.523.235c-.088.039-.175.082-.266.117l-.283.079-.575.16-.6.071a20.228,20.228,0,0,1-5.14-.365,84.958,84.958,0,0,1-11.439-2.992l-.1-.032.029-.1.23-.786,1.594-5.437.029-.1.1.027c3.493.933,6.8,1.75,9.8,2.3.752.131,1.487.249,2.2.3a4.984,4.984,0,0,0,1.043,0,1.03,1.03,0,0,0,.234-.055.331.331,0,0,0,.167-.133,3.233,3.233,0,0,0,.274-.414c.67-1.159,1.185-2.3,1.675-3.328.959-2.06,1.695-3.726,2.2-4.87l.586-1.314.155-.339a.637.637,0,0,1,.058-.112.6.6,0,0,1-.041.12l-.137.346-.553,1.328c-.489,1.154-1.2,2.829-2.148,4.9-.483,1.03-.986,2.174-1.66,3.354a3.306,3.306,0,0,1-.287.437.5.5,0,0,1-.23.181,1.181,1.181,0,0,1-.271.067,5.137,5.137,0,0,1-1.083.008c-.726-.053-1.464-.169-2.22-.3-3.022-.537-6.327-1.345-9.827-2.275l.128-.072-1.591,5.438-.23.787-.068-.131a86.53,86.53,0,0,0,11.4,3,20.2,20.2,0,0,0,5.088.383l.588-.066.558-.153.276-.075c.088-.034.173-.075.259-.113l.51-.226c.318-.185.633-.366.92-.572a9.334,9.334,0,0,0,.8-.659,14.686,14.686,0,0,0,2.332-2.82,23.423,23.423,0,0,0,1.369-2.412c.342-.681.581-1.222.743-1.588l.186-.417A.785.785,0,0,1,562.96,225.982Z" transform="translate(-537.687 -217.647)" fill="#263238"/>
            </g>
          </g>
          <g id="Group_15058" data-name="Group 15058" transform="translate(69.45 27.737)">
            <g id="Group_15057" data-name="Group 15057">
              <path id="Path_69154" data-name="Path 69154" d="M556.253,220.311a10.547,10.547,0,0,1-.664,1.13,8.26,8.26,0,0,0-1.175,2.872,5.42,5.42,0,0,0,.507,3.021,12.442,12.442,0,0,1,.517,1.2,1.118,1.118,0,0,1-.2-.292c-.116-.2-.277-.482-.455-.849a7.068,7.068,0,0,1-.5-1.348,4.412,4.412,0,0,1-.081-1.768,7.566,7.566,0,0,1,1.258-2.92A6.425,6.425,0,0,1,556.253,220.311Z" transform="translate(-554.149 -220.311)" fill="#263238"/>
            </g>
          </g>
          <g id="Group_15060" data-name="Group 15060" transform="translate(72.347 40.187)" opacity="0.2">
            <g id="Group_15059" data-name="Group 15059">
              <path id="Path_69155" data-name="Path 69155" d="M561.268,254.105a2.478,2.478,0,0,0,.822,1.891,4.524,4.524,0,0,0,1.863.989,8.136,8.136,0,0,0,6.435-.875,8.8,8.8,0,0,0,3.724-5.434s-1.2,1.514-1.993,2.3a6.056,6.056,0,0,1-3.685,1.759,21.4,21.4,0,0,1-7.221-.633" transform="translate(-561.215 -250.676)"/>
            </g>
          </g>
          <g id="Group_15062" data-name="Group 15062" transform="translate(71.6 21.914)">
            <g id="Group_15061" data-name="Group 15061">
              <path id="Path_69156" data-name="Path 69156" d="M559.447,206.109a5.336,5.336,0,0,1,.668.32l1.675.879.15.079-.146.1-1.159.756-1.079.69-.157.1,0-.182c-.008-.8-.007-1.481,0-1.966a3.414,3.414,0,0,1,.049-.771,3.45,3.45,0,0,1,.077.769c.027.484.053,1.168.075,1.965l-.158-.082,1.077-.7,1.172-.748,0,.173A14.758,14.758,0,0,1,559.447,206.109Z" transform="translate(-559.392 -206.108)" fill="#fafafa"/>
            </g>
          </g>
          <g id="Group_15064" data-name="Group 15064" transform="translate(67.04 25.975)">
            <g id="Group_15063" data-name="Group 15063">
              <path id="Path_69157" data-name="Path 69157" d="M548.325,216.014a5.361,5.361,0,0,1,.667.319l1.676.879.15.078-.146.1-1.159.756-1.079.69-.157.1,0-.182c-.008-.8-.007-1.481,0-1.966a3.453,3.453,0,0,1,.048-.771,3.407,3.407,0,0,1,.077.769c.027.484.053,1.168.075,1.964l-.159-.081,1.078-.7,1.172-.749,0,.174A14.757,14.757,0,0,1,548.325,216.014Z" transform="translate(-548.27 -216.013)" fill="#fafafa"/>
            </g>
          </g>
          <g id="Group_15066" data-name="Group 15066" transform="translate(79.289 24.573)">
            <g id="Group_15065" data-name="Group 15065">
              <path id="Path_69158" data-name="Path 69158" d="M578.15,215.381a5.366,5.366,0,0,1,.049-.738c.055-.531.12-1.166.194-1.882l.017-.168.143.1,1.133.795,1.041.745.152.108-.168.069c-.737.3-1.372.557-1.826.729a3.442,3.442,0,0,1-.734.241,3.477,3.477,0,0,1,.685-.357c.44-.2,1.064-.483,1.8-.8l-.016.178-1.053-.739-1.13-.81.16-.068A14.728,14.728,0,0,1,578.15,215.381Z" transform="translate(-578.146 -212.593)" fill="#fafafa"/>
            </g>
          </g>
          <g id="Group_15068" data-name="Group 15068" transform="translate(71.241 30.035)">
            <g id="Group_15067" data-name="Group 15067">
              <path id="Path_69159" data-name="Path 69159" d="M558.517,228.033a5.306,5.306,0,0,1,.469-.572l1.251-1.419.112-.127.058.164.46,1.305.414,1.212.06.176-.177-.041c-.776-.182-1.441-.345-1.909-.468a3.458,3.458,0,0,1-.738-.23,3.456,3.456,0,0,1,.765.107c.476.089,1.147.226,1.926.394l-.117.134-.426-1.214-.449-1.316.17.037A14.78,14.78,0,0,1,558.517,228.033Z" transform="translate(-558.517 -225.915)" fill="#fafafa"/>
            </g>
          </g>
          <g id="Group_15070" data-name="Group 15070" transform="translate(77.532 30.006)">
            <g id="Group_15069" data-name="Group 15069">
              <path id="Path_69160" data-name="Path 69160" d="M573.864,228.634a5.4,5.4,0,0,1,.049-.738l.193-1.882.017-.168.143.1,1.133.795,1.041.745.152.108-.168.069c-.737.3-1.372.557-1.826.729a3.441,3.441,0,0,1-.734.242,3.482,3.482,0,0,1,.685-.357c.44-.205,1.064-.483,1.8-.8l-.016.178-1.053-.739-1.13-.81.16-.068A14.762,14.762,0,0,1,573.864,228.634Z" transform="translate(-573.86 -225.846)" fill="#fafafa"/>
            </g>
          </g>
          <g id="Group_15072" data-name="Group 15072" transform="translate(75.294 33.846)">
            <g id="Group_15071" data-name="Group 15071">
              <path id="Path_69161" data-name="Path 69161" d="M568.407,238a5.37,5.37,0,0,1,.049-.738l.193-1.882.017-.169.143.1,1.133.795,1.041.745.151.109-.168.069c-.737.3-1.373.557-1.826.729a3.489,3.489,0,0,1-.734.242,3.425,3.425,0,0,1,.685-.358c.44-.2,1.065-.483,1.8-.8l-.017.177-1.052-.739-1.13-.81.16-.068A14.773,14.773,0,0,1,568.407,238Z" transform="translate(-568.403 -235.211)" fill="#fafafa"/>
            </g>
          </g>
          <g id="Group_15074" data-name="Group 15074" transform="translate(79.94 46.756)">
            <g id="Group_15073" data-name="Group 15073">
              <path id="Path_69162" data-name="Path 69162" d="M579.739,269.486a5.282,5.282,0,0,1,.049-.738c.055-.531.12-1.166.193-1.882L580,266.7l.143.1,1.132.795,1.041.745.151.108-.168.069c-.737.3-1.372.557-1.826.729a3.434,3.434,0,0,1-.733.241,3.432,3.432,0,0,1,.685-.357c.44-.2,1.064-.483,1.8-.8l-.017.178-1.052-.74-1.13-.81.16-.068A14.784,14.784,0,0,1,579.739,269.486Z" transform="translate(-579.735 -266.698)" fill="#fafafa"/>
            </g>
          </g>
          <g id="Group_15076" data-name="Group 15076" transform="translate(83.981 21.249)">
            <g id="Group_15075" data-name="Group 15075">
              <path id="Path_69163" data-name="Path 69163" d="M589.594,207.274a5.3,5.3,0,0,1,.049-.738c.055-.531.12-1.166.193-1.882l.017-.168.143.1,1.132.795,1.041.745.151.109-.168.069c-.737.3-1.372.557-1.826.729a3.439,3.439,0,0,1-.733.241,3.432,3.432,0,0,1,.685-.358c.44-.2,1.064-.483,1.8-.8l-.017.178-1.052-.74-1.13-.81.16-.068A14.781,14.781,0,0,1,589.594,207.274Z" transform="translate(-589.59 -204.485)" fill="#fafafa"/>
            </g>
          </g>
          <g id="Group_15078" data-name="Group 15078" transform="translate(73.906 25.77)">
            <g id="Group_15077" data-name="Group 15077">
              <path id="Path_69164" data-name="Path 69164" d="M565.021,218.3a5.293,5.293,0,0,1,.049-.738l.193-1.882.017-.169.143.1,1.133.795,1.041.745.151.109-.168.069c-.737.3-1.373.557-1.826.729a3.441,3.441,0,0,1-.734.241,3.436,3.436,0,0,1,.685-.358c.44-.2,1.065-.483,1.8-.8l-.017.178-1.052-.74-1.13-.81.16-.068A14.766,14.766,0,0,1,565.021,218.3Z" transform="translate(-565.017 -215.514)" fill="#fafafa"/>
            </g>
          </g>
          <g id="Group_15080" data-name="Group 15080" transform="translate(74.477 45.692)">
            <g id="Group_15079" data-name="Group 15079">
              <path id="Path_69165" data-name="Path 69165" d="M566.414,266.891a5.359,5.359,0,0,1,.049-.738c.055-.531.12-1.166.193-1.882l.017-.168.143.1,1.133.795,1.041.745.151.108-.168.069c-.737.3-1.372.557-1.826.729a3.437,3.437,0,0,1-.734.241,3.454,3.454,0,0,1,.685-.357c.44-.205,1.064-.483,1.8-.8l-.016.178-1.052-.74-1.131-.809.16-.068A14.676,14.676,0,0,1,566.414,266.891Z" transform="translate(-566.41 -264.103)" fill="#fafafa"/>
            </g>
          </g>
          <g id="Group_15082" data-name="Group 15082" transform="translate(85.273 29.038)">
            <g id="Group_15081" data-name="Group 15081">
              <path id="Path_69166" data-name="Path 69166" d="M592.745,226.273a5.334,5.334,0,0,1,.049-.738l.193-1.882.017-.168.143.1,1.133.795,1.041.745.151.108-.168.069c-.737.3-1.372.557-1.826.729a3.425,3.425,0,0,1-.734.241,3.448,3.448,0,0,1,.685-.357c.44-.2,1.064-.483,1.8-.8l-.016.178-1.052-.74-1.131-.809.16-.068A14.681,14.681,0,0,1,592.745,226.273Z" transform="translate(-592.741 -223.485)" fill="#fafafa"/>
            </g>
          </g>
          <g id="Group_15084" data-name="Group 15084" transform="translate(80.597 38.322)">
            <g id="Group_15083" data-name="Group 15083">
              <path id="Path_69167" data-name="Path 69167" d="M581.341,248.916a5.287,5.287,0,0,1,.049-.738c.055-.531.12-1.166.193-1.882l.017-.169.143.1,1.133.8,1.041.745.151.108-.168.069c-.737.3-1.372.557-1.826.729a3.474,3.474,0,0,1-.734.242,3.439,3.439,0,0,1,.685-.358c.44-.2,1.064-.483,1.8-.8l-.016.178-1.052-.739-1.131-.81.16-.068A14.773,14.773,0,0,1,581.341,248.916Z" transform="translate(-581.337 -246.127)" fill="#fafafa"/>
            </g>
          </g>
          <g id="Group_15086" data-name="Group 15086" transform="translate(84.5 42.621)">
            <g id="Group_15085" data-name="Group 15085">
              <path id="Path_69168" data-name="Path 69168" d="M590.859,259.4a5.29,5.29,0,0,1,.049-.738l.193-1.882.018-.168.143.1,1.133.795,1.041.745.151.108-.168.069c-.737.3-1.373.557-1.826.729a3.435,3.435,0,0,1-.734.241,3.439,3.439,0,0,1,.685-.357c.44-.2,1.065-.483,1.8-.8l-.017.178-1.052-.74-1.13-.81.16-.068A14.773,14.773,0,0,1,590.859,259.4Z" transform="translate(-590.855 -256.614)" fill="#fafafa"/>
            </g>
          </g>
          <g id="Group_15088" data-name="Group 15088" transform="translate(81.828 33.602)">
            <g id="Group_15087" data-name="Group 15087">
              <path id="Path_69169" data-name="Path 69169" d="M584.343,237.4a5.386,5.386,0,0,1,.049-.738c.055-.531.12-1.166.193-1.882l.017-.168.143.1,1.133.795,1.041.745.152.108-.168.069c-.737.3-1.372.557-1.826.729a3.441,3.441,0,0,1-.734.241,3.455,3.455,0,0,1,.685-.357c.44-.2,1.064-.483,1.8-.8l-.016.178-1.053-.74-1.13-.81.16-.068A14.77,14.77,0,0,1,584.343,237.4Z" transform="translate(-584.339 -234.616)" fill="#fafafa"/>
            </g>
          </g>
          <g id="Group_15090" data-name="Group 15090" transform="translate(69.322 39.13)">
            <g id="Group_15089" data-name="Group 15089">
              <path id="Path_69170" data-name="Path 69170" d="M553.841,250.887a5.289,5.289,0,0,1,.049-.738l.193-1.882.018-.169.143.1,1.133.795,1.041.745.151.109-.168.069c-.737.3-1.373.557-1.826.729a3.462,3.462,0,0,1-.734.242,3.434,3.434,0,0,1,.685-.358c.44-.2,1.065-.483,1.8-.8l-.017.178-1.052-.74-1.13-.81.16-.068A14.777,14.777,0,0,1,553.841,250.887Z" transform="translate(-553.837 -248.098)" fill="#fafafa"/>
            </g>
          </g>
          <g id="Group_15092" data-name="Group 15092" transform="translate(75.487 37.832)">
            <g id="Group_15091" data-name="Group 15091">
              <path id="Path_69171" data-name="Path 69171" d="M568.877,247.72a5.378,5.378,0,0,1,.049-.738c.055-.531.12-1.166.194-1.882l.017-.168.143.1,1.133.795,1.041.745.152.108-.168.069c-.737.3-1.372.557-1.826.729a3.442,3.442,0,0,1-.734.241,3.45,3.45,0,0,1,.685-.357c.44-.205,1.064-.483,1.8-.8l-.016.178-1.053-.74-1.13-.809.16-.068A14.769,14.769,0,0,1,568.877,247.72Z" transform="translate(-568.873 -244.932)" fill="#fafafa"/>
            </g>
          </g>
          <g id="Group_15094" data-name="Group 15094" transform="translate(64.76 36.364)">
            <g id="Group_15093" data-name="Group 15093">
              <path id="Path_69172" data-name="Path 69172" d="M542.714,244.14a5.37,5.37,0,0,1,.049-.738l.193-1.882.017-.168.143.1,1.133.795,1.041.745.151.109-.168.069c-.737.3-1.373.557-1.826.729a3.439,3.439,0,0,1-.734.241,3.447,3.447,0,0,1,.685-.357c.44-.2,1.064-.483,1.8-.8l-.016.178-1.053-.74-1.13-.81.16-.068A14.78,14.78,0,0,1,542.714,244.14Z" transform="translate(-542.71 -241.352)" fill="#fafafa"/>
            </g>
          </g>
          <g id="Group_15096" data-name="Group 15096" transform="translate(86.251 24.382)">
            <g id="Group_15095" data-name="Group 15095">
              <path id="Path_69173" data-name="Path 69173" d="M597.819,215a5.454,5.454,0,0,1-.717-.185l-1.814-.538-.162-.048.125-.122.991-.966.925-.885.134-.129.037.178c.162.78.293,1.451.379,1.929a3.454,3.454,0,0,1,.1.766,3.458,3.458,0,0,1-.225-.739c-.12-.47-.278-1.136-.453-1.913l.171.049-.921.9-1,.961-.037-.17A14.7,14.7,0,0,1,597.819,215Z" transform="translate(-595.127 -212.128)" fill="#fafafa"/>
            </g>
          </g>
        </g>
        <g id="Group_15151" data-name="Group 15151" transform="translate(44.762 110.857)">
          <g id="Group_15150" data-name="Group 15150">
            <g id="Group_15102" data-name="Group 15102" transform="translate(0.036)">
              <g id="Group_15099" data-name="Group 15099">
                <g id="Group_15098" data-name="Group 15098">
                  <path id="Path_69174" data-name="Path 69174" d="M499.216,424.75l1.8-3.48,6.542,3.329-2.579,5.12-.419-.18c-1.856-.818-9.379-4.292-10.4-5.272C493.022,423.174,499.216,424.75,499.216,424.75Z" transform="translate(-494.02 -421.27)" fill="#e8505b"/>
                </g>
              </g>
              <g id="Group_15101" data-name="Group 15101" transform="translate(8.613 6.172)" opacity="0.5">
                <g id="Group_15100" data-name="Group 15100">
                  <path id="Path_69175" data-name="Path 69175" d="M515.027,437.343a2.546,2.546,0,0,1,1.544-.97,2.474,2.474,0,0,1,1.771.3l-.929,1.829Z" transform="translate(-515.027 -436.325)" fill="#fff"/>
                </g>
              </g>
            </g>
            <g id="Group_15104" data-name="Group 15104" transform="translate(0 2.62)" opacity="0.4">
              <g id="Group_15103" data-name="Group 15103">
                <path id="Path_69176" data-name="Path 69176" d="M496.088,427.848s-2.234-.429-2.154.015,7.55,4.241,10.992,5.627l.064-.152-8.752-4.354S496.461,428.058,496.088,427.848Z" transform="translate(-493.932 -427.661)" fill="#fff"/>
              </g>
            </g>
            <g id="Group_15107" data-name="Group 15107" transform="translate(0.055 2.712)">
              <g id="Group_15106" data-name="Group 15106">
                <g id="Group_15105" data-name="Group 15105">
                  <path id="Path_69177" data-name="Path 69177" d="M505.175,433.517a.678.678,0,0,1-.119-.045l-.333-.145-1.215-.553c-1.023-.474-2.427-1.148-3.962-1.927s-2.909-1.513-3.9-2.059l-1.164-.654-.314-.183a.72.72,0,0,1-.106-.069.729.729,0,0,1,.115.053l.321.169,1.178.629c.994.531,2.371,1.257,3.905,2.035s2.933,1.46,3.948,1.949l1.2.579.326.16A.771.771,0,0,1,505.175,433.517Z" transform="translate(-494.067 -427.883)" fill="#263238"/>
                </g>
              </g>
            </g>
            <g id="Group_15110" data-name="Group 15110" transform="translate(2.147 2.704)">
              <g id="Group_15109" data-name="Group 15109">
                <g id="Group_15108" data-name="Group 15108">
                  <path id="Path_69178" data-name="Path 69178" d="M499.278,429.207a1.937,1.937,0,0,0-.108-1.342,1.186,1.186,0,0,1,.108,1.342Z" transform="translate(-499.167 -427.864)" fill="#263238"/>
                </g>
              </g>
            </g>
            <g id="Group_15113" data-name="Group 15113" transform="translate(4.594 3.328)">
              <g id="Group_15112" data-name="Group 15112">
                <g id="Group_15111" data-name="Group 15111">
                  <path id="Path_69179" data-name="Path 69179" d="M505.229,430.106a1.492,1.492,0,0,1-.069-.72.782.782,0,0,1,.079.356A.773.773,0,0,1,505.229,430.106Z" transform="translate(-505.138 -429.386)" fill="#263238"/>
                </g>
              </g>
            </g>
            <g id="Group_15116" data-name="Group 15116" transform="translate(5.128 3.462)">
              <g id="Group_15115" data-name="Group 15115">
                <g id="Group_15114" data-name="Group 15114">
                  <path id="Path_69180" data-name="Path 69180" d="M506.668,430.289c-.023.009-.091-.113-.152-.271s-.093-.294-.07-.3.091.113.152.271S506.691,430.28,506.668,430.289Z" transform="translate(-506.439 -429.714)" fill="#263238"/>
                </g>
              </g>
            </g>
            <g id="Group_15119" data-name="Group 15119" transform="translate(5.318 3.245)">
              <g id="Group_15118" data-name="Group 15118">
                <g id="Group_15117" data-name="Group 15117">
                  <path id="Path_69181" data-name="Path 69181" d="M507.591,429.529a.874.874,0,0,1-.364-.13c-.19-.094-.335-.188-.324-.21a.862.862,0,0,1,.363.13C507.456,429.413,507.6,429.507,507.591,429.529Z" transform="translate(-506.903 -429.185)" fill="#263238"/>
                </g>
              </g>
            </g>
            <g id="Group_15122" data-name="Group 15122" transform="translate(5.537 2.875)">
              <g id="Group_15121" data-name="Group 15121">
                <g id="Group_15120" data-name="Group 15120">
                  <path id="Path_69182" data-name="Path 69182" d="M508.243,428.619a1.081,1.081,0,0,1-.8-.335,33.343,33.343,0,0,0,.8.335Z" transform="translate(-507.438 -428.281)" fill="#263238"/>
                </g>
              </g>
            </g>
            <g id="Group_15125" data-name="Group 15125" transform="translate(3.691 2.266)">
              <g id="Group_15124" data-name="Group 15124">
                <g id="Group_15123" data-name="Group 15123">
                  <path id="Path_69183" data-name="Path 69183" d="M504,427.9a1.366,1.366,0,0,1-.419-.216,2.8,2.8,0,0,1-.4-.326,1.38,1.38,0,0,1-.2-.236.256.256,0,0,1-.038-.184.186.186,0,0,1,.149-.136.865.865,0,0,1,.839.71.85.85,0,0,1-.005.351c-.02.08-.042.121-.047.119a1.343,1.343,0,0,0-.009-.456.852.852,0,0,0-.241-.416.728.728,0,0,0-.518-.221c-.092.016-.106.107-.054.189a1.388,1.388,0,0,0,.185.221,3.258,3.258,0,0,0,.376.333C503.844,427.8,504,427.883,504,427.9Z" transform="translate(-502.935 -426.798)" fill="#263238"/>
                </g>
              </g>
            </g>
            <g id="Group_15128" data-name="Group 15128" transform="translate(4.629 2.681)">
              <g id="Group_15127" data-name="Group 15127">
                <g id="Group_15126" data-name="Group 15126">
                  <path id="Path_69184" data-name="Path 69184" d="M505.227,428.457a.467.467,0,0,1,.1-.316.774.774,0,0,1,.271-.249.474.474,0,0,1,.459-.036.188.188,0,0,1,.031.26.52.52,0,0,1-.167.152,1.444,1.444,0,0,1-.328.153.679.679,0,0,1-.327.048c0-.014.122-.033.306-.107a1.658,1.658,0,0,0,.3-.163c.1-.06.223-.2.128-.272a.421.421,0,0,0-.367.038.774.774,0,0,0-.258.213A1.782,1.782,0,0,0,505.227,428.457Z" transform="translate(-505.223 -427.808)" fill="#263238"/>
                </g>
              </g>
            </g>
            <g id="Group_15131" data-name="Group 15131" transform="translate(8.677 6.026)">
              <g id="Group_15130" data-name="Group 15130">
                <g id="Group_15129" data-name="Group 15129">
                  <path id="Path_69185" data-name="Path 69185" d="M518.359,436.43c-.009.014-.178-.113-.492-.228a2.3,2.3,0,0,0-2.408.5c-.242.23-.348.413-.362.4a.428.428,0,0,1,.067-.132,1.944,1.944,0,0,1,.25-.317,2.231,2.231,0,0,1,2.475-.509,1.915,1.915,0,0,1,.355.192C518.323,436.389,518.362,436.425,518.359,436.43Z" transform="translate(-515.097 -435.969)" fill="#263238"/>
                </g>
              </g>
            </g>
            <g id="Group_15134" data-name="Group 15134" transform="translate(11.311 3.42)">
              <g id="Group_15133" data-name="Group 15133">
                <g id="Group_15132" data-name="Group 15132">
                  <path id="Path_69186" data-name="Path 69186" d="M522.855,429.611a25.726,25.726,0,0,1-1.333,2.706,25.734,25.734,0,0,1,1.333-2.706Z" transform="translate(-521.521 -429.611)" fill="#263238"/>
                </g>
              </g>
            </g>
            <g id="Group_15137" data-name="Group 15137" transform="translate(6.228 5.179)">
              <g id="Group_15136" data-name="Group 15136">
                <g id="Group_15135" data-name="Group 15135">
                  <path id="Path_69187" data-name="Path 69187" d="M511.044,434.858a6.031,6.031,0,0,1-1.922-.954c.014-.022.428.221.958.483S511.053,434.834,511.044,434.858Z" transform="translate(-509.122 -433.903)" fill="#263238"/>
                </g>
              </g>
            </g>
            <g id="Group_15140" data-name="Group 15140" transform="translate(9.07 6.774)">
              <g id="Group_15139" data-name="Group 15139">
                <g id="Group_15138" data-name="Group 15138">
                  <path id="Path_69188" data-name="Path 69188" d="M516.417,437.8c.008.024-.081.073-.175.149s-.161.151-.183.138.019-.121.128-.207S516.411,437.779,516.417,437.8Z" transform="translate(-516.054 -437.793)" fill="#263238"/>
                </g>
              </g>
            </g>
            <g id="Group_15143" data-name="Group 15143" transform="translate(9.85 6.415)">
              <g id="Group_15142" data-name="Group 15142">
                <g id="Group_15141" data-name="Group 15141">
                  <path id="Path_69189" data-name="Path 69189" d="M518.329,436.93c.008.023-.069.07-.172.1s-.192.043-.2.02.069-.07.172-.1S518.321,436.907,518.329,436.93Z" transform="translate(-517.957 -436.917)" fill="#263238"/>
                </g>
              </g>
            </g>
            <g id="Group_15146" data-name="Group 15146" transform="translate(10.618 6.373)">
              <g id="Group_15145" data-name="Group 15145">
                <g id="Group_15144" data-name="Group 15144">
                  <path id="Path_69190" data-name="Path 69190" d="M520.266,436.946c-.016.02-.1-.025-.216-.04s-.208,0-.218-.023.091-.086.231-.066S520.283,436.928,520.266,436.946Z" transform="translate(-519.831 -436.813)" fill="#263238"/>
                </g>
              </g>
            </g>
            <g id="Group_15149" data-name="Group 15149" transform="translate(11.376 6.568)">
              <g id="Group_15148" data-name="Group 15148">
                <g id="Group_15147" data-name="Group 15147">
                  <path id="Path_69191" data-name="Path 69191" d="M521.914,437.346c0,.025-.057.039-.122.032s-.116-.032-.113-.056.057-.039.122-.033S521.917,437.322,521.914,437.346Z" transform="translate(-521.679 -437.289)" fill="#263238"/>
                </g>
              </g>
            </g>
          </g>
        </g>
        <g id="Group_15205" data-name="Group 15205" transform="translate(89.061 109.175)">
          <g id="Group_15204" data-name="Group 15204">
            <g id="Group_15156" data-name="Group 15156" transform="translate(0.006)">
              <g id="Group_15153" data-name="Group 15153">
                <g id="Group_15152" data-name="Group 15152">
                  <path id="Path_69192" data-name="Path 69192" d="M605.865,423.724l-1.559-3.595,6.715-2.963,2.337,5.235-.4.21c-1.808.921-9.256,4.554-10.66,4.725C600.726,427.527,605.865,423.724,605.865,423.724Z" transform="translate(-601.996 -417.166)" fill="#e8505b"/>
                </g>
              </g>
              <g id="Group_15155" data-name="Group 15155" transform="translate(8.829 3.266)" opacity="0.5">
                <g id="Group_15154" data-name="Group 15154">
                  <path id="Path_69193" data-name="Path 69193" d="M623.6,428.122a2.546,2.546,0,0,1,.225-1.81,2.471,2.471,0,0,1,1.354-1.181l.829,1.876Z" transform="translate(-623.529 -425.132)" fill="#fff"/>
                </g>
              </g>
            </g>
            <g id="Group_15158" data-name="Group 15158" transform="translate(0 5.089)" opacity="0.4">
              <g id="Group_15157" data-name="Group 15157">
                <path id="Path_69194" data-name="Path 69194" d="M603.388,433.005s-1.745,1.46-1.35,1.679,8.059-3.169,11.309-4.96l-.077-.146-8.906,4.029S603.787,432.849,603.388,433.005Z" transform="translate(-601.98 -429.579)" fill="#fff"/>
              </g>
            </g>
            <g id="Group_15161" data-name="Group 15161" transform="translate(0.006 5.039)">
              <g id="Group_15160" data-name="Group 15160">
                <g id="Group_15159" data-name="Group 15159">
                  <path id="Path_69195" data-name="Path 69195" d="M613.384,429.456a.713.713,0,0,1-.11.064l-.323.166-1.2.592c-1.014.492-2.424,1.155-4,1.852s-3.011,1.3-4.058,1.717l-1.243.488-.34.127a.68.68,0,0,1-.121.039.636.636,0,0,1,.114-.055l.334-.143,1.231-.515c1.04-.435,2.473-1.043,4.046-1.739s2.986-1.349,4.006-1.827l1.209-.566.33-.151A.648.648,0,0,1,613.384,429.456Z" transform="translate(-601.996 -429.455)" fill="#263238"/>
                </g>
              </g>
            </g>
            <g id="Group_15164" data-name="Group 15164" transform="translate(1.324 8.447)">
              <g id="Group_15163" data-name="Group 15163">
                <g id="Group_15162" data-name="Group 15162">
                  <path id="Path_69196" data-name="Path 69196" d="M606.318,438.544a1.939,1.939,0,0,0-1.108-.765,1.186,1.186,0,0,1,1.108.765Z" transform="translate(-605.21 -437.769)" fill="#263238"/>
                </g>
              </g>
            </g>
            <g id="Group_15167" data-name="Group 15167" transform="translate(3.366 6.936)">
              <g id="Group_15166" data-name="Group 15166">
                <g id="Group_15165" data-name="Group 15165">
                  <path id="Path_69197" data-name="Path 69197" d="M610.792,434.488c-.014.021-.159-.053-.326-.164s-.29-.218-.276-.238.159.053.326.164S610.806,434.467,610.792,434.488Z" transform="translate(-610.19 -434.083)" fill="#263238"/>
                </g>
              </g>
            </g>
            <g id="Group_15170" data-name="Group 15170" transform="translate(3.799 6.613)">
              <g id="Group_15169" data-name="Group 15169">
                <g id="Group_15168" data-name="Group 15168">
                  <path id="Path_69198" data-name="Path 69198" d="M611.833,433.5c-.007.023-.145,0-.306-.053s-.286-.115-.279-.138.145,0,.306.053S611.84,433.473,611.833,433.5Z" transform="translate(-611.247 -433.296)" fill="#263238"/>
                </g>
              </g>
            </g>
            <g id="Group_15173" data-name="Group 15173" transform="translate(3.75 6.023)">
              <g id="Group_15172" data-name="Group 15172">
                <g id="Group_15171" data-name="Group 15171">
                  <path id="Path_69199" data-name="Path 69199" d="M611.825,431.861c.01.023-.138.112-.33.2a.863.863,0,0,1-.367.119c-.01-.022.138-.112.33-.2A.863.863,0,0,1,611.825,431.861Z" transform="translate(-611.127 -431.855)" fill="#263238"/>
                </g>
              </g>
            </g>
            <g id="Group_15176" data-name="Group 15176" transform="translate(3.601 5.527)">
              <g id="Group_15175" data-name="Group 15175">
                <g id="Group_15174" data-name="Group 15174">
                  <path id="Path_69200" data-name="Path 69200" d="M611.531,430.648c.016.017-.12.169-.34.286a.744.744,0,0,1-.428.125,2.414,2.414,0,0,1,.385-.2A2.359,2.359,0,0,1,611.531,430.648Z" transform="translate(-610.763 -430.646)" fill="#263238"/>
                </g>
              </g>
            </g>
            <g id="Group_15179" data-name="Group 15179" transform="translate(2.033 6.558)">
              <g id="Group_15178" data-name="Group 15178">
                <g id="Group_15177" data-name="Group 15177">
                  <path id="Path_69201" data-name="Path 69201" d="M608.388,433.459a1.358,1.358,0,0,1-.433.188,2.769,2.769,0,0,1-.5.1,1.374,1.374,0,0,1-.311.008.256.256,0,0,1-.166-.087.185.185,0,0,1-.011-.2.865.865,0,0,1,1.08-.2.834.834,0,0,1,.268.226c.05.066.067.109.063.112a1.332,1.332,0,0,0-.359-.281.85.85,0,0,0-.474-.077.731.731,0,0,0-.5.262c-.046.081.016.15.112.162a1.405,1.405,0,0,0,.288,0,3.249,3.249,0,0,0,.5-.081C608.217,433.518,608.382,433.446,608.388,433.459Z" transform="translate(-606.939 -433.161)" fill="#263238"/>
                </g>
              </g>
            </g>
            <g id="Group_15182" data-name="Group 15182" transform="translate(3.163 5.897)">
              <g id="Group_15181" data-name="Group 15181">
                <g id="Group_15180" data-name="Group 15180">
                  <path id="Path_69202" data-name="Path 69202" d="M609.912,432.579a.464.464,0,0,1-.182-.278.775.775,0,0,1-.022-.367.474.474,0,0,1,.262-.378.187.187,0,0,1,.221.14.507.507,0,0,1,.012.225,1.425,1.425,0,0,1-.088.351.688.688,0,0,1-.17.284c-.012-.007.052-.116.11-.3a1.632,1.632,0,0,0,.066-.339c.019-.118-.013-.3-.13-.271s-.175.194-.2.309a.775.775,0,0,0,0,.335A1.75,1.75,0,0,0,609.912,432.579Z" transform="translate(-609.695 -431.55)" fill="#263238"/>
                </g>
              </g>
            </g>
            <g id="Group_15185" data-name="Group 15185" transform="translate(8.74 3.261)">
              <g id="Group_15184" data-name="Group 15184">
                <g id="Group_15183" data-name="Group 15183">
                  <path id="Path_69203" data-name="Path 69203" d="M625,425.121c.005.016-.2.067-.488.237a2.3,2.3,0,0,0-1.138,2.179c.025.333.1.531.084.535a.41.41,0,0,1-.06-.135,1.935,1.935,0,0,1-.087-.394,2.232,2.232,0,0,1,1.171-2.239,1.929,1.929,0,0,1,.373-.154A.439.439,0,0,1,625,425.121Z" transform="translate(-623.297 -425.12)" fill="#263238"/>
                </g>
              </g>
            </g>
            <g id="Group_15188" data-name="Group 15188" transform="translate(8.513 0.776)">
              <g id="Group_15187" data-name="Group 15187">
                <g id="Group_15186" data-name="Group 15186">
                  <path id="Path_69204" data-name="Path 69204" d="M622.745,419.06A25.535,25.535,0,0,1,624,421.8a25.472,25.472,0,0,1-1.255-2.743Z" transform="translate(-622.744 -419.06)" fill="#263238"/>
                </g>
              </g>
            </g>
            <g id="Group_15191" data-name="Group 15191" transform="translate(5.822 5.974)">
              <g id="Group_15190" data-name="Group 15190">
                <g id="Group_15189" data-name="Group 15189">
                  <path id="Path_69205" data-name="Path 69205" d="M618.134,431.739a6.039,6.039,0,0,1-1.953.886c-.008-.025.442-.191.979-.436S618.121,431.716,618.134,431.739Z" transform="translate(-616.181 -431.737)" fill="#263238"/>
                </g>
              </g>
            </g>
            <g id="Group_15194" data-name="Group 15194" transform="translate(9.006 5.391)">
              <g id="Group_15193" data-name="Group 15193">
                <g id="Group_15192" data-name="Group 15192">
                  <path id="Path_69206" data-name="Path 69206" d="M624.031,430.316c.024.009.005.109,0,.229s.015.221-.009.229-.082-.091-.08-.23S624.009,430.306,624.031,430.316Z" transform="translate(-623.947 -430.315)" fill="#263238"/>
                </g>
              </g>
            </g>
            <g id="Group_15197" data-name="Group 15197" transform="translate(9.163 4.555)">
              <g id="Group_15196" data-name="Group 15196">
                <g id="Group_15195" data-name="Group 15195">
                  <path id="Path_69207" data-name="Path 69207" d="M624.48,428.277c.023.009.011.1-.028.2s-.088.176-.111.168-.011-.1.028-.2S624.457,428.268,624.48,428.277Z" transform="translate(-624.33 -428.276)" fill="#263238"/>
                </g>
              </g>
            </g>
            <g id="Group_15200" data-name="Group 15200" transform="translate(9.566 3.948)">
              <g id="Group_15199" data-name="Group 15199">
                <g id="Group_15198" data-name="Group 15198">
                  <path id="Path_69208" data-name="Path 69208" d="M625.644,426.807c.005.025-.084.064-.168.142s-.131.162-.155.155-.009-.125.1-.22S625.642,426.784,625.644,426.807Z" transform="translate(-625.311 -426.795)" fill="#263238"/>
                </g>
              </g>
            </g>
            <g id="Group_15203" data-name="Group 15203" transform="translate(10.172 3.598)">
              <g id="Group_15202" data-name="Group 15202">
                <g id="Group_15201" data-name="Group 15201">
                  <path id="Path_69209" data-name="Path 69209" d="M626.962,425.948c.018.017-.006.069-.052.115s-.1.07-.115.052.006-.069.053-.115S626.945,425.93,626.962,425.948Z" transform="translate(-626.789 -425.942)" fill="#263238"/>
                </g>
              </g>
            </g>
          </g>
        </g>
        <g id="Group_15210" data-name="Group 15210" transform="translate(49.511 47.252)">
          <g id="Group_15209" data-name="Group 15209">
            <g id="Group_15206" data-name="Group 15206" transform="translate(23.721 10.907)">
              <path id="Path_69210" data-name="Path 69210" d="M589.932,345.99l-9.45,5.373-13.246-26.546c-1.968-7.1-3.863-32.079-3.863-32.079l10.916.834s1.682,17.935,4.323,27.177Z" transform="translate(-563.373 -292.738)" fill="#263238"/>
            </g>
            <g id="Group_15208" data-name="Group 15208">
              <path id="Path_69211" data-name="Path 69211" d="M545.581,266.135c.264-.015,2.175,7.392-.156,11.856-.228.435-1.9,2.86-1.9,2.86-5.949,7.018-11.975,20.632-13.658,24.209-3.452,7.336-16.176,31.47-16.176,31.47l-8.172-4.68,11.95-30.723,10.246-30.148Z" transform="translate(-505.516 -266.135)" fill="#263238"/>
              <g id="Group_15207" data-name="Group 15207" transform="translate(26.505 18.962)">
                <path id="Path_69212" data-name="Path 69212" d="M578.357,312.385a4.609,4.609,0,0,0-.345.6l-.884,1.676c-.745,1.415-1.795,3.36-2.957,5.507s-2.193,4.106-2.906,5.54c-.357.717-.64,1.3-.827,1.706a4.485,4.485,0,0,0-.274.64,4.488,4.488,0,0,0,.345-.6l.884-1.676c.745-1.415,1.795-3.361,2.958-5.509s2.192-4.1,2.906-5.539c.357-.717.64-1.3.827-1.706A4.493,4.493,0,0,0,578.357,312.385Z" transform="translate(-570.162 -312.385)" fill="#455a64"/>
              </g>
            </g>
          </g>
        </g>
        <g id="Group_15212" data-name="Group 15212" transform="translate(54.864 32.294)">
          <g id="Group_15211" data-name="Group 15211">
            <path id="Path_69213" data-name="Path 69213" d="M525.361,237.384a39.706,39.706,0,0,1-4.3-.59c-1.752-.424-1.72-.583-1.641-.781.213-.531,3.108.628,2.62.015s-3.694-1-3.449-1.549c.319-.711,3.329.559,3.592.647s.389-.291.148-.358c-.346-.1-3.956-1.2-3.649-1.9.17-.389.836,0,.836,0s3.308,1.285,3.442.948-1.783-1.162-2.448-1.392-.824-.635-.489-.845a11.285,11.285,0,0,1,2.934.757c.653.244,2.433.943,1.817-.121a3.218,3.218,0,0,1-.528-2.405c.171-.295.642-.152.681.227a4.6,4.6,0,0,0,.412,1.169,3,3,0,0,0,.562.82c.2.207.385.384.553.54l1.461,1.38-1.016,3.583Z" transform="translate(-518.572 -229.651)" fill="#ffbe9d"/>
          </g>
        </g>
        <g id="Group_15255" data-name="Group 15255" transform="translate(68.972)">
          <g id="Group_15213" data-name="Group 15213">
            <path id="Path_69214" data-name="Path 69214" d="M564.023,152.016a2.952,2.952,0,0,0-2.6-1.131,6.175,6.175,0,0,0-5.805,4.933,24.474,24.474,0,0,1-.432,3.353A9.332,9.332,0,0,1,554,161.306a5.7,5.7,0,0,0-.991,2.218,2.223,2.223,0,0,0,.815,2.173,2.72,2.72,0,0,0,2.4,4.587c.6-.1,1.239-.4,1.774-.114a2.943,2.943,0,0,1,.658.62,3.1,3.1,0,0,0,3.286.554,5.743,5.743,0,0,0,2.6-2.3c.17-.259.4-.561.7-.531a.972.972,0,0,1,.467.261,2.764,2.764,0,0,0,3.78-4,3.184,3.184,0,0,0,2.074-2.079,4.617,4.617,0,0,0-.115-3,11.963,11.963,0,0,0-2.544-3.716c-.919-1.033-1.191-2.629-2.109-3.662a2.945,2.945,0,0,0-1.713-1.142,3.384,3.384,0,0,0-1.967.44" transform="translate(-552.981 -150.884)" fill="#263238"/>
          </g>
          <g id="Group_15246" data-name="Group 15246" transform="translate(3.831 1.622)">
            <g id="Group_15245" data-name="Group 15245">
              <g id="Group_15240" data-name="Group 15240">
                <g id="Group_15239" data-name="Group 15239">
                  <g id="Group_15238" data-name="Group 15238">
                    <g id="Group_15215" data-name="Group 15215">
                      <g id="Group_15214" data-name="Group 15214">
                        <path id="Path_69215" data-name="Path 69215" d="M567.472,154.84a5.136,5.136,0,0,1,5.136,5.192l-.151,14.042a3.306,3.306,0,0,1-3.5,3.154h0a3.494,3.494,0,0,1-3.513-3.347c-.006-1.9-.046-3.9-.046-3.9a3.973,3.973,0,0,1-2.952-3.6c-.128-.8-.136-3.744-.113-6.457a5.136,5.136,0,0,1,5.137-5.091Z" transform="translate(-562.326 -154.84)" fill="#ffbe9d"/>
                      </g>
                    </g>
                    <g id="Group_15221" data-name="Group 15221" transform="translate(0.642 6.158)">
                      <g id="Group_15217" data-name="Group 15217" transform="translate(0.096 0.518)">
                        <g id="Group_15216" data-name="Group 15216">
                          <path id="Path_69216" data-name="Path 69216" d="M564.126,171.493a.409.409,0,0,0,.394.413.392.392,0,0,0,.422-.369.409.409,0,0,0-.394-.413A.392.392,0,0,0,564.126,171.493Z" transform="translate(-564.125 -171.123)" fill="#263238"/>
                        </g>
                      </g>
                      <g id="Group_15220" data-name="Group 15220">
                        <g id="Group_15219" data-name="Group 15219">
                          <g id="Group_15218" data-name="Group 15218">
                            <path id="Path_69217" data-name="Path 69217" d="M563.9,170.289c.051.053.361-.176.8-.175s.763.221.811.168c.023-.024-.028-.12-.169-.223a1.122,1.122,0,0,0-.649-.2,1.077,1.077,0,0,0-.637.206C563.92,170.169,563.874,170.265,563.9,170.289Z" transform="translate(-563.893 -169.859)" fill="#263238"/>
                          </g>
                        </g>
                      </g>
                    </g>
                    <g id="Group_15227" data-name="Group 15227" transform="translate(4.97 6.24)">
                      <g id="Group_15223" data-name="Group 15223" transform="translate(0.175 0.436)">
                        <g id="Group_15222" data-name="Group 15222">
                          <path id="Path_69218" data-name="Path 69218" d="M574.874,171.493a.409.409,0,0,0,.394.413.391.391,0,0,0,.422-.369.409.409,0,0,0-.394-.413A.391.391,0,0,0,574.874,171.493Z" transform="translate(-574.873 -171.123)" fill="#263238"/>
                        </g>
                      </g>
                      <g id="Group_15226" data-name="Group 15226">
                        <g id="Group_15225" data-name="Group 15225">
                          <g id="Group_15224" data-name="Group 15224">
                            <path id="Path_69219" data-name="Path 69219" d="M574.454,170.489c.051.053.361-.176.8-.175s.763.221.811.167c.023-.024-.027-.12-.169-.223a1.124,1.124,0,0,0-.649-.2,1.079,1.079,0,0,0-.638.206C574.475,170.369,574.429,170.465,574.454,170.489Z" transform="translate(-574.448 -170.059)" fill="#263238"/>
                          </g>
                        </g>
                      </g>
                    </g>
                    <g id="Group_15230" data-name="Group 15230" transform="translate(2.257 6.267)">
                      <g id="Group_15229" data-name="Group 15229">
                        <g id="Group_15228" data-name="Group 15228">
                          <path id="Path_69220" data-name="Path 69220" d="M568.952,173.792a2.915,2.915,0,0,0-.715-.129c-.112-.011-.219-.034-.238-.111a.577.577,0,0,1,.075-.333l.333-.856a14.707,14.707,0,0,0,.747-2.239,14.762,14.762,0,0,0-.925,2.174l-.319.861a.652.652,0,0,0-.058.441.282.282,0,0,0,.185.164.756.756,0,0,0,.191.027A2.844,2.844,0,0,0,568.952,173.792Z" transform="translate(-567.831 -170.124)" fill="#263238"/>
                        </g>
                      </g>
                    </g>
                    <g id="Group_15232" data-name="Group 15232" transform="translate(3.075 14.005)">
                      <g id="Group_15231" data-name="Group 15231">
                        <path id="Path_69221" data-name="Path 69221" d="M569.825,190.138A8.112,8.112,0,0,0,574.1,189s-1.036,2.191-4.229,1.893Z" transform="translate(-569.825 -188.998)" fill="#eb996e"/>
                      </g>
                    </g>
                    <g id="Group_15234" data-name="Group 15234" transform="translate(3.521 10.697)">
                      <g id="Group_15233" data-name="Group 15233">
                        <path id="Path_69222" data-name="Path 69222" d="M570.957,181.229a.794.794,0,0,1,.711-.294.725.725,0,0,1,.5.268.459.459,0,0,1,.035.525.533.533,0,0,1-.577.146,1.672,1.672,0,0,1-.563-.336.481.481,0,0,1-.126-.13.147.147,0,0,1,0-.164" transform="translate(-570.913 -180.93)" fill="#eb996e"/>
                      </g>
                    </g>
                    <g id="Group_15237" data-name="Group 15237" transform="translate(3.271 10.239)">
                      <g id="Group_15236" data-name="Group 15236">
                        <g id="Group_15235" data-name="Group 15235">
                          <path id="Path_69223" data-name="Path 69223" d="M571.707,179.814c-.071,0-.072.474-.481.813s-.918.287-.922.353c-.007.03.114.093.329.1a1.192,1.192,0,0,0,.769-.268,1.038,1.038,0,0,0,.373-.682C571.793,179.93,571.74,179.811,571.707,179.814Z" transform="translate(-570.303 -179.814)" fill="#263238"/>
                        </g>
                      </g>
                    </g>
                  </g>
                </g>
              </g>
              <g id="Group_15242" data-name="Group 15242" transform="translate(4.955 5.107)">
                <g id="Group_15241" data-name="Group 15241">
                  <path id="Path_69224" data-name="Path 69224" d="M574.415,167.627c.043.12.483.063,1,.125s.934.2,1,.1c.031-.052-.042-.164-.21-.28a1.749,1.749,0,0,0-1.526-.168C574.491,167.476,574.4,167.57,574.415,167.627Z" transform="translate(-574.412 -167.297)" fill="#263238"/>
                </g>
              </g>
              <g id="Group_15244" data-name="Group 15244" transform="translate(0.799 4.858)">
                <g id="Group_15243" data-name="Group 15243">
                  <path id="Path_69225" data-name="Path 69225" d="M564.287,167.144c.078.1.381,0,.745-.009s.674.067.745-.037c.031-.051-.017-.151-.152-.246a1.08,1.08,0,0,0-1.2.037C564.295,166.992,564.253,167.1,564.287,167.144Z" transform="translate(-564.275 -166.688)" fill="#263238"/>
                </g>
              </g>
            </g>
          </g>
          <g id="Group_15247" data-name="Group 15247" transform="translate(3.018 1.032)">
            <path id="Path_69226" data-name="Path 69226" d="M572.593,159.1a6.558,6.558,0,0,0-2.795-4.9,10.665,10.665,0,0,0-7.77.754,5.382,5.382,0,0,0-1.643,3.366,7.77,7.77,0,0,0,.575,3.744l.246-3.232a7.643,7.643,0,0,0,4.114-3.782,6.747,6.747,0,0,0,4.834,4.71,5.527,5.527,0,0,0,1.9,5.121A18.188,18.188,0,0,0,572.593,159.1Z" transform="translate(-560.343 -153.402)" fill="#263238"/>
          </g>
          <g id="Group_15248" data-name="Group 15248" transform="translate(12.379 6.979)">
            <path id="Path_69227" data-name="Path 69227" d="M583.948,169.568a8.478,8.478,0,0,1-.489,3.713,4.808,4.808,0,0,0,.157,3.674,1.922,1.922,0,0,1,.442.978,3.6,3.6,0,0,1-.332.906,1.42,1.42,0,0,0,.637,1.537,2.326,2.326,0,0,0,1.723.247,6.915,6.915,0,0,0,1.657-.653l1.555-.774a2.674,2.674,0,0,0,.654-.408,2.2,2.2,0,0,0,.565-1.158,7.018,7.018,0,0,0-.829-4.895c-.831-1.474-.462-3.924-1.891-4.83" transform="translate(-583.174 -167.906)" fill="#263238"/>
          </g>
          <g id="Group_15250" data-name="Group 15250" transform="translate(8.975 1.361)">
            <g id="Group_15249" data-name="Group 15249">
              <path id="Path_69228" data-name="Path 69228" d="M583.605,171.369a3.1,3.1,0,0,0,.833-.328,2.652,2.652,0,0,0,1.23-1.987,3.3,3.3,0,0,0-.278-1.628,3.865,3.865,0,0,0-.476-.8c-.2-.253-.43-.493-.671-.742a6.85,6.85,0,0,1-.7-.817,2.355,2.355,0,0,1-.425-1.064c-.1-.786.2-1.562.073-2.314a1.438,1.438,0,0,0-.564-.916,3.538,3.538,0,0,0-1-.483,7.527,7.527,0,0,1-2-.89,13.539,13.539,0,0,1-2.728-2.482c-.688-.793-1.188-1.48-1.529-1.956-.169-.239-.3-.427-.381-.557a.958.958,0,0,1-.12-.2.994.994,0,0,1,.155.178l.412.532c.36.46.877,1.131,1.575,1.906a13.891,13.891,0,0,0,2.721,2.416,7.414,7.414,0,0,0,1.959.858,3.718,3.718,0,0,1,1.06.512,1.65,1.65,0,0,1,.646,1.047c.132.84-.17,1.607-.075,2.328a3.209,3.209,0,0,0,1.062,1.77,10.023,10.023,0,0,1,.677.763,4.041,4.041,0,0,1,.49.842,3.424,3.424,0,0,1,.265,1.714,2.69,2.69,0,0,1-.529,1.328,2.6,2.6,0,0,1-.809.715,2.1,2.1,0,0,1-.639.235A.8.8,0,0,1,583.605,171.369Z" transform="translate(-574.872 -154.204)" fill="#455a64"/>
            </g>
          </g>
          <g id="Group_15252" data-name="Group 15252" transform="translate(9.584 1.104)">
            <g id="Group_15251" data-name="Group 15251">
              <path id="Path_69229" data-name="Path 69229" d="M583.5,158.431a1.1,1.1,0,0,1-.34-.07,9.191,9.191,0,0,1-.894-.3,13.712,13.712,0,0,1-5.11-3.474,9.219,9.219,0,0,1-.606-.721c-.133-.178-.2-.281-.19-.29.027-.022.345.351.9.907a16.456,16.456,0,0,0,5.059,3.439C583.044,158.239,583.508,158.4,583.5,158.431Z" transform="translate(-576.357 -153.576)" fill="#455a64"/>
            </g>
          </g>
          <g id="Group_15254" data-name="Group 15254" transform="translate(5.509 0.11)">
            <g id="Group_15253" data-name="Group 15253">
              <path id="Path_69230" data-name="Path 69230" d="M566.419,152.074c-.016-.021.146-.2.467-.422a2.686,2.686,0,0,1,1.444-.5,1.848,1.848,0,0,1,.845.177,1.543,1.543,0,0,1,.547.446c.246.329.241.6.218.6a4.191,4.191,0,0,0-.334-.5,1.655,1.655,0,0,0-1.273-.506,3,3,0,0,0-1.369.415A2.751,2.751,0,0,1,566.419,152.074Z" transform="translate(-566.418 -151.151)" fill="#455a64"/>
            </g>
          </g>
        </g>
      </g>
    </g>
    <g id="Plants" transform="translate(53.174 167.552)">
      <g id="Group_15264" data-name="Group 15264" transform="translate(30)">
        <path id="Path_69231" data-name="Path 69231" d="M97.26,326.215s2.694.119,1.751,6.083a69.862,69.862,0,0,1-1.927,9.086s-.076,1.338.983,1.2,3.146-1.209,3.99-.131c.875,1.118.343,2.615-1.183,4.273s-4.737,5.414-5.026,5.754-.46,1,.277,1.023,5.856-1.076,6.23,1.384-4.636,6.381-5.176,6.82-.6.749-.441,1.071,1.846-.208,3.315-.46,3.216-.287,3.313,1.151-2.361,5.324-10.277,8.789l-3.773,1.365-3.125-2.546c-6.354-5.855-7.412-10.331-6.851-11.659s2.2-.725,3.507-.008,2.727,1.768,2.984,1.515.3-.565-.068-1.156-3.826-5.931-2.671-8.134,5.638.5,6.341.722.755-.467.6-.876-1.974-5.013-2.876-7.078-.918-3.653.274-4.425c1.149-.744,2.773.945,3.729,1.424s1.319-.811,1.319-.811a69.908,69.908,0,0,1,1.139-9.218c1.052-5.946,3.7-5.148,3.7-5.148" transform="translate(-79.211 -326.186)" fill="#ee611c"/>
        <g id="Group_15257" data-name="Group 15257" transform="translate(10.106 5.372)">
          <path id="Path_69232" data-name="Path 69232" d="M110.967,339.289a.6.6,0,0,1-.011.11c-.012.08-.028.185-.049.32-.048.289-.115.7-.2,1.226l-.761,4.507-2.453,14.879c-.947,5.815-1.829,11.074-2.5,14.875l-.81,4.5-.231,1.221c-.027.133-.048.238-.064.317a.6.6,0,0,1-.027.107.55.55,0,0,1,.011-.11c.012-.08.028-.186.048-.32.048-.289.116-.7.2-1.226.182-1.073.441-2.611.761-4.507.642-3.806,1.507-9.067,2.453-14.882s1.829-11.071,2.5-14.873l.81-4.5.231-1.221.064-.317A.546.546,0,0,1,110.967,339.289Z" transform="translate(-103.859 -339.289)" fill="#263238"/>
        </g>
        <g id="Group_15258" data-name="Group 15258" transform="translate(14.334 17.874)">
          <path id="Path_69233" data-name="Path 69233" d="M119.826,369.783a8.187,8.187,0,0,1-.807.717l-1.975,1.693c-.771.663-1.474,1.258-2,1.674-.261.207-.476.371-.629.479a1.049,1.049,0,0,1-.247.154,9.963,9.963,0,0,1,.8-.718l1.964-1.707c.771-.663,1.482-1.249,2.008-1.66.263-.2.478-.367.631-.475A1.069,1.069,0,0,1,119.826,369.783Z" transform="translate(-114.173 -369.782)" fill="#263238"/>
        </g>
        <g id="Group_15259" data-name="Group 15259" transform="translate(8.771 15.738)">
          <path id="Path_69234" data-name="Path 69234" d="M105.827,371.266c-.034.027-1.23-1.451-2.673-3.3s-2.584-3.368-2.55-3.395,1.23,1.451,2.673,3.3S105.861,371.239,105.827,371.266Z" transform="translate(-100.603 -364.572)" fill="#263238"/>
        </g>
        <g id="Group_15260" data-name="Group 15260" transform="translate(6.901 28.127)">
          <path id="Path_69235" data-name="Path 69235" d="M101.948,399.429a1.076,1.076,0,0,1-.262-.14c-.164-.1-.4-.247-.679-.435-.566-.378-1.336-.92-2.153-1.564s-1.529-1.26-2.029-1.722c-.251-.23-.449-.422-.583-.557a1.083,1.083,0,0,1-.2-.222,8.913,8.913,0,0,1,.854.7c.518.44,1.237,1.043,2.053,1.682s1.571,1.2,2.12,1.6A8.77,8.77,0,0,1,101.948,399.429Z" transform="translate(-96.043 -394.789)" fill="#263238"/>
        </g>
        <g id="Group_15261" data-name="Group 15261" transform="translate(12.794 29.836)">
          <path id="Path_69236" data-name="Path 69236" d="M116.757,398.959a6.539,6.539,0,0,1-.906.466c-.568.269-1.357.632-2.232,1.023s-1.672.738-2.251.982a6.579,6.579,0,0,1-.951.365,6.628,6.628,0,0,1,.906-.466c.568-.269,1.357-.632,2.232-1.023s1.671-.738,2.251-.982A6.652,6.652,0,0,1,116.757,398.959Z" transform="translate(-110.417 -398.958)" fill="#263238"/>
        </g>
        <g id="Group_15262" data-name="Group 15262" transform="translate(11.084 39.093)">
          <path id="Path_69237" data-name="Path 69237" d="M114.406,421.538a1.528,1.528,0,0,1-.308.168l-.865.4c-.733.335-1.749.787-2.876,1.278s-2.151.928-2.895,1.237l-.884.359a1.542,1.542,0,0,1-.333.112,1.514,1.514,0,0,1,.309-.168l.865-.4c.733-.335,1.749-.788,2.876-1.279s2.15-.928,2.894-1.237l.884-.359A1.541,1.541,0,0,1,114.406,421.538Z" transform="translate(-106.246 -421.536)" fill="#263238"/>
        </g>
        <g id="Group_15263" data-name="Group 15263" transform="translate(3.924 36.423)">
          <path id="Path_69238" data-name="Path 69238" d="M96.113,421.113a1.727,1.727,0,0,1-.32-.2c-.2-.135-.485-.338-.834-.592-.7-.51-1.645-1.235-2.658-2.078s-1.9-1.64-2.531-2.232c-.315-.3-.565-.539-.736-.711a1.743,1.743,0,0,1-.253-.278,1.742,1.742,0,0,1,.294.234l.768.674c.647.57,1.544,1.353,2.557,2.193s1.947,1.578,2.625,2.11l.8.631A1.771,1.771,0,0,1,96.113,421.113Z" transform="translate(-88.781 -415.024)" fill="#263238"/>
        </g>
      </g>
      <g id="Group_15274" data-name="Group 15274" transform="translate(227.837 21.305)">
        <g id="Group_15265" data-name="Group 15265" transform="translate(6.373)">
          <path id="Path_69239" data-name="Path 69239" d="M653.637,378.171a4.885,4.885,0,0,1,2.531,2.867,8.628,8.628,0,0,1,.336,3.884,15.214,15.214,0,0,1-3.26,7.079c-2.122-1.852-2.611-5.084-2.756-6.739-.229-2.615.946-7.482,3.148-7.092" transform="translate(-650.46 -378.149)" fill="#ee611c"/>
        </g>
        <g id="Group_15266" data-name="Group 15266" transform="translate(11.528 12.758)">
          <path id="Path_69240" data-name="Path 69240" d="M663.131,414.522a4.168,4.168,0,0,1,1.347-3.962,5.533,5.533,0,0,1,4.082-1.275,2.331,2.331,0,0,1,1.792.8,1.782,1.782,0,0,1,.027,1.806,3.609,3.609,0,0,1-1.337,1.317c-1.839,1.154-3.831,1.933-5.911,1.309" transform="translate(-663.035 -409.267)" fill="#ee611c"/>
        </g>
        <g id="Group_15268" data-name="Group 15268" transform="translate(8.899 15.247)">
          <g id="Group_15267" data-name="Group 15267">
            <path id="Path_69241" data-name="Path 69241" d="M656.625,425.831a2.956,2.956,0,0,1,.076-.517c.066-.364.153-.835.257-1.4a14.624,14.624,0,0,1,1.444-4.472,8.954,8.954,0,0,1,3.209-3.41,6.06,6.06,0,0,1,1.309-.578,3.637,3.637,0,0,1,.377-.1.381.381,0,0,1,.135-.019,9.537,9.537,0,0,0-1.753.8,9.243,9.243,0,0,0-3.116,3.388,15.756,15.756,0,0,0-1.478,4.409c-.128.586-.233,1.062-.314,1.388A2.766,2.766,0,0,1,656.625,425.831Z" transform="translate(-656.622 -415.337)" fill="#ee611c"/>
          </g>
        </g>
        <g id="Group_15270" data-name="Group 15270" transform="translate(8.876 3.807)">
          <g id="Group_15269" data-name="Group 15269">
            <path id="Path_69242" data-name="Path 69242" d="M656.672,387.434a1.021,1.021,0,0,1,.026.226c.01.168.023.383.039.65.03.564.064,1.381.1,2.391.066,2.02.117,4.811.1,7.895s-.089,5.876-.172,7.895c-.041,1.009-.081,1.826-.116,2.39-.018.267-.033.482-.044.649a1.019,1.019,0,0,1-.028.226,1.106,1.106,0,0,1-.009-.228c0-.168.006-.384.01-.651.014-.588.034-1.4.058-2.392.05-2.019.1-4.809.118-7.891s-.018-5.872-.05-7.891c-.016-.993-.028-1.8-.037-2.392,0-.267,0-.483,0-.651A1.081,1.081,0,0,1,656.672,387.434Z" transform="translate(-656.566 -387.434)" fill="#ee611c"/>
          </g>
        </g>
        <g id="Group_15271" data-name="Group 15271" transform="translate(0 12.057)">
          <path id="Path_69243" data-name="Path 69243" d="M642.869,415.047a9.748,9.748,0,0,0-5.323-7.141,2.055,2.055,0,0,0-2.219-.034,2.019,2.019,0,0,0-.167,2.211,8.328,8.328,0,0,0,7.659,5.171" transform="translate(-634.917 -407.557)" fill="#ee611c"/>
        </g>
        <g id="Group_15273" data-name="Group 15273" transform="translate(2.972 14.796)">
          <g id="Group_15272" data-name="Group 15272">
            <path id="Path_69244" data-name="Path 69244" d="M642.166,414.238a2.474,2.474,0,0,1,.45.2,4.677,4.677,0,0,1,.509.271c.191.119.421.235.648.406a8.589,8.589,0,0,1,.741.558,9.625,9.625,0,0,1,.789.717,10.839,10.839,0,0,1,1.5,1.926,10.63,10.63,0,0,1,.988,2.233,9.247,9.247,0,0,1,.249,1.037,7.935,7.935,0,0,1,.128.92,7.251,7.251,0,0,1,.035.764,4.341,4.341,0,0,1-.017.576,2.477,2.477,0,0,1-.055.488c-.041,0,.031-.7-.093-1.816a8.4,8.4,0,0,0-.147-.9,9.738,9.738,0,0,0-.262-1.016,11.039,11.039,0,0,0-.983-2.188,11.274,11.274,0,0,0-1.463-1.9,10.088,10.088,0,0,0-.765-.718c-.244-.222-.494-.4-.718-.568C642.787,414.565,642.148,414.274,642.166,414.238Z" transform="translate(-642.166 -414.237)" fill="#ee611c"/>
          </g>
        </g>
      </g>
    </g>
    <g id="Image_upload" data-name="Image upload" transform="translate(139.792 95.679)">
      <g id="Group_15349" data-name="Group 15349">
        <g id="Group_15278" data-name="Group 15278">
          <g id="Group_15275" data-name="Group 15275" transform="translate(0.087 0.088)">
            <rect id="Rectangle_815" data-name="Rectangle 815" width="67.05" height="67.05" fill="#f5f5f5"/>
          </g>
          <g id="Group_15277" data-name="Group 15277">
            <g id="Group_15276" data-name="Group 15276">
              <path id="Path_69245" data-name="Path 69245" d="M334.744,200.03c0-.646-.031-26.856-.076-67.05l.076.076-67.044.012h-.006l.088-.087c0,24.553-.008,47.563-.012,67.05l-.076-.076,67.051.076-67.051.076h-.076v-.076c0-19.487-.007-42.5-.012-67.05v-.088h.094l67.044.012h.076v.076C334.774,173.174,334.745,199.384,334.744,200.03Z" transform="translate(-267.606 -132.892)" fill="#263238"/>
            </g>
          </g>
        </g>
        <g id="Group_15335" data-name="Group 15335" transform="translate(3.987 3.988)">
          <g id="Group_15280" data-name="Group 15280" transform="translate(57.138 57.137)">
            <g id="Group_15279" data-name="Group 15279">
              <path id="Path_69246" data-name="Path 69246" d="M449.417,316.72a11.691,11.691,0,0,1,2.017-.087c-.175.175-.048.048-.087.087h0v-.2c0-.068,0-.134,0-.2,0-.129,0-.254.005-.379.006-.221.012-.434.018-.641a.3.3,0,1,1,.124,0c.006.207.012.42.018.641,0,.124,0,.25.005.379v.405h0c-.039.039.087-.087-.088.088A11.675,11.675,0,0,1,449.417,316.72Z" transform="translate(-449.417 -314.703)" fill="#455a64"/>
            </g>
          </g>
          <g id="Group_15282" data-name="Group 15282" transform="translate(48.672 59.067)">
            <g id="Group_15281" data-name="Group 15281">
              <path id="Path_69247" data-name="Path 69247" d="M424.237,320.53a25.667,25.667,0,0,1,4.233,0,25.56,25.56,0,0,1-4.233,0Z" transform="translate(-424.237 -320.443)" fill="#455a64"/>
            </g>
          </g>
          <g id="Group_15284" data-name="Group 15284" transform="translate(40.207 59.067)">
            <g id="Group_15283" data-name="Group 15283">
              <path id="Path_69248" data-name="Path 69248" d="M399.058,320.53a25.667,25.667,0,0,1,4.233,0,25.56,25.56,0,0,1-4.233,0Z" transform="translate(-399.058 -320.443)" fill="#455a64"/>
            </g>
          </g>
          <g id="Group_15286" data-name="Group 15286" transform="translate(31.742 59.067)">
            <g id="Group_15285" data-name="Group 15285">
              <path id="Path_69249" data-name="Path 69249" d="M373.879,320.53a25.663,25.663,0,0,1,4.232,0,25.556,25.556,0,0,1-4.232,0Z" transform="translate(-373.879 -320.443)" fill="#455a64"/>
            </g>
          </g>
          <g id="Group_15288" data-name="Group 15288" transform="translate(23.276 59.067)">
            <g id="Group_15287" data-name="Group 15287">
              <path id="Path_69250" data-name="Path 69250" d="M348.7,320.53a25.667,25.667,0,0,1,4.233,0,25.56,25.56,0,0,1-4.233,0Z" transform="translate(-348.699 -320.443)" fill="#455a64"/>
            </g>
          </g>
          <g id="Group_15290" data-name="Group 15290" transform="translate(14.811 59.067)">
            <g id="Group_15289" data-name="Group 15289">
              <path id="Path_69251" data-name="Path 69251" d="M323.52,320.53a25.667,25.667,0,0,1,4.233,0,25.56,25.56,0,0,1-4.233,0Z" transform="translate(-323.52 -320.443)" fill="#455a64"/>
            </g>
          </g>
          <g id="Group_15292" data-name="Group 15292" transform="translate(6.346 59.067)">
            <g id="Group_15291" data-name="Group 15291">
              <path id="Path_69252" data-name="Path 69252" d="M298.341,320.53a25.663,25.663,0,0,1,4.232,0,25.557,25.557,0,0,1-4.232,0Z" transform="translate(-298.341 -320.443)" fill="#455a64"/>
            </g>
          </g>
          <g id="Group_15294" data-name="Group 15294" transform="translate(0.008 57.137)">
            <g id="Group_15293" data-name="Group 15293">
              <path id="Path_69253" data-name="Path 69253" d="M279.578,314.7a11.682,11.682,0,0,1,.088,2.017l-.087-.087h.406l.379.005.641.019a2.018,2.018,0,0,1,.591.062,2.018,2.018,0,0,1-.591.062l-.641.019-.379.005h-.406l-.088-.088A11.693,11.693,0,0,1,279.578,314.7Z" transform="translate(-279.491 -314.703)" fill="#455a64"/>
            </g>
          </g>
          <g id="Group_15296" data-name="Group 15296" transform="translate(0.008 48.672)">
            <g id="Group_15295" data-name="Group 15295">
              <path id="Path_69254" data-name="Path 69254" d="M279.578,289.524a25.578,25.578,0,0,1,0,4.233,25.658,25.658,0,0,1,0-4.233Z" transform="translate(-279.491 -289.524)" fill="#455a64"/>
            </g>
          </g>
          <g id="Group_15298" data-name="Group 15298" transform="translate(0.008 40.207)">
            <g id="Group_15297" data-name="Group 15297">
              <path id="Path_69255" data-name="Path 69255" d="M279.578,264.345a25.574,25.574,0,0,1,0,4.232,25.654,25.654,0,0,1,0-4.232Z" transform="translate(-279.491 -264.345)" fill="#455a64"/>
            </g>
          </g>
          <g id="Group_15300" data-name="Group 15300" transform="translate(0.008 31.741)">
            <g id="Group_15299" data-name="Group 15299">
              <path id="Path_69256" data-name="Path 69256" d="M279.578,239.165a25.578,25.578,0,0,1,0,4.233,25.658,25.658,0,0,1,0-4.233Z" transform="translate(-279.491 -239.165)" fill="#455a64"/>
            </g>
          </g>
          <g id="Group_15302" data-name="Group 15302" transform="translate(0.008 23.276)">
            <g id="Group_15301" data-name="Group 15301">
              <path id="Path_69257" data-name="Path 69257" d="M279.578,213.986a25.578,25.578,0,0,1,0,4.233,25.658,25.658,0,0,1,0-4.233Z" transform="translate(-279.491 -213.986)" fill="#455a64"/>
            </g>
          </g>
          <g id="Group_15304" data-name="Group 15304" transform="translate(0.008 14.811)">
            <g id="Group_15303" data-name="Group 15303">
              <path id="Path_69258" data-name="Path 69258" d="M279.578,188.807a25.578,25.578,0,0,1,0,4.233,25.658,25.658,0,0,1,0-4.233Z" transform="translate(-279.491 -188.807)" fill="#455a64"/>
            </g>
          </g>
          <g id="Group_15306" data-name="Group 15306" transform="translate(0.008 6.346)">
            <g id="Group_15305" data-name="Group 15305">
              <path id="Path_69259" data-name="Path 69259" d="M279.578,163.628a25.574,25.574,0,0,1,0,4.232,25.654,25.654,0,0,1,0-4.232Z" transform="translate(-279.491 -163.628)" fill="#455a64"/>
            </g>
          </g>
          <g id="Group_15308" data-name="Group 15308" transform="translate(0 0.008)">
            <g id="Group_15307" data-name="Group 15307">
              <path id="Path_69260" data-name="Path 69260" d="M281.579,144.865a11.7,11.7,0,0,1-2.017.087c.175-.175.049-.048.088-.087h0v.4c0,.129,0,.255-.005.379-.006.221-.013.434-.019.641a2.019,2.019,0,0,1-.062.591,2.023,2.023,0,0,1-.062-.591c-.006-.207-.012-.421-.019-.641,0-.124,0-.25-.005-.379,0-.066,0-.133,0-.2v-.2h0c.039-.039-.088.087.087-.088A11.7,11.7,0,0,1,281.579,144.865Z" transform="translate(-279.466 -144.778)" fill="#455a64"/>
            </g>
          </g>
          <g id="Group_15310" data-name="Group 15310" transform="translate(6.346 0.008)">
            <g id="Group_15309" data-name="Group 15309">
              <path id="Path_69261" data-name="Path 69261" d="M302.573,144.865a25.663,25.663,0,0,1-4.232,0,25.659,25.659,0,0,1,4.232,0Z" transform="translate(-298.341 -144.778)" fill="#455a64"/>
            </g>
          </g>
          <g id="Group_15312" data-name="Group 15312" transform="translate(14.811 0.008)">
            <g id="Group_15311" data-name="Group 15311">
              <path id="Path_69262" data-name="Path 69262" d="M327.753,144.865a25.667,25.667,0,0,1-4.233,0,25.662,25.662,0,0,1,4.233,0Z" transform="translate(-323.52 -144.778)" fill="#455a64"/>
            </g>
          </g>
          <g id="Group_15314" data-name="Group 15314" transform="translate(23.276 0.008)">
            <g id="Group_15313" data-name="Group 15313">
              <path id="Path_69263" data-name="Path 69263" d="M352.932,144.865a25.667,25.667,0,0,1-4.233,0,25.662,25.662,0,0,1,4.233,0Z" transform="translate(-348.699 -144.778)" fill="#455a64"/>
            </g>
          </g>
          <g id="Group_15316" data-name="Group 15316" transform="translate(31.742 0.008)">
            <g id="Group_15315" data-name="Group 15315">
              <path id="Path_69264" data-name="Path 69264" d="M378.111,144.865a25.663,25.663,0,0,1-4.232,0,25.658,25.658,0,0,1,4.232,0Z" transform="translate(-373.879 -144.778)" fill="#455a64"/>
            </g>
          </g>
          <g id="Group_15318" data-name="Group 15318" transform="translate(40.207 0.008)">
            <g id="Group_15317" data-name="Group 15317">
              <path id="Path_69265" data-name="Path 69265" d="M403.291,144.865a25.667,25.667,0,0,1-4.233,0,25.662,25.662,0,0,1,4.233,0Z" transform="translate(-399.058 -144.778)" fill="#455a64"/>
            </g>
          </g>
          <g id="Group_15320" data-name="Group 15320" transform="translate(48.672 0.008)">
            <g id="Group_15319" data-name="Group 15319">
              <path id="Path_69266" data-name="Path 69266" d="M428.47,144.865a25.667,25.667,0,0,1-4.233,0,25.662,25.662,0,0,1,4.233,0Z" transform="translate(-424.237 -144.778)" fill="#455a64"/>
            </g>
          </g>
          <g id="Group_15322" data-name="Group 15322" transform="translate(57.138)">
            <g id="Group_15321" data-name="Group 15321">
              <path id="Path_69267" data-name="Path 69267" d="M451.434,146.866a11.68,11.68,0,0,1-.088-2.017c.175.175.048.048.087.087h-.406l-.379-.005-.641-.019a2.016,2.016,0,0,1-.591-.062,2.019,2.019,0,0,1,.591-.062l.641-.019.379-.005h.406c.039.039-.087-.088.088.087A11.737,11.737,0,0,1,451.434,146.866Z" transform="translate(-449.417 -144.753)" fill="#455a64"/>
            </g>
          </g>
          <g id="Group_15324" data-name="Group 15324" transform="translate(59.067 6.346)">
            <g id="Group_15323" data-name="Group 15323">
              <path id="Path_69268" data-name="Path 69268" d="M455.244,167.86a25.565,25.565,0,0,1,0-4.232,25.654,25.654,0,0,1,0,4.232Z" transform="translate(-455.156 -163.628)" fill="#455a64"/>
            </g>
          </g>
          <g id="Group_15326" data-name="Group 15326" transform="translate(59.067 14.811)">
            <g id="Group_15325" data-name="Group 15325">
              <path id="Path_69269" data-name="Path 69269" d="M455.244,193.04a25.569,25.569,0,0,1,0-4.233,25.658,25.658,0,0,1,0,4.233Z" transform="translate(-455.156 -188.807)" fill="#455a64"/>
            </g>
          </g>
          <g id="Group_15328" data-name="Group 15328" transform="translate(59.067 23.276)">
            <g id="Group_15327" data-name="Group 15327">
              <path id="Path_69270" data-name="Path 69270" d="M455.244,218.219a25.569,25.569,0,0,1,0-4.233,25.658,25.658,0,0,1,0,4.233Z" transform="translate(-455.156 -213.986)" fill="#455a64"/>
            </g>
          </g>
          <g id="Group_15330" data-name="Group 15330" transform="translate(59.067 31.741)">
            <g id="Group_15329" data-name="Group 15329">
              <path id="Path_69271" data-name="Path 69271" d="M455.244,243.4a25.569,25.569,0,0,1,0-4.233,25.658,25.658,0,0,1,0,4.233Z" transform="translate(-455.156 -239.165)" fill="#455a64"/>
            </g>
          </g>
          <g id="Group_15332" data-name="Group 15332" transform="translate(59.067 40.207)">
            <g id="Group_15331" data-name="Group 15331">
              <path id="Path_69272" data-name="Path 69272" d="M455.244,268.577a25.565,25.565,0,0,1,0-4.232,25.654,25.654,0,0,1,0,4.232Z" transform="translate(-455.156 -264.345)" fill="#455a64"/>
            </g>
          </g>
          <g id="Group_15334" data-name="Group 15334" transform="translate(59.067 48.672)">
            <g id="Group_15333" data-name="Group 15333">
              <path id="Path_69273" data-name="Path 69273" d="M455.244,293.757a25.569,25.569,0,0,1,0-4.233,25.658,25.658,0,0,1,0,4.233Z" transform="translate(-455.156 -289.524)" fill="#455a64"/>
            </g>
          </g>
        </g>
        <g id="Group_15342" data-name="Group 15342" transform="translate(28.98 14.815)">
          <g id="Group_15337" data-name="Group 15337">
            <g id="Group_15336" data-name="Group 15336">
              <path id="Path_69274" data-name="Path 69274" d="M355.558,184.386a1.333,1.333,0,0,1-.344-.044,1.758,1.758,0,0,1-.863-.491,1.805,1.805,0,0,1-.538-1.458,1.6,1.6,0,0,1,.427-.9,1.463,1.463,0,0,1,1.015-.477l-.066.066a2.21,2.21,0,0,1,.353-1.436,1.271,1.271,0,0,1,.689-.444,1.852,1.852,0,0,1,.855-.01l-.094.085a1.952,1.952,0,0,1,.656-1.7,2.262,2.262,0,0,1,.871-.457l.242-.069.248-.04a3.078,3.078,0,0,1,.5-.049,3.512,3.512,0,0,1,2.032.437,2.261,2.261,0,0,1,.737.812,2.818,2.818,0,0,1,.31,1.068,2.766,2.766,0,0,1,.005.487l-.091-.1a2.88,2.88,0,0,1,1.876.526,3.492,3.492,0,0,1,1.1,1.516,1.865,1.865,0,0,1,.172.9,1.8,1.8,0,0,1-.293.849,1.986,1.986,0,0,1-1.416.874h-.008l-6.07.058-1.706,0-.45-.005a.747.747,0,0,1-.154-.01.765.765,0,0,1,.155-.014l.451-.018,1.706-.046,6.066-.121h-.008a1.83,1.83,0,0,0,1.3-.81,1.61,1.61,0,0,0,.1-1.6,3.33,3.33,0,0,0-1.051-1.44,2.71,2.71,0,0,0-1.764-.49l-.1,0,.009-.1a2.615,2.615,0,0,0-.006-.452,2.288,2.288,0,0,0-.967-1.75,3.354,3.354,0,0,0-1.929-.414,2.89,2.89,0,0,0-1.768.568,1.8,1.8,0,0,0-.61,1.551l.01.109-.1-.024a1.372,1.372,0,0,0-1.395.394,2.093,2.093,0,0,0-.337,1.344v.064h-.067a1.352,1.352,0,0,0-.927.43,1.5,1.5,0,0,0-.41.834,1.737,1.737,0,0,0,.488,1.4,1.78,1.78,0,0,0,.822.5C355.438,184.368,355.559,184.374,355.558,184.386Z" transform="translate(-353.803 -176.959)" fill="#263238"/>
            </g>
          </g>
          <g id="Group_15339" data-name="Group 15339" transform="translate(4.25 3.563)">
            <g id="Group_15338" data-name="Group 15338">
              <path id="Path_69275" data-name="Path 69275" d="M369.63,189.392a15.253,15.253,0,0,1-1.591-1.648l.128,0-.032.033a15.682,15.682,0,0,1-1.691,1.612,15.633,15.633,0,0,1,1.565-1.734l.032-.033.066-.067.063.07A15.232,15.232,0,0,1,369.63,189.392Z" transform="translate(-366.443 -187.558)" fill="#263238"/>
            </g>
          </g>
          <g id="Group_15341" data-name="Group 15341" transform="translate(5.823 3.691)">
            <g id="Group_15340" data-name="Group 15340">
              <path id="Path_69276" data-name="Path 69276" d="M371.211,193.574a45.447,45.447,0,0,1,0-5.635,45.3,45.3,0,0,1,0,5.635Z" transform="translate(-371.124 -187.939)" fill="#263238"/>
            </g>
          </g>
        </g>
        <g id="Group_15343" data-name="Group 15343" transform="translate(18.567 27.644)">
          <path id="Path_69277" data-name="Path 69277" d="M325.117,217.994h-1.54l-.319.724h-.426l1.312-2.9h.41l1.316,2.9h-.435Zm-.145-.332-.625-1.42-.625,1.42Z" transform="translate(-322.832 -215.584)" fill="#263238"/>
          <path id="Path_69278" data-name="Path 69278" d="M334.585,215.3v3.072H334.2v-.348a.927.927,0,0,1-.783.372,1.12,1.12,0,0,1,0-2.24.933.933,0,0,1,.766.352V215.3Zm-.393,1.974a.74.74,0,1,0-.737.774A.722.722,0,0,0,334.191,217.277Z" transform="translate(-329.125 -215.241)" fill="#263238"/>
          <path id="Path_69279" data-name="Path 69279" d="M342.981,215.3v3.072H342.6v-.348a.927.927,0,0,1-.783.372,1.12,1.12,0,0,1,0-2.24.933.933,0,0,1,.766.352V215.3Zm-.393,1.974a.74.74,0,1,0-.737.774A.722.722,0,0,0,342.588,217.277Z" transform="translate(-334.698 -215.241)" fill="#263238"/>
          <path id="Path_69280" data-name="Path 69280" d="M352.81,215.379a.262.262,0,0,1,.269-.261.259.259,0,1,1-.269.261Zm.071.679h.4v2.194h-.4Z" transform="translate(-342.731 -215.118)" fill="#263238"/>
          <path id="Path_69281" data-name="Path 69281" d="M357.067,219.031a.749.749,0,0,1-.48.153.626.626,0,0,1-.7-.687v-1.2h-.372v-.327h.372v-.48h.4v.48h.629v.327h-.629v1.188a.323.323,0,0,0,.344.368.5.5,0,0,0,.311-.1Z" transform="translate(-344.53 -216.025)" fill="#263238"/>
          <path id="Path_69282" data-name="Path 69282" d="M362.9,219.1h-1.78a.744.744,0,0,0,.8.642.82.82,0,0,0,.633-.265l.219.257a1.2,1.2,0,0,1-2.045-.766,1.075,1.075,0,0,1,1.1-1.118,1.058,1.058,0,0,1,1.085,1.13C362.912,219.014,362.908,219.064,362.9,219.1Zm-1.78-.285h1.408a.708.708,0,0,0-1.408,0Z" transform="translate(-347.986 -216.932)" fill="#263238"/>
          <path id="Path_69283" data-name="Path 69283" d="M372.507,218.8v1.263h-.4v-1.217c0-.431-.207-.642-.567-.642a.637.637,0,0,0-.658.729v1.13h-.4v-1.217c0-.431-.207-.642-.567-.642a.637.637,0,0,0-.658.729v1.13h-.4v-2.194h.381v.327a.89.89,0,0,1,.758-.348.811.811,0,0,1,.761.406.989.989,0,0,1,.845-.406A.841.841,0,0,1,372.507,218.8Z" transform="translate(-353.388 -216.932)" fill="#263238"/>
          <path id="Path_69284" data-name="Path 69284" d="M384.98,215.379a.262.262,0,0,1,.269-.261.259.259,0,1,1-.269.261Zm.07.679h.4v2.194h-.4Z" transform="translate(-364.086 -215.118)" fill="#263238"/>
          <path id="Path_69285" data-name="Path 69285" d="M392.268,218.8v1.263h-.4v-1.217c0-.431-.207-.642-.567-.642a.637.637,0,0,0-.658.729v1.13h-.4v-1.217c0-.431-.207-.642-.568-.642a.637.637,0,0,0-.658.729v1.13h-.4v-2.194h.381v.327a.89.89,0,0,1,.757-.348.812.812,0,0,1,.762.406.989.989,0,0,1,.845-.406A.841.841,0,0,1,392.268,218.8Z" transform="translate(-366.505 -216.932)" fill="#263238"/>
          <path id="Path_69286" data-name="Path 69286" d="M403.041,218.741v1.325h-.376v-.289a.816.816,0,0,1-.721.314c-.5,0-.812-.265-.812-.646,0-.352.228-.642.882-.642h.63v-.078c0-.336-.195-.53-.588-.53a1.11,1.11,0,0,0-.7.236l-.166-.3a1.461,1.461,0,0,1,.907-.282C402.7,217.851,403.041,218.141,403.041,218.741Zm-.4.654v-.307h-.613c-.393,0-.5.153-.5.34,0,.22.182.356.484.356A.637.637,0,0,0,402.644,219.4Z" transform="translate(-374.807 -216.932)" fill="#263238"/>
          <path id="Path_69287" data-name="Path 69287" d="M410.735,217.872v1.9a1,1,0,0,1-1.139,1.126,1.623,1.623,0,0,1-1.047-.327l.19-.306a1.341,1.341,0,0,0,.845.286c.517,0,.753-.24.753-.737v-.174a1,1,0,0,1-.79.339,1.063,1.063,0,1,1,0-2.124,1,1,0,0,1,.811.36v-.34Zm-.389,1.039a.757.757,0,1,0-.754.716A.7.7,0,0,0,410.346,218.911Z" transform="translate(-379.654 -216.932)" fill="#263238"/>
          <path id="Path_69288" data-name="Path 69288" d="M419.1,219.1h-1.78a.743.743,0,0,0,.795.642.819.819,0,0,0,.633-.265l.219.257a1.2,1.2,0,0,1-2.045-.766,1.075,1.075,0,0,1,1.1-1.118,1.058,1.058,0,0,1,1.085,1.13C419.113,219.014,419.109,219.064,419.1,219.1Zm-1.78-.285h1.407a.708.708,0,0,0-1.407,0Z" transform="translate(-385.292 -216.932)" fill="#263238"/>
        </g>
        <g id="Group_15344" data-name="Group 15344" transform="translate(13.577 43.757)">
          <path id="Path_69289" data-name="Path 69289" d="M328.119,265.408H309.172a1.183,1.183,0,0,1-1.183-1.183h0a1.183,1.183,0,0,1,1.183-1.183h18.947a1.183,1.183,0,0,1,1.183,1.183h0A1.183,1.183,0,0,1,328.119,265.408Z" transform="translate(-307.989 -263.042)" fill="#e8505b"/>
        </g>
        <g id="Group_15345" data-name="Group 15345" transform="translate(28.145 48.242)">
          <path id="Path_69290" data-name="Path 69290" d="M352.506,277.989v1.259h-.216v-.19a.512.512,0,0,1-.428.2.5.5,0,0,1-.542-.549v-.724h.228v.7c0,.247.124.37.34.37a.37.37,0,0,0,.39-.418v-.651Z" transform="translate(-351.321 -277.45)" fill="#263238"/>
          <path id="Path_69291" data-name="Path 69291" d="M357.447,278.594a.611.611,0,0,1-.636.643.536.536,0,0,1-.439-.2v.651h-.228v-1.719h.219v.2a.536.536,0,0,1,.449-.211A.611.611,0,0,1,357.447,278.594Zm-.23,0a.424.424,0,1,0-.425.444A.417.417,0,0,0,357.216,278.594Z" transform="translate(-354.522 -277.426)" fill="#263238"/>
          <path id="Path_69292" data-name="Path 69292" d="M360.964,276.49h.228v1.763h-.228Z" transform="translate(-357.722 -276.455)" fill="#263238"/>
          <path id="Path_69293" data-name="Path 69293" d="M362.59,278.594a.654.654,0,1,1,.656.643A.627.627,0,0,1,362.59,278.594Zm1.078,0a.424.424,0,1,0-.423.444A.413.413,0,0,0,363.668,278.594Z" transform="translate(-358.801 -277.426)" fill="#263238"/>
          <path id="Path_69294" data-name="Path 69294" d="M368.2,278.464v.76h-.216v-.166a.468.468,0,0,1-.414.18c-.285,0-.465-.152-.465-.37,0-.2.13-.368.506-.368h.361v-.045c0-.193-.112-.3-.338-.3a.638.638,0,0,0-.4.135l-.095-.171a.835.835,0,0,1,.52-.162C368,277.953,368.2,278.119,368.2,278.464Zm-.228.375v-.176h-.352c-.226,0-.29.088-.29.195,0,.126.1.2.278.2A.365.365,0,0,0,367.967,278.839Z" transform="translate(-361.795 -277.426)" fill="#263238"/>
          <path id="Path_69295" data-name="Path 69295" d="M372.6,276.49v1.763h-.219v-.2a.532.532,0,0,1-.449.214.643.643,0,0,1,0-1.285.536.536,0,0,1,.439.2v-.694Zm-.226,1.133a.424.424,0,1,0-.423.444A.414.414,0,0,0,372.371,277.623Z" transform="translate(-364.578 -276.455)" fill="#263238"/>
          <path id="Path_69296" data-name="Path 69296" d="M376.34,276.534a.15.15,0,0,1,.154-.149.149.149,0,1,1-.154.149Zm.041.39h.228v1.259h-.228Z" transform="translate(-367.929 -276.385)" fill="#263238"/>
          <path id="Path_69297" data-name="Path 69297" d="M379.627,278.5v.724H379.4v-.7c0-.247-.123-.368-.34-.368a.374.374,0,0,0-.4.418v.649h-.228v-1.259h.219v.19a.538.538,0,0,1,.453-.2A.488.488,0,0,1,379.627,278.5Z" transform="translate(-369.317 -277.426)" fill="#263238"/>
          <path id="Path_69298" data-name="Path 69298" d="M384.242,277.965v1.088a.572.572,0,0,1-.653.646.929.929,0,0,1-.6-.188l.109-.175a.769.769,0,0,0,.484.164c.3,0,.432-.138.432-.423v-.1a.575.575,0,0,1-.454.195.61.61,0,1,1,0-1.218.574.574,0,0,1,.466.207v-.195Zm-.223.6a.434.434,0,1,0-.432.411A.4.4,0,0,0,384.018,278.561Z" transform="translate(-372.297 -277.426)" fill="#263238"/>
          <path id="Path_69299" data-name="Path 69299" d="M387.828,280.968a.158.158,0,0,1,.161-.161.156.156,0,0,1,.157.161.158.158,0,0,1-.157.164A.16.16,0,0,1,387.828,280.968Z" transform="translate(-375.554 -279.32)" fill="#263238"/>
          <path id="Path_69300" data-name="Path 69300" d="M389.432,280.968a.159.159,0,0,1,.162-.161.156.156,0,0,1,.157.161.158.158,0,0,1-.157.164A.161.161,0,0,1,389.432,280.968Z" transform="translate(-376.619 -279.32)" fill="#263238"/>
          <path id="Path_69301" data-name="Path 69301" d="M391.038,280.968a.158.158,0,0,1,.161-.161.156.156,0,0,1,.157.161.158.158,0,0,1-.157.164A.16.16,0,0,1,391.038,280.968Z" transform="translate(-377.685 -279.32)" fill="#263238"/>
        </g>
        <g id="Group_15346" data-name="Group 15346" transform="translate(31.717 39.725)">
          <path id="Path_69302" data-name="Path 69302" d="M363.671,252.749c0,.4-.284.72-.875.72a1.325,1.325,0,0,1-.849-.281l.152-.261a1.039,1.039,0,0,0,.694.248c.35,0,.548-.162.548-.413s-.165-.423-.7-.423h-.526l.122-1.209h1.3v.287h-1.027l-.063.634h.258C363.4,252.052,363.671,252.339,363.671,252.749Z" transform="translate(-361.946 -251.103)" fill="#e8505b"/>
          <path id="Path_69303" data-name="Path 69303" d="M367.89,252.234c0-.753.4-1.183.945-1.183s.941.43.941,1.183-.4,1.182-.941,1.182S367.89,252.987,367.89,252.234Zm1.556,0c0-.591-.251-.889-.611-.889s-.615.3-.615.889.251.889.615.889S369.446,252.825,369.446,252.234Z" transform="translate(-365.892 -251.051)" fill="#e8505b"/>
          <path id="Path_69304" data-name="Path 69304" d="M374.335,251.7a.559.559,0,0,1,.539-.631c.32,0,.535.251.535.631s-.215.631-.535.631A.559.559,0,0,1,374.335,251.7Zm.862,0c0-.278-.122-.443-.324-.443s-.324.168-.324.443.125.442.324.442S375.2,251.98,375.2,251.7Zm1.07-.612h.254l-1.579,2.313h-.255Zm-.466,1.7a.544.544,0,1,1,.535.631A.558.558,0,0,1,375.8,252.793Zm.859,0c0-.274-.126-.443-.324-.443s-.324.165-.324.443.122.443.324.443S376.661,253.067,376.661,252.793Z" transform="translate(-370.17 -251.065)" fill="#e8505b"/>
        </g>
        <g id="Group_15348" data-name="Group 15348" transform="translate(13.39 43.669)">
          <g id="Group_15347" data-name="Group 15347">
            <path id="Path_69305" data-name="Path 69305" d="M347.488,265.235c0-.007.075,0,.216-.03a1.179,1.179,0,0,0,.56-.286,1.159,1.159,0,0,0-.417-1.959,2.869,2.869,0,0,0-.834-.054l-.939,0-2.129.007-5.19.013-30.05.026a1.1,1.1,0,0,0-.406,2.113,1.221,1.221,0,0,0,.5.078h4.757l7.979.005,13.51.019,9.108.028,2.476.016.644.009c.145,0,.22.009.22.009s-.074.006-.22.009l-.644.009-2.476.016-9.108.028-13.51.018-7.979.005h-4.757a1.411,1.411,0,0,1-.56-.09,1.271,1.271,0,0,1,.471-2.451l30.05.026,5.19.013,2.129.007.939,0a2.906,2.906,0,0,1,.855.065,1.213,1.213,0,0,1,.826,1.1,1.2,1.2,0,0,1-.407.948,1.164,1.164,0,0,1-.58.277A.767.767,0,0,1,347.488,265.235Z" transform="translate(-307.434 -262.781)" fill="#263238"/>
          </g>
        </g>
      </g>
    </g>
  </g>
</svg>
