<svg xmlns="http://www.w3.org/2000/svg" width="148" height="150.045" viewBox="0 0 148 150.045">
  <g id="Group_15353" data-name="Group 15353" transform="translate(-114 -164.955)">
    <g id="Group_14925" data-name="Group 14925" transform="translate(137 164.955)">
      <path id="Path_69095" data-name="Path 69095" d="M2435.3,325.883a50.229,50.229,0,0,1-50.282,50.284q-.754,0-1.5-.023-.629-.017-1.252-.051a50.283,50.283,0,1,1,53.037-50.209Z" transform="translate(-2334.733 -259.069)" fill="#ee611c" opacity="0.2"/>
      <g id="Group_14922" data-name="Group 14922" transform="translate(15.962)">
        <path id="Path_69096" data-name="Path 69096" d="M2425.212,717.733a18.015,18.015,0,0,0,1.031,3.677,26.959,26.959,0,0,1,1.735,3.866c.121.406.845,3.32.969,3.689s-.706.944-1.274.165a24.729,24.729,0,0,1-1.222-2.98c-.251-.609-1.023-2.535-1.233-2.184a22.649,22.649,0,0,0-.192,3.6,21.59,21.59,0,0,0,.585,3.553c.2.846,1.322,4.391.872,4.582s-.833.139-1.414-.813c0,0-.923.517-1.461-.651,0,0-.825.3-1.336-1.223a2.05,2.05,0,0,1-.814-.868,33.306,33.306,0,0,1-1.553-7.112c.012-1.9.458-3.228.377-4.571a35.871,35.871,0,0,0-.77-4.214Z" transform="translate(-2418.85 -613.32)" fill="#eea886"/>
        <path id="Path_69097" data-name="Path 69097" d="M2524.3,665.946c.1-.92-.887-9.76-1.583-15.8-.007-.051-.013-.1-.018-.153,0-.013,0-.026,0-.036-.2-1.7-.368-3.16-.483-4.14-.053-.454-.095-.805-.12-1.03-.024-.184-.035-.282-.035-.282s-19.924-3.929-30.254-.217c-.43.157-.843.324-1.239.506,0,0-.025.175-.071.5-.1.766-.319,2.356-.606,4.523q-.075.547-.153,1.141a88.579,88.579,0,0,0-.556,16.232,49.96,49.96,0,0,0,17.134,4.012,28.556,28.556,0,0,1-.129-3.276c.255,0,.751,1.27,1.381,3.328q.749.025,1.5.024a50.27,50.27,0,0,0,15.376-2.394C2524.337,667.229,2524.281,666.164,2524.3,665.946Z" transform="translate(-2474.747 -554.187)" fill="#292c47"/>
        <g id="Group_14910" data-name="Group 14910" transform="translate(12.433 29.767)">
          <path id="Path_69098" data-name="Path 69098" d="M2522.952,350.854l-5.358,19.222c-.183.622-.4,1.391-.635,2.282l-.009.034a.075.075,0,0,0-.007.024,75.459,75.459,0,0,0-2.33,14.452c-.224,3.955.51,19.857.51,19.857s-8.109,3.025-20.24,2.259c0,0-13.049-.306-11.985-8.305,2.816-21.176.063-29.907-.306-32.033,0,0-1.771-10.285-3.039-18.9,3.671-1.367,19.357-6.641,19.357-6.641l8.125.608S2519.385,346.752,2522.952,350.854Z" transform="translate(-2479.554 -343.104)" fill="#dbdff0"/>
        </g>
        <g id="Group_14911" data-name="Group 14911" transform="translate(28.925 22.617)">
          <path id="Path_69099" data-name="Path 69099" d="M2574.08,308.072s-.273,5.11.209,6.223-6.368,4.631-10.626.622c0,0,.861-5.586.594-7.558S2574.08,308.072,2574.08,308.072Z" transform="translate(-2563.664 -306.636)" fill="#eea987"/>
        </g>
        <path id="Path_69100" data-name="Path 69100" d="M2569.466,323.854a5.05,5.05,0,0,0,4.207,1.691,5.725,5.725,0,0,0,4.218-1.6s-1.393,2.912-4.231,2.881S2569.466,323.854,2569.466,323.854Z" transform="translate(-2539.404 -297.861)" fill="#c78d71"/>
        <path id="Path_69101" data-name="Path 69101" d="M2559.541,343.254s2.125,3.7,6.158,4.049c2.558.221,4.773-3.021,5.811-4.613A15.494,15.494,0,0,0,2559.541,343.254Z" transform="translate(-2531.425 -312.248)" fill="#eea987"/>
        <path id="Path_69102" data-name="Path 69102" d="M2596.026,340.576a22.011,22.011,0,0,1-5.075,4.4l2.147,3.31,3.663-6.537Z" transform="translate(-2556.676 -311.304)" fill="#c0c4d4"/>
        <path id="Path_69103" data-name="Path 69103" d="M2559.2,343.1a14.74,14.74,0,0,0,5.188,3.9l-2.358,3.409-4.122-5.964Z" transform="translate(-2530.109 -313.337)" fill="#c0c4d4"/>
        <path id="Path_69104" data-name="Path 69104" d="M2583.2,363l1.841,2.8a3.832,3.832,0,0,1-3.73-.069Z" transform="translate(-2548.93 -329.335)" fill="#5073ab"/>
        <path id="Path_69105" data-name="Path 69105" d="M2494.35,670.618s9.951,3.671,32.457.213l-.3-4.075s-13.044,3.849-31.76.553Z" transform="translate(-2479.016 -573.53)" fill="#1d2033"/>
        <path id="Path_69106" data-name="Path 69106" d="M2612.231,346.545a248.134,248.134,0,0,0-2.008,32.376c.319,14.993,11.644,42.221,11.644,42.221s4.951-4.786,7.1-7.5c0,0-7.706-22.236-7.565-26.247s8.7-34.3,8.7-34.3S2625.35,350,2612.231,346.545Z" transform="translate(-2572.146 -316.103)" fill="#323657"/>
        <path id="Path_69107" data-name="Path 69107" d="M2480.183,350.291s.019,16.648-.3,31.641-2.293,42.905-2.293,42.905-11.084-1.754-13.238-4.466c0,0,4.49-25.953,4.349-29.963s-7.22-33.519-7.22-33.519S2465.6,354.181,2480.183,350.291Z" transform="translate(-2452.591 -319.114)" fill="#323657"/>
        <rect id="Rectangle_788" data-name="Rectangle 788" width="6.115" height="4.546" transform="translate(28.906 94.482)" fill="#3a4066"/>
        <path id="Path_69108" data-name="Path 69108" d="M2574.132,373.68s-2.73,9.32-2.969,27.833.334,23.82.334,23.82l2.132,4.219,2.841-4.4s-.911-42.6-.384-51.146Z" transform="translate(-2540.721 -337.917)" fill="#5073ab"/>
        <g id="Group_14916" data-name="Group 14916" transform="translate(42.518 95.164)">
          <g id="Group_14915" data-name="Group 14915">
            <g id="Group_14914" data-name="Group 14914">
              <g id="Group_14913" data-name="Group 14913">
                <g id="Group_14912" data-name="Group 14912">
                  <path id="Path_69109" data-name="Path 69109" d="M2639.577,686.673a3.638,3.638,0,0,0,.852-.762s.282-.6.514-1.014a2.94,2.94,0,0,1,.194-.314,6.021,6.021,0,0,0,1.1-1.691,35.419,35.419,0,0,0,.555-4.645l-2.345-.688-2.087-.917s-4.569,3.5-4.953,4.24a2.185,2.185,0,0,0-.1.215,6.694,6.694,0,0,0-.218,1.581c-.032.13-.247,1.444.062,1.735a1.6,1.6,0,0,0,1.341.472,3.674,3.674,0,0,0,1.709.827,2.382,2.382,0,0,0,1.848.552S2638.942,686.92,2639.577,686.673Z" transform="translate(-2632.991 -676.641)" fill="#eea886"/>
                </g>
              </g>
            </g>
          </g>
        </g>
        <g id="Group_14917" data-name="Group 14917" transform="translate(46.209 36.647)">
          <path id="Path_69110" data-name="Path 69110" d="M2651.82,437.11a37.316,37.316,0,0,0,7.516,3.461s14.728-24,14.914-25.73c.173-1.6-7.9-34.585-11.272-36.651l-5.54,18.3c.407-.118,6.977,13.633,7,15.4C2664.476,414.261,2651.82,437.11,2651.82,437.11Z" transform="translate(-2651.82 -378.19)" fill="#323657"/>
        </g>
        <g id="Group_14918" data-name="Group 14918" transform="translate(0 37.776)">
          <path id="Path_69111" data-name="Path 69111" d="M2424.24,453.834a37.305,37.305,0,0,1-8.1.346s1.866-30.805,1.679-32.537c-.173-1.6,3.836-35.627,7.21-37.693l6.019,18.136c-.406-.118-4.035,18.551-4.061,20.321C2426.956,424.777,2424.24,453.834,2424.24,453.834Z" transform="translate(-2416.143 -383.95)" fill="#323657"/>
        </g>
        <path id="Path_69112" data-name="Path 69112" d="M2622.364,692.34l9.29,4.818-3.72,6.887-8.055-8.613Z" transform="translate(-2579.932 -594.097)" fill="#292c47"/>
        <g id="Group_14920" data-name="Group 14920" transform="translate(26.189 2.1)">
          <path id="Path_69116" data-name="Path 69116" d="M2559.481,202.087s8.058,1.359,6.692,13.976-8.48,11.5-8.957,11.485-7.154.153-7.506-15.273C2549.71,212.275,2549.607,200.87,2559.481,202.087Z" transform="translate(-2549.71 -201.996)" fill="#eea987"/>
        </g>
        <path id="Path_69117" data-name="Path 69117" d="M2564.6,201.563a26.108,26.108,0,0,0-.437-7.831c-.537-2.109-3.948-1.53-3.948-1.53h0c-5.2-1.559-8.34-.843-10.311,0-2.951,2.417-3.176,6.532-3.041,8.8.059.536.12,1.076.181,1.6a.122.122,0,0,0,0,.016c.267,2.253.538,4.213.538,4.213l.939,1.083s-.242-3.753.335-3.964c.311-.114.384-.871.386-1.547,0-.581-.047-1.1-.047-1.1,6.017-2.77,12.772-.8,12.924-.414.095.24.232.961.367,1.6.082.386.163.744.23.945a30.963,30.963,0,0,1,.109,3.919l1.173-1.532s.15-.731.343-1.832h0c.062-.358.129-.754.2-1.177C2564.537,202.813,2564.588,202.334,2564.6,201.563Z" transform="translate(-2521.207 -191.284)" fill="#e8734d"/>
      </g>
    </g>
    <text id="Business_Account" data-name="Business Account" transform="translate(114 294)" fill="#404040" font-size="16" font-family="SegoeUI, Segoe UI" letter-spacing="0.02em"><tspan x="10.459" y="17">Business Account</tspan></text>
  </g>
</svg>
