<svg xmlns="http://www.w3.org/2000/svg" xmlns:xlink="http://www.w3.org/1999/xlink" width="231.013" height="235.429" viewBox="0 0 231.013 235.429">
  <defs>
    <linearGradient id="linear-gradient" x1="0.04" y1="0.525" x2="1" y2="0.525" gradientUnits="objectBoundingBox">
      <stop offset="0" stop-color="#ee611c"/>
      <stop offset="1" stop-color="#ff905a"/>
    </linearGradient>
    <linearGradient id="linear-gradient-5" x1="0.04" y1="0.525" x2="1" y2="0.525" gradientUnits="objectBoundingBox">
      <stop offset="0" stop-color="#a83e0a"/>
      <stop offset="1" stop-color="#ff905a"/>
    </linearGradient>
    <linearGradient id="linear-gradient-10" x1="0.04" y1="0.525" x2="1" y2="0.525" gradientUnits="objectBoundingBox">
      <stop offset="0" stop-color="#bf4a10"/>
      <stop offset="1" stop-color="#ff905a"/>
    </linearGradient>
  </defs>
  <g id="Group_13206" data-name="Group 13206" transform="translate(-40 -78)">
    <g id="Group_13205" data-name="Group 13205" transform="translate(247.755 275.795) rotate(180)" opacity="0.39">
      <path id="Path_68342" data-name="Path 68342" d="M207.755,93.237l-.025-.057L191.42,55.867l-6.2,13.62L108.293,18.562,95.883,45.811,26.687,0H0L100.958,66.84l12.412-27.249,65.662,43.471-6.2,13.62Z" transform="translate(0 0)" fill="#ffac00"/>
      <path id="Path_68343" data-name="Path 68343" d="M196.316,92.447l-16.31-37.019L173.8,68.94,96.879,18.416,84.469,45.451,15.273,0H0L86.329,56.706,98.741,29.671Z" transform="translate(11.414 0)" fill="#fa8a00"/>
    </g>
    <g id="Group_13039" data-name="Group 13039" transform="translate(64.321 78)">
      <ellipse id="Ellipse_52" data-name="Ellipse 52" cx="102.367" cy="5.122" rx="102.367" ry="5.122" transform="translate(0 225.185)" fill="#f6b99b" opacity="0.43"/>
      <g id="Group_13035" data-name="Group 13035" transform="translate(23.266 0)">
        <g id="Group_13034" data-name="Group 13034" transform="translate(11.371)">
          <g id="Group_13030" data-name="Group 13030" transform="translate(19.716 209.994)">
            <path id="Path_68088" data-name="Path 68088" d="M363.083,277.168,363.85,282l-3.616,4.76-9.4-4.442-1.072-4.41,11.6-1.916Z" transform="translate(-329.512 -275.988)" fill="#f2bf75"/>
            <path id="Path_68089" data-name="Path 68089" d="M362.127,290.951l-.98-1.18a.448.448,0,0,0-.691,0l-.952,1.148a2.024,2.024,0,0,1-1.56.731l-21.7-.073a1.164,1.164,0,0,1-.06-1.639c3.134-3.252,20.168-9.033,21.013-9.512s6.134,3.515,13.015-.318a73.32,73.32,0,0,1,1.409,8.93,2.476,2.476,0,0,1-2.469,2.648l-5.506-.018A1.993,1.993,0,0,1,362.127,290.951Z" transform="translate(-335.877 -274.1)" fill="#1e394c"/>
          </g>
          <g id="Group_13031" data-name="Group 13031" transform="translate(54.48 210.189)">
            <path id="Path_68090" data-name="Path 68090" d="M386.921,277.3l.766,4.828-3.616,4.76-9.4-4.442-1.072-4.41,11.6-1.916Z" transform="translate(-353.349 -276.122)" fill="#f2bf75"/>
            <path id="Path_68091" data-name="Path 68091" d="M385.964,291.085l-.98-1.18a.448.448,0,0,0-.691,0l-.952,1.148a2.022,2.022,0,0,1-1.561.731l-21.7-.073a1.164,1.164,0,0,1-.06-1.639c3.136-3.252,20.168-9.033,21.014-9.512s6.133,3.515,13.013-.318a73.3,73.3,0,0,1,1.409,8.93,2.477,2.477,0,0,1-2.469,2.648l-5.505-.019A1.987,1.987,0,0,1,385.964,291.085Z" transform="translate(-359.714 -274.234)" fill="#1e394c"/>
          </g>
          <path id="Path_68092" data-name="Path 68092" d="M358.712,169.763l-6.6,25.208-17.975-12L326,189.432,349.47,211.4l16.879-15.659Z" transform="translate(-320.689 -114.689)" fill="#8c173b"/>
          <path id="Path_68093" data-name="Path 68093" d="M335.367,182.438l-5.231-10.323a2.158,2.158,0,0,0-3.017-.865h0a7.85,7.85,0,0,0-3.691,8.392c.709,3.3,1.908,7.2,3.834,9.245Z" transform="translate(-321.949 -114.146)" fill="#f2bf75"/>
          <path id="Path_68094" data-name="Path 68094" d="M329.31,165.314l-5.734-.468c-.833-.067-1.364.468-1.181,1.19l4.068,16.115a2.162,2.162,0,0,0,1.845,1.435l5.734.467c1.336.109,2.107,2.476,1.183-1.189l-4.069-16.115A2.157,2.157,0,0,0,329.31,165.314Z" transform="translate(-322.358 -116.946)" fill="#1e394c"/>
          <path id="Path_68095" data-name="Path 68095" d="M332.742,181.452l1.2-3.827a2.18,2.18,0,0,0-.688-2.8l-1.992-1.383a1.422,1.422,0,0,0-1.883.232h0a1.421,1.421,0,0,0,.2,2.059l.917.712.936.706-2.221,3.353Z" transform="translate(-319.301 -113.119)" fill="#f2bf75"/>
          <path id="Path_68096" data-name="Path 68096" d="M399.4,312.6c0-5.632-6.542-99.386-6.542-99.386s-13.212-12.862-20.4-11.5c-7.19-1.362-23.539,8.173-23.539,8.173s.341,97.08.341,102.713h15.573s.108-44.7,6.178-76.979c.271-1.444,2.479-1.585,2.751-.143,6.07,32.282,10.067,77.122,10.067,77.122Z" transform="translate(-310.185 -100.105)" fill="#1e394c"/>
          <g id="Group_13204" data-name="Group 13204" transform="translate(37.162 39.844)">
            <path id="Path_68097" data-name="Path 68097" d="M373.243,159.32s18.383,4.5,20.925,7.432,12.1,21.22,11.93,27.38c-.2,7.213-12.564,22.607-12.321,21.708v21.723s-28.162,8.8-45.176-1.957c0,0-1.951-55.791.391-62.009.719-1.912,9.974-9.974,12.711-10.953S373.243,159.32,373.243,159.32Z" transform="translate(-347.839 -159.32)" fill="#8c173b"/>
          </g>
          <path id="Path_68098" data-name="Path 68098" d="M398.271,194.131c-.176,6.43-10.032,19.373-11.987,21.456l-.012.012-.322.241-6.207,5.573-7.482-6.747s13.788-9.827,11.882-22.442c-1.345-8.876-10.562-24.787-10.562-24.787-3.168-1.791-6.271-5.04-8.67-7.98.322-.088.5-.134.5-.134s18.386,4.493,20.927,7.428S398.441,187.971,398.271,194.131Z" transform="translate(-302.852 -119.475)" fill="#8c173b"/>
          <g id="Group_13033" data-name="Group 13033" transform="translate(25.554 69.928)">
            <rect id="Rectangle_696" data-name="Rectangle 696" width="73.925" height="40.886" rx="4.552" fill="url(#linear-gradient)"/>
            <path id="Path_68099" data-name="Path 68099" d="M388.483,179.949h-7.846a6.637,6.637,0,0,1,6.637,6.637V214.2a6.638,6.638,0,0,1-6.637,6.639h7.846a6.639,6.639,0,0,0,6.639-6.639V186.586A6.637,6.637,0,0,0,388.483,179.949Z" transform="translate(-321.197 -179.948)" fill="#34648c" opacity="0.25"/>
            <rect id="Rectangle_697" data-name="Rectangle 697" width="73.925" height="9.499" transform="translate(0 13.216)" fill="#1e394c"/>
            <g id="Group_13032" data-name="Group 13032" transform="translate(7.021 29.116)">
              <rect id="Rectangle_698" data-name="Rectangle 698" width="14.558" height="2.013" fill="#1e394c"/>
              <rect id="Rectangle_699" data-name="Rectangle 699" width="7.038" height="2.013" transform="translate(0 4.491)" fill="#1e394c"/>
            </g>
          </g>
          <path id="Path_68100" data-name="Path 68100" d="M370.63,152.314v13.054s-4.253,13.054-14.081,2.787l-.879-10.414Z" transform="translate(-307.088 -122.688)" fill="#ea9249"/>
          <path id="Path_68101" data-name="Path 68101" d="M351.479,151.407s-16.624-3.519-6.357-17.7c0,0,1.76,7.53,10.757,1.076,4.585-3.289,11.386-4.113,18.969,0,8.116,4.4,10.953,17.895,4.009,24.934l-13.591-2.737Z" transform="translate(-313.458 -132)" fill="#1e394c"/>
          <path id="Path_68102" data-name="Path 68102" d="M348.455,146.475s-1.956,22.589,13,21.122c11.685-1.146,11.246-9.974,11.246-9.974s3.814-.783,4.009-4.2-.881-6.258-4.3-4.009c0,0-6.063-3.911-6.455-6.65A38,38,0,0,1,348.455,146.475Z" transform="translate(-310.434 -127.068)" fill="#f2bf75"/>
          <path id="Path_68103" data-name="Path 68103" d="M362.533,215.162a2.4,2.4,0,0,0,.613,3.311l2.536,2.053a2.4,2.4,0,0,0,3.366-.086l7.963-9.914-7.616-5.858-8.282,5.85a1.017,1.017,0,0,0,.025,1.679,1.926,1.926,0,0,0,1.372.283,3.4,3.4,0,0,0,2.2-1.123Z" transform="translate(-304.791 -98.689)" fill="#f6ba8e"/>
          <path id="Path_68104" data-name="Path 68104" d="M365.668,222.6l8.893,7.158s24.159-26.727,24.258-36.943c.057-5.746-6.923-19.582-11.294-27.046H371.869s11.168,16.813,14.539,24.878a4.889,4.889,0,0,1-.489,4.651C381.842,201.238,369.794,218.63,365.668,222.6Z" transform="translate(-302.505 -116.522)" fill="#8c173b"/>
          <path id="Path_68105" data-name="Path 68105" d="M385.524,165.764s8.923,22.124,8.879,26.56c-.085,8.8-19.39,29.719-24.369,35.4l2.526,2.033s24.158-26.727,24.258-36.943C396.874,187.064,389.895,173.228,385.524,165.764Z" transform="translate(-300.504 -116.522)" fill="#8c173b"/>
          <path id="Path_68106" data-name="Path 68106" d="M391.317,184.31l-.493.175H350.467l-.551-.175,37.937-.973s-4.926-13.675-4.153-13.289S391.317,184.31,391.317,184.31Z" transform="translate(-309.726 -114.562)" fill="#581f30"/>
          <path id="Path_68107" data-name="Path 68107" d="M355.03,163.161a8.864,8.864,0,0,1-1.823-4.693,6.717,6.717,0,0,1-2.005-.229c-.228-.228.547-6.471.411-7.565-.1-.771-.5-3.783-.729-5.424a23.367,23.367,0,0,1-2.428.083s-1.956,22.589,13,21.122C357.818,166.514,356.625,164.848,355.03,163.161Z" transform="translate(-310.434 -125.926)" fill="#ea9249"/>
        </g>
        <path id="Path_68108" data-name="Path 68108" d="M339.775,153.921a12.706,12.706,0,1,0-10.594,14.809l2.608,3,.537-3.9A12.709,12.709,0,0,0,339.775,153.921Zm-18.988,3.43a1.565,1.565,0,1,1,1.565-1.565A1.565,1.565,0,0,1,320.787,157.351Zm6.3,0a1.565,1.565,0,1,1,1.565-1.565A1.564,1.564,0,0,1,327.091,157.351Zm6.227,0a1.565,1.565,0,1,1,1.565-1.565A1.564,1.564,0,0,1,333.319,157.351Z" transform="translate(-314.562 -126.745)" fill="url(#linear-gradient)"/>
      </g>
      <g id="Group_13038" data-name="Group 13038" transform="translate(136.203 133.529)">
        <g id="Group_13036" data-name="Group 13036" transform="translate(0 0)">
          <path id="Path_68109" data-name="Path 68109" d="M439.492,250.042c4.6-4.872,5.736-11.268,2.541-14.284s-9.513-1.511-14.112,3.362-7.874,13.53-4.679,16.546S434.894,254.913,439.492,250.042Z" transform="translate(-378.263 -218.678)" fill="url(#linear-gradient)"/>
          <path id="Path_68110" data-name="Path 68110" d="M441.657,235.752a5.922,5.922,0,0,0-3.734-1.534,5.27,5.27,0,0,1,.448.362c3.2,3.016,2.058,9.41-2.541,14.282-3.459,3.665-9.1,6.7-13.044,6.7.029.029.05.067.08.1,3.2,3.016,11.651-.753,16.25-5.624S444.853,238.768,441.657,235.752Z" transform="translate(-377.887 -218.672)" fill="#0f2a3f" opacity="0.26"/>
          <path id="Path_68111" data-name="Path 68111" d="M422.6,236.166c.615-6.573-2.173-12.208-6.227-12.588s-7.84,4.641-8.456,11.214,1.889,15.261,5.943,15.64S421.984,242.737,422.6,236.166Z" transform="translate(-384.747 -223.558)" fill="url(#linear-gradient)"/>
          <path id="Path_68112" data-name="Path 68112" d="M414.931,223.578a4.849,4.849,0,0,0-2.223.328c3.327,1.332,5.469,6.421,4.922,12.259-.509,5.441-3.389,11.9-6.666,13.748a3.26,3.26,0,0,0,1.454.518c4.054.381,8.126-7.695,8.74-14.266S418.985,223.957,414.931,223.578Z" transform="translate(-383.307 -223.558)" fill="url(#linear-gradient-5)"/>
          <path id="Path_68113" data-name="Path 68113" d="M408.881,231.056c-2.81-5.536-7.859-8.616-11.274-6.881s-3.9,7.628-1.092,13.162,9.166,11.189,12.582,9.453S411.693,236.59,408.881,231.056Z" transform="translate(-390.768 -223.497)" fill="url(#linear-gradient)"/>
          <path id="Path_68114" data-name="Path 68114" d="M408.784,231.056c-2.81-5.536-7.859-8.616-11.274-6.881a5.327,5.327,0,0,0-2.611,3.569,4.374,4.374,0,0,1,1.046-.753c3.416-1.735,8.463,1.346,11.275,6.881,1.973,3.885,2.956,9.207,2.191,12.639C412.329,244.308,411.473,236.35,408.784,231.056Z" transform="translate(-390.671 -223.497)" fill="#0f2a3f" opacity="0.26"/>
          <path id="Path_68115" data-name="Path 68115" d="M404.684,245.074c-5.419-2.427-10.953-1.852-12.357,1.285s1.851,7.646,7.27,10.073,13.47,2.981,14.876-.155S410.1,247.5,404.684,245.074Z" transform="translate(-392 -214.384)" fill="url(#linear-gradient)"/>
          <path id="Path_68116" data-name="Path 68116" d="M404.681,245.074c-5.419-2.427-10.953-1.852-12.357,1.285a4.022,4.022,0,0,0-.244,2.38c1.5-3.023,6.942-3.554,12.287-1.161,4.362,1.954,8.946,5.985,9.84,9.121a2.479,2.479,0,0,0,.262-.421C415.875,253.141,410.1,247.5,404.681,245.074Z" transform="translate(-391.998 -214.384)" fill="#34648c" opacity="0.25"/>
          <path id="Path_68117" data-name="Path 68117" d="M439.646,262.038c5.412-1.928,8.774-6.366,7.509-9.916s-6.675-4.864-12.086-2.936S423.781,256.448,425.045,260,434.235,263.964,439.646,262.038Z" transform="translate(-376.931 -212.217)" fill="url(#linear-gradient)"/>
          <path id="Path_68118" data-name="Path 68118" d="M446.841,251.941a5.582,5.582,0,0,0-3.591-3.249,4.781,4.781,0,0,1,1.4,2c1.264,3.548-2.1,7.988-7.509,9.916-3.659,1.3-8.465,1.528-11.586.442,2.478,2.384,9.074,2.484,13.776.809C444.744,259.929,448.106,255.491,446.841,251.941Z" transform="translate(-376.618 -212.037)" fill="#0f2a3f" opacity="0.26"/>
          <path id="Path_68119" data-name="Path 68119" d="M416,283.917a61.372,61.372,0,0,1,19.231-40.008c.439-.416-.225-1.079-.665-.664a62.363,62.363,0,0,0-19.5,40.672c-.05.6.89.6.939,0Z" transform="translate(-381.43 -214.594)" fill="#1e394c"/>
          <path id="Path_68120" data-name="Path 68120" d="M419.033,286.084A82.588,82.588,0,0,0,401.888,233.8c-.363-.473-1.178-.006-.811.474A81.8,81.8,0,0,1,418.1,286.084a.469.469,0,0,0,.938,0Z" transform="translate(-387.882 -218.953)" fill="#1e394c"/>
          <path id="Path_68121" data-name="Path 68121" d="M410.931,258.782c2.561-8.155,3.216-16.817,3.528-25.316.023-.6-.916-.6-.938,0-.311,8.422-.958,16.986-3.494,25.067-.182.578.725.824.9.249Z" transform="translate(-383.748 -219.224)" fill="#1e394c"/>
          <path id="Path_68122" data-name="Path 68122" d="M400.705,249.883a84.1,84.1,0,0,0,14.772,6.9c.566.214.809-.693.249-.906a82.933,82.933,0,0,1-14.548-6.8c-.513-.322-.986.49-.474.811Z" transform="translate(-388.111 -211.896)" fill="#1e394c"/>
          <path id="Path_68123" data-name="Path 68123" d="M432.534,254.63a100.4,100.4,0,0,1-13.9,4.642.47.47,0,0,0,.249.906,100.416,100.416,0,0,0,13.9-4.642c.55-.23.308-1.139-.249-.906Z" transform="translate(-379.942 -209.332)" fill="#1e394c"/>
        </g>
        <g id="Group_13037" data-name="Group 13037" transform="translate(15.399 62.326)">
          <path id="Path_68124" data-name="Path 68124" d="M402.574,268.928l2.853,25.827a6.371,6.371,0,0,0,6.332,5.672h16.464a6.374,6.374,0,0,0,6.334-5.672l2.853-25.827a2.373,2.373,0,0,0-2.36-2.634H404.932A2.373,2.373,0,0,0,402.574,268.928Z" transform="translate(-402.559 -266.294)" fill="url(#linear-gradient)"/>
          <path id="Path_68125" data-name="Path 68125" d="M430.265,266.294H419.823a2.372,2.372,0,0,1,2.358,2.634l-2.851,25.827A6.374,6.374,0,0,1,413,300.427h10.442a6.374,6.374,0,0,0,6.334-5.672l2.853-25.827A2.373,2.373,0,0,0,430.265,266.294Z" transform="translate(-397.775 -266.294)" fill="url(#linear-gradient-10)"/>
        </g>
      </g>
    </g>
  </g>
</svg>
