<svg xmlns="http://www.w3.org/2000/svg" xmlns:xlink="http://www.w3.org/1999/xlink" width="186.258" height="255.864" viewBox="0 0 186.258 255.864">
  <defs>
    <linearGradient id="linear-gradient" x1="0.04" y1="0.525" x2="1" y2="0.525" gradientUnits="objectBoundingBox">
      <stop offset="0" stop-color="#ee611c"/>
      <stop offset="1" stop-color="#ff905a"/>
    </linearGradient>
    <linearGradient id="linear-gradient-7" x1="0.04" y1="0.525" x2="1" y2="0.525" gradientUnits="objectBoundingBox">
      <stop offset="0" stop-color="#db591a"/>
      <stop offset="1" stop-color="#ff905a"/>
    </linearGradient>
  </defs>
  <g id="Group_13050" data-name="Group 13050" transform="translate(-62.474 -105.856)">
    <ellipse id="Ellipse_53" data-name="Ellipse 53" cx="14.327" cy="77.583" rx="14.327" ry="77.583" transform="matrix(0.224, -0.975, 0.975, 0.224, 62.474, 326.948)" fill="#ffe5d8" opacity="0.43"/>
    <g id="Group_13047" data-name="Group 13047" transform="translate(120.718 105.856)">
      <g id="Group_13044" data-name="Group 13044" transform="translate(44.996)">
        <g id="Group_13040" data-name="Group 13040">
          <path id="Path_68127" data-name="Path 68127" d="M149.046,256.863c-7.168-2.613-13-10.547-13-17.685V118.038c0-7.14,5.831-10.823,13-8.21l52.62,19.183c7.168,2.613,13,10.547,13,17.685V267.835c0,7.14-5.831,10.823-13,8.21Z" transform="translate(-136.046 -104.981)" fill="#17161c"/>
          <path id="Path_68128" data-name="Path 68128" d="M149.86,261.739c-7.556-2.754-13.7-11.117-13.7-18.644V115.4c0-7.525,6.147-11.408,13.7-8.653l55.47,20.22c7.556,2.754,13.7,11.117,13.7,18.644v127.7c0,7.525-6.147,11.408-13.7,8.654Z" transform="translate(-136.015 -105.856)" fill="#1e394c"/>
          <path id="Path_68129" data-name="Path 68129" d="M147.967,250.8c-4.445-1.62-8.063-6.54-8.063-10.969V118.692c0-4.427,3.617-6.712,8.063-5.09l52.62,19.181c4.445,1.62,8.063,6.541,8.063,10.969V264.892c0,4.427-3.616,6.712-8.062,5.09Z" transform="translate(-134.967 -103.836)" fill="url(#linear-gradient)"/>
          <path id="Path_68130" data-name="Path 68130" d="M200.4,132.783,147.778,113.6c-3.147-1.148-5.871-.331-7.2,1.809a6.627,6.627,0,0,1,5.28-.05l52.62,19.181c4.445,1.62,8.063,6.541,8.063,10.969V266.651a6.153,6.153,0,0,1-.862,3.281,5.324,5.324,0,0,0,2.782-5.04V143.752C208.461,139.324,204.844,134.4,200.4,132.783Z" transform="translate(-134.779 -103.836)" fill="#34648c" opacity="0.25"/>
          <path id="Path_68131" data-name="Path 68131" d="M190.616,128.916l-39.146-14.27,1.74,4.671a8.191,8.191,0,0,0,4.6,4.7l26.457,9.643c2,.731,3.813.2,4.6-1.342Z" transform="translate(-131.733 -103.398)" fill="#1e394c"/>
        </g>
        <path id="Path_68132" data-name="Path 68132" d="M197.247,145.406,148.9,127.784c-2.594-.946-4.7.381-4.7,2.965v21.794a7.421,7.421,0,0,0,4.7,6.389l48.346,17.623c2.594.946,4.7-.381,4.7-2.965V151.8A7.42,7.42,0,0,0,197.247,145.406Z" transform="translate(-133.765 -99.81)" fill="#ffe4d6"/>
        <path id="Path_68133" data-name="Path 68133" d="M197.247,175.353,148.9,157.731c-2.594-.946-4.7.383-4.7,2.965V182.49a7.42,7.42,0,0,0,4.7,6.389L197.247,206.5c2.594.944,4.7-.383,4.7-2.966V181.742A7.422,7.422,0,0,0,197.247,175.353Z" transform="translate(-133.765 -91.437)" fill="#ffe4d6"/>
        <path id="Path_68134" data-name="Path 68134" d="M197.247,205.622,148.9,188c-2.594-.944-4.7.383-4.7,2.966v21.794a7.42,7.42,0,0,0,4.7,6.389l48.346,17.623c2.594.946,4.7-.381,4.7-2.965V212.011A7.42,7.42,0,0,0,197.247,205.622Z" transform="translate(-133.765 -82.974)" fill="#ffe4d6"/>
        <g id="Group_13041" data-name="Group 13041" transform="translate(24.46 43.087)">
          <path id="Path_68135" data-name="Path 68135" d="M177.424,145.683l-16.7-6.088a.693.693,0,0,0-1.025.646h0a1.624,1.624,0,0,0,1.025,1.393l16.7,6.088a.693.693,0,0,0,1.024-.646h0A1.623,1.623,0,0,0,177.424,145.683Z" transform="translate(-153.892 -139.528)" fill="#1e394c"/>
          <path id="Path_68136" data-name="Path 68136" d="M177.424,154.639l-16.7-6.088a.693.693,0,0,0-1.025.646h0a1.624,1.624,0,0,0,1.025,1.394l16.7,6.088a.693.693,0,0,0,1.024-.646h0A1.623,1.623,0,0,0,177.424,154.639Z" transform="translate(-153.892 -137.024)" fill="#1e394c"/>
          <path id="Path_68137" data-name="Path 68137" d="M183.837,152.558l-27.652-10.079a.692.692,0,0,0-1.024.646h0a1.623,1.623,0,0,0,1.024,1.393L183.837,154.6a.692.692,0,0,0,1.024-.646h0A1.623,1.623,0,0,0,183.837,152.558Z" transform="translate(-155.161 -138.722)" fill="#1e394c"/>
        </g>
        <g id="Group_13042" data-name="Group 13042" transform="translate(24.46 84.178)">
          <path id="Path_68138" data-name="Path 68138" d="M177.424,177.795l-16.7-6.088a.694.694,0,0,0-1.025.647h0a1.625,1.625,0,0,0,1.025,1.394l16.7,6.087a.692.692,0,0,0,1.024-.646h0A1.624,1.624,0,0,0,177.424,177.795Z" transform="translate(-153.892 -171.641)" fill="#1e394c"/>
          <path id="Path_68139" data-name="Path 68139" d="M183.837,184.67,156.185,174.59a.693.693,0,0,0-1.024.646h0a1.623,1.623,0,0,0,1.024,1.393l27.652,10.079a.692.692,0,0,0,1.024-.646h0A1.626,1.626,0,0,0,183.837,184.67Z" transform="translate(-155.161 -170.834)" fill="#1e394c"/>
        </g>
        <g id="Group_13043" data-name="Group 13043" transform="translate(24.46 120.107)">
          <path id="Path_68140" data-name="Path 68140" d="M177.423,205.873l-16.7-6.088a.694.694,0,0,0-1.025.647h0a1.625,1.625,0,0,0,1.025,1.393l16.7,6.088a.694.694,0,0,0,1.025-.647h0A1.625,1.625,0,0,0,177.423,205.873Z" transform="translate(-153.892 -199.719)" fill="#1e394c"/>
          <path id="Path_68141" data-name="Path 68141" d="M177.423,214.748l-16.7-6.087a.693.693,0,0,0-1.025.646h0a1.623,1.623,0,0,0,1.025,1.394l16.7,6.088a.694.694,0,0,0,1.025-.647h0A1.625,1.625,0,0,0,177.423,214.748Z" transform="translate(-153.892 -197.237)" fill="#1e394c"/>
          <path id="Path_68142" data-name="Path 68142" d="M183.837,212.748l-27.652-10.079a.693.693,0,0,0-1.024.646h0a1.623,1.623,0,0,0,1.024,1.394l27.652,10.081a.693.693,0,0,0,1.024-.648h0A1.626,1.626,0,0,0,183.837,212.748Z" transform="translate(-155.161 -198.912)" fill="#1e394c"/>
        </g>
      </g>
      <g id="Group_13046" data-name="Group 13046" transform="translate(0 36.543)">
        <path id="Path_68143" data-name="Path 68143" d="M138.717,280.078s-2.518-.9-2.841-6.458h-7.362l-.71,7.62,5.488,4.585,4.779-2.389Z" transform="translate(-93.354 -95.491)" fill="#f2bf75"/>
        <path id="Path_68144" data-name="Path 68144" d="M127.89,279.829s8.589,2.842,10.912-1.162c0,0,15.871,5.913,15.757,7.675-.182,2.793-13.3,3.367-16.209,2.656l-2.518-2.518-1.1,2.906H127.5S127.566,280.281,127.89,279.829Z" transform="translate(-93.439 -94.079)" fill="#1e394c"/>
        <path id="Path_68145" data-name="Path 68145" d="M117.257,280.226s-2.473-1.019-2.541-6.581l-7.354-.339-1.06,7.579,5.272,4.833,4.884-2.168Z" transform="translate(-99.367 -95.578)" fill="#f2bf75"/>
        <path id="Path_68146" data-name="Path 68146" d="M106.483,279.373s8.449,3.234,10.955-.659c0,0,13.889,5,14.687,7.3s-12.744,3.841-15.614,3l-2.4-2.631-1.231,2.852-7.225-.333S106.14,279.811,106.483,279.373Z" transform="translate(-99.547 -94.066)" fill="#1e394c"/>
        <path id="Path_68147" data-name="Path 68147" d="M102.421,210.539s4.778,19.373,5.941,22.6,3.616,18.986,3.745,19.5-5.424,41.07-5.424,41.07,7.491,1.679,10.461-.258l8.137-40.94-3.488-40.295Z" transform="translate(-100.452 -113.129)" fill="#1e394c"/>
        <path id="Path_68148" data-name="Path 68148" d="M103.229,210.748s7.36,12.593,13.948,18.21S131.9,249.686,131.9,249.686l.969,44.944h0a10.417,10.417,0,0,0,10.355.267l.494-.267s1.162-46.687.969-49.787S128.025,206.1,128.025,206.1Z" transform="translate(-100.226 -114.37)" fill="#1e394c"/>
        <path id="Path_68149" data-name="Path 68149" d="M130.6,148.264s-5.763,20.35-15.014,19.761c-8.1-.517-9.611-8.92-7.652-19.276,2.035-10.753,10.914-9.331,16.08-9.4,0,0,6.393,0,7.459-4.939,0,0,7.458,10.17-.873,13.851" transform="translate(-99.124 -134.414)" fill="#1e394c"/>
        <path id="Path_68150" data-name="Path 68150" d="M117.665,164.634s-11.277-2-16.5,22.075c-2.191,10.105,9.3,25.958,9.3,25.958l12.01-23.117Z" transform="translate(-100.879 -125.976)" fill="#8c173b"/>
        <path id="Path_68151" data-name="Path 68151" d="M150.993,157.516s4.262-11.72,4.262-14.916,2.421-.388,2.325,2.035a35.613,35.613,0,0,1-.678,5.134s3.292.29,3.292,1.84-1.065,6.974-2.614,7.845Z" transform="translate(-86.87 -132.526)" fill="#f2bf75"/>
        <path id="Path_68152" data-name="Path 68152" d="M123.935,169.248c7.49,3.853,23.537,13.948,27.219,10.654S165,153.943,165,153.943l6.587,1.937s-14.078,37.777-18.243,37.681-18.339-2.842-18.339-2.842-1.291,26.67-5.166,34.031c0,0-19.082,6.877-28.961,1.259a36.6,36.6,0,0,0,6.005-25.862C104.659,184.019,108.97,161.548,123.935,169.248Z" transform="translate(-100.882 -128.954)" fill="#8c173b"/>
        <g id="Group_13045" data-name="Group 13045" transform="translate(16.466 13.851)">
          <path id="Path_68153" data-name="Path 68153" d="M128.764,145.238a19.4,19.4,0,0,0,1.744,5.231,15.523,15.523,0,0,0,3.39,3.294l-1.84,2.324s1.356,8.137-7.264,9.687l-.871,8.04-9.784-3.294L113.75,165a6.624,6.624,0,0,0,1.7-3.488s-1.937-1.889-1.308-4.117,2.616-3.923,3.536-3.1a4.117,4.117,0,0,1,1.017,2.47h1.259s-.221-3.687.532-5.23A12.266,12.266,0,0,1,128.764,145.238Z" transform="translate(-113.75 -145.238)" fill="#e6a269"/>
          <path id="Path_68154" data-name="Path 68154" d="M122.494,173.813l.871-8.04c8.621-1.55,7.264-9.687,7.264-9.687l1.84-2.324a15.524,15.524,0,0,1-3.39-3.294,19.4,19.4,0,0,1-1.744-5.231c-.392.091-.749.214-1.112.331a28.8,28.8,0,0,1,1.693,7.122c.32,4.159-.338,8.857-6.157,12.4-1.973,1.2-2.687,4.457-2.9,7.5Z" transform="translate(-112.323 -145.238)" fill="#f2bf75"/>
        </g>
      </g>
      <path id="Path_68155" data-name="Path 68155" d="M123.83,236.045c-6.438-1.456-12.522-5.308-17.218-9.065-1.538-5.8-3.511-13.734-4.07-15.966a18.287,18.287,0,0,0,2.3.667c2.45,3.907,7.69,11.788,12.522,15.9a44.307,44.307,0,0,1,6.371,7.35Z" transform="translate(-100.418 -76.453)" fill="#0f2a3f"/>
    </g>
    <path id="Path_68156" data-name="Path 68156" d="M204.958,267.869c-.091-3.058-15.135-8.33-33.6-11.774s-33.363-3.756-33.272-.7,15.135,8.33,33.6,11.774S205.05,270.928,204.958,267.869Z" transform="translate(30.238 41.225)" fill="#ffdece" opacity="0.43"/>
    <g id="Group_13049" data-name="Group 13049" transform="translate(63.494 223.994)">
      <path id="Path_68157" data-name="Path 68157" d="M81.8,232.956s4.526-39.484-11.821-33.322C53.136,205.982,74.253,232.077,81.8,232.956Z" transform="translate(-54.076 -197.955)" fill="url(#linear-gradient)"/>
      <path id="Path_68158" data-name="Path 68158" d="M79.419,250.816S74.463,211.3,60.085,222.241C47.07,232.143,69.8,247.894,79.419,250.816Z" transform="translate(-56.162 -191.987)" fill="url(#linear-gradient)"/>
      <path id="Path_68159" data-name="Path 68159" d="M66.045,232.718c6.572,9.119,12.964,18.385,15,29.663.107.6,1.021.346.912-.252-2.052-11.348-8.474-20.7-15.1-29.889-.353-.49-1.175-.018-.818.479Z" transform="translate(-53.423 -188.714)" fill="#1e394c"/>
      <path id="Path_68160" data-name="Path 68160" d="M84.367,224.755s-5.911-29.047,9.053-26.406S88.139,223.372,84.367,224.755Z" transform="translate(-48.597 -198.179)" fill="url(#linear-gradient)"/>
      <path id="Path_68161" data-name="Path 68161" d="M85.282,246.032c-.761.508-1.509-24.52,9.053-23.64S99.993,236.224,85.282,246.032Z" transform="translate(-48.129 -191.415)" fill="url(#linear-gradient)"/>
      <path id="Path_68162" data-name="Path 68162" d="M81.824,249.213c-1.15-14.721,4.965-31.3,10.669-44.716.235-.554-.58-1.038-.818-.477-5.8,13.632-11.972,30.173-10.8,45.193.047.6.994.609.947,0Z" transform="translate(-49.292 -196.616)" fill="#1e394c"/>
      <path id="Path_68163" data-name="Path 68163" d="M85.444,264.784c-.76-17.266-2.282-34.8-11.954-49.644-.331-.509-1.152-.035-.818.477,9.591,14.722,11.071,32.05,11.825,49.166.027.607.974.61.947,0Z" transform="translate(-51.567 -193.498)" fill="#1e394c"/>
      <path id="Path_68164" data-name="Path 68164" d="M84.579,259.14c.39-9.084.994-18.155,5.994-26.037.328-.516-.491-.992-.818-.477-5.072,8-5.728,17.288-6.123,26.515-.027.61.921.609.947,0Z" transform="translate(-48.481 -188.61)" fill="#1e394c"/>
      <g id="Group_13048" data-name="Group 13048" transform="translate(19.43 66.374)">
        <path id="Path_68165" data-name="Path 68165" d="M71.359,252.32l2.458,22.256a5.49,5.49,0,0,0,5.458,4.888H93.463a5.49,5.49,0,0,0,5.458-4.888l2.458-22.256a2.044,2.044,0,0,0-2.032-2.27H73.391A2.045,2.045,0,0,0,71.359,252.32Z" transform="translate(-71.346 -250.05)" fill="url(#linear-gradient)"/>
        <path id="Path_68166" data-name="Path 68166" d="M96.48,250.05h-9a2.046,2.046,0,0,1,2.033,2.27l-2.458,22.256a5.491,5.491,0,0,1-5.459,4.888h9a5.49,5.49,0,0,0,5.458-4.888l2.458-22.256A2.044,2.044,0,0,0,96.48,250.05Z" transform="translate(-68.48 -250.05)" fill="url(#linear-gradient-7)"/>
      </g>
      <path id="Path_68167" data-name="Path 68167" d="M74.817,229.908c2.113,1.744,4.092,2.875,5.559,3.045,0,0,4.491-39.217-11.669-33.368C73.026,204.989,82.241,218.741,74.817,229.908Z" transform="translate(-52.654 -197.953)" fill="#0f2a3f" opacity="0.26"/>
      <path id="Path_68168" data-name="Path 68168" d="M95.246,222.476c.361,4.974.311,18.117-10.3,17.327-.177,3.648.077,6.371.333,6.2C99.55,236.49,104.592,224.022,95.246,222.476Z" transform="translate(-48.129 -191.386)" fill="#0f2a3f" opacity="0.26"/>
      <path id="Path_68169" data-name="Path 68169" d="M94.1,198.443c.329,5.149.252,19.432-10.742,18.858a67.521,67.521,0,0,0,.971,7.381C88.034,223.322,107.626,201.694,94.1,198.443Z" transform="translate(-48.558 -198.106)" fill="#34648c" opacity="0.42"/>
      <path id="Path_68170" data-name="Path 68170" d="M78.831,250.816S73.875,211.3,59.5,222.241a13.24,13.24,0,0,0-1.231,1.066c4.493,1.55,19.3,8.035,14.467,24.835A34.682,34.682,0,0,0,78.831,250.816Z" transform="translate(-55.573 -191.987)" fill="#34648c" opacity="0.42"/>
    </g>
  </g>
</svg>
