<svg xmlns="http://www.w3.org/2000/svg" xmlns:xlink="http://www.w3.org/1999/xlink" width="209" height="213.484" viewBox="0 0 209 213.484">
  <defs>
    <linearGradient id="linear-gradient" x1="0.04" y1="0.525" x2="1" y2="0.525" gradientUnits="objectBoundingBox">
      <stop offset="0" stop-color="#ee611c"/>
      <stop offset="1" stop-color="#be5521"/>
    </linearGradient>
    <linearGradient id="linear-gradient-2" x1="0.04" y1="0.525" x2="1" y2="0.525" gradientUnits="objectBoundingBox">
      <stop offset="0" stop-color="#ee611c"/>
      <stop offset="1" stop-color="#ff905a"/>
    </linearGradient>
    <linearGradient id="linear-gradient-7" x1="0.04" y1="0.525" x2="1" y2="0.525" gradientUnits="objectBoundingBox">
      <stop offset="0" stop-color="#ee611c"/>
      <stop offset="1" stop-color="#d5794c"/>
    </linearGradient>
  </defs>
  <g id="Group_13203" data-name="Group 13203" transform="translate(-299.854 -131.332)">
    <ellipse id="Ellipse_65" data-name="Ellipse 65" cx="100.41" cy="17.177" rx="100.41" ry="17.177" transform="translate(302.658 310.461)" fill="#ffe0d1" opacity="0.56"/>
    <path id="Path_68292" data-name="Path 68292" d="M393.134,315.665c-35.215-7.415-62.05-33.472-77.6-75.352a218.143,218.143,0,0,1-12.644-58.6l-.6-11.942,94.156-33.28,94.156,33.28-.6,11.942a218.152,218.152,0,0,1-12.644,58.6c-15.554,41.88-42.389,67.937-77.6,75.352l-3.3.7Z" transform="translate(0.829 1.762)" fill="url(#linear-gradient)"/>
    <path id="Path_68293" data-name="Path 68293" d="M466.034,177.617l-74.577-26.36h0l-74.578,26.36s5.05,99.884,74.578,114.526h0C460.984,277.5,466.034,177.617,466.034,177.617Z" transform="translate(5.811 6.801)" fill="#ffe3d5"/>
    <g id="Group_13192" data-name="Group 13192" transform="translate(389.26 205.113)">
      <path id="Path_68294" data-name="Path 68294" d="M372.339,249.959l34.2-4.885H436.6l26.868,5.261-46.22,23.3Z" transform="translate(-364.517 -166.287)" fill="#404040"/>
      <path id="Path_68295" data-name="Path 68295" d="M437.1,273.313s-60.5-33.256-67.639-22.359c-10.314,15.743,5.448,23.674,61.627,38.7Z" transform="translate(-366.508 -165.028)" fill="#1e394c"/>
      <g id="Group_13187" data-name="Group 13187" transform="translate(64.038 109.856)">
        <path id="Path_68296" data-name="Path 68296" d="M437.483,283.285h0a7.09,7.09,0,0,0-3.839-9.263l-13.97-5.785-5.424,13.1,13.97,5.784A7.09,7.09,0,0,0,437.483,283.285Z" transform="translate(-414.249 -268.236)" fill="#404040"/>
        <path id="Path_68297" data-name="Path 68297" d="M418.572,269.811l10.57,4.377a4.8,4.8,0,1,1-3.677,8.877l-10.57-4.377Z" transform="translate(-414.028 -267.698)" fill="#dbdbdb"/>
        <path id="Path_68298" data-name="Path 68298" d="M415.164,276.356l13.97,5.785a7.077,7.077,0,0,0,8.695-2.781,6.988,6.988,0,0,1-9.609,4.99l-13.97-5.784Z" transform="translate(-414.249 -265.464)" fill="#bbb" opacity="0.45"/>
        <path id="Path_68299" data-name="Path 68299" d="M418.389,277.976l2.232-5.394a.536.536,0,0,1,.7-.288h0a.535.535,0,0,1,.288.7l-2.233,5.392a.535.535,0,0,1-.7.29h0A.535.535,0,0,1,418.389,277.976Z" transform="translate(-412.849 -266.864)" fill="#bbb"/>
        <path id="Path_68300" data-name="Path 68300" d="M420.84,278.991l2.233-5.394a.535.535,0,0,1,.7-.288h0a.536.536,0,0,1,.29.7l-2.233,5.394a.535.535,0,0,1-.7.288h0A.536.536,0,0,1,420.84,278.991Z" transform="translate(-412.013 -266.518)" fill="#bbb"/>
        <path id="Path_68301" data-name="Path 68301" d="M423.537,280.108l2.233-5.394a.537.537,0,0,1,.7-.29h0a.537.537,0,0,1,.29.7l-2.233,5.394a.535.535,0,0,1-.7.29h0A.535.535,0,0,1,423.537,280.108Z" transform="translate(-411.092 -266.137)" fill="#bbb"/>
      </g>
      <path id="Path_68302" data-name="Path 68302" d="M455.494,241.827c-.93-3.2-5.56-8.609-9.677-19.708-4.279-11.54-22.516-12.783-22.516-12.783l-7.08,3.789-7.08-3.789s-18.237,1.243-22.517,12.783c-4.115,11.1-8.746,16.512-9.677,19.708s4.094,23.88,18.516,26.808h41.515C451.4,265.707,456.425,245.022,455.494,241.827Z" transform="translate(-362.98 -178.486)" fill="#8c173b"/>
      <g id="Group_13190" data-name="Group 13190" transform="translate(38.879)">
        <g id="Group_13188" data-name="Group 13188" transform="translate(7.325 30.924)">
          <path id="Path_68303" data-name="Path 68303" d="M415.86,209.391v5.674s-1.309,6.335-7.481,7.39a9.631,9.631,0,0,1-7.426-7.39v-5.674Z" transform="translate(-400.954 -209.391)" fill="#e6a269"/>
        </g>
        <g id="Group_13189" data-name="Group 13189">
          <path id="Path_68304" data-name="Path 68304" d="M396.051,206.119s-2.11-13.258,2.934-14.869c1.374-.439.37-4.817,8.047-4.87,10.481-.074,18.74-1.482,17.364,19.922Z" transform="translate(-395.452 -186.337)" fill="#404040"/>
          <path id="Path_68305" data-name="Path 68305" d="M402.736,203.1a3.622,3.622,0,1,0-3.622,3.622A3.621,3.621,0,0,0,402.736,203.1Z" transform="translate(-395.493 -181.851)" fill="#e6a269"/>
          <path id="Path_68306" data-name="Path 68306" d="M419.182,203.1a3.622,3.622,0,1,0-3.622,3.622A3.621,3.621,0,0,0,419.182,203.1Z" transform="translate(-389.879 -181.851)" fill="#e6a269"/>
          <path id="Path_68307" data-name="Path 68307" d="M421.535,198.829l-.019-.007v0h-.008a5.707,5.707,0,0,1-3.589-4.807l-1.585.445a24.222,24.222,0,0,1-13.411-.127l-1.265-.318a5.752,5.752,0,0,1-3.749,4.807h-.029l-.1,5.868a19.608,19.608,0,0,0,3.75,10.759,10.089,10.089,0,0,0,16.242,0,19.606,19.606,0,0,0,3.749-10.759l0-5.843Z" transform="translate(-394.713 -183.717)" fill="#e6a269"/>
        </g>
      </g>
      <rect id="Rectangle_730" data-name="Rectangle 730" width="45.844" height="30.563" rx="2.866" transform="translate(30.687 63.694)" fill="#ee611c"/>
      <path id="Path_68341" data-name="Path 68341" d="M4.76,0A4.76,4.76,0,1,1,0,4.76,4.76,4.76,0,0,1,4.76,0Z" transform="translate(48.708 73.902)" fill="#fff"/>
      <path id="Path_68308" data-name="Path 68308" d="M392.37,273.313s60.5-33.256,67.639-22.359c10.314,15.743-5.45,23.674-61.627,38.7Z" transform="translate(-357.68 -165.028)" fill="#1e394c"/>
      <g id="Group_13191" data-name="Group 13191" transform="translate(17.473 109.856)">
        <path id="Path_68309" data-name="Path 68309" d="M380.076,283.285h0a7.089,7.089,0,0,1,3.839-9.263l13.969-5.785,5.426,13.1-13.97,5.784A7.09,7.09,0,0,1,380.076,283.285Z" transform="translate(-379.534 -268.236)" fill="#404040"/>
        <path id="Path_68310" data-name="Path 68310" d="M401,278.688l-10.57,4.377a4.8,4.8,0,1,1-3.677-8.877l10.57-4.377Z" transform="translate(-378.087 -267.698)" fill="#bbb"/>
        <path id="Path_68311" data-name="Path 68311" d="M402.345,276.356l-13.97,5.785a7.077,7.077,0,0,1-8.695-2.781,7,7,0,0,0,.346,1.152,7.09,7.09,0,0,0,9.263,3.838l13.97-5.784Z" transform="translate(-379.485 -265.464)" fill="#404040" opacity="0.45"/>
        <path id="Path_68312" data-name="Path 68312" d="M393.959,277.976l-2.233-5.394a.535.535,0,0,0-.7-.288h0a.534.534,0,0,0-.288.7l2.233,5.392a.534.534,0,0,0,.7.29h0A.535.535,0,0,0,393.959,277.976Z" transform="translate(-375.723 -266.864)" fill="#404040"/>
        <path id="Path_68313" data-name="Path 68313" d="M391.507,278.991l-2.232-5.394a.535.535,0,0,0-.7-.288h0a.534.534,0,0,0-.29.7l2.233,5.394a.535.535,0,0,0,.7.288h0A.535.535,0,0,0,391.507,278.991Z" transform="translate(-376.56 -266.518)" fill="#404040"/>
        <path id="Path_68314" data-name="Path 68314" d="M388.811,280.108l-2.233-5.394a.537.537,0,0,0-.7-.29h0a.535.535,0,0,0-.29.7l2.233,5.394a.535.535,0,0,0,.7.29h0A.537.537,0,0,0,388.811,280.108Z" transform="translate(-377.481 -266.137)" fill="#404040"/>
      </g>
    </g>
    <g id="Group_13197" data-name="Group 13197" transform="translate(299.854 211.464)">
      <g id="Group_13195" data-name="Group 13195">
        <g id="Group_13193" data-name="Group 13193" transform="translate(19.765 5.935)">
          <path id="Path_68315" data-name="Path 68315" d="M326.609,267.3s-16.028-25.588-11.067-29.3,9.824,11.355,12.362,8.939-8.842-23.932-3.469-28.56,4.972,11.085,9.536,14-2.469-21.412,2.991-25.213,8.091,8.3,8.091,8.3,6.055-24.093,14.2-19.37-12.483,28.981-7.64,28.15,9.817-9.019,14.018-3.5-23.311,19.564-18.9,19.2,12.225-5.832,13.581-.956-22.324,13.671-19.871,15.358,14.831-7.871,16.783-.834S331.525,271.781,326.609,267.3Z" transform="translate(-314.589 -195.497)" fill="url(#linear-gradient-2)"/>
          <path id="Path_68316" data-name="Path 68316" d="M322.1,274.959a83.632,83.632,0,0,0,7.414-16.087c1.014-2.986,1.879-6.076,2.718-9.065.382-1.361.763-2.723,1.16-4.079a197.538,197.538,0,0,1,18.547-43.391l.313.181a197.253,197.253,0,0,0-18.513,43.311c-.4,1.356-.778,2.716-1.159,4.075-.838,2.994-1.706,6.088-2.723,9.084a84.081,84.081,0,0,1-7.446,16.158Z" transform="translate(-312.025 -193.162)" fill="#ee611c"/>
          <path id="Path_68317" data-name="Path 68317" d="M336.075,225.577a.181.181,0,0,1-.068-.094,81.9,81.9,0,0,1-3.624-16.98.181.181,0,0,1,.359-.036,81.672,81.672,0,0,0,3.607,16.905.181.181,0,0,1-.115.228A.187.187,0,0,1,336.075,225.577Z" transform="translate(-308.515 -191.125)" fill="#ee611c"/>
          <path id="Path_68318" data-name="Path 68318" d="M333.476,229.209a.214.214,0,0,1-.044-.042.182.182,0,0,1,.04-.252,142.458,142.458,0,0,1,15.613-10.382,13.714,13.714,0,0,1,3.28-1.4.18.18,0,0,1,.085.35,13.448,13.448,0,0,0-3.192,1.366,142.3,142.3,0,0,0-15.573,10.355A.179.179,0,0,1,333.476,229.209Z" transform="translate(-308.168 -188.112)" fill="#ee611c"/>
          <path id="Path_68319" data-name="Path 68319" d="M333.3,239.807a.207.207,0,0,1-.048-.048,72.986,72.986,0,0,1-6.656-11.922,92.382,92.382,0,0,1-3.206-9.575.18.18,0,0,1,.346-.1,92.185,92.185,0,0,0,3.192,9.537,72.592,72.592,0,0,0,6.624,11.86.181.181,0,0,1-.252.249Z" transform="translate(-311.586 -187.805)" fill="url(#linear-gradient-2)"/>
          <path id="Path_68320" data-name="Path 68320" d="M330.76,235.829a.18.18,0,0,1,.164-.318,3.081,3.081,0,0,0,1.619.011,27.319,27.319,0,0,0,4.28-1.328c.259-.1.516-.192.775-.286,4.094-1.5,8.367-2.636,12.5-3.738a.18.18,0,0,1,.092.349c-4.125,1.1-8.391,2.239-12.471,3.728l-.773.286a27.435,27.435,0,0,1-4.339,1.344,3.455,3.455,0,0,1-1.809-.025A.145.145,0,0,1,330.76,235.829Z" transform="translate(-309.096 -183.663)" fill="#ee611c"/>
          <path id="Path_68321" data-name="Path 68321" d="M330.916,249.955c-4.79-3.294-10.28-12.17-13.526-18.771a.18.18,0,0,1,.323-.158c3.227,6.561,8.674,15.377,13.407,18.631a.18.18,0,1,1-.2.3Z" transform="translate(-313.639 -183.403)" fill="url(#linear-gradient-2)"/>
          <path id="Path_68322" data-name="Path 68322" d="M327.749,246.5c-.043-.03-.085-.062-.126-.1a.181.181,0,0,1,.229-.279,3.04,3.04,0,0,0,2.692.1l17.482-4.787a.18.18,0,1,1,.1.347l-17.482,4.787A3.489,3.489,0,0,1,327.749,246.5Z" transform="translate(-310.162 -179.814)" fill="#ee611c"/>
        </g>
        <g id="Group_13194" data-name="Group 13194">
          <path id="Path_68323" data-name="Path 68323" d="M329.51,268.346s-27.742-12.019-25.754-17.892,14.55,3.795,15.271.361-20.874-14.729-19.066-21.6,10.391,6.326,15.813,6.145-14.187-16.265-11.837-22.5,11.385,2.26,11.385,2.26-8.674-23.314.723-24.037,6.145,30.995,9.67,27.561,2.982-13.012,9.579-10.843-8.133,29.369-4.7,26.567,6.776-11.748,10.662-8.493-10.662,23.946-7.681,23.946,7.772-14.91,13.373-10.21S336.107,269.25,329.51,268.346Z" transform="translate(-299.854 -191.072)" fill="url(#linear-gradient-2)"/>
          <path id="Path_68324" data-name="Path 68324" d="M329.214,275.213a83.722,83.722,0,0,0-3.013-17.479c-.857-3.039-1.9-6.082-2.9-9.022-.457-1.34-.915-2.679-1.357-4.024a197.716,197.716,0,0,1-9.317-46.325l.359-.028a197.491,197.491,0,0,0,9.3,46.24c.443,1.343.9,2.681,1.357,4.02,1.006,2.946,2.046,5.992,2.907,9.039a84.178,84.178,0,0,1,3.025,17.556Z" transform="translate(-295.494 -188.593)" fill="#9f4b22"/>
          <path id="Path_68325" data-name="Path 68325" d="M318.971,222.255a.189.189,0,0,1-.11-.036,82.048,82.048,0,0,1-12.623-11.955.18.18,0,1,1,.275-.233,81.692,81.692,0,0,0,12.568,11.9.18.18,0,0,1,.034.254A.177.177,0,0,1,318.971,222.255Z" transform="translate(-297.689 -184.622)" fill="#d1612b"/>
          <path id="Path_68326" data-name="Path 68326" d="M317.192,229.447a.189.189,0,0,1-.06-.009.181.181,0,0,1-.11-.231,142.678,142.678,0,0,1,6.991-17.424,13.808,13.808,0,0,1,1.913-3.015.183.183,0,0,1,.256-.013.18.18,0,0,1,.013.255,13.4,13.4,0,0,0-1.859,2.938,142.425,142.425,0,0,0-6.974,17.38A.181.181,0,0,1,317.192,229.447Z" transform="translate(-293.997 -185.052)" fill="#d1612b"/>
          <path id="Path_68327" data-name="Path 68327" d="M324.76,235.569a.191.191,0,0,1-.067-.012,73.061,73.061,0,0,1-12.257-6.06,92.888,92.888,0,0,1-8.078-6.08.182.182,0,0,1-.026-.255.179.179,0,0,1,.254-.025,92.5,92.5,0,0,0,8.045,6.058,72.828,72.828,0,0,0,12.2,6.028.18.18,0,0,1-.067.347Z" transform="translate(-298.339 -180.141)" fill="#d1612b"/>
          <path id="Path_68328" data-name="Path 68328" d="M319.633,236.516a.181.181,0,0,1-.046-.355,3.084,3.084,0,0,0,1.343-.911,27.19,27.19,0,0,0,2.778-3.524l.478-.676c2.53-3.556,5.41-6.921,8.193-10.177a.181.181,0,0,1,.275.235c-2.779,3.249-5.652,6.609-8.174,10.151l-.475.675a27.451,27.451,0,0,1-2.818,3.571,3.455,3.455,0,0,1-1.508,1.006A.176.176,0,0,1,319.633,236.516Z" transform="translate(-293.164 -180.921)" fill="#d1612b"/>
          <path id="Path_68329" data-name="Path 68329" d="M328.548,245.3c-5.821,0-15.388-4.208-21.812-7.812a.181.181,0,0,1,.178-.315c6.385,3.583,15.882,7.765,21.633,7.765a.181.181,0,0,1,0,.362Z" transform="translate(-297.536 -175.344)" fill="#d1612b"/>
          <path id="Path_68330" data-name="Path 68330" d="M323.305,247.184c-.052,0-.1,0-.158-.008a.18.18,0,0,1-.165-.195.184.184,0,0,1,.2-.165c.871.067,1.611-.649,2.28-1.442l11.707-13.87a.18.18,0,1,1,.276.232l-11.707,13.87A3.5,3.5,0,0,1,323.305,247.184Z" transform="translate(-291.959 -177.292)" fill="#d1612b"/>
        </g>
      </g>
      <g id="Group_13196" data-name="Group 13196" transform="translate(12.96 73.667)">
        <path id="Path_68331" data-name="Path 68331" d="M312.81,251.872l4.429,27.416a8.028,8.028,0,0,0,7.923,6.746h13.5a8.028,8.028,0,0,0,7.923-6.746l4.429-27.416Z" transform="translate(-308.392 -243.985)" fill="url(#linear-gradient-2)"/>
        <path id="Path_68332" data-name="Path 68332" d="M351.012,251.872h-38.2l.613,3.8h29.452l-3.816,23.617a8.026,8.026,0,0,1-7.923,6.746h7.524a8.026,8.026,0,0,0,7.923-6.746l3.816-23.617h0Z" transform="translate(-308.392 -243.985)" fill="url(#linear-gradient-7)"/>
        <path id="Path_68333" data-name="Path 68333" d="M352.563,245.992H313.508a4,4,0,0,0-3.992,3.992h0a4,4,0,0,0,3.992,3.992h39.055a4,4,0,0,0,3.992-3.992h0A4,4,0,0,0,352.563,245.992Z" transform="translate(-309.516 -245.992)" fill="url(#linear-gradient-2)"/>
      </g>
    </g>
    <g id="Group_13200" data-name="Group 13200" transform="translate(422.113 170.809)">
      <rect id="Rectangle_731" data-name="Rectangle 731" width="86.741" height="26.793" rx="3.02" fill="#8c173b"/>
      <g id="Group_13198" data-name="Group 13198" transform="translate(6.287 3.768)">
        <rect id="Rectangle_732" data-name="Rectangle 732" width="14.174" height="10.761" rx="1.255" transform="translate(0 8.237)" fill="#fff"/>
        <path id="Path_68334" data-name="Path 68334" d="M407.12,170.591h-1.336v-2.118a3.566,3.566,0,0,0-7.132,0v2.118h-1.337v-2.118a4.9,4.9,0,0,1,9.805,0Z" transform="translate(-395.131 -163.572)" fill="#fff"/>
        <path id="Path_68335" data-name="Path 68335" d="M402.846,173.047a1.495,1.495,0,1,0-2.232,1.293l-.516,2.946H402.6l-.516-2.946A1.487,1.487,0,0,0,402.846,173.047Z" transform="translate(-394.264 -160.848)" fill="#fff"/>
      </g>
      <g id="Group_13199" data-name="Group 13199" transform="translate(33.712 11.746)">
        <circle id="Ellipse_67" data-name="Ellipse 67" cx="2.453" cy="2.453" r="2.453" fill="#fff"/>
        <circle id="Ellipse_68" data-name="Ellipse 68" cx="2.453" cy="2.453" r="2.453" transform="translate(9.361)" fill="#fff"/>
        <path id="Path_68336" data-name="Path 68336" d="M435,171.972a2.453,2.453,0,1,1-2.452-2.452A2.453,2.453,0,0,1,435,171.972Z" transform="translate(-411.368 -169.52)" fill="#fff"/>
        <path id="Path_68337" data-name="Path 68337" d="M441.974,171.972a2.453,2.453,0,1,1-2.453-2.452A2.454,2.454,0,0,1,441.974,171.972Z" transform="translate(-408.986 -169.52)" fill="#fff"/>
        <path id="Path_68338" data-name="Path 68338" d="M448.952,171.972a2.452,2.452,0,1,1-2.452-2.452A2.452,2.452,0,0,1,448.952,171.972Z" transform="translate(-406.604 -169.52)" fill="#fff"/>
      </g>
    </g>
    <g id="Group_13202" data-name="Group 13202" transform="translate(311.812 131.331)">
      <rect id="Rectangle_733" data-name="Rectangle 733" width="68.049" height="41.017" rx="3.118" fill="url(#linear-gradient-2)"/>
      <rect id="Rectangle_734" data-name="Rectangle 734" width="68.049" height="9.235" transform="translate(0 11.438)" fill="#fbf5f2"/>
      <g id="Group_13201" data-name="Group 13201" transform="translate(44.305 26.038)">
        <path id="Path_68339" data-name="Path 68339" d="M360.269,150.743H343.339a1.539,1.539,0,0,0-1.54,1.539h0a1.54,1.54,0,0,0,1.54,1.54h16.931a1.539,1.539,0,0,0,1.539-1.54h0A1.538,1.538,0,0,0,360.269,150.743Z" transform="translate(-341.799 -150.743)" fill="#fbf5f2"/>
        <path id="Path_68340" data-name="Path 68340" d="M357.919,155.23h-7.7a1.54,1.54,0,0,0-1.54,1.539h0a1.54,1.54,0,0,0,1.54,1.54h7.7a1.539,1.539,0,0,0,1.539-1.54h0A1.539,1.539,0,0,0,357.919,155.23Z" transform="translate(-339.449 -149.211)" fill="#fbf5f2"/>
      </g>
    </g>
  </g>
</svg>
